%TF.GenerationSoftware,KiCad,Pcbnew,7.0.2*%
%TF.CreationDate,2025-02-12T15:24:12+00:00*%
%TF.ProjectId,fretboard,66726574-626f-4617-9264-2e6b69636164,rev?*%
%TF.SameCoordinates,Original*%
%TF.FileFunction,Soldermask,Top*%
%TF.FilePolarity,Negative*%
%FSLAX46Y46*%
G04 Gerber Fmt 4.6, Leading zero omitted, Abs format (unit mm)*
G04 Created by KiCad (PCBNEW 7.0.2) date 2025-02-12 15:24:12*
%MOMM*%
%LPD*%
G01*
G04 APERTURE LIST*
G04 Aperture macros list*
%AMRoundRect*
0 Rectangle with rounded corners*
0 $1 Rounding radius*
0 $2 $3 $4 $5 $6 $7 $8 $9 X,Y pos of 4 corners*
0 Add a 4 corners polygon primitive as box body*
4,1,4,$2,$3,$4,$5,$6,$7,$8,$9,$2,$3,0*
0 Add four circle primitives for the rounded corners*
1,1,$1+$1,$2,$3*
1,1,$1+$1,$4,$5*
1,1,$1+$1,$6,$7*
1,1,$1+$1,$8,$9*
0 Add four rect primitives between the rounded corners*
20,1,$1+$1,$2,$3,$4,$5,0*
20,1,$1+$1,$4,$5,$6,$7,0*
20,1,$1+$1,$6,$7,$8,$9,0*
20,1,$1+$1,$8,$9,$2,$3,0*%
G04 Aperture macros list end*
%ADD10R,2.100000X2.100000*%
%ADD11RoundRect,0.200000X-0.200000X-0.275000X0.200000X-0.275000X0.200000X0.275000X-0.200000X0.275000X0*%
%ADD12RoundRect,0.200000X0.275000X-0.200000X0.275000X0.200000X-0.275000X0.200000X-0.275000X-0.200000X0*%
%ADD13RoundRect,0.243750X0.456250X-0.243750X0.456250X0.243750X-0.456250X0.243750X-0.456250X-0.243750X0*%
%ADD14RoundRect,0.150000X-0.825000X-0.150000X0.825000X-0.150000X0.825000X0.150000X-0.825000X0.150000X0*%
%ADD15RoundRect,0.212500X1.087500X-0.212500X1.087500X0.212500X-1.087500X0.212500X-1.087500X-0.212500X0*%
%ADD16RoundRect,0.216667X0.733333X-0.433333X0.733333X0.433333X-0.733333X0.433333X-0.733333X-0.433333X0*%
%ADD17C,2.200000*%
G04 APERTURE END LIST*
D10*
%TO.C,J10*%
X18550000Y-70700000D03*
X14350000Y-70700000D03*
%TD*%
%TO.C,J19*%
X40250000Y-103100000D03*
X36050000Y-103100000D03*
%TD*%
D11*
%TO.C,R28*%
X32175000Y-154000000D03*
X33825000Y-154000000D03*
%TD*%
D12*
%TO.C,R31*%
X32000000Y-168825000D03*
X32000000Y-167175000D03*
%TD*%
D11*
%TO.C,R25*%
X28175000Y-152000000D03*
X29825000Y-152000000D03*
%TD*%
%TO.C,R8*%
X32175000Y-63000000D03*
X33825000Y-63000000D03*
%TD*%
D10*
%TO.C,J2*%
X5000000Y-36400000D03*
X800000Y-36400000D03*
%TD*%
D11*
%TO.C,R13*%
X28175000Y-94000000D03*
X29825000Y-94000000D03*
%TD*%
D10*
%TO.C,J22*%
X18350000Y-133600000D03*
X14150000Y-133600000D03*
%TD*%
%TO.C,J8*%
X4450000Y-70700000D03*
X250000Y-70700000D03*
%TD*%
%TO.C,J15*%
X11150000Y-103100000D03*
X6950000Y-103100000D03*
%TD*%
%TO.C,J20*%
X3450000Y-133600000D03*
X-750000Y-133600000D03*
%TD*%
%TO.C,J31*%
X36900000Y-162500000D03*
X41100000Y-162500000D03*
%TD*%
%TO.C,J25*%
X40750000Y-133600000D03*
X36550000Y-133600000D03*
%TD*%
D13*
%TO.C,D1*%
X34000000Y-168937500D03*
X34000000Y-167062500D03*
%TD*%
D10*
%TO.C,J27*%
X6500000Y-162500000D03*
X10700000Y-162500000D03*
%TD*%
%TO.C,J28*%
X14100000Y-162500000D03*
X18300000Y-162500000D03*
%TD*%
D11*
%TO.C,R2*%
X32175000Y-44000000D03*
X33825000Y-44000000D03*
%TD*%
D10*
%TO.C,J30*%
X29300000Y-162500000D03*
X33500000Y-162500000D03*
%TD*%
%TO.C,J4*%
X18650000Y-36400000D03*
X14450000Y-36400000D03*
%TD*%
D11*
%TO.C,R10*%
X32175000Y-77100000D03*
X33825000Y-77100000D03*
%TD*%
%TO.C,R20*%
X32175000Y-124000000D03*
X33825000Y-124000000D03*
%TD*%
D10*
%TO.C,J26*%
X-1100000Y-162500000D03*
X3100000Y-162500000D03*
%TD*%
D11*
%TO.C,R27*%
X28175000Y-154000000D03*
X29825000Y-154000000D03*
%TD*%
%TO.C,R4*%
X32175000Y-46000000D03*
X33825000Y-46000000D03*
%TD*%
%TO.C,R12*%
X32175000Y-79000000D03*
X33825000Y-79000000D03*
%TD*%
D14*
%TO.C,U2*%
X28525000Y-82555000D03*
X28525000Y-83825000D03*
X28525000Y-85095000D03*
X28525000Y-86365000D03*
X28525000Y-87635000D03*
X28525000Y-88905000D03*
X28525000Y-90175000D03*
X28525000Y-91445000D03*
X33475000Y-91445000D03*
X33475000Y-90175000D03*
X33475000Y-88905000D03*
X33475000Y-87635000D03*
X33475000Y-86365000D03*
X33475000Y-85095000D03*
X33475000Y-83825000D03*
X33475000Y-82555000D03*
%TD*%
D10*
%TO.C,J24*%
X33300000Y-133600000D03*
X29100000Y-133600000D03*
%TD*%
%TO.C,J6*%
X32350000Y-36400000D03*
X28150000Y-36400000D03*
%TD*%
%TO.C,J7*%
X39200000Y-36400000D03*
X35000000Y-36400000D03*
%TD*%
%TO.C,J23*%
X25800000Y-133600000D03*
X21600000Y-133600000D03*
%TD*%
D11*
%TO.C,R17*%
X28175000Y-109000000D03*
X29825000Y-109000000D03*
%TD*%
%TO.C,R3*%
X28175000Y-46000000D03*
X29825000Y-46000000D03*
%TD*%
D10*
%TO.C,J5*%
X25550000Y-36400000D03*
X21350000Y-36400000D03*
%TD*%
%TO.C,J21*%
X10900000Y-133600000D03*
X6700000Y-133600000D03*
%TD*%
D14*
%TO.C,U1*%
X28525000Y-51555000D03*
X28525000Y-52825000D03*
X28525000Y-54095000D03*
X28525000Y-55365000D03*
X28525000Y-56635000D03*
X28525000Y-57905000D03*
X28525000Y-59175000D03*
X28525000Y-60445000D03*
X33475000Y-60445000D03*
X33475000Y-59175000D03*
X33475000Y-57905000D03*
X33475000Y-56635000D03*
X33475000Y-55365000D03*
X33475000Y-54095000D03*
X33475000Y-52825000D03*
X33475000Y-51555000D03*
%TD*%
D11*
%TO.C,R29*%
X28175000Y-156000000D03*
X29825000Y-156000000D03*
%TD*%
%TO.C,R21*%
X28175000Y-126000000D03*
X29825000Y-126000000D03*
%TD*%
D10*
%TO.C,J18*%
X33050000Y-103100000D03*
X28850000Y-103100000D03*
%TD*%
D11*
%TO.C,R9*%
X28175000Y-77100000D03*
X29825000Y-77100000D03*
%TD*%
%TO.C,R26*%
X32175000Y-152000000D03*
X33825000Y-152000000D03*
%TD*%
%TO.C,R11*%
X28175000Y-79000000D03*
X29825000Y-79000000D03*
%TD*%
%TO.C,R16*%
X32175000Y-96000000D03*
X33825000Y-96000000D03*
%TD*%
%TO.C,R1*%
X28175000Y-44000000D03*
X29825000Y-44000000D03*
%TD*%
%TO.C,R18*%
X32175000Y-109000000D03*
X33825000Y-109000000D03*
%TD*%
D10*
%TO.C,J12*%
X32850000Y-70700000D03*
X28650000Y-70700000D03*
%TD*%
D11*
%TO.C,R7*%
X28175000Y-63000000D03*
X29825000Y-63000000D03*
%TD*%
%TO.C,R23*%
X28175000Y-128000000D03*
X29825000Y-128000000D03*
%TD*%
%TO.C,R15*%
X28175000Y-96000000D03*
X29825000Y-96000000D03*
%TD*%
%TO.C,R24*%
X32175000Y-128000000D03*
X33825000Y-128000000D03*
%TD*%
D10*
%TO.C,J11*%
X25700000Y-70700000D03*
X21500000Y-70700000D03*
%TD*%
D11*
%TO.C,R5*%
X28175000Y-48000000D03*
X29825000Y-48000000D03*
%TD*%
%TO.C,R30*%
X32175000Y-156000000D03*
X33825000Y-156000000D03*
%TD*%
D14*
%TO.C,U3*%
X28525000Y-111555000D03*
X28525000Y-112825000D03*
X28525000Y-114095000D03*
X28525000Y-115365000D03*
X28525000Y-116635000D03*
X28525000Y-117905000D03*
X28525000Y-119175000D03*
X28525000Y-120445000D03*
X33475000Y-120445000D03*
X33475000Y-119175000D03*
X33475000Y-117905000D03*
X33475000Y-116635000D03*
X33475000Y-115365000D03*
X33475000Y-114095000D03*
X33475000Y-112825000D03*
X33475000Y-111555000D03*
%TD*%
D10*
%TO.C,J3*%
X11850000Y-36400000D03*
X7650000Y-36400000D03*
%TD*%
%TO.C,J16*%
X18450000Y-103100000D03*
X14250000Y-103100000D03*
%TD*%
D11*
%TO.C,R22*%
X32175000Y-126000000D03*
X33825000Y-126000000D03*
%TD*%
D10*
%TO.C,J9*%
X11350000Y-70700000D03*
X7150000Y-70700000D03*
%TD*%
%TO.C,J17*%
X25750000Y-103100000D03*
X21550000Y-103100000D03*
%TD*%
%TO.C,J14*%
X3950000Y-103100000D03*
X-250000Y-103100000D03*
%TD*%
D11*
%TO.C,R14*%
X32175000Y-94000000D03*
X33825000Y-94000000D03*
%TD*%
%TO.C,R19*%
X28175000Y-124000000D03*
X29825000Y-124000000D03*
%TD*%
D15*
%TO.C,J1*%
X34800000Y-173000000D03*
X34800000Y-174500000D03*
X34800000Y-176000000D03*
X34800000Y-177500000D03*
X34800000Y-179000000D03*
D16*
X38400000Y-181000000D03*
X38400000Y-171000000D03*
%TD*%
D10*
%TO.C,J13*%
X39750000Y-70700000D03*
X35550000Y-70700000D03*
%TD*%
%TO.C,J29*%
X21700000Y-162500000D03*
X25900000Y-162500000D03*
%TD*%
D11*
%TO.C,R6*%
X32175000Y-48000000D03*
X33825000Y-48000000D03*
%TD*%
D14*
%TO.C,U4*%
X28525000Y-139555000D03*
X28525000Y-140825000D03*
X28525000Y-142095000D03*
X28525000Y-143365000D03*
X28525000Y-144635000D03*
X28525000Y-145905000D03*
X28525000Y-147175000D03*
X28525000Y-148445000D03*
X33475000Y-148445000D03*
X33475000Y-147175000D03*
X33475000Y-145905000D03*
X33475000Y-144635000D03*
X33475000Y-143365000D03*
X33475000Y-142095000D03*
X33475000Y-140825000D03*
X33475000Y-139555000D03*
%TD*%
D17*
%TO.C,H5*%
X1200000Y-148100000D03*
%TD*%
%TO.C,H2*%
X37200000Y-18200000D03*
%TD*%
%TO.C,H3*%
X1900000Y-86900000D03*
%TD*%
%TO.C,H1*%
X2800000Y-18200000D03*
%TD*%
%TO.C,H4*%
X38000000Y-86900000D03*
%TD*%
%TO.C,H6*%
X38800000Y-148100000D03*
%TD*%
M02*
