%TF.GenerationSoftware,KiCad,Pcbnew,7.0.2*%
%TF.CreationDate,2025-02-12T15:24:12+00:00*%
%TF.ProjectId,fretboard,66726574-626f-4617-9264-2e6b69636164,rev?*%
%TF.SameCoordinates,Original*%
%TF.FileFunction,Soldermask,Bot*%
%TF.FilePolarity,Negative*%
%FSLAX46Y46*%
G04 Gerber Fmt 4.6, Leading zero omitted, Abs format (unit mm)*
G04 Created by KiCad (PCBNEW 7.0.2) date 2025-02-12 15:24:12*
%MOMM*%
%LPD*%
G01*
G04 APERTURE LIST*
%ADD10R,2.100000X2.100000*%
%ADD11C,2.200000*%
G04 APERTURE END LIST*
D10*
%TO.C,J10*%
X18550000Y-70700000D03*
X14350000Y-70700000D03*
%TD*%
%TO.C,J19*%
X40250000Y-103100000D03*
X36050000Y-103100000D03*
%TD*%
%TO.C,J2*%
X5000000Y-36400000D03*
X800000Y-36400000D03*
%TD*%
%TO.C,J22*%
X18350000Y-133600000D03*
X14150000Y-133600000D03*
%TD*%
%TO.C,J8*%
X4450000Y-70700000D03*
X250000Y-70700000D03*
%TD*%
%TO.C,J15*%
X11150000Y-103100000D03*
X6950000Y-103100000D03*
%TD*%
%TO.C,J20*%
X3450000Y-133600000D03*
X-750000Y-133600000D03*
%TD*%
%TO.C,J31*%
X36900000Y-162500000D03*
X41100000Y-162500000D03*
%TD*%
%TO.C,J25*%
X40750000Y-133600000D03*
X36550000Y-133600000D03*
%TD*%
%TO.C,J27*%
X6500000Y-162500000D03*
X10700000Y-162500000D03*
%TD*%
%TO.C,J28*%
X14100000Y-162500000D03*
X18300000Y-162500000D03*
%TD*%
%TO.C,J30*%
X29300000Y-162500000D03*
X33500000Y-162500000D03*
%TD*%
%TO.C,J4*%
X18650000Y-36400000D03*
X14450000Y-36400000D03*
%TD*%
%TO.C,J26*%
X-1100000Y-162500000D03*
X3100000Y-162500000D03*
%TD*%
%TO.C,J24*%
X33300000Y-133600000D03*
X29100000Y-133600000D03*
%TD*%
%TO.C,J6*%
X32350000Y-36400000D03*
X28150000Y-36400000D03*
%TD*%
%TO.C,J7*%
X39200000Y-36400000D03*
X35000000Y-36400000D03*
%TD*%
%TO.C,J23*%
X25800000Y-133600000D03*
X21600000Y-133600000D03*
%TD*%
%TO.C,J5*%
X25550000Y-36400000D03*
X21350000Y-36400000D03*
%TD*%
%TO.C,J21*%
X10900000Y-133600000D03*
X6700000Y-133600000D03*
%TD*%
%TO.C,J18*%
X33050000Y-103100000D03*
X28850000Y-103100000D03*
%TD*%
%TO.C,J12*%
X32850000Y-70700000D03*
X28650000Y-70700000D03*
%TD*%
%TO.C,J11*%
X25700000Y-70700000D03*
X21500000Y-70700000D03*
%TD*%
%TO.C,J3*%
X11850000Y-36400000D03*
X7650000Y-36400000D03*
%TD*%
%TO.C,J16*%
X18450000Y-103100000D03*
X14250000Y-103100000D03*
%TD*%
%TO.C,J9*%
X11350000Y-70700000D03*
X7150000Y-70700000D03*
%TD*%
%TO.C,J17*%
X25750000Y-103100000D03*
X21550000Y-103100000D03*
%TD*%
%TO.C,J14*%
X3950000Y-103100000D03*
X-250000Y-103100000D03*
%TD*%
%TO.C,J13*%
X39750000Y-70700000D03*
X35550000Y-70700000D03*
%TD*%
%TO.C,J29*%
X21700000Y-162500000D03*
X25900000Y-162500000D03*
%TD*%
D11*
%TO.C,H5*%
X1200000Y-148100000D03*
%TD*%
%TO.C,H2*%
X37200000Y-18200000D03*
%TD*%
%TO.C,H3*%
X1900000Y-86900000D03*
%TD*%
%TO.C,H1*%
X2800000Y-18200000D03*
%TD*%
%TO.C,H4*%
X38000000Y-86900000D03*
%TD*%
%TO.C,H6*%
X38800000Y-148100000D03*
%TD*%
M02*
