M48
; DRILL file {KiCad 7.0.2} date Wed Feb 12 15:24:12 2025
; FORMAT={-:-/ absolute / inch / decimal}
; #@! TF.CreationDate,2025-02-12T15:24:12+00:00
; #@! TF.GenerationSoftware,Kicad,Pcbnew,7.0.2
; #@! TF.FileFunction,Plated,1,2,PTH
FMAT,2
INCH
; #@! TA.AperFunction,Plated,PTH,ViaDrill
T1C0.0157
; #@! TA.AperFunction,Plated,PTH,ComponentDrill
T2C0.0591
%
G90
G05
T1
X0.5669Y-6.2677
X0.5748Y-5.748
X0.5748Y-6.2047
X0.5787Y-3.5197
X0.5787Y-4.6575
X0.5827Y-4.9409
X0.7008Y-3.4173
X0.7047Y-4.5512
X0.7047Y-5.6575
X0.7165Y-4.8937
X1.0039Y-2.2283
X1.0394Y-3.4016
X1.0472Y-2.2835
X1.0512Y-2.3937
X1.0591Y-3.6142
X1.0591Y-4.752
X1.0591Y-5.7402
X1.0906Y-1.689
X1.1496Y-1.8425
X1.1644Y-3.5162
X1.1654Y-1.9252
X1.1772Y-6.185
X1.185Y-2.0
X1.189Y-5.6457
X1.1929Y-5.7087
X1.2047Y-4.9134
X1.2087Y-3.1339
X1.2087Y-3.7323
X1.2087Y-5.0433
X1.2126Y-3.8268
X1.2126Y-5.9833
X1.2165Y-4.3209
X1.2165Y-4.9803
X1.2165Y-6.066
X1.2234Y-2.1732
X1.2283Y-1.6732
X1.2283Y-4.5157
X1.2297Y-4.6916
X1.2362Y-4.6181
X1.2377Y-4.5763
X1.252Y-2.2717
X1.252Y-6.8425
X1.2598Y-3.3228
X1.2618Y-5.6969
X1.2618Y-5.748
X1.2638Y-3.3819
X1.2638Y-5.6457
X1.2805Y-1.9646
X1.3006Y-4.9321
X1.3031Y-5.1654
X1.3071Y-3.748
X1.3307Y-6.185
X1.3366Y-6.6932
X1.3677Y-6.0118
X1.3677Y-6.0945
X1.3701Y-1.7323
X1.374Y-1.8937
X1.378Y-2.1457
X1.378Y-4.7441
X1.3819Y-2.3425
X1.3819Y-3.311
X1.3819Y-4.5945
X1.3819Y-5.5591
X1.383Y-3.5223
X1.3858Y-2.0906
X1.3858Y-3.1181
X1.3898Y-4.4528
X1.3898Y-5.6457
X1.4016Y-3.5748
X1.4094Y-2.3858
X1.4134Y-2.1693
X1.4173Y-3.1457
X1.4296Y-1.7515
X1.4449Y-3.6063
X1.4469Y-6.0591
X1.4528Y-4.2795
X1.4606Y-4.6535
X1.4646Y-4.4213
X1.5118Y-3.1142
X1.5551Y-5.1102
T2
X-0.0512Y-6.3976
X-0.0374Y-5.2598
X-0.0177Y-4.0591
X0.002Y-2.7835
X0.0236Y-1.4331
X0.1299Y-6.3976
X0.1437Y-5.2598
X0.1634Y-4.0591
X0.1831Y-2.7835
X0.2047Y-1.4331
X0.248Y-6.3976
X0.2559Y-5.2598
X0.2657Y-4.0591
X0.2736Y-2.7835
X0.2933Y-1.4331
X0.4291Y-6.3976
X0.437Y-5.2598
X0.4469Y-4.0591
X0.4547Y-2.7835
X0.4744Y-1.4331
X0.5472Y-6.3976
X0.5492Y-5.2598
X0.5531Y-4.0591
X0.5571Y-2.7835
X0.561Y-1.4331
X0.7283Y-6.3976
X0.7303Y-5.2598
X0.7343Y-4.0591
X0.7382Y-2.7835
X0.7421Y-1.4331
X0.8327Y-1.4331
X0.8386Y-2.7835
X0.8406Y-4.0591
X0.8425Y-5.2598
X0.8465Y-6.3976
X1.0138Y-1.4331
X1.0197Y-2.7835
X1.0217Y-4.0591
X1.0236Y-5.2598
X1.0276Y-6.3976
X1.1004Y-1.4331
X1.1201Y-2.7835
X1.128Y-4.0591
X1.1378Y-5.2598
X1.1457Y-6.3976
X1.2815Y-1.4331
X1.3012Y-2.7835
X1.3091Y-4.0591
X1.3189Y-5.2598
X1.3268Y-6.3976
X1.3701Y-1.4331
X1.3917Y-2.7835
X1.4114Y-4.0591
X1.4311Y-5.2598
X1.4449Y-6.3976
X1.5512Y-1.4331
X1.5728Y-2.7835
X1.5925Y-4.0591
X1.6122Y-5.2598
X1.626Y-6.3976
T0
M30
