%TF.GenerationSoftware,KiCad,Pcbnew,7.0.2*%
%TF.CreationDate,2025-02-12T15:24:12+00:00*%
%TF.ProjectId,fretboard,66726574-626f-4617-9264-2e6b69636164,rev?*%
%TF.SameCoordinates,Original*%
%TF.FileFunction,Legend,Top*%
%TF.FilePolarity,Positive*%
%FSLAX46Y46*%
G04 Gerber Fmt 4.6, Leading zero omitted, Abs format (unit mm)*
G04 Created by KiCad (PCBNEW 7.0.2) date 2025-02-12 15:24:12*
%MOMM*%
%LPD*%
G01*
G04 APERTURE LIST*
G04 Aperture macros list*
%AMRoundRect*
0 Rectangle with rounded corners*
0 $1 Rounding radius*
0 $2 $3 $4 $5 $6 $7 $8 $9 X,Y pos of 4 corners*
0 Add a 4 corners polygon primitive as box body*
4,1,4,$2,$3,$4,$5,$6,$7,$8,$9,$2,$3,0*
0 Add four circle primitives for the rounded corners*
1,1,$1+$1,$2,$3*
1,1,$1+$1,$4,$5*
1,1,$1+$1,$6,$7*
1,1,$1+$1,$8,$9*
0 Add four rect primitives between the rounded corners*
20,1,$1+$1,$2,$3,$4,$5,0*
20,1,$1+$1,$4,$5,$6,$7,0*
20,1,$1+$1,$6,$7,$8,$9,0*
20,1,$1+$1,$8,$9,$2,$3,0*%
G04 Aperture macros list end*
%ADD10C,0.150000*%
%ADD11C,0.120000*%
%ADD12R,2.100000X2.100000*%
%ADD13RoundRect,0.200000X-0.200000X-0.275000X0.200000X-0.275000X0.200000X0.275000X-0.200000X0.275000X0*%
%ADD14RoundRect,0.200000X0.275000X-0.200000X0.275000X0.200000X-0.275000X0.200000X-0.275000X-0.200000X0*%
%ADD15RoundRect,0.243750X0.456250X-0.243750X0.456250X0.243750X-0.456250X0.243750X-0.456250X-0.243750X0*%
%ADD16RoundRect,0.150000X-0.825000X-0.150000X0.825000X-0.150000X0.825000X0.150000X-0.825000X0.150000X0*%
%ADD17RoundRect,0.212500X1.087500X-0.212500X1.087500X0.212500X-1.087500X0.212500X-1.087500X-0.212500X0*%
%ADD18RoundRect,0.216667X0.733333X-0.433333X0.733333X0.433333X-0.733333X0.433333X-0.733333X-0.433333X0*%
%ADD19C,2.200000*%
G04 APERTURE END LIST*
D10*
%TO.C,J10*%
X15640476Y-72632619D02*
X15640476Y-73346904D01*
X15640476Y-73346904D02*
X15592857Y-73489761D01*
X15592857Y-73489761D02*
X15497619Y-73585000D01*
X15497619Y-73585000D02*
X15354762Y-73632619D01*
X15354762Y-73632619D02*
X15259524Y-73632619D01*
X16640476Y-73632619D02*
X16069048Y-73632619D01*
X16354762Y-73632619D02*
X16354762Y-72632619D01*
X16354762Y-72632619D02*
X16259524Y-72775476D01*
X16259524Y-72775476D02*
X16164286Y-72870714D01*
X16164286Y-72870714D02*
X16069048Y-72918333D01*
X17259524Y-72632619D02*
X17354762Y-72632619D01*
X17354762Y-72632619D02*
X17450000Y-72680238D01*
X17450000Y-72680238D02*
X17497619Y-72727857D01*
X17497619Y-72727857D02*
X17545238Y-72823095D01*
X17545238Y-72823095D02*
X17592857Y-73013571D01*
X17592857Y-73013571D02*
X17592857Y-73251666D01*
X17592857Y-73251666D02*
X17545238Y-73442142D01*
X17545238Y-73442142D02*
X17497619Y-73537380D01*
X17497619Y-73537380D02*
X17450000Y-73585000D01*
X17450000Y-73585000D02*
X17354762Y-73632619D01*
X17354762Y-73632619D02*
X17259524Y-73632619D01*
X17259524Y-73632619D02*
X17164286Y-73585000D01*
X17164286Y-73585000D02*
X17116667Y-73537380D01*
X17116667Y-73537380D02*
X17069048Y-73442142D01*
X17069048Y-73442142D02*
X17021429Y-73251666D01*
X17021429Y-73251666D02*
X17021429Y-73013571D01*
X17021429Y-73013571D02*
X17069048Y-72823095D01*
X17069048Y-72823095D02*
X17116667Y-72727857D01*
X17116667Y-72727857D02*
X17164286Y-72680238D01*
X17164286Y-72680238D02*
X17259524Y-72632619D01*
%TO.C,J19*%
X37340476Y-105032619D02*
X37340476Y-105746904D01*
X37340476Y-105746904D02*
X37292857Y-105889761D01*
X37292857Y-105889761D02*
X37197619Y-105985000D01*
X37197619Y-105985000D02*
X37054762Y-106032619D01*
X37054762Y-106032619D02*
X36959524Y-106032619D01*
X38340476Y-106032619D02*
X37769048Y-106032619D01*
X38054762Y-106032619D02*
X38054762Y-105032619D01*
X38054762Y-105032619D02*
X37959524Y-105175476D01*
X37959524Y-105175476D02*
X37864286Y-105270714D01*
X37864286Y-105270714D02*
X37769048Y-105318333D01*
X38816667Y-106032619D02*
X39007143Y-106032619D01*
X39007143Y-106032619D02*
X39102381Y-105985000D01*
X39102381Y-105985000D02*
X39150000Y-105937380D01*
X39150000Y-105937380D02*
X39245238Y-105794523D01*
X39245238Y-105794523D02*
X39292857Y-105604047D01*
X39292857Y-105604047D02*
X39292857Y-105223095D01*
X39292857Y-105223095D02*
X39245238Y-105127857D01*
X39245238Y-105127857D02*
X39197619Y-105080238D01*
X39197619Y-105080238D02*
X39102381Y-105032619D01*
X39102381Y-105032619D02*
X38911905Y-105032619D01*
X38911905Y-105032619D02*
X38816667Y-105080238D01*
X38816667Y-105080238D02*
X38769048Y-105127857D01*
X38769048Y-105127857D02*
X38721429Y-105223095D01*
X38721429Y-105223095D02*
X38721429Y-105461190D01*
X38721429Y-105461190D02*
X38769048Y-105556428D01*
X38769048Y-105556428D02*
X38816667Y-105604047D01*
X38816667Y-105604047D02*
X38911905Y-105651666D01*
X38911905Y-105651666D02*
X39102381Y-105651666D01*
X39102381Y-105651666D02*
X39197619Y-105604047D01*
X39197619Y-105604047D02*
X39245238Y-105556428D01*
X39245238Y-105556428D02*
X39292857Y-105461190D01*
%TO.C,R28*%
X35357142Y-154462619D02*
X35023809Y-153986428D01*
X34785714Y-154462619D02*
X34785714Y-153462619D01*
X34785714Y-153462619D02*
X35166666Y-153462619D01*
X35166666Y-153462619D02*
X35261904Y-153510238D01*
X35261904Y-153510238D02*
X35309523Y-153557857D01*
X35309523Y-153557857D02*
X35357142Y-153653095D01*
X35357142Y-153653095D02*
X35357142Y-153795952D01*
X35357142Y-153795952D02*
X35309523Y-153891190D01*
X35309523Y-153891190D02*
X35261904Y-153938809D01*
X35261904Y-153938809D02*
X35166666Y-153986428D01*
X35166666Y-153986428D02*
X34785714Y-153986428D01*
X35738095Y-153557857D02*
X35785714Y-153510238D01*
X35785714Y-153510238D02*
X35880952Y-153462619D01*
X35880952Y-153462619D02*
X36119047Y-153462619D01*
X36119047Y-153462619D02*
X36214285Y-153510238D01*
X36214285Y-153510238D02*
X36261904Y-153557857D01*
X36261904Y-153557857D02*
X36309523Y-153653095D01*
X36309523Y-153653095D02*
X36309523Y-153748333D01*
X36309523Y-153748333D02*
X36261904Y-153891190D01*
X36261904Y-153891190D02*
X35690476Y-154462619D01*
X35690476Y-154462619D02*
X36309523Y-154462619D01*
X36880952Y-153891190D02*
X36785714Y-153843571D01*
X36785714Y-153843571D02*
X36738095Y-153795952D01*
X36738095Y-153795952D02*
X36690476Y-153700714D01*
X36690476Y-153700714D02*
X36690476Y-153653095D01*
X36690476Y-153653095D02*
X36738095Y-153557857D01*
X36738095Y-153557857D02*
X36785714Y-153510238D01*
X36785714Y-153510238D02*
X36880952Y-153462619D01*
X36880952Y-153462619D02*
X37071428Y-153462619D01*
X37071428Y-153462619D02*
X37166666Y-153510238D01*
X37166666Y-153510238D02*
X37214285Y-153557857D01*
X37214285Y-153557857D02*
X37261904Y-153653095D01*
X37261904Y-153653095D02*
X37261904Y-153700714D01*
X37261904Y-153700714D02*
X37214285Y-153795952D01*
X37214285Y-153795952D02*
X37166666Y-153843571D01*
X37166666Y-153843571D02*
X37071428Y-153891190D01*
X37071428Y-153891190D02*
X36880952Y-153891190D01*
X36880952Y-153891190D02*
X36785714Y-153938809D01*
X36785714Y-153938809D02*
X36738095Y-153986428D01*
X36738095Y-153986428D02*
X36690476Y-154081666D01*
X36690476Y-154081666D02*
X36690476Y-154272142D01*
X36690476Y-154272142D02*
X36738095Y-154367380D01*
X36738095Y-154367380D02*
X36785714Y-154415000D01*
X36785714Y-154415000D02*
X36880952Y-154462619D01*
X36880952Y-154462619D02*
X37071428Y-154462619D01*
X37071428Y-154462619D02*
X37166666Y-154415000D01*
X37166666Y-154415000D02*
X37214285Y-154367380D01*
X37214285Y-154367380D02*
X37261904Y-154272142D01*
X37261904Y-154272142D02*
X37261904Y-154081666D01*
X37261904Y-154081666D02*
X37214285Y-153986428D01*
X37214285Y-153986428D02*
X37166666Y-153938809D01*
X37166666Y-153938809D02*
X37071428Y-153891190D01*
%TO.C,R31*%
X31032619Y-168642857D02*
X30556428Y-168976190D01*
X31032619Y-169214285D02*
X30032619Y-169214285D01*
X30032619Y-169214285D02*
X30032619Y-168833333D01*
X30032619Y-168833333D02*
X30080238Y-168738095D01*
X30080238Y-168738095D02*
X30127857Y-168690476D01*
X30127857Y-168690476D02*
X30223095Y-168642857D01*
X30223095Y-168642857D02*
X30365952Y-168642857D01*
X30365952Y-168642857D02*
X30461190Y-168690476D01*
X30461190Y-168690476D02*
X30508809Y-168738095D01*
X30508809Y-168738095D02*
X30556428Y-168833333D01*
X30556428Y-168833333D02*
X30556428Y-169214285D01*
X30032619Y-168309523D02*
X30032619Y-167690476D01*
X30032619Y-167690476D02*
X30413571Y-168023809D01*
X30413571Y-168023809D02*
X30413571Y-167880952D01*
X30413571Y-167880952D02*
X30461190Y-167785714D01*
X30461190Y-167785714D02*
X30508809Y-167738095D01*
X30508809Y-167738095D02*
X30604047Y-167690476D01*
X30604047Y-167690476D02*
X30842142Y-167690476D01*
X30842142Y-167690476D02*
X30937380Y-167738095D01*
X30937380Y-167738095D02*
X30985000Y-167785714D01*
X30985000Y-167785714D02*
X31032619Y-167880952D01*
X31032619Y-167880952D02*
X31032619Y-168166666D01*
X31032619Y-168166666D02*
X30985000Y-168261904D01*
X30985000Y-168261904D02*
X30937380Y-168309523D01*
X31032619Y-166738095D02*
X31032619Y-167309523D01*
X31032619Y-167023809D02*
X30032619Y-167023809D01*
X30032619Y-167023809D02*
X30175476Y-167119047D01*
X30175476Y-167119047D02*
X30270714Y-167214285D01*
X30270714Y-167214285D02*
X30318333Y-167309523D01*
%TO.C,R25*%
X25357142Y-152362619D02*
X25023809Y-151886428D01*
X24785714Y-152362619D02*
X24785714Y-151362619D01*
X24785714Y-151362619D02*
X25166666Y-151362619D01*
X25166666Y-151362619D02*
X25261904Y-151410238D01*
X25261904Y-151410238D02*
X25309523Y-151457857D01*
X25309523Y-151457857D02*
X25357142Y-151553095D01*
X25357142Y-151553095D02*
X25357142Y-151695952D01*
X25357142Y-151695952D02*
X25309523Y-151791190D01*
X25309523Y-151791190D02*
X25261904Y-151838809D01*
X25261904Y-151838809D02*
X25166666Y-151886428D01*
X25166666Y-151886428D02*
X24785714Y-151886428D01*
X25738095Y-151457857D02*
X25785714Y-151410238D01*
X25785714Y-151410238D02*
X25880952Y-151362619D01*
X25880952Y-151362619D02*
X26119047Y-151362619D01*
X26119047Y-151362619D02*
X26214285Y-151410238D01*
X26214285Y-151410238D02*
X26261904Y-151457857D01*
X26261904Y-151457857D02*
X26309523Y-151553095D01*
X26309523Y-151553095D02*
X26309523Y-151648333D01*
X26309523Y-151648333D02*
X26261904Y-151791190D01*
X26261904Y-151791190D02*
X25690476Y-152362619D01*
X25690476Y-152362619D02*
X26309523Y-152362619D01*
X27214285Y-151362619D02*
X26738095Y-151362619D01*
X26738095Y-151362619D02*
X26690476Y-151838809D01*
X26690476Y-151838809D02*
X26738095Y-151791190D01*
X26738095Y-151791190D02*
X26833333Y-151743571D01*
X26833333Y-151743571D02*
X27071428Y-151743571D01*
X27071428Y-151743571D02*
X27166666Y-151791190D01*
X27166666Y-151791190D02*
X27214285Y-151838809D01*
X27214285Y-151838809D02*
X27261904Y-151934047D01*
X27261904Y-151934047D02*
X27261904Y-152172142D01*
X27261904Y-152172142D02*
X27214285Y-152267380D01*
X27214285Y-152267380D02*
X27166666Y-152315000D01*
X27166666Y-152315000D02*
X27071428Y-152362619D01*
X27071428Y-152362619D02*
X26833333Y-152362619D01*
X26833333Y-152362619D02*
X26738095Y-152315000D01*
X26738095Y-152315000D02*
X26690476Y-152267380D01*
%TO.C,R8*%
X35833333Y-63462619D02*
X35500000Y-62986428D01*
X35261905Y-63462619D02*
X35261905Y-62462619D01*
X35261905Y-62462619D02*
X35642857Y-62462619D01*
X35642857Y-62462619D02*
X35738095Y-62510238D01*
X35738095Y-62510238D02*
X35785714Y-62557857D01*
X35785714Y-62557857D02*
X35833333Y-62653095D01*
X35833333Y-62653095D02*
X35833333Y-62795952D01*
X35833333Y-62795952D02*
X35785714Y-62891190D01*
X35785714Y-62891190D02*
X35738095Y-62938809D01*
X35738095Y-62938809D02*
X35642857Y-62986428D01*
X35642857Y-62986428D02*
X35261905Y-62986428D01*
X36404762Y-62891190D02*
X36309524Y-62843571D01*
X36309524Y-62843571D02*
X36261905Y-62795952D01*
X36261905Y-62795952D02*
X36214286Y-62700714D01*
X36214286Y-62700714D02*
X36214286Y-62653095D01*
X36214286Y-62653095D02*
X36261905Y-62557857D01*
X36261905Y-62557857D02*
X36309524Y-62510238D01*
X36309524Y-62510238D02*
X36404762Y-62462619D01*
X36404762Y-62462619D02*
X36595238Y-62462619D01*
X36595238Y-62462619D02*
X36690476Y-62510238D01*
X36690476Y-62510238D02*
X36738095Y-62557857D01*
X36738095Y-62557857D02*
X36785714Y-62653095D01*
X36785714Y-62653095D02*
X36785714Y-62700714D01*
X36785714Y-62700714D02*
X36738095Y-62795952D01*
X36738095Y-62795952D02*
X36690476Y-62843571D01*
X36690476Y-62843571D02*
X36595238Y-62891190D01*
X36595238Y-62891190D02*
X36404762Y-62891190D01*
X36404762Y-62891190D02*
X36309524Y-62938809D01*
X36309524Y-62938809D02*
X36261905Y-62986428D01*
X36261905Y-62986428D02*
X36214286Y-63081666D01*
X36214286Y-63081666D02*
X36214286Y-63272142D01*
X36214286Y-63272142D02*
X36261905Y-63367380D01*
X36261905Y-63367380D02*
X36309524Y-63415000D01*
X36309524Y-63415000D02*
X36404762Y-63462619D01*
X36404762Y-63462619D02*
X36595238Y-63462619D01*
X36595238Y-63462619D02*
X36690476Y-63415000D01*
X36690476Y-63415000D02*
X36738095Y-63367380D01*
X36738095Y-63367380D02*
X36785714Y-63272142D01*
X36785714Y-63272142D02*
X36785714Y-63081666D01*
X36785714Y-63081666D02*
X36738095Y-62986428D01*
X36738095Y-62986428D02*
X36690476Y-62938809D01*
X36690476Y-62938809D02*
X36595238Y-62891190D01*
%TO.C,J2*%
X2566666Y-38332619D02*
X2566666Y-39046904D01*
X2566666Y-39046904D02*
X2519047Y-39189761D01*
X2519047Y-39189761D02*
X2423809Y-39285000D01*
X2423809Y-39285000D02*
X2280952Y-39332619D01*
X2280952Y-39332619D02*
X2185714Y-39332619D01*
X2995238Y-38427857D02*
X3042857Y-38380238D01*
X3042857Y-38380238D02*
X3138095Y-38332619D01*
X3138095Y-38332619D02*
X3376190Y-38332619D01*
X3376190Y-38332619D02*
X3471428Y-38380238D01*
X3471428Y-38380238D02*
X3519047Y-38427857D01*
X3519047Y-38427857D02*
X3566666Y-38523095D01*
X3566666Y-38523095D02*
X3566666Y-38618333D01*
X3566666Y-38618333D02*
X3519047Y-38761190D01*
X3519047Y-38761190D02*
X2947619Y-39332619D01*
X2947619Y-39332619D02*
X3566666Y-39332619D01*
%TO.C,R13*%
X25357142Y-94362619D02*
X25023809Y-93886428D01*
X24785714Y-94362619D02*
X24785714Y-93362619D01*
X24785714Y-93362619D02*
X25166666Y-93362619D01*
X25166666Y-93362619D02*
X25261904Y-93410238D01*
X25261904Y-93410238D02*
X25309523Y-93457857D01*
X25309523Y-93457857D02*
X25357142Y-93553095D01*
X25357142Y-93553095D02*
X25357142Y-93695952D01*
X25357142Y-93695952D02*
X25309523Y-93791190D01*
X25309523Y-93791190D02*
X25261904Y-93838809D01*
X25261904Y-93838809D02*
X25166666Y-93886428D01*
X25166666Y-93886428D02*
X24785714Y-93886428D01*
X26309523Y-94362619D02*
X25738095Y-94362619D01*
X26023809Y-94362619D02*
X26023809Y-93362619D01*
X26023809Y-93362619D02*
X25928571Y-93505476D01*
X25928571Y-93505476D02*
X25833333Y-93600714D01*
X25833333Y-93600714D02*
X25738095Y-93648333D01*
X26642857Y-93362619D02*
X27261904Y-93362619D01*
X27261904Y-93362619D02*
X26928571Y-93743571D01*
X26928571Y-93743571D02*
X27071428Y-93743571D01*
X27071428Y-93743571D02*
X27166666Y-93791190D01*
X27166666Y-93791190D02*
X27214285Y-93838809D01*
X27214285Y-93838809D02*
X27261904Y-93934047D01*
X27261904Y-93934047D02*
X27261904Y-94172142D01*
X27261904Y-94172142D02*
X27214285Y-94267380D01*
X27214285Y-94267380D02*
X27166666Y-94315000D01*
X27166666Y-94315000D02*
X27071428Y-94362619D01*
X27071428Y-94362619D02*
X26785714Y-94362619D01*
X26785714Y-94362619D02*
X26690476Y-94315000D01*
X26690476Y-94315000D02*
X26642857Y-94267380D01*
%TO.C,J22*%
X15440476Y-135532619D02*
X15440476Y-136246904D01*
X15440476Y-136246904D02*
X15392857Y-136389761D01*
X15392857Y-136389761D02*
X15297619Y-136485000D01*
X15297619Y-136485000D02*
X15154762Y-136532619D01*
X15154762Y-136532619D02*
X15059524Y-136532619D01*
X15869048Y-135627857D02*
X15916667Y-135580238D01*
X15916667Y-135580238D02*
X16011905Y-135532619D01*
X16011905Y-135532619D02*
X16250000Y-135532619D01*
X16250000Y-135532619D02*
X16345238Y-135580238D01*
X16345238Y-135580238D02*
X16392857Y-135627857D01*
X16392857Y-135627857D02*
X16440476Y-135723095D01*
X16440476Y-135723095D02*
X16440476Y-135818333D01*
X16440476Y-135818333D02*
X16392857Y-135961190D01*
X16392857Y-135961190D02*
X15821429Y-136532619D01*
X15821429Y-136532619D02*
X16440476Y-136532619D01*
X16821429Y-135627857D02*
X16869048Y-135580238D01*
X16869048Y-135580238D02*
X16964286Y-135532619D01*
X16964286Y-135532619D02*
X17202381Y-135532619D01*
X17202381Y-135532619D02*
X17297619Y-135580238D01*
X17297619Y-135580238D02*
X17345238Y-135627857D01*
X17345238Y-135627857D02*
X17392857Y-135723095D01*
X17392857Y-135723095D02*
X17392857Y-135818333D01*
X17392857Y-135818333D02*
X17345238Y-135961190D01*
X17345238Y-135961190D02*
X16773810Y-136532619D01*
X16773810Y-136532619D02*
X17392857Y-136532619D01*
%TO.C,J8*%
X2016666Y-72632619D02*
X2016666Y-73346904D01*
X2016666Y-73346904D02*
X1969047Y-73489761D01*
X1969047Y-73489761D02*
X1873809Y-73585000D01*
X1873809Y-73585000D02*
X1730952Y-73632619D01*
X1730952Y-73632619D02*
X1635714Y-73632619D01*
X2635714Y-73061190D02*
X2540476Y-73013571D01*
X2540476Y-73013571D02*
X2492857Y-72965952D01*
X2492857Y-72965952D02*
X2445238Y-72870714D01*
X2445238Y-72870714D02*
X2445238Y-72823095D01*
X2445238Y-72823095D02*
X2492857Y-72727857D01*
X2492857Y-72727857D02*
X2540476Y-72680238D01*
X2540476Y-72680238D02*
X2635714Y-72632619D01*
X2635714Y-72632619D02*
X2826190Y-72632619D01*
X2826190Y-72632619D02*
X2921428Y-72680238D01*
X2921428Y-72680238D02*
X2969047Y-72727857D01*
X2969047Y-72727857D02*
X3016666Y-72823095D01*
X3016666Y-72823095D02*
X3016666Y-72870714D01*
X3016666Y-72870714D02*
X2969047Y-72965952D01*
X2969047Y-72965952D02*
X2921428Y-73013571D01*
X2921428Y-73013571D02*
X2826190Y-73061190D01*
X2826190Y-73061190D02*
X2635714Y-73061190D01*
X2635714Y-73061190D02*
X2540476Y-73108809D01*
X2540476Y-73108809D02*
X2492857Y-73156428D01*
X2492857Y-73156428D02*
X2445238Y-73251666D01*
X2445238Y-73251666D02*
X2445238Y-73442142D01*
X2445238Y-73442142D02*
X2492857Y-73537380D01*
X2492857Y-73537380D02*
X2540476Y-73585000D01*
X2540476Y-73585000D02*
X2635714Y-73632619D01*
X2635714Y-73632619D02*
X2826190Y-73632619D01*
X2826190Y-73632619D02*
X2921428Y-73585000D01*
X2921428Y-73585000D02*
X2969047Y-73537380D01*
X2969047Y-73537380D02*
X3016666Y-73442142D01*
X3016666Y-73442142D02*
X3016666Y-73251666D01*
X3016666Y-73251666D02*
X2969047Y-73156428D01*
X2969047Y-73156428D02*
X2921428Y-73108809D01*
X2921428Y-73108809D02*
X2826190Y-73061190D01*
%TO.C,J15*%
X8240476Y-105032619D02*
X8240476Y-105746904D01*
X8240476Y-105746904D02*
X8192857Y-105889761D01*
X8192857Y-105889761D02*
X8097619Y-105985000D01*
X8097619Y-105985000D02*
X7954762Y-106032619D01*
X7954762Y-106032619D02*
X7859524Y-106032619D01*
X9240476Y-106032619D02*
X8669048Y-106032619D01*
X8954762Y-106032619D02*
X8954762Y-105032619D01*
X8954762Y-105032619D02*
X8859524Y-105175476D01*
X8859524Y-105175476D02*
X8764286Y-105270714D01*
X8764286Y-105270714D02*
X8669048Y-105318333D01*
X10145238Y-105032619D02*
X9669048Y-105032619D01*
X9669048Y-105032619D02*
X9621429Y-105508809D01*
X9621429Y-105508809D02*
X9669048Y-105461190D01*
X9669048Y-105461190D02*
X9764286Y-105413571D01*
X9764286Y-105413571D02*
X10002381Y-105413571D01*
X10002381Y-105413571D02*
X10097619Y-105461190D01*
X10097619Y-105461190D02*
X10145238Y-105508809D01*
X10145238Y-105508809D02*
X10192857Y-105604047D01*
X10192857Y-105604047D02*
X10192857Y-105842142D01*
X10192857Y-105842142D02*
X10145238Y-105937380D01*
X10145238Y-105937380D02*
X10097619Y-105985000D01*
X10097619Y-105985000D02*
X10002381Y-106032619D01*
X10002381Y-106032619D02*
X9764286Y-106032619D01*
X9764286Y-106032619D02*
X9669048Y-105985000D01*
X9669048Y-105985000D02*
X9621429Y-105937380D01*
%TO.C,J20*%
X540476Y-135532619D02*
X540476Y-136246904D01*
X540476Y-136246904D02*
X492857Y-136389761D01*
X492857Y-136389761D02*
X397619Y-136485000D01*
X397619Y-136485000D02*
X254762Y-136532619D01*
X254762Y-136532619D02*
X159524Y-136532619D01*
X969048Y-135627857D02*
X1016667Y-135580238D01*
X1016667Y-135580238D02*
X1111905Y-135532619D01*
X1111905Y-135532619D02*
X1350000Y-135532619D01*
X1350000Y-135532619D02*
X1445238Y-135580238D01*
X1445238Y-135580238D02*
X1492857Y-135627857D01*
X1492857Y-135627857D02*
X1540476Y-135723095D01*
X1540476Y-135723095D02*
X1540476Y-135818333D01*
X1540476Y-135818333D02*
X1492857Y-135961190D01*
X1492857Y-135961190D02*
X921429Y-136532619D01*
X921429Y-136532619D02*
X1540476Y-136532619D01*
X2159524Y-135532619D02*
X2254762Y-135532619D01*
X2254762Y-135532619D02*
X2350000Y-135580238D01*
X2350000Y-135580238D02*
X2397619Y-135627857D01*
X2397619Y-135627857D02*
X2445238Y-135723095D01*
X2445238Y-135723095D02*
X2492857Y-135913571D01*
X2492857Y-135913571D02*
X2492857Y-136151666D01*
X2492857Y-136151666D02*
X2445238Y-136342142D01*
X2445238Y-136342142D02*
X2397619Y-136437380D01*
X2397619Y-136437380D02*
X2350000Y-136485000D01*
X2350000Y-136485000D02*
X2254762Y-136532619D01*
X2254762Y-136532619D02*
X2159524Y-136532619D01*
X2159524Y-136532619D02*
X2064286Y-136485000D01*
X2064286Y-136485000D02*
X2016667Y-136437380D01*
X2016667Y-136437380D02*
X1969048Y-136342142D01*
X1969048Y-136342142D02*
X1921429Y-136151666D01*
X1921429Y-136151666D02*
X1921429Y-135913571D01*
X1921429Y-135913571D02*
X1969048Y-135723095D01*
X1969048Y-135723095D02*
X2016667Y-135627857D01*
X2016667Y-135627857D02*
X2064286Y-135580238D01*
X2064286Y-135580238D02*
X2159524Y-135532619D01*
%TO.C,J31*%
X38190476Y-159492619D02*
X38190476Y-160206904D01*
X38190476Y-160206904D02*
X38142857Y-160349761D01*
X38142857Y-160349761D02*
X38047619Y-160445000D01*
X38047619Y-160445000D02*
X37904762Y-160492619D01*
X37904762Y-160492619D02*
X37809524Y-160492619D01*
X38571429Y-159492619D02*
X39190476Y-159492619D01*
X39190476Y-159492619D02*
X38857143Y-159873571D01*
X38857143Y-159873571D02*
X39000000Y-159873571D01*
X39000000Y-159873571D02*
X39095238Y-159921190D01*
X39095238Y-159921190D02*
X39142857Y-159968809D01*
X39142857Y-159968809D02*
X39190476Y-160064047D01*
X39190476Y-160064047D02*
X39190476Y-160302142D01*
X39190476Y-160302142D02*
X39142857Y-160397380D01*
X39142857Y-160397380D02*
X39095238Y-160445000D01*
X39095238Y-160445000D02*
X39000000Y-160492619D01*
X39000000Y-160492619D02*
X38714286Y-160492619D01*
X38714286Y-160492619D02*
X38619048Y-160445000D01*
X38619048Y-160445000D02*
X38571429Y-160397380D01*
X40142857Y-160492619D02*
X39571429Y-160492619D01*
X39857143Y-160492619D02*
X39857143Y-159492619D01*
X39857143Y-159492619D02*
X39761905Y-159635476D01*
X39761905Y-159635476D02*
X39666667Y-159730714D01*
X39666667Y-159730714D02*
X39571429Y-159778333D01*
%TO.C,J25*%
X37840476Y-135532619D02*
X37840476Y-136246904D01*
X37840476Y-136246904D02*
X37792857Y-136389761D01*
X37792857Y-136389761D02*
X37697619Y-136485000D01*
X37697619Y-136485000D02*
X37554762Y-136532619D01*
X37554762Y-136532619D02*
X37459524Y-136532619D01*
X38269048Y-135627857D02*
X38316667Y-135580238D01*
X38316667Y-135580238D02*
X38411905Y-135532619D01*
X38411905Y-135532619D02*
X38650000Y-135532619D01*
X38650000Y-135532619D02*
X38745238Y-135580238D01*
X38745238Y-135580238D02*
X38792857Y-135627857D01*
X38792857Y-135627857D02*
X38840476Y-135723095D01*
X38840476Y-135723095D02*
X38840476Y-135818333D01*
X38840476Y-135818333D02*
X38792857Y-135961190D01*
X38792857Y-135961190D02*
X38221429Y-136532619D01*
X38221429Y-136532619D02*
X38840476Y-136532619D01*
X39745238Y-135532619D02*
X39269048Y-135532619D01*
X39269048Y-135532619D02*
X39221429Y-136008809D01*
X39221429Y-136008809D02*
X39269048Y-135961190D01*
X39269048Y-135961190D02*
X39364286Y-135913571D01*
X39364286Y-135913571D02*
X39602381Y-135913571D01*
X39602381Y-135913571D02*
X39697619Y-135961190D01*
X39697619Y-135961190D02*
X39745238Y-136008809D01*
X39745238Y-136008809D02*
X39792857Y-136104047D01*
X39792857Y-136104047D02*
X39792857Y-136342142D01*
X39792857Y-136342142D02*
X39745238Y-136437380D01*
X39745238Y-136437380D02*
X39697619Y-136485000D01*
X39697619Y-136485000D02*
X39602381Y-136532619D01*
X39602381Y-136532619D02*
X39364286Y-136532619D01*
X39364286Y-136532619D02*
X39269048Y-136485000D01*
X39269048Y-136485000D02*
X39221429Y-136437380D01*
%TO.C,D1*%
X36462619Y-168738094D02*
X35462619Y-168738094D01*
X35462619Y-168738094D02*
X35462619Y-168499999D01*
X35462619Y-168499999D02*
X35510238Y-168357142D01*
X35510238Y-168357142D02*
X35605476Y-168261904D01*
X35605476Y-168261904D02*
X35700714Y-168214285D01*
X35700714Y-168214285D02*
X35891190Y-168166666D01*
X35891190Y-168166666D02*
X36034047Y-168166666D01*
X36034047Y-168166666D02*
X36224523Y-168214285D01*
X36224523Y-168214285D02*
X36319761Y-168261904D01*
X36319761Y-168261904D02*
X36415000Y-168357142D01*
X36415000Y-168357142D02*
X36462619Y-168499999D01*
X36462619Y-168499999D02*
X36462619Y-168738094D01*
X36462619Y-167214285D02*
X36462619Y-167785713D01*
X36462619Y-167499999D02*
X35462619Y-167499999D01*
X35462619Y-167499999D02*
X35605476Y-167595237D01*
X35605476Y-167595237D02*
X35700714Y-167690475D01*
X35700714Y-167690475D02*
X35748333Y-167785713D01*
%TO.C,J27*%
X7790476Y-159492619D02*
X7790476Y-160206904D01*
X7790476Y-160206904D02*
X7742857Y-160349761D01*
X7742857Y-160349761D02*
X7647619Y-160445000D01*
X7647619Y-160445000D02*
X7504762Y-160492619D01*
X7504762Y-160492619D02*
X7409524Y-160492619D01*
X8219048Y-159587857D02*
X8266667Y-159540238D01*
X8266667Y-159540238D02*
X8361905Y-159492619D01*
X8361905Y-159492619D02*
X8600000Y-159492619D01*
X8600000Y-159492619D02*
X8695238Y-159540238D01*
X8695238Y-159540238D02*
X8742857Y-159587857D01*
X8742857Y-159587857D02*
X8790476Y-159683095D01*
X8790476Y-159683095D02*
X8790476Y-159778333D01*
X8790476Y-159778333D02*
X8742857Y-159921190D01*
X8742857Y-159921190D02*
X8171429Y-160492619D01*
X8171429Y-160492619D02*
X8790476Y-160492619D01*
X9123810Y-159492619D02*
X9790476Y-159492619D01*
X9790476Y-159492619D02*
X9361905Y-160492619D01*
%TO.C,J28*%
X15390476Y-159492619D02*
X15390476Y-160206904D01*
X15390476Y-160206904D02*
X15342857Y-160349761D01*
X15342857Y-160349761D02*
X15247619Y-160445000D01*
X15247619Y-160445000D02*
X15104762Y-160492619D01*
X15104762Y-160492619D02*
X15009524Y-160492619D01*
X15819048Y-159587857D02*
X15866667Y-159540238D01*
X15866667Y-159540238D02*
X15961905Y-159492619D01*
X15961905Y-159492619D02*
X16200000Y-159492619D01*
X16200000Y-159492619D02*
X16295238Y-159540238D01*
X16295238Y-159540238D02*
X16342857Y-159587857D01*
X16342857Y-159587857D02*
X16390476Y-159683095D01*
X16390476Y-159683095D02*
X16390476Y-159778333D01*
X16390476Y-159778333D02*
X16342857Y-159921190D01*
X16342857Y-159921190D02*
X15771429Y-160492619D01*
X15771429Y-160492619D02*
X16390476Y-160492619D01*
X16961905Y-159921190D02*
X16866667Y-159873571D01*
X16866667Y-159873571D02*
X16819048Y-159825952D01*
X16819048Y-159825952D02*
X16771429Y-159730714D01*
X16771429Y-159730714D02*
X16771429Y-159683095D01*
X16771429Y-159683095D02*
X16819048Y-159587857D01*
X16819048Y-159587857D02*
X16866667Y-159540238D01*
X16866667Y-159540238D02*
X16961905Y-159492619D01*
X16961905Y-159492619D02*
X17152381Y-159492619D01*
X17152381Y-159492619D02*
X17247619Y-159540238D01*
X17247619Y-159540238D02*
X17295238Y-159587857D01*
X17295238Y-159587857D02*
X17342857Y-159683095D01*
X17342857Y-159683095D02*
X17342857Y-159730714D01*
X17342857Y-159730714D02*
X17295238Y-159825952D01*
X17295238Y-159825952D02*
X17247619Y-159873571D01*
X17247619Y-159873571D02*
X17152381Y-159921190D01*
X17152381Y-159921190D02*
X16961905Y-159921190D01*
X16961905Y-159921190D02*
X16866667Y-159968809D01*
X16866667Y-159968809D02*
X16819048Y-160016428D01*
X16819048Y-160016428D02*
X16771429Y-160111666D01*
X16771429Y-160111666D02*
X16771429Y-160302142D01*
X16771429Y-160302142D02*
X16819048Y-160397380D01*
X16819048Y-160397380D02*
X16866667Y-160445000D01*
X16866667Y-160445000D02*
X16961905Y-160492619D01*
X16961905Y-160492619D02*
X17152381Y-160492619D01*
X17152381Y-160492619D02*
X17247619Y-160445000D01*
X17247619Y-160445000D02*
X17295238Y-160397380D01*
X17295238Y-160397380D02*
X17342857Y-160302142D01*
X17342857Y-160302142D02*
X17342857Y-160111666D01*
X17342857Y-160111666D02*
X17295238Y-160016428D01*
X17295238Y-160016428D02*
X17247619Y-159968809D01*
X17247619Y-159968809D02*
X17152381Y-159921190D01*
%TO.C,R2*%
X35833333Y-44462619D02*
X35500000Y-43986428D01*
X35261905Y-44462619D02*
X35261905Y-43462619D01*
X35261905Y-43462619D02*
X35642857Y-43462619D01*
X35642857Y-43462619D02*
X35738095Y-43510238D01*
X35738095Y-43510238D02*
X35785714Y-43557857D01*
X35785714Y-43557857D02*
X35833333Y-43653095D01*
X35833333Y-43653095D02*
X35833333Y-43795952D01*
X35833333Y-43795952D02*
X35785714Y-43891190D01*
X35785714Y-43891190D02*
X35738095Y-43938809D01*
X35738095Y-43938809D02*
X35642857Y-43986428D01*
X35642857Y-43986428D02*
X35261905Y-43986428D01*
X36214286Y-43557857D02*
X36261905Y-43510238D01*
X36261905Y-43510238D02*
X36357143Y-43462619D01*
X36357143Y-43462619D02*
X36595238Y-43462619D01*
X36595238Y-43462619D02*
X36690476Y-43510238D01*
X36690476Y-43510238D02*
X36738095Y-43557857D01*
X36738095Y-43557857D02*
X36785714Y-43653095D01*
X36785714Y-43653095D02*
X36785714Y-43748333D01*
X36785714Y-43748333D02*
X36738095Y-43891190D01*
X36738095Y-43891190D02*
X36166667Y-44462619D01*
X36166667Y-44462619D02*
X36785714Y-44462619D01*
%TO.C,J30*%
X30590476Y-159492619D02*
X30590476Y-160206904D01*
X30590476Y-160206904D02*
X30542857Y-160349761D01*
X30542857Y-160349761D02*
X30447619Y-160445000D01*
X30447619Y-160445000D02*
X30304762Y-160492619D01*
X30304762Y-160492619D02*
X30209524Y-160492619D01*
X30971429Y-159492619D02*
X31590476Y-159492619D01*
X31590476Y-159492619D02*
X31257143Y-159873571D01*
X31257143Y-159873571D02*
X31400000Y-159873571D01*
X31400000Y-159873571D02*
X31495238Y-159921190D01*
X31495238Y-159921190D02*
X31542857Y-159968809D01*
X31542857Y-159968809D02*
X31590476Y-160064047D01*
X31590476Y-160064047D02*
X31590476Y-160302142D01*
X31590476Y-160302142D02*
X31542857Y-160397380D01*
X31542857Y-160397380D02*
X31495238Y-160445000D01*
X31495238Y-160445000D02*
X31400000Y-160492619D01*
X31400000Y-160492619D02*
X31114286Y-160492619D01*
X31114286Y-160492619D02*
X31019048Y-160445000D01*
X31019048Y-160445000D02*
X30971429Y-160397380D01*
X32209524Y-159492619D02*
X32304762Y-159492619D01*
X32304762Y-159492619D02*
X32400000Y-159540238D01*
X32400000Y-159540238D02*
X32447619Y-159587857D01*
X32447619Y-159587857D02*
X32495238Y-159683095D01*
X32495238Y-159683095D02*
X32542857Y-159873571D01*
X32542857Y-159873571D02*
X32542857Y-160111666D01*
X32542857Y-160111666D02*
X32495238Y-160302142D01*
X32495238Y-160302142D02*
X32447619Y-160397380D01*
X32447619Y-160397380D02*
X32400000Y-160445000D01*
X32400000Y-160445000D02*
X32304762Y-160492619D01*
X32304762Y-160492619D02*
X32209524Y-160492619D01*
X32209524Y-160492619D02*
X32114286Y-160445000D01*
X32114286Y-160445000D02*
X32066667Y-160397380D01*
X32066667Y-160397380D02*
X32019048Y-160302142D01*
X32019048Y-160302142D02*
X31971429Y-160111666D01*
X31971429Y-160111666D02*
X31971429Y-159873571D01*
X31971429Y-159873571D02*
X32019048Y-159683095D01*
X32019048Y-159683095D02*
X32066667Y-159587857D01*
X32066667Y-159587857D02*
X32114286Y-159540238D01*
X32114286Y-159540238D02*
X32209524Y-159492619D01*
%TO.C,J4*%
X16216666Y-38332619D02*
X16216666Y-39046904D01*
X16216666Y-39046904D02*
X16169047Y-39189761D01*
X16169047Y-39189761D02*
X16073809Y-39285000D01*
X16073809Y-39285000D02*
X15930952Y-39332619D01*
X15930952Y-39332619D02*
X15835714Y-39332619D01*
X17121428Y-38665952D02*
X17121428Y-39332619D01*
X16883333Y-38285000D02*
X16645238Y-38999285D01*
X16645238Y-38999285D02*
X17264285Y-38999285D01*
%TO.C,R10*%
X35357142Y-77562619D02*
X35023809Y-77086428D01*
X34785714Y-77562619D02*
X34785714Y-76562619D01*
X34785714Y-76562619D02*
X35166666Y-76562619D01*
X35166666Y-76562619D02*
X35261904Y-76610238D01*
X35261904Y-76610238D02*
X35309523Y-76657857D01*
X35309523Y-76657857D02*
X35357142Y-76753095D01*
X35357142Y-76753095D02*
X35357142Y-76895952D01*
X35357142Y-76895952D02*
X35309523Y-76991190D01*
X35309523Y-76991190D02*
X35261904Y-77038809D01*
X35261904Y-77038809D02*
X35166666Y-77086428D01*
X35166666Y-77086428D02*
X34785714Y-77086428D01*
X36309523Y-77562619D02*
X35738095Y-77562619D01*
X36023809Y-77562619D02*
X36023809Y-76562619D01*
X36023809Y-76562619D02*
X35928571Y-76705476D01*
X35928571Y-76705476D02*
X35833333Y-76800714D01*
X35833333Y-76800714D02*
X35738095Y-76848333D01*
X36928571Y-76562619D02*
X37023809Y-76562619D01*
X37023809Y-76562619D02*
X37119047Y-76610238D01*
X37119047Y-76610238D02*
X37166666Y-76657857D01*
X37166666Y-76657857D02*
X37214285Y-76753095D01*
X37214285Y-76753095D02*
X37261904Y-76943571D01*
X37261904Y-76943571D02*
X37261904Y-77181666D01*
X37261904Y-77181666D02*
X37214285Y-77372142D01*
X37214285Y-77372142D02*
X37166666Y-77467380D01*
X37166666Y-77467380D02*
X37119047Y-77515000D01*
X37119047Y-77515000D02*
X37023809Y-77562619D01*
X37023809Y-77562619D02*
X36928571Y-77562619D01*
X36928571Y-77562619D02*
X36833333Y-77515000D01*
X36833333Y-77515000D02*
X36785714Y-77467380D01*
X36785714Y-77467380D02*
X36738095Y-77372142D01*
X36738095Y-77372142D02*
X36690476Y-77181666D01*
X36690476Y-77181666D02*
X36690476Y-76943571D01*
X36690476Y-76943571D02*
X36738095Y-76753095D01*
X36738095Y-76753095D02*
X36785714Y-76657857D01*
X36785714Y-76657857D02*
X36833333Y-76610238D01*
X36833333Y-76610238D02*
X36928571Y-76562619D01*
%TO.C,R20*%
X35357142Y-124462619D02*
X35023809Y-123986428D01*
X34785714Y-124462619D02*
X34785714Y-123462619D01*
X34785714Y-123462619D02*
X35166666Y-123462619D01*
X35166666Y-123462619D02*
X35261904Y-123510238D01*
X35261904Y-123510238D02*
X35309523Y-123557857D01*
X35309523Y-123557857D02*
X35357142Y-123653095D01*
X35357142Y-123653095D02*
X35357142Y-123795952D01*
X35357142Y-123795952D02*
X35309523Y-123891190D01*
X35309523Y-123891190D02*
X35261904Y-123938809D01*
X35261904Y-123938809D02*
X35166666Y-123986428D01*
X35166666Y-123986428D02*
X34785714Y-123986428D01*
X35738095Y-123557857D02*
X35785714Y-123510238D01*
X35785714Y-123510238D02*
X35880952Y-123462619D01*
X35880952Y-123462619D02*
X36119047Y-123462619D01*
X36119047Y-123462619D02*
X36214285Y-123510238D01*
X36214285Y-123510238D02*
X36261904Y-123557857D01*
X36261904Y-123557857D02*
X36309523Y-123653095D01*
X36309523Y-123653095D02*
X36309523Y-123748333D01*
X36309523Y-123748333D02*
X36261904Y-123891190D01*
X36261904Y-123891190D02*
X35690476Y-124462619D01*
X35690476Y-124462619D02*
X36309523Y-124462619D01*
X36928571Y-123462619D02*
X37023809Y-123462619D01*
X37023809Y-123462619D02*
X37119047Y-123510238D01*
X37119047Y-123510238D02*
X37166666Y-123557857D01*
X37166666Y-123557857D02*
X37214285Y-123653095D01*
X37214285Y-123653095D02*
X37261904Y-123843571D01*
X37261904Y-123843571D02*
X37261904Y-124081666D01*
X37261904Y-124081666D02*
X37214285Y-124272142D01*
X37214285Y-124272142D02*
X37166666Y-124367380D01*
X37166666Y-124367380D02*
X37119047Y-124415000D01*
X37119047Y-124415000D02*
X37023809Y-124462619D01*
X37023809Y-124462619D02*
X36928571Y-124462619D01*
X36928571Y-124462619D02*
X36833333Y-124415000D01*
X36833333Y-124415000D02*
X36785714Y-124367380D01*
X36785714Y-124367380D02*
X36738095Y-124272142D01*
X36738095Y-124272142D02*
X36690476Y-124081666D01*
X36690476Y-124081666D02*
X36690476Y-123843571D01*
X36690476Y-123843571D02*
X36738095Y-123653095D01*
X36738095Y-123653095D02*
X36785714Y-123557857D01*
X36785714Y-123557857D02*
X36833333Y-123510238D01*
X36833333Y-123510238D02*
X36928571Y-123462619D01*
%TO.C,J26*%
X190476Y-159492619D02*
X190476Y-160206904D01*
X190476Y-160206904D02*
X142857Y-160349761D01*
X142857Y-160349761D02*
X47619Y-160445000D01*
X47619Y-160445000D02*
X-95237Y-160492619D01*
X-95237Y-160492619D02*
X-190475Y-160492619D01*
X619048Y-159587857D02*
X666667Y-159540238D01*
X666667Y-159540238D02*
X761905Y-159492619D01*
X761905Y-159492619D02*
X1000000Y-159492619D01*
X1000000Y-159492619D02*
X1095238Y-159540238D01*
X1095238Y-159540238D02*
X1142857Y-159587857D01*
X1142857Y-159587857D02*
X1190476Y-159683095D01*
X1190476Y-159683095D02*
X1190476Y-159778333D01*
X1190476Y-159778333D02*
X1142857Y-159921190D01*
X1142857Y-159921190D02*
X571429Y-160492619D01*
X571429Y-160492619D02*
X1190476Y-160492619D01*
X2047619Y-159492619D02*
X1857143Y-159492619D01*
X1857143Y-159492619D02*
X1761905Y-159540238D01*
X1761905Y-159540238D02*
X1714286Y-159587857D01*
X1714286Y-159587857D02*
X1619048Y-159730714D01*
X1619048Y-159730714D02*
X1571429Y-159921190D01*
X1571429Y-159921190D02*
X1571429Y-160302142D01*
X1571429Y-160302142D02*
X1619048Y-160397380D01*
X1619048Y-160397380D02*
X1666667Y-160445000D01*
X1666667Y-160445000D02*
X1761905Y-160492619D01*
X1761905Y-160492619D02*
X1952381Y-160492619D01*
X1952381Y-160492619D02*
X2047619Y-160445000D01*
X2047619Y-160445000D02*
X2095238Y-160397380D01*
X2095238Y-160397380D02*
X2142857Y-160302142D01*
X2142857Y-160302142D02*
X2142857Y-160064047D01*
X2142857Y-160064047D02*
X2095238Y-159968809D01*
X2095238Y-159968809D02*
X2047619Y-159921190D01*
X2047619Y-159921190D02*
X1952381Y-159873571D01*
X1952381Y-159873571D02*
X1761905Y-159873571D01*
X1761905Y-159873571D02*
X1666667Y-159921190D01*
X1666667Y-159921190D02*
X1619048Y-159968809D01*
X1619048Y-159968809D02*
X1571429Y-160064047D01*
%TO.C,R27*%
X25357142Y-154362619D02*
X25023809Y-153886428D01*
X24785714Y-154362619D02*
X24785714Y-153362619D01*
X24785714Y-153362619D02*
X25166666Y-153362619D01*
X25166666Y-153362619D02*
X25261904Y-153410238D01*
X25261904Y-153410238D02*
X25309523Y-153457857D01*
X25309523Y-153457857D02*
X25357142Y-153553095D01*
X25357142Y-153553095D02*
X25357142Y-153695952D01*
X25357142Y-153695952D02*
X25309523Y-153791190D01*
X25309523Y-153791190D02*
X25261904Y-153838809D01*
X25261904Y-153838809D02*
X25166666Y-153886428D01*
X25166666Y-153886428D02*
X24785714Y-153886428D01*
X25738095Y-153457857D02*
X25785714Y-153410238D01*
X25785714Y-153410238D02*
X25880952Y-153362619D01*
X25880952Y-153362619D02*
X26119047Y-153362619D01*
X26119047Y-153362619D02*
X26214285Y-153410238D01*
X26214285Y-153410238D02*
X26261904Y-153457857D01*
X26261904Y-153457857D02*
X26309523Y-153553095D01*
X26309523Y-153553095D02*
X26309523Y-153648333D01*
X26309523Y-153648333D02*
X26261904Y-153791190D01*
X26261904Y-153791190D02*
X25690476Y-154362619D01*
X25690476Y-154362619D02*
X26309523Y-154362619D01*
X26642857Y-153362619D02*
X27309523Y-153362619D01*
X27309523Y-153362619D02*
X26880952Y-154362619D01*
%TO.C,R4*%
X35833333Y-46462619D02*
X35500000Y-45986428D01*
X35261905Y-46462619D02*
X35261905Y-45462619D01*
X35261905Y-45462619D02*
X35642857Y-45462619D01*
X35642857Y-45462619D02*
X35738095Y-45510238D01*
X35738095Y-45510238D02*
X35785714Y-45557857D01*
X35785714Y-45557857D02*
X35833333Y-45653095D01*
X35833333Y-45653095D02*
X35833333Y-45795952D01*
X35833333Y-45795952D02*
X35785714Y-45891190D01*
X35785714Y-45891190D02*
X35738095Y-45938809D01*
X35738095Y-45938809D02*
X35642857Y-45986428D01*
X35642857Y-45986428D02*
X35261905Y-45986428D01*
X36690476Y-45795952D02*
X36690476Y-46462619D01*
X36452381Y-45415000D02*
X36214286Y-46129285D01*
X36214286Y-46129285D02*
X36833333Y-46129285D01*
%TO.C,R12*%
X35357142Y-79462619D02*
X35023809Y-78986428D01*
X34785714Y-79462619D02*
X34785714Y-78462619D01*
X34785714Y-78462619D02*
X35166666Y-78462619D01*
X35166666Y-78462619D02*
X35261904Y-78510238D01*
X35261904Y-78510238D02*
X35309523Y-78557857D01*
X35309523Y-78557857D02*
X35357142Y-78653095D01*
X35357142Y-78653095D02*
X35357142Y-78795952D01*
X35357142Y-78795952D02*
X35309523Y-78891190D01*
X35309523Y-78891190D02*
X35261904Y-78938809D01*
X35261904Y-78938809D02*
X35166666Y-78986428D01*
X35166666Y-78986428D02*
X34785714Y-78986428D01*
X36309523Y-79462619D02*
X35738095Y-79462619D01*
X36023809Y-79462619D02*
X36023809Y-78462619D01*
X36023809Y-78462619D02*
X35928571Y-78605476D01*
X35928571Y-78605476D02*
X35833333Y-78700714D01*
X35833333Y-78700714D02*
X35738095Y-78748333D01*
X36690476Y-78557857D02*
X36738095Y-78510238D01*
X36738095Y-78510238D02*
X36833333Y-78462619D01*
X36833333Y-78462619D02*
X37071428Y-78462619D01*
X37071428Y-78462619D02*
X37166666Y-78510238D01*
X37166666Y-78510238D02*
X37214285Y-78557857D01*
X37214285Y-78557857D02*
X37261904Y-78653095D01*
X37261904Y-78653095D02*
X37261904Y-78748333D01*
X37261904Y-78748333D02*
X37214285Y-78891190D01*
X37214285Y-78891190D02*
X36642857Y-79462619D01*
X36642857Y-79462619D02*
X37261904Y-79462619D01*
%TO.C,U2*%
X30238095Y-80562619D02*
X30238095Y-81372142D01*
X30238095Y-81372142D02*
X30285714Y-81467380D01*
X30285714Y-81467380D02*
X30333333Y-81515000D01*
X30333333Y-81515000D02*
X30428571Y-81562619D01*
X30428571Y-81562619D02*
X30619047Y-81562619D01*
X30619047Y-81562619D02*
X30714285Y-81515000D01*
X30714285Y-81515000D02*
X30761904Y-81467380D01*
X30761904Y-81467380D02*
X30809523Y-81372142D01*
X30809523Y-81372142D02*
X30809523Y-80562619D01*
X31238095Y-80657857D02*
X31285714Y-80610238D01*
X31285714Y-80610238D02*
X31380952Y-80562619D01*
X31380952Y-80562619D02*
X31619047Y-80562619D01*
X31619047Y-80562619D02*
X31714285Y-80610238D01*
X31714285Y-80610238D02*
X31761904Y-80657857D01*
X31761904Y-80657857D02*
X31809523Y-80753095D01*
X31809523Y-80753095D02*
X31809523Y-80848333D01*
X31809523Y-80848333D02*
X31761904Y-80991190D01*
X31761904Y-80991190D02*
X31190476Y-81562619D01*
X31190476Y-81562619D02*
X31809523Y-81562619D01*
%TO.C,J24*%
X30390476Y-135532619D02*
X30390476Y-136246904D01*
X30390476Y-136246904D02*
X30342857Y-136389761D01*
X30342857Y-136389761D02*
X30247619Y-136485000D01*
X30247619Y-136485000D02*
X30104762Y-136532619D01*
X30104762Y-136532619D02*
X30009524Y-136532619D01*
X30819048Y-135627857D02*
X30866667Y-135580238D01*
X30866667Y-135580238D02*
X30961905Y-135532619D01*
X30961905Y-135532619D02*
X31200000Y-135532619D01*
X31200000Y-135532619D02*
X31295238Y-135580238D01*
X31295238Y-135580238D02*
X31342857Y-135627857D01*
X31342857Y-135627857D02*
X31390476Y-135723095D01*
X31390476Y-135723095D02*
X31390476Y-135818333D01*
X31390476Y-135818333D02*
X31342857Y-135961190D01*
X31342857Y-135961190D02*
X30771429Y-136532619D01*
X30771429Y-136532619D02*
X31390476Y-136532619D01*
X32247619Y-135865952D02*
X32247619Y-136532619D01*
X32009524Y-135485000D02*
X31771429Y-136199285D01*
X31771429Y-136199285D02*
X32390476Y-136199285D01*
%TO.C,J6*%
X29916666Y-38332619D02*
X29916666Y-39046904D01*
X29916666Y-39046904D02*
X29869047Y-39189761D01*
X29869047Y-39189761D02*
X29773809Y-39285000D01*
X29773809Y-39285000D02*
X29630952Y-39332619D01*
X29630952Y-39332619D02*
X29535714Y-39332619D01*
X30821428Y-38332619D02*
X30630952Y-38332619D01*
X30630952Y-38332619D02*
X30535714Y-38380238D01*
X30535714Y-38380238D02*
X30488095Y-38427857D01*
X30488095Y-38427857D02*
X30392857Y-38570714D01*
X30392857Y-38570714D02*
X30345238Y-38761190D01*
X30345238Y-38761190D02*
X30345238Y-39142142D01*
X30345238Y-39142142D02*
X30392857Y-39237380D01*
X30392857Y-39237380D02*
X30440476Y-39285000D01*
X30440476Y-39285000D02*
X30535714Y-39332619D01*
X30535714Y-39332619D02*
X30726190Y-39332619D01*
X30726190Y-39332619D02*
X30821428Y-39285000D01*
X30821428Y-39285000D02*
X30869047Y-39237380D01*
X30869047Y-39237380D02*
X30916666Y-39142142D01*
X30916666Y-39142142D02*
X30916666Y-38904047D01*
X30916666Y-38904047D02*
X30869047Y-38808809D01*
X30869047Y-38808809D02*
X30821428Y-38761190D01*
X30821428Y-38761190D02*
X30726190Y-38713571D01*
X30726190Y-38713571D02*
X30535714Y-38713571D01*
X30535714Y-38713571D02*
X30440476Y-38761190D01*
X30440476Y-38761190D02*
X30392857Y-38808809D01*
X30392857Y-38808809D02*
X30345238Y-38904047D01*
%TO.C,J7*%
X36766666Y-38332619D02*
X36766666Y-39046904D01*
X36766666Y-39046904D02*
X36719047Y-39189761D01*
X36719047Y-39189761D02*
X36623809Y-39285000D01*
X36623809Y-39285000D02*
X36480952Y-39332619D01*
X36480952Y-39332619D02*
X36385714Y-39332619D01*
X37147619Y-38332619D02*
X37814285Y-38332619D01*
X37814285Y-38332619D02*
X37385714Y-39332619D01*
%TO.C,J23*%
X22890476Y-135532619D02*
X22890476Y-136246904D01*
X22890476Y-136246904D02*
X22842857Y-136389761D01*
X22842857Y-136389761D02*
X22747619Y-136485000D01*
X22747619Y-136485000D02*
X22604762Y-136532619D01*
X22604762Y-136532619D02*
X22509524Y-136532619D01*
X23319048Y-135627857D02*
X23366667Y-135580238D01*
X23366667Y-135580238D02*
X23461905Y-135532619D01*
X23461905Y-135532619D02*
X23700000Y-135532619D01*
X23700000Y-135532619D02*
X23795238Y-135580238D01*
X23795238Y-135580238D02*
X23842857Y-135627857D01*
X23842857Y-135627857D02*
X23890476Y-135723095D01*
X23890476Y-135723095D02*
X23890476Y-135818333D01*
X23890476Y-135818333D02*
X23842857Y-135961190D01*
X23842857Y-135961190D02*
X23271429Y-136532619D01*
X23271429Y-136532619D02*
X23890476Y-136532619D01*
X24223810Y-135532619D02*
X24842857Y-135532619D01*
X24842857Y-135532619D02*
X24509524Y-135913571D01*
X24509524Y-135913571D02*
X24652381Y-135913571D01*
X24652381Y-135913571D02*
X24747619Y-135961190D01*
X24747619Y-135961190D02*
X24795238Y-136008809D01*
X24795238Y-136008809D02*
X24842857Y-136104047D01*
X24842857Y-136104047D02*
X24842857Y-136342142D01*
X24842857Y-136342142D02*
X24795238Y-136437380D01*
X24795238Y-136437380D02*
X24747619Y-136485000D01*
X24747619Y-136485000D02*
X24652381Y-136532619D01*
X24652381Y-136532619D02*
X24366667Y-136532619D01*
X24366667Y-136532619D02*
X24271429Y-136485000D01*
X24271429Y-136485000D02*
X24223810Y-136437380D01*
%TO.C,R17*%
X25357142Y-109362619D02*
X25023809Y-108886428D01*
X24785714Y-109362619D02*
X24785714Y-108362619D01*
X24785714Y-108362619D02*
X25166666Y-108362619D01*
X25166666Y-108362619D02*
X25261904Y-108410238D01*
X25261904Y-108410238D02*
X25309523Y-108457857D01*
X25309523Y-108457857D02*
X25357142Y-108553095D01*
X25357142Y-108553095D02*
X25357142Y-108695952D01*
X25357142Y-108695952D02*
X25309523Y-108791190D01*
X25309523Y-108791190D02*
X25261904Y-108838809D01*
X25261904Y-108838809D02*
X25166666Y-108886428D01*
X25166666Y-108886428D02*
X24785714Y-108886428D01*
X26309523Y-109362619D02*
X25738095Y-109362619D01*
X26023809Y-109362619D02*
X26023809Y-108362619D01*
X26023809Y-108362619D02*
X25928571Y-108505476D01*
X25928571Y-108505476D02*
X25833333Y-108600714D01*
X25833333Y-108600714D02*
X25738095Y-108648333D01*
X26642857Y-108362619D02*
X27309523Y-108362619D01*
X27309523Y-108362619D02*
X26880952Y-109362619D01*
%TO.C,R3*%
X25833333Y-46462619D02*
X25500000Y-45986428D01*
X25261905Y-46462619D02*
X25261905Y-45462619D01*
X25261905Y-45462619D02*
X25642857Y-45462619D01*
X25642857Y-45462619D02*
X25738095Y-45510238D01*
X25738095Y-45510238D02*
X25785714Y-45557857D01*
X25785714Y-45557857D02*
X25833333Y-45653095D01*
X25833333Y-45653095D02*
X25833333Y-45795952D01*
X25833333Y-45795952D02*
X25785714Y-45891190D01*
X25785714Y-45891190D02*
X25738095Y-45938809D01*
X25738095Y-45938809D02*
X25642857Y-45986428D01*
X25642857Y-45986428D02*
X25261905Y-45986428D01*
X26166667Y-45462619D02*
X26785714Y-45462619D01*
X26785714Y-45462619D02*
X26452381Y-45843571D01*
X26452381Y-45843571D02*
X26595238Y-45843571D01*
X26595238Y-45843571D02*
X26690476Y-45891190D01*
X26690476Y-45891190D02*
X26738095Y-45938809D01*
X26738095Y-45938809D02*
X26785714Y-46034047D01*
X26785714Y-46034047D02*
X26785714Y-46272142D01*
X26785714Y-46272142D02*
X26738095Y-46367380D01*
X26738095Y-46367380D02*
X26690476Y-46415000D01*
X26690476Y-46415000D02*
X26595238Y-46462619D01*
X26595238Y-46462619D02*
X26309524Y-46462619D01*
X26309524Y-46462619D02*
X26214286Y-46415000D01*
X26214286Y-46415000D02*
X26166667Y-46367380D01*
%TO.C,J5*%
X23116666Y-38332619D02*
X23116666Y-39046904D01*
X23116666Y-39046904D02*
X23069047Y-39189761D01*
X23069047Y-39189761D02*
X22973809Y-39285000D01*
X22973809Y-39285000D02*
X22830952Y-39332619D01*
X22830952Y-39332619D02*
X22735714Y-39332619D01*
X24069047Y-38332619D02*
X23592857Y-38332619D01*
X23592857Y-38332619D02*
X23545238Y-38808809D01*
X23545238Y-38808809D02*
X23592857Y-38761190D01*
X23592857Y-38761190D02*
X23688095Y-38713571D01*
X23688095Y-38713571D02*
X23926190Y-38713571D01*
X23926190Y-38713571D02*
X24021428Y-38761190D01*
X24021428Y-38761190D02*
X24069047Y-38808809D01*
X24069047Y-38808809D02*
X24116666Y-38904047D01*
X24116666Y-38904047D02*
X24116666Y-39142142D01*
X24116666Y-39142142D02*
X24069047Y-39237380D01*
X24069047Y-39237380D02*
X24021428Y-39285000D01*
X24021428Y-39285000D02*
X23926190Y-39332619D01*
X23926190Y-39332619D02*
X23688095Y-39332619D01*
X23688095Y-39332619D02*
X23592857Y-39285000D01*
X23592857Y-39285000D02*
X23545238Y-39237380D01*
%TO.C,J21*%
X7990476Y-135532619D02*
X7990476Y-136246904D01*
X7990476Y-136246904D02*
X7942857Y-136389761D01*
X7942857Y-136389761D02*
X7847619Y-136485000D01*
X7847619Y-136485000D02*
X7704762Y-136532619D01*
X7704762Y-136532619D02*
X7609524Y-136532619D01*
X8419048Y-135627857D02*
X8466667Y-135580238D01*
X8466667Y-135580238D02*
X8561905Y-135532619D01*
X8561905Y-135532619D02*
X8800000Y-135532619D01*
X8800000Y-135532619D02*
X8895238Y-135580238D01*
X8895238Y-135580238D02*
X8942857Y-135627857D01*
X8942857Y-135627857D02*
X8990476Y-135723095D01*
X8990476Y-135723095D02*
X8990476Y-135818333D01*
X8990476Y-135818333D02*
X8942857Y-135961190D01*
X8942857Y-135961190D02*
X8371429Y-136532619D01*
X8371429Y-136532619D02*
X8990476Y-136532619D01*
X9942857Y-136532619D02*
X9371429Y-136532619D01*
X9657143Y-136532619D02*
X9657143Y-135532619D01*
X9657143Y-135532619D02*
X9561905Y-135675476D01*
X9561905Y-135675476D02*
X9466667Y-135770714D01*
X9466667Y-135770714D02*
X9371429Y-135818333D01*
%TO.C,U1*%
X30238095Y-49562619D02*
X30238095Y-50372142D01*
X30238095Y-50372142D02*
X30285714Y-50467380D01*
X30285714Y-50467380D02*
X30333333Y-50515000D01*
X30333333Y-50515000D02*
X30428571Y-50562619D01*
X30428571Y-50562619D02*
X30619047Y-50562619D01*
X30619047Y-50562619D02*
X30714285Y-50515000D01*
X30714285Y-50515000D02*
X30761904Y-50467380D01*
X30761904Y-50467380D02*
X30809523Y-50372142D01*
X30809523Y-50372142D02*
X30809523Y-49562619D01*
X31809523Y-50562619D02*
X31238095Y-50562619D01*
X31523809Y-50562619D02*
X31523809Y-49562619D01*
X31523809Y-49562619D02*
X31428571Y-49705476D01*
X31428571Y-49705476D02*
X31333333Y-49800714D01*
X31333333Y-49800714D02*
X31238095Y-49848333D01*
%TO.C,R29*%
X25357142Y-156362619D02*
X25023809Y-155886428D01*
X24785714Y-156362619D02*
X24785714Y-155362619D01*
X24785714Y-155362619D02*
X25166666Y-155362619D01*
X25166666Y-155362619D02*
X25261904Y-155410238D01*
X25261904Y-155410238D02*
X25309523Y-155457857D01*
X25309523Y-155457857D02*
X25357142Y-155553095D01*
X25357142Y-155553095D02*
X25357142Y-155695952D01*
X25357142Y-155695952D02*
X25309523Y-155791190D01*
X25309523Y-155791190D02*
X25261904Y-155838809D01*
X25261904Y-155838809D02*
X25166666Y-155886428D01*
X25166666Y-155886428D02*
X24785714Y-155886428D01*
X25738095Y-155457857D02*
X25785714Y-155410238D01*
X25785714Y-155410238D02*
X25880952Y-155362619D01*
X25880952Y-155362619D02*
X26119047Y-155362619D01*
X26119047Y-155362619D02*
X26214285Y-155410238D01*
X26214285Y-155410238D02*
X26261904Y-155457857D01*
X26261904Y-155457857D02*
X26309523Y-155553095D01*
X26309523Y-155553095D02*
X26309523Y-155648333D01*
X26309523Y-155648333D02*
X26261904Y-155791190D01*
X26261904Y-155791190D02*
X25690476Y-156362619D01*
X25690476Y-156362619D02*
X26309523Y-156362619D01*
X26785714Y-156362619D02*
X26976190Y-156362619D01*
X26976190Y-156362619D02*
X27071428Y-156315000D01*
X27071428Y-156315000D02*
X27119047Y-156267380D01*
X27119047Y-156267380D02*
X27214285Y-156124523D01*
X27214285Y-156124523D02*
X27261904Y-155934047D01*
X27261904Y-155934047D02*
X27261904Y-155553095D01*
X27261904Y-155553095D02*
X27214285Y-155457857D01*
X27214285Y-155457857D02*
X27166666Y-155410238D01*
X27166666Y-155410238D02*
X27071428Y-155362619D01*
X27071428Y-155362619D02*
X26880952Y-155362619D01*
X26880952Y-155362619D02*
X26785714Y-155410238D01*
X26785714Y-155410238D02*
X26738095Y-155457857D01*
X26738095Y-155457857D02*
X26690476Y-155553095D01*
X26690476Y-155553095D02*
X26690476Y-155791190D01*
X26690476Y-155791190D02*
X26738095Y-155886428D01*
X26738095Y-155886428D02*
X26785714Y-155934047D01*
X26785714Y-155934047D02*
X26880952Y-155981666D01*
X26880952Y-155981666D02*
X27071428Y-155981666D01*
X27071428Y-155981666D02*
X27166666Y-155934047D01*
X27166666Y-155934047D02*
X27214285Y-155886428D01*
X27214285Y-155886428D02*
X27261904Y-155791190D01*
%TO.C,R21*%
X25357142Y-126362619D02*
X25023809Y-125886428D01*
X24785714Y-126362619D02*
X24785714Y-125362619D01*
X24785714Y-125362619D02*
X25166666Y-125362619D01*
X25166666Y-125362619D02*
X25261904Y-125410238D01*
X25261904Y-125410238D02*
X25309523Y-125457857D01*
X25309523Y-125457857D02*
X25357142Y-125553095D01*
X25357142Y-125553095D02*
X25357142Y-125695952D01*
X25357142Y-125695952D02*
X25309523Y-125791190D01*
X25309523Y-125791190D02*
X25261904Y-125838809D01*
X25261904Y-125838809D02*
X25166666Y-125886428D01*
X25166666Y-125886428D02*
X24785714Y-125886428D01*
X25738095Y-125457857D02*
X25785714Y-125410238D01*
X25785714Y-125410238D02*
X25880952Y-125362619D01*
X25880952Y-125362619D02*
X26119047Y-125362619D01*
X26119047Y-125362619D02*
X26214285Y-125410238D01*
X26214285Y-125410238D02*
X26261904Y-125457857D01*
X26261904Y-125457857D02*
X26309523Y-125553095D01*
X26309523Y-125553095D02*
X26309523Y-125648333D01*
X26309523Y-125648333D02*
X26261904Y-125791190D01*
X26261904Y-125791190D02*
X25690476Y-126362619D01*
X25690476Y-126362619D02*
X26309523Y-126362619D01*
X27261904Y-126362619D02*
X26690476Y-126362619D01*
X26976190Y-126362619D02*
X26976190Y-125362619D01*
X26976190Y-125362619D02*
X26880952Y-125505476D01*
X26880952Y-125505476D02*
X26785714Y-125600714D01*
X26785714Y-125600714D02*
X26690476Y-125648333D01*
%TO.C,J18*%
X30140476Y-105032619D02*
X30140476Y-105746904D01*
X30140476Y-105746904D02*
X30092857Y-105889761D01*
X30092857Y-105889761D02*
X29997619Y-105985000D01*
X29997619Y-105985000D02*
X29854762Y-106032619D01*
X29854762Y-106032619D02*
X29759524Y-106032619D01*
X31140476Y-106032619D02*
X30569048Y-106032619D01*
X30854762Y-106032619D02*
X30854762Y-105032619D01*
X30854762Y-105032619D02*
X30759524Y-105175476D01*
X30759524Y-105175476D02*
X30664286Y-105270714D01*
X30664286Y-105270714D02*
X30569048Y-105318333D01*
X31711905Y-105461190D02*
X31616667Y-105413571D01*
X31616667Y-105413571D02*
X31569048Y-105365952D01*
X31569048Y-105365952D02*
X31521429Y-105270714D01*
X31521429Y-105270714D02*
X31521429Y-105223095D01*
X31521429Y-105223095D02*
X31569048Y-105127857D01*
X31569048Y-105127857D02*
X31616667Y-105080238D01*
X31616667Y-105080238D02*
X31711905Y-105032619D01*
X31711905Y-105032619D02*
X31902381Y-105032619D01*
X31902381Y-105032619D02*
X31997619Y-105080238D01*
X31997619Y-105080238D02*
X32045238Y-105127857D01*
X32045238Y-105127857D02*
X32092857Y-105223095D01*
X32092857Y-105223095D02*
X32092857Y-105270714D01*
X32092857Y-105270714D02*
X32045238Y-105365952D01*
X32045238Y-105365952D02*
X31997619Y-105413571D01*
X31997619Y-105413571D02*
X31902381Y-105461190D01*
X31902381Y-105461190D02*
X31711905Y-105461190D01*
X31711905Y-105461190D02*
X31616667Y-105508809D01*
X31616667Y-105508809D02*
X31569048Y-105556428D01*
X31569048Y-105556428D02*
X31521429Y-105651666D01*
X31521429Y-105651666D02*
X31521429Y-105842142D01*
X31521429Y-105842142D02*
X31569048Y-105937380D01*
X31569048Y-105937380D02*
X31616667Y-105985000D01*
X31616667Y-105985000D02*
X31711905Y-106032619D01*
X31711905Y-106032619D02*
X31902381Y-106032619D01*
X31902381Y-106032619D02*
X31997619Y-105985000D01*
X31997619Y-105985000D02*
X32045238Y-105937380D01*
X32045238Y-105937380D02*
X32092857Y-105842142D01*
X32092857Y-105842142D02*
X32092857Y-105651666D01*
X32092857Y-105651666D02*
X32045238Y-105556428D01*
X32045238Y-105556428D02*
X31997619Y-105508809D01*
X31997619Y-105508809D02*
X31902381Y-105461190D01*
%TO.C,R9*%
X25833333Y-77462619D02*
X25500000Y-76986428D01*
X25261905Y-77462619D02*
X25261905Y-76462619D01*
X25261905Y-76462619D02*
X25642857Y-76462619D01*
X25642857Y-76462619D02*
X25738095Y-76510238D01*
X25738095Y-76510238D02*
X25785714Y-76557857D01*
X25785714Y-76557857D02*
X25833333Y-76653095D01*
X25833333Y-76653095D02*
X25833333Y-76795952D01*
X25833333Y-76795952D02*
X25785714Y-76891190D01*
X25785714Y-76891190D02*
X25738095Y-76938809D01*
X25738095Y-76938809D02*
X25642857Y-76986428D01*
X25642857Y-76986428D02*
X25261905Y-76986428D01*
X26309524Y-77462619D02*
X26500000Y-77462619D01*
X26500000Y-77462619D02*
X26595238Y-77415000D01*
X26595238Y-77415000D02*
X26642857Y-77367380D01*
X26642857Y-77367380D02*
X26738095Y-77224523D01*
X26738095Y-77224523D02*
X26785714Y-77034047D01*
X26785714Y-77034047D02*
X26785714Y-76653095D01*
X26785714Y-76653095D02*
X26738095Y-76557857D01*
X26738095Y-76557857D02*
X26690476Y-76510238D01*
X26690476Y-76510238D02*
X26595238Y-76462619D01*
X26595238Y-76462619D02*
X26404762Y-76462619D01*
X26404762Y-76462619D02*
X26309524Y-76510238D01*
X26309524Y-76510238D02*
X26261905Y-76557857D01*
X26261905Y-76557857D02*
X26214286Y-76653095D01*
X26214286Y-76653095D02*
X26214286Y-76891190D01*
X26214286Y-76891190D02*
X26261905Y-76986428D01*
X26261905Y-76986428D02*
X26309524Y-77034047D01*
X26309524Y-77034047D02*
X26404762Y-77081666D01*
X26404762Y-77081666D02*
X26595238Y-77081666D01*
X26595238Y-77081666D02*
X26690476Y-77034047D01*
X26690476Y-77034047D02*
X26738095Y-76986428D01*
X26738095Y-76986428D02*
X26785714Y-76891190D01*
%TO.C,R26*%
X35357142Y-152462619D02*
X35023809Y-151986428D01*
X34785714Y-152462619D02*
X34785714Y-151462619D01*
X34785714Y-151462619D02*
X35166666Y-151462619D01*
X35166666Y-151462619D02*
X35261904Y-151510238D01*
X35261904Y-151510238D02*
X35309523Y-151557857D01*
X35309523Y-151557857D02*
X35357142Y-151653095D01*
X35357142Y-151653095D02*
X35357142Y-151795952D01*
X35357142Y-151795952D02*
X35309523Y-151891190D01*
X35309523Y-151891190D02*
X35261904Y-151938809D01*
X35261904Y-151938809D02*
X35166666Y-151986428D01*
X35166666Y-151986428D02*
X34785714Y-151986428D01*
X35738095Y-151557857D02*
X35785714Y-151510238D01*
X35785714Y-151510238D02*
X35880952Y-151462619D01*
X35880952Y-151462619D02*
X36119047Y-151462619D01*
X36119047Y-151462619D02*
X36214285Y-151510238D01*
X36214285Y-151510238D02*
X36261904Y-151557857D01*
X36261904Y-151557857D02*
X36309523Y-151653095D01*
X36309523Y-151653095D02*
X36309523Y-151748333D01*
X36309523Y-151748333D02*
X36261904Y-151891190D01*
X36261904Y-151891190D02*
X35690476Y-152462619D01*
X35690476Y-152462619D02*
X36309523Y-152462619D01*
X37166666Y-151462619D02*
X36976190Y-151462619D01*
X36976190Y-151462619D02*
X36880952Y-151510238D01*
X36880952Y-151510238D02*
X36833333Y-151557857D01*
X36833333Y-151557857D02*
X36738095Y-151700714D01*
X36738095Y-151700714D02*
X36690476Y-151891190D01*
X36690476Y-151891190D02*
X36690476Y-152272142D01*
X36690476Y-152272142D02*
X36738095Y-152367380D01*
X36738095Y-152367380D02*
X36785714Y-152415000D01*
X36785714Y-152415000D02*
X36880952Y-152462619D01*
X36880952Y-152462619D02*
X37071428Y-152462619D01*
X37071428Y-152462619D02*
X37166666Y-152415000D01*
X37166666Y-152415000D02*
X37214285Y-152367380D01*
X37214285Y-152367380D02*
X37261904Y-152272142D01*
X37261904Y-152272142D02*
X37261904Y-152034047D01*
X37261904Y-152034047D02*
X37214285Y-151938809D01*
X37214285Y-151938809D02*
X37166666Y-151891190D01*
X37166666Y-151891190D02*
X37071428Y-151843571D01*
X37071428Y-151843571D02*
X36880952Y-151843571D01*
X36880952Y-151843571D02*
X36785714Y-151891190D01*
X36785714Y-151891190D02*
X36738095Y-151938809D01*
X36738095Y-151938809D02*
X36690476Y-152034047D01*
%TO.C,R11*%
X25357142Y-79362619D02*
X25023809Y-78886428D01*
X24785714Y-79362619D02*
X24785714Y-78362619D01*
X24785714Y-78362619D02*
X25166666Y-78362619D01*
X25166666Y-78362619D02*
X25261904Y-78410238D01*
X25261904Y-78410238D02*
X25309523Y-78457857D01*
X25309523Y-78457857D02*
X25357142Y-78553095D01*
X25357142Y-78553095D02*
X25357142Y-78695952D01*
X25357142Y-78695952D02*
X25309523Y-78791190D01*
X25309523Y-78791190D02*
X25261904Y-78838809D01*
X25261904Y-78838809D02*
X25166666Y-78886428D01*
X25166666Y-78886428D02*
X24785714Y-78886428D01*
X26309523Y-79362619D02*
X25738095Y-79362619D01*
X26023809Y-79362619D02*
X26023809Y-78362619D01*
X26023809Y-78362619D02*
X25928571Y-78505476D01*
X25928571Y-78505476D02*
X25833333Y-78600714D01*
X25833333Y-78600714D02*
X25738095Y-78648333D01*
X27261904Y-79362619D02*
X26690476Y-79362619D01*
X26976190Y-79362619D02*
X26976190Y-78362619D01*
X26976190Y-78362619D02*
X26880952Y-78505476D01*
X26880952Y-78505476D02*
X26785714Y-78600714D01*
X26785714Y-78600714D02*
X26690476Y-78648333D01*
%TO.C,R16*%
X35357142Y-96462619D02*
X35023809Y-95986428D01*
X34785714Y-96462619D02*
X34785714Y-95462619D01*
X34785714Y-95462619D02*
X35166666Y-95462619D01*
X35166666Y-95462619D02*
X35261904Y-95510238D01*
X35261904Y-95510238D02*
X35309523Y-95557857D01*
X35309523Y-95557857D02*
X35357142Y-95653095D01*
X35357142Y-95653095D02*
X35357142Y-95795952D01*
X35357142Y-95795952D02*
X35309523Y-95891190D01*
X35309523Y-95891190D02*
X35261904Y-95938809D01*
X35261904Y-95938809D02*
X35166666Y-95986428D01*
X35166666Y-95986428D02*
X34785714Y-95986428D01*
X36309523Y-96462619D02*
X35738095Y-96462619D01*
X36023809Y-96462619D02*
X36023809Y-95462619D01*
X36023809Y-95462619D02*
X35928571Y-95605476D01*
X35928571Y-95605476D02*
X35833333Y-95700714D01*
X35833333Y-95700714D02*
X35738095Y-95748333D01*
X37166666Y-95462619D02*
X36976190Y-95462619D01*
X36976190Y-95462619D02*
X36880952Y-95510238D01*
X36880952Y-95510238D02*
X36833333Y-95557857D01*
X36833333Y-95557857D02*
X36738095Y-95700714D01*
X36738095Y-95700714D02*
X36690476Y-95891190D01*
X36690476Y-95891190D02*
X36690476Y-96272142D01*
X36690476Y-96272142D02*
X36738095Y-96367380D01*
X36738095Y-96367380D02*
X36785714Y-96415000D01*
X36785714Y-96415000D02*
X36880952Y-96462619D01*
X36880952Y-96462619D02*
X37071428Y-96462619D01*
X37071428Y-96462619D02*
X37166666Y-96415000D01*
X37166666Y-96415000D02*
X37214285Y-96367380D01*
X37214285Y-96367380D02*
X37261904Y-96272142D01*
X37261904Y-96272142D02*
X37261904Y-96034047D01*
X37261904Y-96034047D02*
X37214285Y-95938809D01*
X37214285Y-95938809D02*
X37166666Y-95891190D01*
X37166666Y-95891190D02*
X37071428Y-95843571D01*
X37071428Y-95843571D02*
X36880952Y-95843571D01*
X36880952Y-95843571D02*
X36785714Y-95891190D01*
X36785714Y-95891190D02*
X36738095Y-95938809D01*
X36738095Y-95938809D02*
X36690476Y-96034047D01*
%TO.C,R1*%
X25833333Y-44462619D02*
X25500000Y-43986428D01*
X25261905Y-44462619D02*
X25261905Y-43462619D01*
X25261905Y-43462619D02*
X25642857Y-43462619D01*
X25642857Y-43462619D02*
X25738095Y-43510238D01*
X25738095Y-43510238D02*
X25785714Y-43557857D01*
X25785714Y-43557857D02*
X25833333Y-43653095D01*
X25833333Y-43653095D02*
X25833333Y-43795952D01*
X25833333Y-43795952D02*
X25785714Y-43891190D01*
X25785714Y-43891190D02*
X25738095Y-43938809D01*
X25738095Y-43938809D02*
X25642857Y-43986428D01*
X25642857Y-43986428D02*
X25261905Y-43986428D01*
X26785714Y-44462619D02*
X26214286Y-44462619D01*
X26500000Y-44462619D02*
X26500000Y-43462619D01*
X26500000Y-43462619D02*
X26404762Y-43605476D01*
X26404762Y-43605476D02*
X26309524Y-43700714D01*
X26309524Y-43700714D02*
X26214286Y-43748333D01*
%TO.C,R18*%
X35357142Y-109462619D02*
X35023809Y-108986428D01*
X34785714Y-109462619D02*
X34785714Y-108462619D01*
X34785714Y-108462619D02*
X35166666Y-108462619D01*
X35166666Y-108462619D02*
X35261904Y-108510238D01*
X35261904Y-108510238D02*
X35309523Y-108557857D01*
X35309523Y-108557857D02*
X35357142Y-108653095D01*
X35357142Y-108653095D02*
X35357142Y-108795952D01*
X35357142Y-108795952D02*
X35309523Y-108891190D01*
X35309523Y-108891190D02*
X35261904Y-108938809D01*
X35261904Y-108938809D02*
X35166666Y-108986428D01*
X35166666Y-108986428D02*
X34785714Y-108986428D01*
X36309523Y-109462619D02*
X35738095Y-109462619D01*
X36023809Y-109462619D02*
X36023809Y-108462619D01*
X36023809Y-108462619D02*
X35928571Y-108605476D01*
X35928571Y-108605476D02*
X35833333Y-108700714D01*
X35833333Y-108700714D02*
X35738095Y-108748333D01*
X36880952Y-108891190D02*
X36785714Y-108843571D01*
X36785714Y-108843571D02*
X36738095Y-108795952D01*
X36738095Y-108795952D02*
X36690476Y-108700714D01*
X36690476Y-108700714D02*
X36690476Y-108653095D01*
X36690476Y-108653095D02*
X36738095Y-108557857D01*
X36738095Y-108557857D02*
X36785714Y-108510238D01*
X36785714Y-108510238D02*
X36880952Y-108462619D01*
X36880952Y-108462619D02*
X37071428Y-108462619D01*
X37071428Y-108462619D02*
X37166666Y-108510238D01*
X37166666Y-108510238D02*
X37214285Y-108557857D01*
X37214285Y-108557857D02*
X37261904Y-108653095D01*
X37261904Y-108653095D02*
X37261904Y-108700714D01*
X37261904Y-108700714D02*
X37214285Y-108795952D01*
X37214285Y-108795952D02*
X37166666Y-108843571D01*
X37166666Y-108843571D02*
X37071428Y-108891190D01*
X37071428Y-108891190D02*
X36880952Y-108891190D01*
X36880952Y-108891190D02*
X36785714Y-108938809D01*
X36785714Y-108938809D02*
X36738095Y-108986428D01*
X36738095Y-108986428D02*
X36690476Y-109081666D01*
X36690476Y-109081666D02*
X36690476Y-109272142D01*
X36690476Y-109272142D02*
X36738095Y-109367380D01*
X36738095Y-109367380D02*
X36785714Y-109415000D01*
X36785714Y-109415000D02*
X36880952Y-109462619D01*
X36880952Y-109462619D02*
X37071428Y-109462619D01*
X37071428Y-109462619D02*
X37166666Y-109415000D01*
X37166666Y-109415000D02*
X37214285Y-109367380D01*
X37214285Y-109367380D02*
X37261904Y-109272142D01*
X37261904Y-109272142D02*
X37261904Y-109081666D01*
X37261904Y-109081666D02*
X37214285Y-108986428D01*
X37214285Y-108986428D02*
X37166666Y-108938809D01*
X37166666Y-108938809D02*
X37071428Y-108891190D01*
%TO.C,J12*%
X29940476Y-72632619D02*
X29940476Y-73346904D01*
X29940476Y-73346904D02*
X29892857Y-73489761D01*
X29892857Y-73489761D02*
X29797619Y-73585000D01*
X29797619Y-73585000D02*
X29654762Y-73632619D01*
X29654762Y-73632619D02*
X29559524Y-73632619D01*
X30940476Y-73632619D02*
X30369048Y-73632619D01*
X30654762Y-73632619D02*
X30654762Y-72632619D01*
X30654762Y-72632619D02*
X30559524Y-72775476D01*
X30559524Y-72775476D02*
X30464286Y-72870714D01*
X30464286Y-72870714D02*
X30369048Y-72918333D01*
X31321429Y-72727857D02*
X31369048Y-72680238D01*
X31369048Y-72680238D02*
X31464286Y-72632619D01*
X31464286Y-72632619D02*
X31702381Y-72632619D01*
X31702381Y-72632619D02*
X31797619Y-72680238D01*
X31797619Y-72680238D02*
X31845238Y-72727857D01*
X31845238Y-72727857D02*
X31892857Y-72823095D01*
X31892857Y-72823095D02*
X31892857Y-72918333D01*
X31892857Y-72918333D02*
X31845238Y-73061190D01*
X31845238Y-73061190D02*
X31273810Y-73632619D01*
X31273810Y-73632619D02*
X31892857Y-73632619D01*
%TO.C,R7*%
X25833333Y-63462619D02*
X25500000Y-62986428D01*
X25261905Y-63462619D02*
X25261905Y-62462619D01*
X25261905Y-62462619D02*
X25642857Y-62462619D01*
X25642857Y-62462619D02*
X25738095Y-62510238D01*
X25738095Y-62510238D02*
X25785714Y-62557857D01*
X25785714Y-62557857D02*
X25833333Y-62653095D01*
X25833333Y-62653095D02*
X25833333Y-62795952D01*
X25833333Y-62795952D02*
X25785714Y-62891190D01*
X25785714Y-62891190D02*
X25738095Y-62938809D01*
X25738095Y-62938809D02*
X25642857Y-62986428D01*
X25642857Y-62986428D02*
X25261905Y-62986428D01*
X26166667Y-62462619D02*
X26833333Y-62462619D01*
X26833333Y-62462619D02*
X26404762Y-63462619D01*
%TO.C,R23*%
X25357142Y-128362619D02*
X25023809Y-127886428D01*
X24785714Y-128362619D02*
X24785714Y-127362619D01*
X24785714Y-127362619D02*
X25166666Y-127362619D01*
X25166666Y-127362619D02*
X25261904Y-127410238D01*
X25261904Y-127410238D02*
X25309523Y-127457857D01*
X25309523Y-127457857D02*
X25357142Y-127553095D01*
X25357142Y-127553095D02*
X25357142Y-127695952D01*
X25357142Y-127695952D02*
X25309523Y-127791190D01*
X25309523Y-127791190D02*
X25261904Y-127838809D01*
X25261904Y-127838809D02*
X25166666Y-127886428D01*
X25166666Y-127886428D02*
X24785714Y-127886428D01*
X25738095Y-127457857D02*
X25785714Y-127410238D01*
X25785714Y-127410238D02*
X25880952Y-127362619D01*
X25880952Y-127362619D02*
X26119047Y-127362619D01*
X26119047Y-127362619D02*
X26214285Y-127410238D01*
X26214285Y-127410238D02*
X26261904Y-127457857D01*
X26261904Y-127457857D02*
X26309523Y-127553095D01*
X26309523Y-127553095D02*
X26309523Y-127648333D01*
X26309523Y-127648333D02*
X26261904Y-127791190D01*
X26261904Y-127791190D02*
X25690476Y-128362619D01*
X25690476Y-128362619D02*
X26309523Y-128362619D01*
X26642857Y-127362619D02*
X27261904Y-127362619D01*
X27261904Y-127362619D02*
X26928571Y-127743571D01*
X26928571Y-127743571D02*
X27071428Y-127743571D01*
X27071428Y-127743571D02*
X27166666Y-127791190D01*
X27166666Y-127791190D02*
X27214285Y-127838809D01*
X27214285Y-127838809D02*
X27261904Y-127934047D01*
X27261904Y-127934047D02*
X27261904Y-128172142D01*
X27261904Y-128172142D02*
X27214285Y-128267380D01*
X27214285Y-128267380D02*
X27166666Y-128315000D01*
X27166666Y-128315000D02*
X27071428Y-128362619D01*
X27071428Y-128362619D02*
X26785714Y-128362619D01*
X26785714Y-128362619D02*
X26690476Y-128315000D01*
X26690476Y-128315000D02*
X26642857Y-128267380D01*
%TO.C,R15*%
X25357142Y-96362619D02*
X25023809Y-95886428D01*
X24785714Y-96362619D02*
X24785714Y-95362619D01*
X24785714Y-95362619D02*
X25166666Y-95362619D01*
X25166666Y-95362619D02*
X25261904Y-95410238D01*
X25261904Y-95410238D02*
X25309523Y-95457857D01*
X25309523Y-95457857D02*
X25357142Y-95553095D01*
X25357142Y-95553095D02*
X25357142Y-95695952D01*
X25357142Y-95695952D02*
X25309523Y-95791190D01*
X25309523Y-95791190D02*
X25261904Y-95838809D01*
X25261904Y-95838809D02*
X25166666Y-95886428D01*
X25166666Y-95886428D02*
X24785714Y-95886428D01*
X26309523Y-96362619D02*
X25738095Y-96362619D01*
X26023809Y-96362619D02*
X26023809Y-95362619D01*
X26023809Y-95362619D02*
X25928571Y-95505476D01*
X25928571Y-95505476D02*
X25833333Y-95600714D01*
X25833333Y-95600714D02*
X25738095Y-95648333D01*
X27214285Y-95362619D02*
X26738095Y-95362619D01*
X26738095Y-95362619D02*
X26690476Y-95838809D01*
X26690476Y-95838809D02*
X26738095Y-95791190D01*
X26738095Y-95791190D02*
X26833333Y-95743571D01*
X26833333Y-95743571D02*
X27071428Y-95743571D01*
X27071428Y-95743571D02*
X27166666Y-95791190D01*
X27166666Y-95791190D02*
X27214285Y-95838809D01*
X27214285Y-95838809D02*
X27261904Y-95934047D01*
X27261904Y-95934047D02*
X27261904Y-96172142D01*
X27261904Y-96172142D02*
X27214285Y-96267380D01*
X27214285Y-96267380D02*
X27166666Y-96315000D01*
X27166666Y-96315000D02*
X27071428Y-96362619D01*
X27071428Y-96362619D02*
X26833333Y-96362619D01*
X26833333Y-96362619D02*
X26738095Y-96315000D01*
X26738095Y-96315000D02*
X26690476Y-96267380D01*
%TO.C,R24*%
X35357142Y-128462619D02*
X35023809Y-127986428D01*
X34785714Y-128462619D02*
X34785714Y-127462619D01*
X34785714Y-127462619D02*
X35166666Y-127462619D01*
X35166666Y-127462619D02*
X35261904Y-127510238D01*
X35261904Y-127510238D02*
X35309523Y-127557857D01*
X35309523Y-127557857D02*
X35357142Y-127653095D01*
X35357142Y-127653095D02*
X35357142Y-127795952D01*
X35357142Y-127795952D02*
X35309523Y-127891190D01*
X35309523Y-127891190D02*
X35261904Y-127938809D01*
X35261904Y-127938809D02*
X35166666Y-127986428D01*
X35166666Y-127986428D02*
X34785714Y-127986428D01*
X35738095Y-127557857D02*
X35785714Y-127510238D01*
X35785714Y-127510238D02*
X35880952Y-127462619D01*
X35880952Y-127462619D02*
X36119047Y-127462619D01*
X36119047Y-127462619D02*
X36214285Y-127510238D01*
X36214285Y-127510238D02*
X36261904Y-127557857D01*
X36261904Y-127557857D02*
X36309523Y-127653095D01*
X36309523Y-127653095D02*
X36309523Y-127748333D01*
X36309523Y-127748333D02*
X36261904Y-127891190D01*
X36261904Y-127891190D02*
X35690476Y-128462619D01*
X35690476Y-128462619D02*
X36309523Y-128462619D01*
X37166666Y-127795952D02*
X37166666Y-128462619D01*
X36928571Y-127415000D02*
X36690476Y-128129285D01*
X36690476Y-128129285D02*
X37309523Y-128129285D01*
%TO.C,J11*%
X22790476Y-72632619D02*
X22790476Y-73346904D01*
X22790476Y-73346904D02*
X22742857Y-73489761D01*
X22742857Y-73489761D02*
X22647619Y-73585000D01*
X22647619Y-73585000D02*
X22504762Y-73632619D01*
X22504762Y-73632619D02*
X22409524Y-73632619D01*
X23790476Y-73632619D02*
X23219048Y-73632619D01*
X23504762Y-73632619D02*
X23504762Y-72632619D01*
X23504762Y-72632619D02*
X23409524Y-72775476D01*
X23409524Y-72775476D02*
X23314286Y-72870714D01*
X23314286Y-72870714D02*
X23219048Y-72918333D01*
X24742857Y-73632619D02*
X24171429Y-73632619D01*
X24457143Y-73632619D02*
X24457143Y-72632619D01*
X24457143Y-72632619D02*
X24361905Y-72775476D01*
X24361905Y-72775476D02*
X24266667Y-72870714D01*
X24266667Y-72870714D02*
X24171429Y-72918333D01*
%TO.C,R5*%
X25833333Y-48462619D02*
X25500000Y-47986428D01*
X25261905Y-48462619D02*
X25261905Y-47462619D01*
X25261905Y-47462619D02*
X25642857Y-47462619D01*
X25642857Y-47462619D02*
X25738095Y-47510238D01*
X25738095Y-47510238D02*
X25785714Y-47557857D01*
X25785714Y-47557857D02*
X25833333Y-47653095D01*
X25833333Y-47653095D02*
X25833333Y-47795952D01*
X25833333Y-47795952D02*
X25785714Y-47891190D01*
X25785714Y-47891190D02*
X25738095Y-47938809D01*
X25738095Y-47938809D02*
X25642857Y-47986428D01*
X25642857Y-47986428D02*
X25261905Y-47986428D01*
X26738095Y-47462619D02*
X26261905Y-47462619D01*
X26261905Y-47462619D02*
X26214286Y-47938809D01*
X26214286Y-47938809D02*
X26261905Y-47891190D01*
X26261905Y-47891190D02*
X26357143Y-47843571D01*
X26357143Y-47843571D02*
X26595238Y-47843571D01*
X26595238Y-47843571D02*
X26690476Y-47891190D01*
X26690476Y-47891190D02*
X26738095Y-47938809D01*
X26738095Y-47938809D02*
X26785714Y-48034047D01*
X26785714Y-48034047D02*
X26785714Y-48272142D01*
X26785714Y-48272142D02*
X26738095Y-48367380D01*
X26738095Y-48367380D02*
X26690476Y-48415000D01*
X26690476Y-48415000D02*
X26595238Y-48462619D01*
X26595238Y-48462619D02*
X26357143Y-48462619D01*
X26357143Y-48462619D02*
X26261905Y-48415000D01*
X26261905Y-48415000D02*
X26214286Y-48367380D01*
%TO.C,R30*%
X35357142Y-156462619D02*
X35023809Y-155986428D01*
X34785714Y-156462619D02*
X34785714Y-155462619D01*
X34785714Y-155462619D02*
X35166666Y-155462619D01*
X35166666Y-155462619D02*
X35261904Y-155510238D01*
X35261904Y-155510238D02*
X35309523Y-155557857D01*
X35309523Y-155557857D02*
X35357142Y-155653095D01*
X35357142Y-155653095D02*
X35357142Y-155795952D01*
X35357142Y-155795952D02*
X35309523Y-155891190D01*
X35309523Y-155891190D02*
X35261904Y-155938809D01*
X35261904Y-155938809D02*
X35166666Y-155986428D01*
X35166666Y-155986428D02*
X34785714Y-155986428D01*
X35690476Y-155462619D02*
X36309523Y-155462619D01*
X36309523Y-155462619D02*
X35976190Y-155843571D01*
X35976190Y-155843571D02*
X36119047Y-155843571D01*
X36119047Y-155843571D02*
X36214285Y-155891190D01*
X36214285Y-155891190D02*
X36261904Y-155938809D01*
X36261904Y-155938809D02*
X36309523Y-156034047D01*
X36309523Y-156034047D02*
X36309523Y-156272142D01*
X36309523Y-156272142D02*
X36261904Y-156367380D01*
X36261904Y-156367380D02*
X36214285Y-156415000D01*
X36214285Y-156415000D02*
X36119047Y-156462619D01*
X36119047Y-156462619D02*
X35833333Y-156462619D01*
X35833333Y-156462619D02*
X35738095Y-156415000D01*
X35738095Y-156415000D02*
X35690476Y-156367380D01*
X36928571Y-155462619D02*
X37023809Y-155462619D01*
X37023809Y-155462619D02*
X37119047Y-155510238D01*
X37119047Y-155510238D02*
X37166666Y-155557857D01*
X37166666Y-155557857D02*
X37214285Y-155653095D01*
X37214285Y-155653095D02*
X37261904Y-155843571D01*
X37261904Y-155843571D02*
X37261904Y-156081666D01*
X37261904Y-156081666D02*
X37214285Y-156272142D01*
X37214285Y-156272142D02*
X37166666Y-156367380D01*
X37166666Y-156367380D02*
X37119047Y-156415000D01*
X37119047Y-156415000D02*
X37023809Y-156462619D01*
X37023809Y-156462619D02*
X36928571Y-156462619D01*
X36928571Y-156462619D02*
X36833333Y-156415000D01*
X36833333Y-156415000D02*
X36785714Y-156367380D01*
X36785714Y-156367380D02*
X36738095Y-156272142D01*
X36738095Y-156272142D02*
X36690476Y-156081666D01*
X36690476Y-156081666D02*
X36690476Y-155843571D01*
X36690476Y-155843571D02*
X36738095Y-155653095D01*
X36738095Y-155653095D02*
X36785714Y-155557857D01*
X36785714Y-155557857D02*
X36833333Y-155510238D01*
X36833333Y-155510238D02*
X36928571Y-155462619D01*
%TO.C,U3*%
X30238095Y-109562619D02*
X30238095Y-110372142D01*
X30238095Y-110372142D02*
X30285714Y-110467380D01*
X30285714Y-110467380D02*
X30333333Y-110515000D01*
X30333333Y-110515000D02*
X30428571Y-110562619D01*
X30428571Y-110562619D02*
X30619047Y-110562619D01*
X30619047Y-110562619D02*
X30714285Y-110515000D01*
X30714285Y-110515000D02*
X30761904Y-110467380D01*
X30761904Y-110467380D02*
X30809523Y-110372142D01*
X30809523Y-110372142D02*
X30809523Y-109562619D01*
X31190476Y-109562619D02*
X31809523Y-109562619D01*
X31809523Y-109562619D02*
X31476190Y-109943571D01*
X31476190Y-109943571D02*
X31619047Y-109943571D01*
X31619047Y-109943571D02*
X31714285Y-109991190D01*
X31714285Y-109991190D02*
X31761904Y-110038809D01*
X31761904Y-110038809D02*
X31809523Y-110134047D01*
X31809523Y-110134047D02*
X31809523Y-110372142D01*
X31809523Y-110372142D02*
X31761904Y-110467380D01*
X31761904Y-110467380D02*
X31714285Y-110515000D01*
X31714285Y-110515000D02*
X31619047Y-110562619D01*
X31619047Y-110562619D02*
X31333333Y-110562619D01*
X31333333Y-110562619D02*
X31238095Y-110515000D01*
X31238095Y-110515000D02*
X31190476Y-110467380D01*
%TO.C,J3*%
X9416666Y-38332619D02*
X9416666Y-39046904D01*
X9416666Y-39046904D02*
X9369047Y-39189761D01*
X9369047Y-39189761D02*
X9273809Y-39285000D01*
X9273809Y-39285000D02*
X9130952Y-39332619D01*
X9130952Y-39332619D02*
X9035714Y-39332619D01*
X9797619Y-38332619D02*
X10416666Y-38332619D01*
X10416666Y-38332619D02*
X10083333Y-38713571D01*
X10083333Y-38713571D02*
X10226190Y-38713571D01*
X10226190Y-38713571D02*
X10321428Y-38761190D01*
X10321428Y-38761190D02*
X10369047Y-38808809D01*
X10369047Y-38808809D02*
X10416666Y-38904047D01*
X10416666Y-38904047D02*
X10416666Y-39142142D01*
X10416666Y-39142142D02*
X10369047Y-39237380D01*
X10369047Y-39237380D02*
X10321428Y-39285000D01*
X10321428Y-39285000D02*
X10226190Y-39332619D01*
X10226190Y-39332619D02*
X9940476Y-39332619D01*
X9940476Y-39332619D02*
X9845238Y-39285000D01*
X9845238Y-39285000D02*
X9797619Y-39237380D01*
%TO.C,J16*%
X15540476Y-105032619D02*
X15540476Y-105746904D01*
X15540476Y-105746904D02*
X15492857Y-105889761D01*
X15492857Y-105889761D02*
X15397619Y-105985000D01*
X15397619Y-105985000D02*
X15254762Y-106032619D01*
X15254762Y-106032619D02*
X15159524Y-106032619D01*
X16540476Y-106032619D02*
X15969048Y-106032619D01*
X16254762Y-106032619D02*
X16254762Y-105032619D01*
X16254762Y-105032619D02*
X16159524Y-105175476D01*
X16159524Y-105175476D02*
X16064286Y-105270714D01*
X16064286Y-105270714D02*
X15969048Y-105318333D01*
X17397619Y-105032619D02*
X17207143Y-105032619D01*
X17207143Y-105032619D02*
X17111905Y-105080238D01*
X17111905Y-105080238D02*
X17064286Y-105127857D01*
X17064286Y-105127857D02*
X16969048Y-105270714D01*
X16969048Y-105270714D02*
X16921429Y-105461190D01*
X16921429Y-105461190D02*
X16921429Y-105842142D01*
X16921429Y-105842142D02*
X16969048Y-105937380D01*
X16969048Y-105937380D02*
X17016667Y-105985000D01*
X17016667Y-105985000D02*
X17111905Y-106032619D01*
X17111905Y-106032619D02*
X17302381Y-106032619D01*
X17302381Y-106032619D02*
X17397619Y-105985000D01*
X17397619Y-105985000D02*
X17445238Y-105937380D01*
X17445238Y-105937380D02*
X17492857Y-105842142D01*
X17492857Y-105842142D02*
X17492857Y-105604047D01*
X17492857Y-105604047D02*
X17445238Y-105508809D01*
X17445238Y-105508809D02*
X17397619Y-105461190D01*
X17397619Y-105461190D02*
X17302381Y-105413571D01*
X17302381Y-105413571D02*
X17111905Y-105413571D01*
X17111905Y-105413571D02*
X17016667Y-105461190D01*
X17016667Y-105461190D02*
X16969048Y-105508809D01*
X16969048Y-105508809D02*
X16921429Y-105604047D01*
%TO.C,R22*%
X35357142Y-126462619D02*
X35023809Y-125986428D01*
X34785714Y-126462619D02*
X34785714Y-125462619D01*
X34785714Y-125462619D02*
X35166666Y-125462619D01*
X35166666Y-125462619D02*
X35261904Y-125510238D01*
X35261904Y-125510238D02*
X35309523Y-125557857D01*
X35309523Y-125557857D02*
X35357142Y-125653095D01*
X35357142Y-125653095D02*
X35357142Y-125795952D01*
X35357142Y-125795952D02*
X35309523Y-125891190D01*
X35309523Y-125891190D02*
X35261904Y-125938809D01*
X35261904Y-125938809D02*
X35166666Y-125986428D01*
X35166666Y-125986428D02*
X34785714Y-125986428D01*
X35738095Y-125557857D02*
X35785714Y-125510238D01*
X35785714Y-125510238D02*
X35880952Y-125462619D01*
X35880952Y-125462619D02*
X36119047Y-125462619D01*
X36119047Y-125462619D02*
X36214285Y-125510238D01*
X36214285Y-125510238D02*
X36261904Y-125557857D01*
X36261904Y-125557857D02*
X36309523Y-125653095D01*
X36309523Y-125653095D02*
X36309523Y-125748333D01*
X36309523Y-125748333D02*
X36261904Y-125891190D01*
X36261904Y-125891190D02*
X35690476Y-126462619D01*
X35690476Y-126462619D02*
X36309523Y-126462619D01*
X36690476Y-125557857D02*
X36738095Y-125510238D01*
X36738095Y-125510238D02*
X36833333Y-125462619D01*
X36833333Y-125462619D02*
X37071428Y-125462619D01*
X37071428Y-125462619D02*
X37166666Y-125510238D01*
X37166666Y-125510238D02*
X37214285Y-125557857D01*
X37214285Y-125557857D02*
X37261904Y-125653095D01*
X37261904Y-125653095D02*
X37261904Y-125748333D01*
X37261904Y-125748333D02*
X37214285Y-125891190D01*
X37214285Y-125891190D02*
X36642857Y-126462619D01*
X36642857Y-126462619D02*
X37261904Y-126462619D01*
%TO.C,J9*%
X8916666Y-72632619D02*
X8916666Y-73346904D01*
X8916666Y-73346904D02*
X8869047Y-73489761D01*
X8869047Y-73489761D02*
X8773809Y-73585000D01*
X8773809Y-73585000D02*
X8630952Y-73632619D01*
X8630952Y-73632619D02*
X8535714Y-73632619D01*
X9440476Y-73632619D02*
X9630952Y-73632619D01*
X9630952Y-73632619D02*
X9726190Y-73585000D01*
X9726190Y-73585000D02*
X9773809Y-73537380D01*
X9773809Y-73537380D02*
X9869047Y-73394523D01*
X9869047Y-73394523D02*
X9916666Y-73204047D01*
X9916666Y-73204047D02*
X9916666Y-72823095D01*
X9916666Y-72823095D02*
X9869047Y-72727857D01*
X9869047Y-72727857D02*
X9821428Y-72680238D01*
X9821428Y-72680238D02*
X9726190Y-72632619D01*
X9726190Y-72632619D02*
X9535714Y-72632619D01*
X9535714Y-72632619D02*
X9440476Y-72680238D01*
X9440476Y-72680238D02*
X9392857Y-72727857D01*
X9392857Y-72727857D02*
X9345238Y-72823095D01*
X9345238Y-72823095D02*
X9345238Y-73061190D01*
X9345238Y-73061190D02*
X9392857Y-73156428D01*
X9392857Y-73156428D02*
X9440476Y-73204047D01*
X9440476Y-73204047D02*
X9535714Y-73251666D01*
X9535714Y-73251666D02*
X9726190Y-73251666D01*
X9726190Y-73251666D02*
X9821428Y-73204047D01*
X9821428Y-73204047D02*
X9869047Y-73156428D01*
X9869047Y-73156428D02*
X9916666Y-73061190D01*
%TO.C,J17*%
X22840476Y-105032619D02*
X22840476Y-105746904D01*
X22840476Y-105746904D02*
X22792857Y-105889761D01*
X22792857Y-105889761D02*
X22697619Y-105985000D01*
X22697619Y-105985000D02*
X22554762Y-106032619D01*
X22554762Y-106032619D02*
X22459524Y-106032619D01*
X23840476Y-106032619D02*
X23269048Y-106032619D01*
X23554762Y-106032619D02*
X23554762Y-105032619D01*
X23554762Y-105032619D02*
X23459524Y-105175476D01*
X23459524Y-105175476D02*
X23364286Y-105270714D01*
X23364286Y-105270714D02*
X23269048Y-105318333D01*
X24173810Y-105032619D02*
X24840476Y-105032619D01*
X24840476Y-105032619D02*
X24411905Y-106032619D01*
%TO.C,J14*%
X1040476Y-105032619D02*
X1040476Y-105746904D01*
X1040476Y-105746904D02*
X992857Y-105889761D01*
X992857Y-105889761D02*
X897619Y-105985000D01*
X897619Y-105985000D02*
X754762Y-106032619D01*
X754762Y-106032619D02*
X659524Y-106032619D01*
X2040476Y-106032619D02*
X1469048Y-106032619D01*
X1754762Y-106032619D02*
X1754762Y-105032619D01*
X1754762Y-105032619D02*
X1659524Y-105175476D01*
X1659524Y-105175476D02*
X1564286Y-105270714D01*
X1564286Y-105270714D02*
X1469048Y-105318333D01*
X2897619Y-105365952D02*
X2897619Y-106032619D01*
X2659524Y-104985000D02*
X2421429Y-105699285D01*
X2421429Y-105699285D02*
X3040476Y-105699285D01*
%TO.C,R14*%
X35357142Y-94462619D02*
X35023809Y-93986428D01*
X34785714Y-94462619D02*
X34785714Y-93462619D01*
X34785714Y-93462619D02*
X35166666Y-93462619D01*
X35166666Y-93462619D02*
X35261904Y-93510238D01*
X35261904Y-93510238D02*
X35309523Y-93557857D01*
X35309523Y-93557857D02*
X35357142Y-93653095D01*
X35357142Y-93653095D02*
X35357142Y-93795952D01*
X35357142Y-93795952D02*
X35309523Y-93891190D01*
X35309523Y-93891190D02*
X35261904Y-93938809D01*
X35261904Y-93938809D02*
X35166666Y-93986428D01*
X35166666Y-93986428D02*
X34785714Y-93986428D01*
X36309523Y-94462619D02*
X35738095Y-94462619D01*
X36023809Y-94462619D02*
X36023809Y-93462619D01*
X36023809Y-93462619D02*
X35928571Y-93605476D01*
X35928571Y-93605476D02*
X35833333Y-93700714D01*
X35833333Y-93700714D02*
X35738095Y-93748333D01*
X37166666Y-93795952D02*
X37166666Y-94462619D01*
X36928571Y-93415000D02*
X36690476Y-94129285D01*
X36690476Y-94129285D02*
X37309523Y-94129285D01*
%TO.C,R19*%
X25357142Y-124362619D02*
X25023809Y-123886428D01*
X24785714Y-124362619D02*
X24785714Y-123362619D01*
X24785714Y-123362619D02*
X25166666Y-123362619D01*
X25166666Y-123362619D02*
X25261904Y-123410238D01*
X25261904Y-123410238D02*
X25309523Y-123457857D01*
X25309523Y-123457857D02*
X25357142Y-123553095D01*
X25357142Y-123553095D02*
X25357142Y-123695952D01*
X25357142Y-123695952D02*
X25309523Y-123791190D01*
X25309523Y-123791190D02*
X25261904Y-123838809D01*
X25261904Y-123838809D02*
X25166666Y-123886428D01*
X25166666Y-123886428D02*
X24785714Y-123886428D01*
X26309523Y-124362619D02*
X25738095Y-124362619D01*
X26023809Y-124362619D02*
X26023809Y-123362619D01*
X26023809Y-123362619D02*
X25928571Y-123505476D01*
X25928571Y-123505476D02*
X25833333Y-123600714D01*
X25833333Y-123600714D02*
X25738095Y-123648333D01*
X26785714Y-124362619D02*
X26976190Y-124362619D01*
X26976190Y-124362619D02*
X27071428Y-124315000D01*
X27071428Y-124315000D02*
X27119047Y-124267380D01*
X27119047Y-124267380D02*
X27214285Y-124124523D01*
X27214285Y-124124523D02*
X27261904Y-123934047D01*
X27261904Y-123934047D02*
X27261904Y-123553095D01*
X27261904Y-123553095D02*
X27214285Y-123457857D01*
X27214285Y-123457857D02*
X27166666Y-123410238D01*
X27166666Y-123410238D02*
X27071428Y-123362619D01*
X27071428Y-123362619D02*
X26880952Y-123362619D01*
X26880952Y-123362619D02*
X26785714Y-123410238D01*
X26785714Y-123410238D02*
X26738095Y-123457857D01*
X26738095Y-123457857D02*
X26690476Y-123553095D01*
X26690476Y-123553095D02*
X26690476Y-123791190D01*
X26690476Y-123791190D02*
X26738095Y-123886428D01*
X26738095Y-123886428D02*
X26785714Y-123934047D01*
X26785714Y-123934047D02*
X26880952Y-123981666D01*
X26880952Y-123981666D02*
X27071428Y-123981666D01*
X27071428Y-123981666D02*
X27166666Y-123934047D01*
X27166666Y-123934047D02*
X27214285Y-123886428D01*
X27214285Y-123886428D02*
X27261904Y-123791190D01*
%TO.C,J1*%
X31862619Y-176333333D02*
X32576904Y-176333333D01*
X32576904Y-176333333D02*
X32719761Y-176380952D01*
X32719761Y-176380952D02*
X32815000Y-176476190D01*
X32815000Y-176476190D02*
X32862619Y-176619047D01*
X32862619Y-176619047D02*
X32862619Y-176714285D01*
X32862619Y-175333333D02*
X32862619Y-175904761D01*
X32862619Y-175619047D02*
X31862619Y-175619047D01*
X31862619Y-175619047D02*
X32005476Y-175714285D01*
X32005476Y-175714285D02*
X32100714Y-175809523D01*
X32100714Y-175809523D02*
X32148333Y-175904761D01*
%TO.C,J13*%
X36840476Y-72632619D02*
X36840476Y-73346904D01*
X36840476Y-73346904D02*
X36792857Y-73489761D01*
X36792857Y-73489761D02*
X36697619Y-73585000D01*
X36697619Y-73585000D02*
X36554762Y-73632619D01*
X36554762Y-73632619D02*
X36459524Y-73632619D01*
X37840476Y-73632619D02*
X37269048Y-73632619D01*
X37554762Y-73632619D02*
X37554762Y-72632619D01*
X37554762Y-72632619D02*
X37459524Y-72775476D01*
X37459524Y-72775476D02*
X37364286Y-72870714D01*
X37364286Y-72870714D02*
X37269048Y-72918333D01*
X38173810Y-72632619D02*
X38792857Y-72632619D01*
X38792857Y-72632619D02*
X38459524Y-73013571D01*
X38459524Y-73013571D02*
X38602381Y-73013571D01*
X38602381Y-73013571D02*
X38697619Y-73061190D01*
X38697619Y-73061190D02*
X38745238Y-73108809D01*
X38745238Y-73108809D02*
X38792857Y-73204047D01*
X38792857Y-73204047D02*
X38792857Y-73442142D01*
X38792857Y-73442142D02*
X38745238Y-73537380D01*
X38745238Y-73537380D02*
X38697619Y-73585000D01*
X38697619Y-73585000D02*
X38602381Y-73632619D01*
X38602381Y-73632619D02*
X38316667Y-73632619D01*
X38316667Y-73632619D02*
X38221429Y-73585000D01*
X38221429Y-73585000D02*
X38173810Y-73537380D01*
%TO.C,J29*%
X22990476Y-159492619D02*
X22990476Y-160206904D01*
X22990476Y-160206904D02*
X22942857Y-160349761D01*
X22942857Y-160349761D02*
X22847619Y-160445000D01*
X22847619Y-160445000D02*
X22704762Y-160492619D01*
X22704762Y-160492619D02*
X22609524Y-160492619D01*
X23419048Y-159587857D02*
X23466667Y-159540238D01*
X23466667Y-159540238D02*
X23561905Y-159492619D01*
X23561905Y-159492619D02*
X23800000Y-159492619D01*
X23800000Y-159492619D02*
X23895238Y-159540238D01*
X23895238Y-159540238D02*
X23942857Y-159587857D01*
X23942857Y-159587857D02*
X23990476Y-159683095D01*
X23990476Y-159683095D02*
X23990476Y-159778333D01*
X23990476Y-159778333D02*
X23942857Y-159921190D01*
X23942857Y-159921190D02*
X23371429Y-160492619D01*
X23371429Y-160492619D02*
X23990476Y-160492619D01*
X24466667Y-160492619D02*
X24657143Y-160492619D01*
X24657143Y-160492619D02*
X24752381Y-160445000D01*
X24752381Y-160445000D02*
X24800000Y-160397380D01*
X24800000Y-160397380D02*
X24895238Y-160254523D01*
X24895238Y-160254523D02*
X24942857Y-160064047D01*
X24942857Y-160064047D02*
X24942857Y-159683095D01*
X24942857Y-159683095D02*
X24895238Y-159587857D01*
X24895238Y-159587857D02*
X24847619Y-159540238D01*
X24847619Y-159540238D02*
X24752381Y-159492619D01*
X24752381Y-159492619D02*
X24561905Y-159492619D01*
X24561905Y-159492619D02*
X24466667Y-159540238D01*
X24466667Y-159540238D02*
X24419048Y-159587857D01*
X24419048Y-159587857D02*
X24371429Y-159683095D01*
X24371429Y-159683095D02*
X24371429Y-159921190D01*
X24371429Y-159921190D02*
X24419048Y-160016428D01*
X24419048Y-160016428D02*
X24466667Y-160064047D01*
X24466667Y-160064047D02*
X24561905Y-160111666D01*
X24561905Y-160111666D02*
X24752381Y-160111666D01*
X24752381Y-160111666D02*
X24847619Y-160064047D01*
X24847619Y-160064047D02*
X24895238Y-160016428D01*
X24895238Y-160016428D02*
X24942857Y-159921190D01*
%TO.C,R6*%
X35833333Y-48462619D02*
X35500000Y-47986428D01*
X35261905Y-48462619D02*
X35261905Y-47462619D01*
X35261905Y-47462619D02*
X35642857Y-47462619D01*
X35642857Y-47462619D02*
X35738095Y-47510238D01*
X35738095Y-47510238D02*
X35785714Y-47557857D01*
X35785714Y-47557857D02*
X35833333Y-47653095D01*
X35833333Y-47653095D02*
X35833333Y-47795952D01*
X35833333Y-47795952D02*
X35785714Y-47891190D01*
X35785714Y-47891190D02*
X35738095Y-47938809D01*
X35738095Y-47938809D02*
X35642857Y-47986428D01*
X35642857Y-47986428D02*
X35261905Y-47986428D01*
X36690476Y-47462619D02*
X36500000Y-47462619D01*
X36500000Y-47462619D02*
X36404762Y-47510238D01*
X36404762Y-47510238D02*
X36357143Y-47557857D01*
X36357143Y-47557857D02*
X36261905Y-47700714D01*
X36261905Y-47700714D02*
X36214286Y-47891190D01*
X36214286Y-47891190D02*
X36214286Y-48272142D01*
X36214286Y-48272142D02*
X36261905Y-48367380D01*
X36261905Y-48367380D02*
X36309524Y-48415000D01*
X36309524Y-48415000D02*
X36404762Y-48462619D01*
X36404762Y-48462619D02*
X36595238Y-48462619D01*
X36595238Y-48462619D02*
X36690476Y-48415000D01*
X36690476Y-48415000D02*
X36738095Y-48367380D01*
X36738095Y-48367380D02*
X36785714Y-48272142D01*
X36785714Y-48272142D02*
X36785714Y-48034047D01*
X36785714Y-48034047D02*
X36738095Y-47938809D01*
X36738095Y-47938809D02*
X36690476Y-47891190D01*
X36690476Y-47891190D02*
X36595238Y-47843571D01*
X36595238Y-47843571D02*
X36404762Y-47843571D01*
X36404762Y-47843571D02*
X36309524Y-47891190D01*
X36309524Y-47891190D02*
X36261905Y-47938809D01*
X36261905Y-47938809D02*
X36214286Y-48034047D01*
%TO.C,U4*%
X30238095Y-137562619D02*
X30238095Y-138372142D01*
X30238095Y-138372142D02*
X30285714Y-138467380D01*
X30285714Y-138467380D02*
X30333333Y-138515000D01*
X30333333Y-138515000D02*
X30428571Y-138562619D01*
X30428571Y-138562619D02*
X30619047Y-138562619D01*
X30619047Y-138562619D02*
X30714285Y-138515000D01*
X30714285Y-138515000D02*
X30761904Y-138467380D01*
X30761904Y-138467380D02*
X30809523Y-138372142D01*
X30809523Y-138372142D02*
X30809523Y-137562619D01*
X31714285Y-137895952D02*
X31714285Y-138562619D01*
X31476190Y-137515000D02*
X31238095Y-138229285D01*
X31238095Y-138229285D02*
X31857142Y-138229285D01*
D11*
%TO.C,R28*%
X32762742Y-153477500D02*
X33237258Y-153477500D01*
X32762742Y-154522500D02*
X33237258Y-154522500D01*
%TO.C,R31*%
X31477500Y-168237258D02*
X31477500Y-167762742D01*
X32522500Y-168237258D02*
X32522500Y-167762742D01*
%TO.C,R25*%
X28762742Y-151477500D02*
X29237258Y-151477500D01*
X28762742Y-152522500D02*
X29237258Y-152522500D01*
%TO.C,R8*%
X32762742Y-62477500D02*
X33237258Y-62477500D01*
X32762742Y-63522500D02*
X33237258Y-63522500D01*
%TO.C,R13*%
X28762742Y-93477500D02*
X29237258Y-93477500D01*
X28762742Y-94522500D02*
X29237258Y-94522500D01*
%TO.C,D1*%
X33040000Y-169685000D02*
X34960000Y-169685000D01*
X34960000Y-169685000D02*
X34960000Y-167000000D01*
X33040000Y-167000000D02*
X33040000Y-169685000D01*
%TO.C,R2*%
X32762742Y-43477500D02*
X33237258Y-43477500D01*
X32762742Y-44522500D02*
X33237258Y-44522500D01*
%TO.C,R10*%
X32762742Y-76577500D02*
X33237258Y-76577500D01*
X32762742Y-77622500D02*
X33237258Y-77622500D01*
%TO.C,R20*%
X32762742Y-123477500D02*
X33237258Y-123477500D01*
X32762742Y-124522500D02*
X33237258Y-124522500D01*
%TO.C,R27*%
X28762742Y-153477500D02*
X29237258Y-153477500D01*
X28762742Y-154522500D02*
X29237258Y-154522500D01*
%TO.C,R4*%
X32762742Y-45477500D02*
X33237258Y-45477500D01*
X32762742Y-46522500D02*
X33237258Y-46522500D01*
%TO.C,R12*%
X32762742Y-78477500D02*
X33237258Y-78477500D01*
X32762742Y-79522500D02*
X33237258Y-79522500D01*
%TO.C,U2*%
X31000000Y-81940000D02*
X27550000Y-81940000D01*
X31000000Y-81940000D02*
X32950000Y-81940000D01*
X31000000Y-92060000D02*
X29050000Y-92060000D01*
X31000000Y-92060000D02*
X32950000Y-92060000D01*
%TO.C,R17*%
X28762742Y-108477500D02*
X29237258Y-108477500D01*
X28762742Y-109522500D02*
X29237258Y-109522500D01*
%TO.C,R3*%
X28762742Y-45477500D02*
X29237258Y-45477500D01*
X28762742Y-46522500D02*
X29237258Y-46522500D01*
%TO.C,U1*%
X31000000Y-50940000D02*
X27550000Y-50940000D01*
X31000000Y-50940000D02*
X32950000Y-50940000D01*
X31000000Y-61060000D02*
X29050000Y-61060000D01*
X31000000Y-61060000D02*
X32950000Y-61060000D01*
%TO.C,R29*%
X28762742Y-155477500D02*
X29237258Y-155477500D01*
X28762742Y-156522500D02*
X29237258Y-156522500D01*
%TO.C,R21*%
X28762742Y-125477500D02*
X29237258Y-125477500D01*
X28762742Y-126522500D02*
X29237258Y-126522500D01*
%TO.C,R9*%
X28762742Y-76577500D02*
X29237258Y-76577500D01*
X28762742Y-77622500D02*
X29237258Y-77622500D01*
%TO.C,R26*%
X32762742Y-151477500D02*
X33237258Y-151477500D01*
X32762742Y-152522500D02*
X33237258Y-152522500D01*
%TO.C,R11*%
X28762742Y-78477500D02*
X29237258Y-78477500D01*
X28762742Y-79522500D02*
X29237258Y-79522500D01*
%TO.C,R16*%
X32762742Y-95477500D02*
X33237258Y-95477500D01*
X32762742Y-96522500D02*
X33237258Y-96522500D01*
%TO.C,R1*%
X28762742Y-43477500D02*
X29237258Y-43477500D01*
X28762742Y-44522500D02*
X29237258Y-44522500D01*
%TO.C,R18*%
X32762742Y-108477500D02*
X33237258Y-108477500D01*
X32762742Y-109522500D02*
X33237258Y-109522500D01*
%TO.C,R7*%
X28762742Y-62477500D02*
X29237258Y-62477500D01*
X28762742Y-63522500D02*
X29237258Y-63522500D01*
%TO.C,R23*%
X28762742Y-127477500D02*
X29237258Y-127477500D01*
X28762742Y-128522500D02*
X29237258Y-128522500D01*
%TO.C,R15*%
X28762742Y-95477500D02*
X29237258Y-95477500D01*
X28762742Y-96522500D02*
X29237258Y-96522500D01*
%TO.C,R24*%
X32762742Y-127477500D02*
X33237258Y-127477500D01*
X32762742Y-128522500D02*
X33237258Y-128522500D01*
%TO.C,R5*%
X28762742Y-47477500D02*
X29237258Y-47477500D01*
X28762742Y-48522500D02*
X29237258Y-48522500D01*
%TO.C,R30*%
X32762742Y-155477500D02*
X33237258Y-155477500D01*
X32762742Y-156522500D02*
X33237258Y-156522500D01*
%TO.C,U3*%
X31000000Y-110940000D02*
X27550000Y-110940000D01*
X31000000Y-110940000D02*
X32950000Y-110940000D01*
X31000000Y-121060000D02*
X29050000Y-121060000D01*
X31000000Y-121060000D02*
X32950000Y-121060000D01*
%TO.C,R22*%
X32762742Y-125477500D02*
X33237258Y-125477500D01*
X32762742Y-126522500D02*
X33237258Y-126522500D01*
%TO.C,R14*%
X32762742Y-93477500D02*
X33237258Y-93477500D01*
X32762742Y-94522500D02*
X33237258Y-94522500D01*
%TO.C,R19*%
X28762742Y-123477500D02*
X29237258Y-123477500D01*
X28762742Y-124522500D02*
X29237258Y-124522500D01*
%TO.C,R6*%
X32762742Y-47477500D02*
X33237258Y-47477500D01*
X32762742Y-48522500D02*
X33237258Y-48522500D01*
%TO.C,U4*%
X31000000Y-138940000D02*
X27550000Y-138940000D01*
X31000000Y-138940000D02*
X32950000Y-138940000D01*
X31000000Y-149060000D02*
X29050000Y-149060000D01*
X31000000Y-149060000D02*
X32950000Y-149060000D01*
%TD*%
%LPC*%
D12*
%TO.C,J10*%
X18550000Y-70700000D03*
X14350000Y-70700000D03*
%TD*%
%TO.C,J19*%
X40250000Y-103100000D03*
X36050000Y-103100000D03*
%TD*%
D13*
%TO.C,R28*%
X32175000Y-154000000D03*
X33825000Y-154000000D03*
%TD*%
D14*
%TO.C,R31*%
X32000000Y-168825000D03*
X32000000Y-167175000D03*
%TD*%
D13*
%TO.C,R25*%
X28175000Y-152000000D03*
X29825000Y-152000000D03*
%TD*%
%TO.C,R8*%
X32175000Y-63000000D03*
X33825000Y-63000000D03*
%TD*%
D12*
%TO.C,J2*%
X5000000Y-36400000D03*
X800000Y-36400000D03*
%TD*%
D13*
%TO.C,R13*%
X28175000Y-94000000D03*
X29825000Y-94000000D03*
%TD*%
D12*
%TO.C,J22*%
X18350000Y-133600000D03*
X14150000Y-133600000D03*
%TD*%
%TO.C,J8*%
X4450000Y-70700000D03*
X250000Y-70700000D03*
%TD*%
%TO.C,J15*%
X11150000Y-103100000D03*
X6950000Y-103100000D03*
%TD*%
%TO.C,J20*%
X3450000Y-133600000D03*
X-750000Y-133600000D03*
%TD*%
%TO.C,J31*%
X36900000Y-162500000D03*
X41100000Y-162500000D03*
%TD*%
%TO.C,J25*%
X40750000Y-133600000D03*
X36550000Y-133600000D03*
%TD*%
D15*
%TO.C,D1*%
X34000000Y-168937500D03*
X34000000Y-167062500D03*
%TD*%
D12*
%TO.C,J27*%
X6500000Y-162500000D03*
X10700000Y-162500000D03*
%TD*%
%TO.C,J28*%
X14100000Y-162500000D03*
X18300000Y-162500000D03*
%TD*%
D13*
%TO.C,R2*%
X32175000Y-44000000D03*
X33825000Y-44000000D03*
%TD*%
D12*
%TO.C,J30*%
X29300000Y-162500000D03*
X33500000Y-162500000D03*
%TD*%
%TO.C,J4*%
X18650000Y-36400000D03*
X14450000Y-36400000D03*
%TD*%
D13*
%TO.C,R10*%
X32175000Y-77100000D03*
X33825000Y-77100000D03*
%TD*%
%TO.C,R20*%
X32175000Y-124000000D03*
X33825000Y-124000000D03*
%TD*%
D12*
%TO.C,J26*%
X-1100000Y-162500000D03*
X3100000Y-162500000D03*
%TD*%
D13*
%TO.C,R27*%
X28175000Y-154000000D03*
X29825000Y-154000000D03*
%TD*%
%TO.C,R4*%
X32175000Y-46000000D03*
X33825000Y-46000000D03*
%TD*%
%TO.C,R12*%
X32175000Y-79000000D03*
X33825000Y-79000000D03*
%TD*%
D16*
%TO.C,U2*%
X28525000Y-82555000D03*
X28525000Y-83825000D03*
X28525000Y-85095000D03*
X28525000Y-86365000D03*
X28525000Y-87635000D03*
X28525000Y-88905000D03*
X28525000Y-90175000D03*
X28525000Y-91445000D03*
X33475000Y-91445000D03*
X33475000Y-90175000D03*
X33475000Y-88905000D03*
X33475000Y-87635000D03*
X33475000Y-86365000D03*
X33475000Y-85095000D03*
X33475000Y-83825000D03*
X33475000Y-82555000D03*
%TD*%
D12*
%TO.C,J24*%
X33300000Y-133600000D03*
X29100000Y-133600000D03*
%TD*%
%TO.C,J6*%
X32350000Y-36400000D03*
X28150000Y-36400000D03*
%TD*%
%TO.C,J7*%
X39200000Y-36400000D03*
X35000000Y-36400000D03*
%TD*%
%TO.C,J23*%
X25800000Y-133600000D03*
X21600000Y-133600000D03*
%TD*%
D13*
%TO.C,R17*%
X28175000Y-109000000D03*
X29825000Y-109000000D03*
%TD*%
%TO.C,R3*%
X28175000Y-46000000D03*
X29825000Y-46000000D03*
%TD*%
D12*
%TO.C,J5*%
X25550000Y-36400000D03*
X21350000Y-36400000D03*
%TD*%
%TO.C,J21*%
X10900000Y-133600000D03*
X6700000Y-133600000D03*
%TD*%
D16*
%TO.C,U1*%
X28525000Y-51555000D03*
X28525000Y-52825000D03*
X28525000Y-54095000D03*
X28525000Y-55365000D03*
X28525000Y-56635000D03*
X28525000Y-57905000D03*
X28525000Y-59175000D03*
X28525000Y-60445000D03*
X33475000Y-60445000D03*
X33475000Y-59175000D03*
X33475000Y-57905000D03*
X33475000Y-56635000D03*
X33475000Y-55365000D03*
X33475000Y-54095000D03*
X33475000Y-52825000D03*
X33475000Y-51555000D03*
%TD*%
D13*
%TO.C,R29*%
X28175000Y-156000000D03*
X29825000Y-156000000D03*
%TD*%
%TO.C,R21*%
X28175000Y-126000000D03*
X29825000Y-126000000D03*
%TD*%
D12*
%TO.C,J18*%
X33050000Y-103100000D03*
X28850000Y-103100000D03*
%TD*%
D13*
%TO.C,R9*%
X28175000Y-77100000D03*
X29825000Y-77100000D03*
%TD*%
%TO.C,R26*%
X32175000Y-152000000D03*
X33825000Y-152000000D03*
%TD*%
%TO.C,R11*%
X28175000Y-79000000D03*
X29825000Y-79000000D03*
%TD*%
%TO.C,R16*%
X32175000Y-96000000D03*
X33825000Y-96000000D03*
%TD*%
%TO.C,R1*%
X28175000Y-44000000D03*
X29825000Y-44000000D03*
%TD*%
%TO.C,R18*%
X32175000Y-109000000D03*
X33825000Y-109000000D03*
%TD*%
D12*
%TO.C,J12*%
X32850000Y-70700000D03*
X28650000Y-70700000D03*
%TD*%
D13*
%TO.C,R7*%
X28175000Y-63000000D03*
X29825000Y-63000000D03*
%TD*%
%TO.C,R23*%
X28175000Y-128000000D03*
X29825000Y-128000000D03*
%TD*%
%TO.C,R15*%
X28175000Y-96000000D03*
X29825000Y-96000000D03*
%TD*%
%TO.C,R24*%
X32175000Y-128000000D03*
X33825000Y-128000000D03*
%TD*%
D12*
%TO.C,J11*%
X25700000Y-70700000D03*
X21500000Y-70700000D03*
%TD*%
D13*
%TO.C,R5*%
X28175000Y-48000000D03*
X29825000Y-48000000D03*
%TD*%
%TO.C,R30*%
X32175000Y-156000000D03*
X33825000Y-156000000D03*
%TD*%
D16*
%TO.C,U3*%
X28525000Y-111555000D03*
X28525000Y-112825000D03*
X28525000Y-114095000D03*
X28525000Y-115365000D03*
X28525000Y-116635000D03*
X28525000Y-117905000D03*
X28525000Y-119175000D03*
X28525000Y-120445000D03*
X33475000Y-120445000D03*
X33475000Y-119175000D03*
X33475000Y-117905000D03*
X33475000Y-116635000D03*
X33475000Y-115365000D03*
X33475000Y-114095000D03*
X33475000Y-112825000D03*
X33475000Y-111555000D03*
%TD*%
D12*
%TO.C,J3*%
X11850000Y-36400000D03*
X7650000Y-36400000D03*
%TD*%
%TO.C,J16*%
X18450000Y-103100000D03*
X14250000Y-103100000D03*
%TD*%
D13*
%TO.C,R22*%
X32175000Y-126000000D03*
X33825000Y-126000000D03*
%TD*%
D12*
%TO.C,J9*%
X11350000Y-70700000D03*
X7150000Y-70700000D03*
%TD*%
%TO.C,J17*%
X25750000Y-103100000D03*
X21550000Y-103100000D03*
%TD*%
%TO.C,J14*%
X3950000Y-103100000D03*
X-250000Y-103100000D03*
%TD*%
D13*
%TO.C,R14*%
X32175000Y-94000000D03*
X33825000Y-94000000D03*
%TD*%
%TO.C,R19*%
X28175000Y-124000000D03*
X29825000Y-124000000D03*
%TD*%
D17*
%TO.C,J1*%
X34800000Y-173000000D03*
X34800000Y-174500000D03*
X34800000Y-176000000D03*
X34800000Y-177500000D03*
X34800000Y-179000000D03*
D18*
X38400000Y-181000000D03*
X38400000Y-171000000D03*
%TD*%
D12*
%TO.C,J13*%
X39750000Y-70700000D03*
X35550000Y-70700000D03*
%TD*%
%TO.C,J29*%
X21700000Y-162500000D03*
X25900000Y-162500000D03*
%TD*%
D13*
%TO.C,R6*%
X32175000Y-48000000D03*
X33825000Y-48000000D03*
%TD*%
D16*
%TO.C,U4*%
X28525000Y-139555000D03*
X28525000Y-140825000D03*
X28525000Y-142095000D03*
X28525000Y-143365000D03*
X28525000Y-144635000D03*
X28525000Y-145905000D03*
X28525000Y-147175000D03*
X28525000Y-148445000D03*
X33475000Y-148445000D03*
X33475000Y-147175000D03*
X33475000Y-145905000D03*
X33475000Y-144635000D03*
X33475000Y-143365000D03*
X33475000Y-142095000D03*
X33475000Y-140825000D03*
X33475000Y-139555000D03*
%TD*%
D19*
%TO.C,H5*%
X1200000Y-148100000D03*
%TD*%
%TO.C,H2*%
X37200000Y-18200000D03*
%TD*%
%TO.C,H3*%
X1900000Y-86900000D03*
%TD*%
%TO.C,H1*%
X2800000Y-18200000D03*
%TD*%
%TO.C,H4*%
X38000000Y-86900000D03*
%TD*%
%TO.C,H6*%
X38800000Y-148100000D03*
%TD*%
%LPD*%
M02*
