%TF.GenerationSoftware,KiCad,Pcbnew,7.0.2*%
%TF.CreationDate,2025-02-12T15:24:12+00:00*%
%TF.ProjectId,fretboard,66726574-626f-4617-9264-2e6b69636164,rev?*%
%TF.SameCoordinates,Original*%
%TF.FileFunction,Copper,L1,Top*%
%TF.FilePolarity,Positive*%
%FSLAX46Y46*%
G04 Gerber Fmt 4.6, Leading zero omitted, Abs format (unit mm)*
G04 Created by KiCad (PCBNEW 7.0.2) date 2025-02-12 15:24:12*
%MOMM*%
%LPD*%
G01*
G04 APERTURE LIST*
G04 Aperture macros list*
%AMRoundRect*
0 Rectangle with rounded corners*
0 $1 Rounding radius*
0 $2 $3 $4 $5 $6 $7 $8 $9 X,Y pos of 4 corners*
0 Add a 4 corners polygon primitive as box body*
4,1,4,$2,$3,$4,$5,$6,$7,$8,$9,$2,$3,0*
0 Add four circle primitives for the rounded corners*
1,1,$1+$1,$2,$3*
1,1,$1+$1,$4,$5*
1,1,$1+$1,$6,$7*
1,1,$1+$1,$8,$9*
0 Add four rect primitives between the rounded corners*
20,1,$1+$1,$2,$3,$4,$5,0*
20,1,$1+$1,$4,$5,$6,$7,0*
20,1,$1+$1,$6,$7,$8,$9,0*
20,1,$1+$1,$8,$9,$2,$3,0*%
G04 Aperture macros list end*
%TA.AperFunction,ComponentPad*%
%ADD10R,2.100000X2.100000*%
%TD*%
%TA.AperFunction,SMDPad,CuDef*%
%ADD11RoundRect,0.200000X-0.200000X-0.275000X0.200000X-0.275000X0.200000X0.275000X-0.200000X0.275000X0*%
%TD*%
%TA.AperFunction,SMDPad,CuDef*%
%ADD12RoundRect,0.200000X0.275000X-0.200000X0.275000X0.200000X-0.275000X0.200000X-0.275000X-0.200000X0*%
%TD*%
%TA.AperFunction,SMDPad,CuDef*%
%ADD13RoundRect,0.243750X0.456250X-0.243750X0.456250X0.243750X-0.456250X0.243750X-0.456250X-0.243750X0*%
%TD*%
%TA.AperFunction,SMDPad,CuDef*%
%ADD14RoundRect,0.150000X-0.825000X-0.150000X0.825000X-0.150000X0.825000X0.150000X-0.825000X0.150000X0*%
%TD*%
%TA.AperFunction,SMDPad,CuDef*%
%ADD15RoundRect,0.212500X1.087500X-0.212500X1.087500X0.212500X-1.087500X0.212500X-1.087500X-0.212500X0*%
%TD*%
%TA.AperFunction,SMDPad,CuDef*%
%ADD16RoundRect,0.216667X0.733333X-0.433333X0.733333X0.433333X-0.733333X0.433333X-0.733333X-0.433333X0*%
%TD*%
%TA.AperFunction,ViaPad*%
%ADD17C,0.800000*%
%TD*%
%TA.AperFunction,Conductor*%
%ADD18C,0.500000*%
%TD*%
%TA.AperFunction,Conductor*%
%ADD19C,0.250000*%
%TD*%
G04 APERTURE END LIST*
D10*
%TO.P,J10,1,Pin_1*%
%TO.N,Net-(J10-Pin_1)*%
X18550000Y-70700000D03*
%TO.P,J10,2,Pin_2*%
%TO.N,unconnected-(J10-Pin_2-Pad2)*%
X14350000Y-70700000D03*
%TD*%
%TO.P,J19,1,Pin_1*%
%TO.N,Net-(J19-Pin_1)*%
X40250000Y-103100000D03*
%TO.P,J19,2,Pin_2*%
%TO.N,unconnected-(J19-Pin_2-Pad2)*%
X36050000Y-103100000D03*
%TD*%
D11*
%TO.P,R28,1*%
%TO.N,+3.3V*%
X32175000Y-154000000D03*
%TO.P,R28,2*%
%TO.N,Net-(J29-Pin_1)*%
X33825000Y-154000000D03*
%TD*%
D12*
%TO.P,R31,1*%
%TO.N,+3.3V*%
X32000000Y-168825000D03*
%TO.P,R31,2*%
%TO.N,Net-(D1-A)*%
X32000000Y-167175000D03*
%TD*%
D11*
%TO.P,R25,1*%
%TO.N,+3.3V*%
X28175000Y-152000000D03*
%TO.P,R25,2*%
%TO.N,Net-(J26-Pin_1)*%
X29825000Y-152000000D03*
%TD*%
%TO.P,R8,1*%
%TO.N,+3.3V*%
X32175000Y-63000000D03*
%TO.P,R8,2*%
%TO.N,Net-(J9-Pin_1)*%
X33825000Y-63000000D03*
%TD*%
D10*
%TO.P,J2,1,Pin_1*%
%TO.N,Net-(J2-Pin_1)*%
X5000000Y-36400000D03*
%TO.P,J2,2,Pin_2*%
%TO.N,unconnected-(J2-Pin_2-Pad2)*%
X800000Y-36400000D03*
%TD*%
D11*
%TO.P,R13,1*%
%TO.N,+3.3V*%
X28175000Y-94000000D03*
%TO.P,R13,2*%
%TO.N,Net-(J14-Pin_1)*%
X29825000Y-94000000D03*
%TD*%
D10*
%TO.P,J22,1,Pin_1*%
%TO.N,Net-(J22-Pin_1)*%
X18350000Y-133600000D03*
%TO.P,J22,2,Pin_2*%
%TO.N,unconnected-(J22-Pin_2-Pad2)*%
X14150000Y-133600000D03*
%TD*%
%TO.P,J8,1,Pin_1*%
%TO.N,Net-(J8-Pin_1)*%
X4450000Y-70700000D03*
%TO.P,J8,2,Pin_2*%
%TO.N,unconnected-(J8-Pin_2-Pad2)*%
X250000Y-70700000D03*
%TD*%
%TO.P,J15,1,Pin_1*%
%TO.N,Net-(J15-Pin_1)*%
X11150000Y-103100000D03*
%TO.P,J15,2,Pin_2*%
%TO.N,unconnected-(J15-Pin_2-Pad2)*%
X6950000Y-103100000D03*
%TD*%
%TO.P,J20,1,Pin_1*%
%TO.N,Net-(J20-Pin_1)*%
X3450000Y-133600000D03*
%TO.P,J20,2,Pin_2*%
%TO.N,unconnected-(J20-Pin_2-Pad2)*%
X-750000Y-133600000D03*
%TD*%
%TO.P,J31,1,Pin_1*%
%TO.N,Net-(J31-Pin_1)*%
X36900000Y-162500000D03*
%TO.P,J31,2,Pin_2*%
%TO.N,unconnected-(J31-Pin_2-Pad2)*%
X41100000Y-162500000D03*
%TD*%
%TO.P,J25,1,Pin_1*%
%TO.N,Net-(J25-Pin_1)*%
X40750000Y-133600000D03*
%TO.P,J25,2,Pin_2*%
%TO.N,unconnected-(J25-Pin_2-Pad2)*%
X36550000Y-133600000D03*
%TD*%
D13*
%TO.P,D1,1,K*%
%TO.N,GND*%
X34000000Y-168937500D03*
%TO.P,D1,2,A*%
%TO.N,Net-(D1-A)*%
X34000000Y-167062500D03*
%TD*%
D10*
%TO.P,J27,1,Pin_1*%
%TO.N,Net-(J27-Pin_1)*%
X6500000Y-162500000D03*
%TO.P,J27,2,Pin_2*%
%TO.N,unconnected-(J27-Pin_2-Pad2)*%
X10700000Y-162500000D03*
%TD*%
%TO.P,J28,1,Pin_1*%
%TO.N,Net-(J28-Pin_1)*%
X14100000Y-162500000D03*
%TO.P,J28,2,Pin_2*%
%TO.N,unconnected-(J28-Pin_2-Pad2)*%
X18300000Y-162500000D03*
%TD*%
D11*
%TO.P,R2,1*%
%TO.N,+3.3V*%
X32175000Y-44000000D03*
%TO.P,R2,2*%
%TO.N,Net-(J3-Pin_1)*%
X33825000Y-44000000D03*
%TD*%
D10*
%TO.P,J30,1,Pin_1*%
%TO.N,Net-(J30-Pin_1)*%
X29300000Y-162500000D03*
%TO.P,J30,2,Pin_2*%
%TO.N,unconnected-(J30-Pin_2-Pad2)*%
X33500000Y-162500000D03*
%TD*%
%TO.P,J4,1,Pin_1*%
%TO.N,Net-(J4-Pin_1)*%
X18650000Y-36400000D03*
%TO.P,J4,2,Pin_2*%
%TO.N,unconnected-(J4-Pin_2-Pad2)*%
X14450000Y-36400000D03*
%TD*%
D11*
%TO.P,R10,1*%
%TO.N,+3.3V*%
X32175000Y-77100000D03*
%TO.P,R10,2*%
%TO.N,Net-(J11-Pin_1)*%
X33825000Y-77100000D03*
%TD*%
%TO.P,R20,1*%
%TO.N,+3.3V*%
X32175000Y-124000000D03*
%TO.P,R20,2*%
%TO.N,Net-(J21-Pin_1)*%
X33825000Y-124000000D03*
%TD*%
D10*
%TO.P,J26,1,Pin_1*%
%TO.N,Net-(J26-Pin_1)*%
X-1100000Y-162500000D03*
%TO.P,J26,2,Pin_2*%
%TO.N,unconnected-(J26-Pin_2-Pad2)*%
X3100000Y-162500000D03*
%TD*%
D11*
%TO.P,R27,1*%
%TO.N,+3.3V*%
X28175000Y-154000000D03*
%TO.P,R27,2*%
%TO.N,Net-(J28-Pin_1)*%
X29825000Y-154000000D03*
%TD*%
%TO.P,R4,1*%
%TO.N,+3.3V*%
X32175000Y-46000000D03*
%TO.P,R4,2*%
%TO.N,Net-(J5-Pin_1)*%
X33825000Y-46000000D03*
%TD*%
%TO.P,R12,1*%
%TO.N,+3.3V*%
X32175000Y-79000000D03*
%TO.P,R12,2*%
%TO.N,Net-(J13-Pin_1)*%
X33825000Y-79000000D03*
%TD*%
D14*
%TO.P,U2,1,~{PL}*%
%TO.N,165_LOAD*%
X28525000Y-82555000D03*
%TO.P,U2,2,CP*%
%TO.N,165_CLOCK*%
X28525000Y-83825000D03*
%TO.P,U2,3,D4*%
%TO.N,Net-(J14-Pin_1)*%
X28525000Y-85095000D03*
%TO.P,U2,4,D5*%
%TO.N,Net-(J15-Pin_1)*%
X28525000Y-86365000D03*
%TO.P,U2,5,D6*%
%TO.N,Net-(J16-Pin_1)*%
X28525000Y-87635000D03*
%TO.P,U2,6,D7*%
%TO.N,Net-(J17-Pin_1)*%
X28525000Y-88905000D03*
%TO.P,U2,7,~{Q7}*%
%TO.N,unconnected-(U2-~{Q7}-Pad7)*%
X28525000Y-90175000D03*
%TO.P,U2,8,GND*%
%TO.N,GND*%
X28525000Y-91445000D03*
%TO.P,U2,9,Q7*%
%TO.N,/ShiftReg2/DATA_OUT*%
X33475000Y-91445000D03*
%TO.P,U2,10,DS*%
%TO.N,/ShiftReg1/DATA_OUT*%
X33475000Y-90175000D03*
%TO.P,U2,11,D0*%
%TO.N,Net-(J10-Pin_1)*%
X33475000Y-88905000D03*
%TO.P,U2,12,D1*%
%TO.N,Net-(J11-Pin_1)*%
X33475000Y-87635000D03*
%TO.P,U2,13,D2*%
%TO.N,Net-(J12-Pin_1)*%
X33475000Y-86365000D03*
%TO.P,U2,14,D3*%
%TO.N,Net-(J13-Pin_1)*%
X33475000Y-85095000D03*
%TO.P,U2,15,~{CE}*%
%TO.N,GND*%
X33475000Y-83825000D03*
%TO.P,U2,16,VCC*%
%TO.N,+3.3V*%
X33475000Y-82555000D03*
%TD*%
D10*
%TO.P,J24,1,Pin_1*%
%TO.N,Net-(J24-Pin_1)*%
X33300000Y-133600000D03*
%TO.P,J24,2,Pin_2*%
%TO.N,unconnected-(J24-Pin_2-Pad2)*%
X29100000Y-133600000D03*
%TD*%
%TO.P,J6,1,Pin_1*%
%TO.N,Net-(J6-Pin_1)*%
X32350000Y-36400000D03*
%TO.P,J6,2,Pin_2*%
%TO.N,unconnected-(J6-Pin_2-Pad2)*%
X28150000Y-36400000D03*
%TD*%
%TO.P,J7,1,Pin_1*%
%TO.N,Net-(J7-Pin_1)*%
X39200000Y-36400000D03*
%TO.P,J7,2,Pin_2*%
%TO.N,unconnected-(J7-Pin_2-Pad2)*%
X35000000Y-36400000D03*
%TD*%
%TO.P,J23,1,Pin_1*%
%TO.N,Net-(J23-Pin_1)*%
X25800000Y-133600000D03*
%TO.P,J23,2,Pin_2*%
%TO.N,unconnected-(J23-Pin_2-Pad2)*%
X21600000Y-133600000D03*
%TD*%
D11*
%TO.P,R17,1*%
%TO.N,+3.3V*%
X28175000Y-109000000D03*
%TO.P,R17,2*%
%TO.N,Net-(J18-Pin_1)*%
X29825000Y-109000000D03*
%TD*%
%TO.P,R3,1*%
%TO.N,+3.3V*%
X28175000Y-46000000D03*
%TO.P,R3,2*%
%TO.N,Net-(J4-Pin_1)*%
X29825000Y-46000000D03*
%TD*%
D10*
%TO.P,J5,1,Pin_1*%
%TO.N,Net-(J5-Pin_1)*%
X25550000Y-36400000D03*
%TO.P,J5,2,Pin_2*%
%TO.N,unconnected-(J5-Pin_2-Pad2)*%
X21350000Y-36400000D03*
%TD*%
%TO.P,J21,1,Pin_1*%
%TO.N,Net-(J21-Pin_1)*%
X10900000Y-133600000D03*
%TO.P,J21,2,Pin_2*%
%TO.N,unconnected-(J21-Pin_2-Pad2)*%
X6700000Y-133600000D03*
%TD*%
D14*
%TO.P,U1,1,~{PL}*%
%TO.N,165_LOAD*%
X28525000Y-51555000D03*
%TO.P,U1,2,CP*%
%TO.N,165_CLOCK*%
X28525000Y-52825000D03*
%TO.P,U1,3,D4*%
%TO.N,Net-(J6-Pin_1)*%
X28525000Y-54095000D03*
%TO.P,U1,4,D5*%
%TO.N,Net-(J7-Pin_1)*%
X28525000Y-55365000D03*
%TO.P,U1,5,D6*%
%TO.N,Net-(J8-Pin_1)*%
X28525000Y-56635000D03*
%TO.P,U1,6,D7*%
%TO.N,Net-(J9-Pin_1)*%
X28525000Y-57905000D03*
%TO.P,U1,7,~{Q7}*%
%TO.N,unconnected-(U1-~{Q7}-Pad7)*%
X28525000Y-59175000D03*
%TO.P,U1,8,GND*%
%TO.N,GND*%
X28525000Y-60445000D03*
%TO.P,U1,9,Q7*%
%TO.N,/ShiftReg1/DATA_OUT*%
X33475000Y-60445000D03*
%TO.P,U1,10,DS*%
%TO.N,GND*%
X33475000Y-59175000D03*
%TO.P,U1,11,D0*%
%TO.N,Net-(J2-Pin_1)*%
X33475000Y-57905000D03*
%TO.P,U1,12,D1*%
%TO.N,Net-(J3-Pin_1)*%
X33475000Y-56635000D03*
%TO.P,U1,13,D2*%
%TO.N,Net-(J4-Pin_1)*%
X33475000Y-55365000D03*
%TO.P,U1,14,D3*%
%TO.N,Net-(J5-Pin_1)*%
X33475000Y-54095000D03*
%TO.P,U1,15,~{CE}*%
%TO.N,GND*%
X33475000Y-52825000D03*
%TO.P,U1,16,VCC*%
%TO.N,+3.3V*%
X33475000Y-51555000D03*
%TD*%
D11*
%TO.P,R29,1*%
%TO.N,+3.3V*%
X28175000Y-156000000D03*
%TO.P,R29,2*%
%TO.N,Net-(J30-Pin_1)*%
X29825000Y-156000000D03*
%TD*%
%TO.P,R21,1*%
%TO.N,+3.3V*%
X28175000Y-126000000D03*
%TO.P,R21,2*%
%TO.N,Net-(J22-Pin_1)*%
X29825000Y-126000000D03*
%TD*%
D10*
%TO.P,J18,1,Pin_1*%
%TO.N,Net-(J18-Pin_1)*%
X33050000Y-103100000D03*
%TO.P,J18,2,Pin_2*%
%TO.N,unconnected-(J18-Pin_2-Pad2)*%
X28850000Y-103100000D03*
%TD*%
D11*
%TO.P,R9,1*%
%TO.N,+3.3V*%
X28175000Y-77100000D03*
%TO.P,R9,2*%
%TO.N,Net-(J10-Pin_1)*%
X29825000Y-77100000D03*
%TD*%
%TO.P,R26,1*%
%TO.N,+3.3V*%
X32175000Y-152000000D03*
%TO.P,R26,2*%
%TO.N,Net-(J27-Pin_1)*%
X33825000Y-152000000D03*
%TD*%
%TO.P,R11,1*%
%TO.N,+3.3V*%
X28175000Y-79000000D03*
%TO.P,R11,2*%
%TO.N,Net-(J12-Pin_1)*%
X29825000Y-79000000D03*
%TD*%
%TO.P,R16,1*%
%TO.N,+3.3V*%
X32175000Y-96000000D03*
%TO.P,R16,2*%
%TO.N,Net-(J17-Pin_1)*%
X33825000Y-96000000D03*
%TD*%
%TO.P,R1,1*%
%TO.N,+3.3V*%
X28175000Y-44000000D03*
%TO.P,R1,2*%
%TO.N,Net-(J2-Pin_1)*%
X29825000Y-44000000D03*
%TD*%
%TO.P,R18,1*%
%TO.N,+3.3V*%
X32175000Y-109000000D03*
%TO.P,R18,2*%
%TO.N,Net-(J19-Pin_1)*%
X33825000Y-109000000D03*
%TD*%
D10*
%TO.P,J12,1,Pin_1*%
%TO.N,Net-(J12-Pin_1)*%
X32850000Y-70700000D03*
%TO.P,J12,2,Pin_2*%
%TO.N,unconnected-(J12-Pin_2-Pad2)*%
X28650000Y-70700000D03*
%TD*%
D11*
%TO.P,R7,1*%
%TO.N,+3.3V*%
X28175000Y-63000000D03*
%TO.P,R7,2*%
%TO.N,Net-(J8-Pin_1)*%
X29825000Y-63000000D03*
%TD*%
%TO.P,R23,1*%
%TO.N,+3.3V*%
X28175000Y-128000000D03*
%TO.P,R23,2*%
%TO.N,Net-(J24-Pin_1)*%
X29825000Y-128000000D03*
%TD*%
%TO.P,R15,1*%
%TO.N,+3.3V*%
X28175000Y-96000000D03*
%TO.P,R15,2*%
%TO.N,Net-(J16-Pin_1)*%
X29825000Y-96000000D03*
%TD*%
%TO.P,R24,1*%
%TO.N,+3.3V*%
X32175000Y-128000000D03*
%TO.P,R24,2*%
%TO.N,Net-(J25-Pin_1)*%
X33825000Y-128000000D03*
%TD*%
D10*
%TO.P,J11,1,Pin_1*%
%TO.N,Net-(J11-Pin_1)*%
X25700000Y-70700000D03*
%TO.P,J11,2,Pin_2*%
%TO.N,unconnected-(J11-Pin_2-Pad2)*%
X21500000Y-70700000D03*
%TD*%
D11*
%TO.P,R5,1*%
%TO.N,+3.3V*%
X28175000Y-48000000D03*
%TO.P,R5,2*%
%TO.N,Net-(J6-Pin_1)*%
X29825000Y-48000000D03*
%TD*%
%TO.P,R30,1*%
%TO.N,+3.3V*%
X32175000Y-156000000D03*
%TO.P,R30,2*%
%TO.N,Net-(J31-Pin_1)*%
X33825000Y-156000000D03*
%TD*%
D14*
%TO.P,U3,1,~{PL}*%
%TO.N,165_LOAD*%
X28525000Y-111555000D03*
%TO.P,U3,2,CP*%
%TO.N,165_CLOCK*%
X28525000Y-112825000D03*
%TO.P,U3,3,D4*%
%TO.N,Net-(J22-Pin_1)*%
X28525000Y-114095000D03*
%TO.P,U3,4,D5*%
%TO.N,Net-(J23-Pin_1)*%
X28525000Y-115365000D03*
%TO.P,U3,5,D6*%
%TO.N,Net-(J24-Pin_1)*%
X28525000Y-116635000D03*
%TO.P,U3,6,D7*%
%TO.N,Net-(J25-Pin_1)*%
X28525000Y-117905000D03*
%TO.P,U3,7,~{Q7}*%
%TO.N,unconnected-(U3-~{Q7}-Pad7)*%
X28525000Y-119175000D03*
%TO.P,U3,8,GND*%
%TO.N,GND*%
X28525000Y-120445000D03*
%TO.P,U3,9,Q7*%
%TO.N,/ShiftReg3/DATA_OUT*%
X33475000Y-120445000D03*
%TO.P,U3,10,DS*%
%TO.N,/ShiftReg2/DATA_OUT*%
X33475000Y-119175000D03*
%TO.P,U3,11,D0*%
%TO.N,Net-(J18-Pin_1)*%
X33475000Y-117905000D03*
%TO.P,U3,12,D1*%
%TO.N,Net-(J19-Pin_1)*%
X33475000Y-116635000D03*
%TO.P,U3,13,D2*%
%TO.N,Net-(J20-Pin_1)*%
X33475000Y-115365000D03*
%TO.P,U3,14,D3*%
%TO.N,Net-(J21-Pin_1)*%
X33475000Y-114095000D03*
%TO.P,U3,15,~{CE}*%
%TO.N,GND*%
X33475000Y-112825000D03*
%TO.P,U3,16,VCC*%
%TO.N,+3.3V*%
X33475000Y-111555000D03*
%TD*%
D10*
%TO.P,J3,1,Pin_1*%
%TO.N,Net-(J3-Pin_1)*%
X11850000Y-36400000D03*
%TO.P,J3,2,Pin_2*%
%TO.N,unconnected-(J3-Pin_2-Pad2)*%
X7650000Y-36400000D03*
%TD*%
%TO.P,J16,1,Pin_1*%
%TO.N,Net-(J16-Pin_1)*%
X18450000Y-103100000D03*
%TO.P,J16,2,Pin_2*%
%TO.N,unconnected-(J16-Pin_2-Pad2)*%
X14250000Y-103100000D03*
%TD*%
D11*
%TO.P,R22,1*%
%TO.N,+3.3V*%
X32175000Y-126000000D03*
%TO.P,R22,2*%
%TO.N,Net-(J23-Pin_1)*%
X33825000Y-126000000D03*
%TD*%
D10*
%TO.P,J9,1,Pin_1*%
%TO.N,Net-(J9-Pin_1)*%
X11350000Y-70700000D03*
%TO.P,J9,2,Pin_2*%
%TO.N,unconnected-(J9-Pin_2-Pad2)*%
X7150000Y-70700000D03*
%TD*%
%TO.P,J17,1,Pin_1*%
%TO.N,Net-(J17-Pin_1)*%
X25750000Y-103100000D03*
%TO.P,J17,2,Pin_2*%
%TO.N,unconnected-(J17-Pin_2-Pad2)*%
X21550000Y-103100000D03*
%TD*%
%TO.P,J14,1,Pin_1*%
%TO.N,Net-(J14-Pin_1)*%
X3950000Y-103100000D03*
%TO.P,J14,2,Pin_2*%
%TO.N,unconnected-(J14-Pin_2-Pad2)*%
X-250000Y-103100000D03*
%TD*%
D11*
%TO.P,R14,1*%
%TO.N,+3.3V*%
X32175000Y-94000000D03*
%TO.P,R14,2*%
%TO.N,Net-(J15-Pin_1)*%
X33825000Y-94000000D03*
%TD*%
%TO.P,R19,1*%
%TO.N,+3.3V*%
X28175000Y-124000000D03*
%TO.P,R19,2*%
%TO.N,Net-(J20-Pin_1)*%
X29825000Y-124000000D03*
%TD*%
D15*
%TO.P,J1,1,Pin_1*%
%TO.N,+3.3V*%
X34800000Y-173000000D03*
%TO.P,J1,2,Pin_2*%
%TO.N,GND*%
X34800000Y-174500000D03*
%TO.P,J1,3,Pin_3*%
%TO.N,165_CLOCK*%
X34800000Y-176000000D03*
%TO.P,J1,4,Pin_4*%
%TO.N,165_LOAD*%
X34800000Y-177500000D03*
%TO.P,J1,5,Pin_5*%
%TO.N,/ShiftReg4/DATA_OUT*%
X34800000Y-179000000D03*
D16*
%TO.P,J1,6,Pin_6*%
%TO.N,unconnected-(J1-Pin_6-Pad6)*%
X38400000Y-181000000D03*
X38400000Y-171000000D03*
%TD*%
D10*
%TO.P,J13,1,Pin_1*%
%TO.N,Net-(J13-Pin_1)*%
X39750000Y-70700000D03*
%TO.P,J13,2,Pin_2*%
%TO.N,unconnected-(J13-Pin_2-Pad2)*%
X35550000Y-70700000D03*
%TD*%
%TO.P,J29,1,Pin_1*%
%TO.N,Net-(J29-Pin_1)*%
X21700000Y-162500000D03*
%TO.P,J29,2,Pin_2*%
%TO.N,unconnected-(J29-Pin_2-Pad2)*%
X25900000Y-162500000D03*
%TD*%
D11*
%TO.P,R6,1*%
%TO.N,+3.3V*%
X32175000Y-48000000D03*
%TO.P,R6,2*%
%TO.N,Net-(J7-Pin_1)*%
X33825000Y-48000000D03*
%TD*%
D14*
%TO.P,U4,1,~{PL}*%
%TO.N,165_LOAD*%
X28525000Y-139555000D03*
%TO.P,U4,2,CP*%
%TO.N,165_CLOCK*%
X28525000Y-140825000D03*
%TO.P,U4,3,D4*%
%TO.N,Net-(J30-Pin_1)*%
X28525000Y-142095000D03*
%TO.P,U4,4,D5*%
%TO.N,Net-(J31-Pin_1)*%
X28525000Y-143365000D03*
%TO.P,U4,5,D6*%
%TO.N,GND*%
X28525000Y-144635000D03*
%TO.P,U4,6,D7*%
X28525000Y-145905000D03*
%TO.P,U4,7,~{Q7}*%
%TO.N,unconnected-(U4-~{Q7}-Pad7)*%
X28525000Y-147175000D03*
%TO.P,U4,8,GND*%
%TO.N,GND*%
X28525000Y-148445000D03*
%TO.P,U4,9,Q7*%
%TO.N,/ShiftReg4/DATA_OUT*%
X33475000Y-148445000D03*
%TO.P,U4,10,DS*%
%TO.N,/ShiftReg3/DATA_OUT*%
X33475000Y-147175000D03*
%TO.P,U4,11,D0*%
%TO.N,Net-(J26-Pin_1)*%
X33475000Y-145905000D03*
%TO.P,U4,12,D1*%
%TO.N,Net-(J27-Pin_1)*%
X33475000Y-144635000D03*
%TO.P,U4,13,D2*%
%TO.N,Net-(J28-Pin_1)*%
X33475000Y-143365000D03*
%TO.P,U4,14,D3*%
%TO.N,Net-(J29-Pin_1)*%
X33475000Y-142095000D03*
%TO.P,U4,15,~{CE}*%
%TO.N,GND*%
X33475000Y-140825000D03*
%TO.P,U4,16,VCC*%
%TO.N,+3.3V*%
X33475000Y-139555000D03*
%TD*%
D17*
%TO.N,GND*%
X35100000Y-59500000D03*
X26900000Y-145800000D03*
X35300000Y-113100000D03*
X26900000Y-91800000D03*
X26700000Y-60800000D03*
X26900000Y-120700000D03*
X35200000Y-53100000D03*
X35100000Y-84100000D03*
X31800000Y-173800000D03*
X33950500Y-170006456D03*
X35100000Y-141200000D03*
%TO.N,165_LOAD*%
X14700000Y-118300000D03*
X17800000Y-86800000D03*
X17900000Y-115600000D03*
X14600000Y-146000000D03*
X14700000Y-89400000D03*
X17900000Y-143700000D03*
%TO.N,Net-(J2-Pin_1)*%
X27700000Y-42900000D03*
X31800000Y-57700000D03*
%TO.N,Net-(J4-Pin_1)*%
X31075500Y-55200000D03*
X29200000Y-46800000D03*
%TO.N,Net-(J6-Pin_1)*%
X31200000Y-42500000D03*
X30100000Y-50800000D03*
X29600000Y-48900000D03*
%TO.N,Net-(J8-Pin_1)*%
X25500000Y-56600000D03*
%TO.N,Net-(J12-Pin_1)*%
X30700000Y-79600000D03*
X32100000Y-85900000D03*
%TO.N,Net-(J14-Pin_1)*%
X30700000Y-94800000D03*
%TO.N,Net-(J16-Pin_1)*%
X30800000Y-97200000D03*
%TO.N,Net-(J18-Pin_1)*%
X30900000Y-109750500D03*
X31400000Y-117300000D03*
%TO.N,Net-(J20-Pin_1)*%
X30600000Y-124800000D03*
X31200000Y-114700000D03*
X14800000Y-125500000D03*
%TO.N,Net-(J22-Pin_1)*%
X30900000Y-126500000D03*
%TO.N,Net-(J24-Pin_1)*%
X30700000Y-128100000D03*
X31233530Y-119166470D03*
%TO.N,Net-(J28-Pin_1)*%
X30900000Y-154075500D03*
X32100000Y-143400000D03*
X30300000Y-145000000D03*
%TO.N,Net-(J30-Pin_1)*%
X29900000Y-157100000D03*
%TO.N,Net-(J3-Pin_1)*%
X35900000Y-55100000D03*
X34800201Y-44000201D03*
%TO.N,Net-(J5-Pin_1)*%
X36312299Y-44487701D03*
X35000000Y-54500000D03*
%TO.N,Net-(J7-Pin_1)*%
X32524500Y-49900000D03*
X34900000Y-48100000D03*
%TO.N,Net-(J9-Pin_1)*%
X26600000Y-58000000D03*
%TO.N,Net-(J11-Pin_1)*%
X36000000Y-79900000D03*
X35128906Y-89467035D03*
%TO.N,Net-(J13-Pin_1)*%
X35200000Y-79200000D03*
X38400000Y-79100000D03*
X32000000Y-84400000D03*
%TO.N,Net-(J15-Pin_1)*%
X26400000Y-86400000D03*
%TO.N,Net-(J17-Pin_1)*%
X29575500Y-89310227D03*
X33200000Y-95200000D03*
%TO.N,Net-(J19-Pin_1)*%
X35100000Y-116700000D03*
X36900000Y-108700000D03*
X37200000Y-112300000D03*
%TO.N,Net-(J21-Pin_1)*%
X18200000Y-124300000D03*
%TO.N,Net-(J26-Pin_1)*%
X14600000Y-157600000D03*
X32049500Y-146000000D03*
X30800000Y-151975500D03*
%TO.N,Net-(J23-Pin_1)*%
X33100000Y-131200000D03*
X31437701Y-116237701D03*
X33036128Y-125275433D03*
%TO.N,Net-(J25-Pin_1)*%
X39500000Y-129800000D03*
%TO.N,/ShiftReg1/DATA_OUT*%
X35600000Y-90800000D03*
X35800000Y-60600000D03*
%TO.N,/ShiftReg2/DATA_OUT*%
X37100000Y-118200000D03*
X36700000Y-91600000D03*
%TO.N,/ShiftReg3/DATA_OUT*%
X36750000Y-153900000D03*
X35000000Y-120500000D03*
%TO.N,Net-(J27-Pin_1)*%
X34740500Y-152700000D03*
X14400000Y-159200000D03*
X32049500Y-144700000D03*
%TO.N,Net-(J29-Pin_1)*%
X34740500Y-154800000D03*
X35300500Y-143400000D03*
%TO.N,Net-(J31-Pin_1)*%
X33800000Y-157100000D03*
X30200000Y-143400000D03*
%TD*%
D18*
%TO.N,+3.3V*%
X31000000Y-158100000D02*
X32175000Y-156925000D01*
X28175000Y-152000000D02*
X28175000Y-156000000D01*
X33475000Y-139555000D02*
X31800000Y-137880000D01*
X35250000Y-88039087D02*
X35250000Y-85760913D01*
X31100000Y-66000000D02*
X34100000Y-66000000D01*
X39250000Y-138400000D02*
X39250000Y-132150000D01*
X31800000Y-137880000D02*
X31800000Y-132000000D01*
X28175000Y-94000000D02*
X28175000Y-96000000D01*
X28175000Y-156975000D02*
X29300000Y-158100000D01*
X34100000Y-66000000D02*
X35750000Y-66000000D01*
X40700000Y-119050000D02*
X38050000Y-116400000D01*
X32175000Y-64075000D02*
X34100000Y-66000000D01*
X36150000Y-140847918D02*
X34857082Y-139555000D01*
X35950000Y-83650000D02*
X34855000Y-82555000D01*
X32000000Y-170200000D02*
X34800000Y-173000000D01*
X31200000Y-151025000D02*
X31200000Y-141276472D01*
X33475000Y-49300000D02*
X32175000Y-48000000D01*
X32175000Y-63000000D02*
X32175000Y-64075000D01*
X28175000Y-77100000D02*
X28175000Y-79000000D01*
X31075000Y-98900000D02*
X33600000Y-98900000D01*
X34857082Y-51555000D02*
X33475000Y-51555000D01*
X31800000Y-128375000D02*
X32175000Y-128000000D01*
X32175000Y-156925000D02*
X32175000Y-156000000D01*
X29000000Y-49800000D02*
X30375000Y-49800000D01*
X37050000Y-67300000D02*
X37050000Y-53747918D01*
X36750000Y-98900000D02*
X38050000Y-100200000D01*
X28175000Y-63000000D02*
X28175000Y-63075000D01*
X38400000Y-151589087D02*
X36050000Y-149239087D01*
X34800000Y-169818611D02*
X35150000Y-169468611D01*
X35950000Y-84400000D02*
X35950000Y-83650000D01*
X32175000Y-48000000D02*
X32175000Y-44000000D01*
X35150000Y-167150000D02*
X38400000Y-163900000D01*
X38050000Y-116400000D02*
X38050000Y-114647918D01*
X28175000Y-79000000D02*
X31730000Y-82555000D01*
X35250000Y-85760913D02*
X35950000Y-85060913D01*
X34800000Y-173000000D02*
X34800000Y-169818611D01*
X28175000Y-128000000D02*
X28175000Y-124000000D01*
X32000000Y-168825000D02*
X32000000Y-170200000D01*
X36150000Y-141600000D02*
X39300000Y-138450000D01*
X35950000Y-85060913D02*
X35950000Y-84400000D01*
X32175000Y-94000000D02*
X32175000Y-96000000D01*
X39300000Y-138450000D02*
X39250000Y-138400000D01*
X32175000Y-152000000D02*
X31200000Y-151025000D01*
X36050000Y-149239087D02*
X36050000Y-146960913D01*
X38400000Y-163900000D02*
X38400000Y-151589087D01*
X32175000Y-79000000D02*
X32175000Y-81255000D01*
X28175000Y-63075000D02*
X31100000Y-66000000D01*
X28175000Y-109000000D02*
X29775000Y-110600000D01*
X35750000Y-66000000D02*
X37050000Y-67300000D01*
X29775000Y-110600000D02*
X32520000Y-110600000D01*
X28175000Y-128000000D02*
X28175000Y-128375000D01*
X32175000Y-96000000D02*
X32175000Y-97475000D01*
X32175000Y-128000000D02*
X32175000Y-124000000D01*
X28175000Y-48000000D02*
X28175000Y-44000000D01*
X33060000Y-111140000D02*
X33475000Y-111555000D01*
X32175000Y-97475000D02*
X33600000Y-98900000D01*
X32175000Y-110255000D02*
X33060000Y-111140000D01*
X29300000Y-158100000D02*
X31000000Y-158100000D01*
X36150000Y-141600000D02*
X36150000Y-140847918D01*
X28175000Y-48975000D02*
X29000000Y-49800000D01*
X39250000Y-132150000D02*
X40700000Y-130700000D01*
X33600000Y-98900000D02*
X36750000Y-98900000D01*
X31800000Y-132000000D02*
X31800000Y-128375000D01*
X31200000Y-141276472D02*
X32921472Y-139555000D01*
X34957082Y-111555000D02*
X33475000Y-111555000D01*
X36150000Y-146860913D02*
X36150000Y-141600000D01*
X34857082Y-139555000D02*
X33475000Y-139555000D01*
X28175000Y-48000000D02*
X28175000Y-48975000D01*
X32175000Y-77100000D02*
X32175000Y-79000000D01*
X32175000Y-152000000D02*
X32175000Y-156000000D01*
X31730000Y-82555000D02*
X33475000Y-82555000D01*
X35950000Y-84400000D02*
X37050000Y-83300000D01*
X34855000Y-82555000D02*
X33475000Y-82555000D01*
X37050000Y-83300000D02*
X37050000Y-67300000D01*
X30375000Y-49800000D02*
X32175000Y-48000000D01*
X36050000Y-146960913D02*
X36150000Y-146860913D01*
X28175000Y-156000000D02*
X28175000Y-156975000D01*
X28175000Y-96000000D02*
X31075000Y-98900000D01*
X37050000Y-53747918D02*
X34857082Y-51555000D01*
X38050000Y-114647918D02*
X34957082Y-111555000D01*
X38050000Y-90839087D02*
X35250000Y-88039087D01*
X33475000Y-51555000D02*
X33475000Y-49300000D01*
X38050000Y-116400000D02*
X38050000Y-100200000D01*
X38050000Y-100200000D02*
X38050000Y-90839087D01*
X32175000Y-81255000D02*
X33475000Y-82555000D01*
X32175000Y-109000000D02*
X32175000Y-110255000D01*
X32520000Y-110600000D02*
X33060000Y-111140000D01*
X40700000Y-130700000D02*
X40700000Y-119050000D01*
X35150000Y-169468611D02*
X35150000Y-167150000D01*
X28175000Y-128375000D02*
X31800000Y-132000000D01*
X32921472Y-139555000D02*
X33475000Y-139555000D01*
%TO.N,GND*%
X28525000Y-60445000D02*
X27055000Y-60445000D01*
X33475000Y-140825000D02*
X34725000Y-140825000D01*
X33475000Y-52825000D02*
X34925000Y-52825000D01*
X33475000Y-59175000D02*
X34775000Y-59175000D01*
X33475000Y-83825000D02*
X34825000Y-83825000D01*
X28525000Y-145905000D02*
X27971472Y-145905000D01*
X34825000Y-83825000D02*
X35100000Y-84100000D01*
X34925000Y-52825000D02*
X35200000Y-53100000D01*
X32500000Y-174500000D02*
X31800000Y-173800000D01*
X27255000Y-91445000D02*
X26900000Y-91800000D01*
X27971472Y-148445000D02*
X28525000Y-148445000D01*
X27055000Y-60445000D02*
X26700000Y-60800000D01*
X28525000Y-144635000D02*
X28525000Y-145905000D01*
X33475000Y-112825000D02*
X35025000Y-112825000D01*
X27155000Y-120445000D02*
X26900000Y-120700000D01*
X27100000Y-146776472D02*
X27100000Y-147573528D01*
X27555000Y-91445000D02*
X27255000Y-91445000D01*
X34000000Y-168937500D02*
X34000000Y-169956956D01*
X34775000Y-59175000D02*
X35100000Y-59500000D01*
X34800000Y-174500000D02*
X32500000Y-174500000D01*
X28525000Y-145905000D02*
X27005000Y-145905000D01*
X34725000Y-140825000D02*
X35100000Y-141200000D01*
X27005000Y-145905000D02*
X26900000Y-145800000D01*
X34000000Y-169956956D02*
X33950500Y-170006456D01*
X28525000Y-120445000D02*
X27155000Y-120445000D01*
X27100000Y-147573528D02*
X27971472Y-148445000D01*
X27971472Y-145905000D02*
X27100000Y-146776472D01*
X28525000Y-91445000D02*
X27555000Y-91445000D01*
X35025000Y-112825000D02*
X35300000Y-113100000D01*
D19*
%TO.N,165_CLOCK*%
X16925000Y-88700000D02*
X16925000Y-60175000D01*
X24275000Y-52825000D02*
X28525000Y-52825000D01*
X21700000Y-112825000D02*
X16925000Y-117600000D01*
X28525000Y-83825000D02*
X21800000Y-83825000D01*
X28740000Y-176000000D02*
X16925000Y-164185000D01*
X34800000Y-176000000D02*
X28740000Y-176000000D01*
X22500000Y-140825000D02*
X28525000Y-140825000D01*
X16925000Y-146400000D02*
X22500000Y-140825000D01*
X28525000Y-112825000D02*
X21700000Y-112825000D01*
X16925000Y-164185000D02*
X16925000Y-146400000D01*
X16925000Y-146400000D02*
X16925000Y-117600000D01*
X21800000Y-83825000D02*
X16925000Y-88700000D01*
X16925000Y-60175000D02*
X24275000Y-52825000D01*
X16925000Y-117600000D02*
X16925000Y-88700000D01*
%TO.N,165_LOAD*%
X14700000Y-118300000D02*
X14700000Y-118575000D01*
X15725000Y-119600000D02*
X15725000Y-90800000D01*
X21945000Y-111555000D02*
X17900000Y-115600000D01*
X28525000Y-139555000D02*
X22045000Y-139555000D01*
X15475000Y-150775000D02*
X15725000Y-150525000D01*
X14600000Y-146000000D02*
X14925000Y-146000000D01*
X14925000Y-146000000D02*
X15725000Y-146800000D01*
X14700000Y-89775000D02*
X15725000Y-90800000D01*
X28525000Y-111555000D02*
X21945000Y-111555000D01*
X14700000Y-118575000D02*
X15725000Y-119600000D01*
X22045000Y-139555000D02*
X17900000Y-143700000D01*
X15725000Y-90800000D02*
X15725000Y-60738604D01*
X28525000Y-82555000D02*
X22045000Y-82555000D01*
X27700000Y-177500000D02*
X15475000Y-165275000D01*
X34800000Y-177500000D02*
X27700000Y-177500000D01*
X15725000Y-146800000D02*
X15725000Y-119600000D01*
X24908604Y-51555000D02*
X28525000Y-51555000D01*
X22045000Y-82555000D02*
X17800000Y-86800000D01*
X14700000Y-89400000D02*
X14700000Y-89775000D01*
X15725000Y-60738604D02*
X24908604Y-51555000D01*
X15475000Y-165275000D02*
X15475000Y-150775000D01*
X15725000Y-150525000D02*
X15725000Y-146800000D01*
%TO.N,Net-(J2-Pin_1)*%
X27700000Y-42900000D02*
X28725000Y-42900000D01*
X25725000Y-39900000D02*
X8400000Y-39900000D01*
X28725000Y-42900000D02*
X29825000Y-44000000D01*
X29825000Y-44000000D02*
X25725000Y-39900000D01*
X5200000Y-36700000D02*
X5200000Y-36400000D01*
X32005000Y-57905000D02*
X31800000Y-57700000D01*
X33475000Y-57905000D02*
X32005000Y-57905000D01*
X8400000Y-39900000D02*
X5200000Y-36700000D01*
%TO.N,Net-(J10-Pin_1)*%
X31275000Y-87081751D02*
X33098249Y-88905000D01*
X33098249Y-88905000D02*
X33475000Y-88905000D01*
X31275000Y-83317462D02*
X31275000Y-87081751D01*
X25800000Y-76300000D02*
X25800000Y-77842462D01*
X24350000Y-76300000D02*
X18750000Y-70700000D01*
X25800000Y-76300000D02*
X24350000Y-76300000D01*
X29825000Y-77100000D02*
X29025000Y-76300000D01*
X25800000Y-77842462D02*
X31275000Y-83317462D01*
X29025000Y-76300000D02*
X25800000Y-76300000D01*
%TO.N,Net-(J4-Pin_1)*%
X21200000Y-39000000D02*
X18850000Y-36650000D01*
X26100000Y-39000000D02*
X21200000Y-39000000D01*
X29200000Y-46625000D02*
X29825000Y-46000000D01*
X30550000Y-45275000D02*
X30550000Y-43450000D01*
X18850000Y-36650000D02*
X18850000Y-36400000D01*
X31240500Y-55365000D02*
X31075500Y-55200000D01*
X30550000Y-43450000D02*
X26100000Y-39000000D01*
X29200000Y-46800000D02*
X29200000Y-46625000D01*
X33475000Y-55365000D02*
X31240500Y-55365000D01*
X29825000Y-46000000D02*
X30550000Y-45275000D01*
%TO.N,Net-(J6-Pin_1)*%
X31200000Y-46625000D02*
X31200000Y-42500000D01*
X28901751Y-54095000D02*
X30100000Y-52896751D01*
X29600000Y-48225000D02*
X29825000Y-48000000D01*
X30100000Y-52896751D02*
X30100000Y-50800000D01*
X29825000Y-48000000D02*
X31200000Y-46625000D01*
X28525000Y-54095000D02*
X28901751Y-54095000D01*
X29600000Y-48900000D02*
X29600000Y-48225000D01*
%TO.N,Net-(J8-Pin_1)*%
X25875000Y-61075000D02*
X25875000Y-57625000D01*
X25500000Y-56600000D02*
X28490000Y-56600000D01*
X26865000Y-56635000D02*
X28525000Y-56635000D01*
X27000000Y-62200000D02*
X25875000Y-61075000D01*
X28490000Y-56600000D02*
X28525000Y-56635000D01*
X29825000Y-63000000D02*
X29025000Y-62200000D01*
X25875000Y-57625000D02*
X26865000Y-56635000D01*
X29025000Y-62200000D02*
X27000000Y-62200000D01*
%TO.N,Net-(J12-Pin_1)*%
X29800000Y-74700000D02*
X30550000Y-75450000D01*
X27100000Y-74700000D02*
X29800000Y-74700000D01*
X30425000Y-79600000D02*
X29825000Y-79000000D01*
X30550000Y-78275000D02*
X29825000Y-79000000D01*
X30550000Y-75450000D02*
X30550000Y-78275000D01*
X30700000Y-79600000D02*
X30425000Y-79600000D01*
X31675000Y-69325000D02*
X24325000Y-69325000D01*
X32565000Y-86365000D02*
X32100000Y-85900000D01*
X24325000Y-69325000D02*
X24325000Y-71925000D01*
X24325000Y-71925000D02*
X27100000Y-74700000D01*
X33475000Y-86365000D02*
X32565000Y-86365000D01*
X33050000Y-70700000D02*
X31675000Y-69325000D01*
%TO.N,Net-(J14-Pin_1)*%
X30300000Y-85700000D02*
X30300000Y-93525000D01*
X30700000Y-94800000D02*
X30625000Y-94800000D01*
X30300000Y-93525000D02*
X29825000Y-94000000D01*
X29695000Y-85095000D02*
X30300000Y-85700000D01*
X28525000Y-85095000D02*
X29695000Y-85095000D01*
X30625000Y-94800000D02*
X29825000Y-94000000D01*
%TO.N,Net-(J16-Pin_1)*%
X26175000Y-89608249D02*
X26175000Y-92100305D01*
X28148249Y-87635000D02*
X26175000Y-89608249D01*
X30800000Y-96975000D02*
X29825000Y-96000000D01*
X29100000Y-95275000D02*
X29825000Y-96000000D01*
X28600000Y-93200000D02*
X29100000Y-93700000D01*
X30800000Y-97200000D02*
X30800000Y-96975000D01*
X27274695Y-93200000D02*
X28600000Y-93200000D01*
X29100000Y-93700000D02*
X29100000Y-95275000D01*
X26175000Y-92100305D02*
X27274695Y-93200000D01*
X28525000Y-87635000D02*
X28148249Y-87635000D01*
%TO.N,Net-(J18-Pin_1)*%
X29825000Y-109000000D02*
X30149500Y-109000000D01*
X30149500Y-109000000D02*
X30900000Y-109750500D01*
X32870000Y-117300000D02*
X33475000Y-117905000D01*
X33250000Y-103100000D02*
X29825000Y-106525000D01*
X31400000Y-117300000D02*
X32870000Y-117300000D01*
X29825000Y-106525000D02*
X29825000Y-109000000D01*
%TO.N,Net-(J20-Pin_1)*%
X33475000Y-115365000D02*
X31865000Y-115365000D01*
X29825000Y-124025000D02*
X30600000Y-124800000D01*
X11750000Y-125500000D02*
X14800000Y-125500000D01*
X29825000Y-124000000D02*
X29825000Y-124025000D01*
X3650000Y-133600000D02*
X11750000Y-125500000D01*
X31865000Y-115365000D02*
X31200000Y-114700000D01*
%TO.N,Net-(J22-Pin_1)*%
X27379695Y-114095000D02*
X17400000Y-124074695D01*
X17400000Y-124074695D02*
X17400000Y-132450000D01*
X17400000Y-132450000D02*
X18550000Y-133600000D01*
X30400000Y-126000000D02*
X30900000Y-126500000D01*
X28525000Y-114095000D02*
X27379695Y-114095000D01*
X29825000Y-126000000D02*
X30400000Y-126000000D01*
%TO.N,Net-(J24-Pin_1)*%
X29925000Y-128100000D02*
X29825000Y-128000000D01*
X28525000Y-116635000D02*
X28901751Y-116635000D01*
X30700000Y-128100000D02*
X29925000Y-128100000D01*
X31233530Y-118966779D02*
X31233530Y-119166470D01*
X28901751Y-116635000D02*
X31233530Y-118966779D01*
%TO.N,Net-(J28-Pin_1)*%
X30900000Y-154075500D02*
X29900500Y-154075500D01*
X29900500Y-154075500D02*
X29825000Y-154000000D01*
X29100000Y-152492462D02*
X29100000Y-149600000D01*
X30900000Y-154075500D02*
X30683038Y-154075500D01*
X33440000Y-143400000D02*
X33475000Y-143365000D01*
X32100000Y-143400000D02*
X33440000Y-143400000D01*
X30683038Y-154075500D02*
X29100000Y-152492462D01*
X29100000Y-149600000D02*
X30300000Y-148400000D01*
X30300000Y-148400000D02*
X30300000Y-145000000D01*
%TO.N,Net-(J30-Pin_1)*%
X29100000Y-162500000D02*
X25700000Y-159100000D01*
X28148249Y-142095000D02*
X28525000Y-142095000D01*
X25700000Y-159100000D02*
X25700000Y-144543249D01*
X29900000Y-157100000D02*
X29900000Y-156075000D01*
X29900000Y-156075000D02*
X29825000Y-156000000D01*
X25700000Y-144543249D02*
X28148249Y-142095000D01*
%TO.N,Net-(J3-Pin_1)*%
X27600000Y-37775000D02*
X24175000Y-37775000D01*
X24175000Y-37775000D02*
X24175000Y-36475000D01*
X24175000Y-36475000D02*
X20800000Y-33100000D01*
X33825000Y-44000000D02*
X27600000Y-37775000D01*
X34800201Y-44000201D02*
X33825201Y-44000201D01*
X15000000Y-33100000D02*
X12050000Y-36050000D01*
X12050000Y-36050000D02*
X12050000Y-36400000D01*
X33475000Y-56635000D02*
X34365000Y-56635000D01*
X34365000Y-56635000D02*
X35900000Y-55100000D01*
X20800000Y-33100000D02*
X15000000Y-33100000D01*
X33825201Y-44000201D02*
X33825000Y-44000000D01*
%TO.N,Net-(J5-Pin_1)*%
X34595000Y-54095000D02*
X35000000Y-54500000D01*
X33825000Y-46000000D02*
X36375000Y-43450000D01*
X36312299Y-44487701D02*
X34800000Y-46000000D01*
X36225000Y-35025000D02*
X26950000Y-35025000D01*
X33475000Y-54095000D02*
X34595000Y-54095000D01*
X25750000Y-36225000D02*
X25750000Y-36400000D01*
X26950000Y-35025000D02*
X25750000Y-36225000D01*
X36375000Y-43450000D02*
X36375000Y-35175000D01*
X34800000Y-46000000D02*
X33825000Y-46000000D01*
X36375000Y-35175000D02*
X36225000Y-35025000D01*
%TO.N,Net-(J7-Pin_1)*%
X33925000Y-48100000D02*
X33825000Y-48000000D01*
X32175000Y-52091751D02*
X32175000Y-50249500D01*
X32175000Y-50249500D02*
X32524500Y-49900000D01*
X28525000Y-55365000D02*
X28901751Y-55365000D01*
X28901751Y-55365000D02*
X32175000Y-52091751D01*
X34900000Y-48100000D02*
X33925000Y-48100000D01*
X39400000Y-42425000D02*
X33825000Y-48000000D01*
X39400000Y-36400000D02*
X39400000Y-42425000D01*
%TO.N,Net-(J9-Pin_1)*%
X28901751Y-57905000D02*
X33825000Y-62828249D01*
X28525000Y-57905000D02*
X28901751Y-57905000D01*
X26600000Y-58000000D02*
X28430000Y-58000000D01*
X33825000Y-62828249D02*
X33825000Y-63000000D01*
X28430000Y-58000000D02*
X28525000Y-57905000D01*
%TO.N,Net-(J11-Pin_1)*%
X36000000Y-78974695D02*
X34125305Y-77100000D01*
X27275000Y-72075000D02*
X25900000Y-70700000D01*
X28800000Y-72075000D02*
X27275000Y-72075000D01*
X35128906Y-89467035D02*
X35128906Y-88912155D01*
X35128906Y-88912155D02*
X33851751Y-87635000D01*
X33851751Y-87635000D02*
X33475000Y-87635000D01*
X34125305Y-77100000D02*
X33825000Y-77100000D01*
X33825000Y-77100000D02*
X28800000Y-72075000D01*
X36000000Y-79900000D02*
X36000000Y-78974695D01*
%TO.N,Net-(J13-Pin_1)*%
X32695000Y-85095000D02*
X32000000Y-84400000D01*
X39950000Y-70700000D02*
X39950000Y-77550000D01*
X33475000Y-85095000D02*
X32695000Y-85095000D01*
X35200000Y-79200000D02*
X34025000Y-79200000D01*
X34025000Y-79200000D02*
X33825000Y-79000000D01*
X39950000Y-77550000D02*
X38400000Y-79100000D01*
%TO.N,Net-(J15-Pin_1)*%
X27225000Y-85441751D02*
X27225000Y-84748249D01*
X28525000Y-86365000D02*
X28148249Y-86365000D01*
X28490000Y-86400000D02*
X28525000Y-86365000D01*
X26400000Y-86400000D02*
X28490000Y-86400000D01*
X30825000Y-85588604D02*
X30825000Y-91000000D01*
X27503249Y-84470000D02*
X29706396Y-84470000D01*
X28148249Y-86365000D02*
X27225000Y-85441751D01*
X30825000Y-91000000D02*
X33825000Y-94000000D01*
X29706396Y-84470000D02*
X30825000Y-85588604D01*
X27225000Y-84748249D02*
X27503249Y-84470000D01*
%TO.N,Net-(J17-Pin_1)*%
X29170273Y-88905000D02*
X29575500Y-89310227D01*
X33200000Y-95375000D02*
X33825000Y-96000000D01*
X33200000Y-95200000D02*
X33200000Y-95375000D01*
X28525000Y-88905000D02*
X29170273Y-88905000D01*
%TO.N,Net-(J19-Pin_1)*%
X33900000Y-109000000D02*
X37200000Y-112300000D01*
X36600000Y-109000000D02*
X36900000Y-108700000D01*
X33540000Y-116700000D02*
X33475000Y-116635000D01*
X33825000Y-109000000D02*
X33900000Y-109000000D01*
X35100000Y-116700000D02*
X33540000Y-116700000D01*
X33825000Y-109000000D02*
X36600000Y-109000000D01*
%TO.N,Net-(J21-Pin_1)*%
X33475000Y-114095000D02*
X32830000Y-113450000D01*
X19300000Y-123200000D02*
X18200000Y-124300000D01*
X33825000Y-124000000D02*
X33025000Y-123200000D01*
X23500000Y-123200000D02*
X19300000Y-123200000D01*
X24500000Y-122200000D02*
X23500000Y-123200000D01*
X29546751Y-114720000D02*
X27523249Y-114720000D01*
X27523249Y-114720000D02*
X24500000Y-117743249D01*
X32830000Y-113450000D02*
X32453249Y-113450000D01*
X32453249Y-113450000D02*
X32403249Y-113400000D01*
X30866751Y-113400000D02*
X29546751Y-114720000D01*
X32403249Y-113400000D02*
X30866751Y-113400000D01*
X33025000Y-123200000D02*
X23500000Y-123200000D01*
X24500000Y-117743249D02*
X24500000Y-122200000D01*
%TO.N,Net-(J26-Pin_1)*%
X30800000Y-151975500D02*
X29849500Y-151975500D01*
X33380000Y-146000000D02*
X33475000Y-145905000D01*
X29849500Y-151975500D02*
X29825000Y-152000000D01*
X-1300000Y-162500000D02*
X3600000Y-157600000D01*
X3600000Y-157600000D02*
X14600000Y-157600000D01*
X32049500Y-146000000D02*
X33380000Y-146000000D01*
%TO.N,Net-(J23-Pin_1)*%
X33825000Y-126000000D02*
X33760695Y-126000000D01*
X31437701Y-116237701D02*
X30565000Y-115365000D01*
X33100000Y-126725000D02*
X33100000Y-131200000D01*
X33825000Y-126000000D02*
X33100000Y-126725000D01*
X30565000Y-115365000D02*
X28525000Y-115365000D01*
X33760695Y-126000000D02*
X33036128Y-125275433D01*
%TO.N,Net-(J25-Pin_1)*%
X34550000Y-127275000D02*
X33825000Y-128000000D01*
X28525000Y-117905000D02*
X28947462Y-117905000D01*
X33825000Y-128000000D02*
X37700000Y-128000000D01*
X37700000Y-128000000D02*
X39500000Y-129800000D01*
X28947462Y-117905000D02*
X34550000Y-123507538D01*
X34550000Y-123507538D02*
X34550000Y-127275000D01*
%TO.N,/ShiftReg1/DATA_OUT*%
X33630000Y-60600000D02*
X33475000Y-60445000D01*
X34975000Y-90175000D02*
X33475000Y-90175000D01*
X35600000Y-90800000D02*
X34975000Y-90175000D01*
X35800000Y-60600000D02*
X33630000Y-60600000D01*
%TO.N,/ShiftReg2/DATA_OUT*%
X36125000Y-119175000D02*
X37100000Y-118200000D01*
X33630000Y-91600000D02*
X33475000Y-91445000D01*
X36700000Y-91600000D02*
X33630000Y-91600000D01*
X33475000Y-119175000D02*
X36125000Y-119175000D01*
%TO.N,/ShiftReg3/DATA_OUT*%
X35000000Y-120500000D02*
X33530000Y-120500000D01*
X34775000Y-149108604D02*
X34775000Y-148098249D01*
X35915000Y-153065000D02*
X35915000Y-150248604D01*
X33851751Y-147175000D02*
X33475000Y-147175000D01*
X34775000Y-148098249D02*
X33851751Y-147175000D01*
X35915000Y-150248604D02*
X34775000Y-149108604D01*
X36750000Y-153900000D02*
X35915000Y-153065000D01*
X33530000Y-120500000D02*
X33475000Y-120445000D01*
%TO.N,/ShiftReg4/DATA_OUT*%
X34800000Y-179000000D02*
X35360140Y-179000000D01*
X35465000Y-150435000D02*
X33475000Y-148445000D01*
X36110140Y-173750000D02*
X33489860Y-173750000D01*
X31000000Y-166957538D02*
X31507538Y-166450000D01*
X31000000Y-171260140D02*
X31000000Y-166957538D01*
X35360140Y-179000000D02*
X36425000Y-177935140D01*
X31507538Y-166450000D02*
X32300000Y-166450000D01*
X36425000Y-174064860D02*
X36110140Y-173750000D01*
X35465000Y-163285000D02*
X35465000Y-150435000D01*
X32300000Y-166450000D02*
X35465000Y-163285000D01*
X36425000Y-177935140D02*
X36425000Y-174064860D01*
X33489860Y-173750000D02*
X31000000Y-171260140D01*
%TO.N,Net-(J27-Pin_1)*%
X34525000Y-152700000D02*
X33825000Y-152000000D01*
X32049500Y-144700000D02*
X33410000Y-144700000D01*
X6300000Y-162500000D02*
X9600000Y-159200000D01*
X9600000Y-159200000D02*
X14400000Y-159200000D01*
X34740500Y-152700000D02*
X34525000Y-152700000D01*
X33410000Y-144700000D02*
X33475000Y-144635000D01*
%TO.N,Net-(J29-Pin_1)*%
X35300500Y-143400000D02*
X33995500Y-142095000D01*
X34625000Y-154800000D02*
X33825000Y-154000000D01*
X33995500Y-142095000D02*
X33475000Y-142095000D01*
X34740500Y-154800000D02*
X34625000Y-154800000D01*
%TO.N,Net-(J31-Pin_1)*%
X33800000Y-156025000D02*
X33825000Y-156000000D01*
X28560000Y-143400000D02*
X28525000Y-143365000D01*
X30200000Y-143400000D02*
X28560000Y-143400000D01*
X33800000Y-157100000D02*
X33800000Y-156025000D01*
%TO.N,Net-(D1-A)*%
X32000000Y-167175000D02*
X33887500Y-167175000D01*
X33887500Y-167175000D02*
X34000000Y-167062500D01*
%TO.N,unconnected-(J1-Pin_6-Pad6)*%
X38400000Y-171000000D02*
X38400000Y-181000000D01*
%TD*%
M02*
