%TF.GenerationSoftware,KiCad,Pcbnew,7.0.2*%
%TF.CreationDate,2025-02-12T15:24:12+00:00*%
%TF.ProjectId,fretboard,66726574-626f-4617-9264-2e6b69636164,rev?*%
%TF.SameCoordinates,Original*%
%TF.FileFunction,Legend,Bot*%
%TF.FilePolarity,Positive*%
%FSLAX46Y46*%
G04 Gerber Fmt 4.6, Leading zero omitted, Abs format (unit mm)*
G04 Created by KiCad (PCBNEW 7.0.2) date 2025-02-12 15:24:12*
%MOMM*%
%LPD*%
G01*
G04 APERTURE LIST*
%ADD10C,2.100000*%
%ADD11C,3.075000*%
%ADD12C,0.100000*%
%ADD13R,2.100000X2.100000*%
%ADD14C,2.200000*%
G04 APERTURE END LIST*
D10*
X-3000000Y-70700000D02*
X43000000Y-70700000D01*
X-3000000Y-36400000D02*
X43000000Y-36400000D01*
X-3000000Y-103100000D02*
X43000000Y-103100000D01*
X-3000000Y-162500000D02*
X43000000Y-162500000D01*
D11*
X21537500Y-86900000D02*
G75*
G03*
X21537500Y-86900000I-1537500J0D01*
G01*
D10*
X-3000000Y-133600000D02*
X43000000Y-133600000D01*
D11*
X21537500Y-148100000D02*
G75*
G03*
X21537500Y-148100000I-1537500J0D01*
G01*
D12*
%TO.C,H5*%
X-500000Y-148100000D02*
X-500000Y-148100000D01*
X-453157Y-147703680D02*
X-453157Y-147703680D01*
X-315212Y-147329201D02*
X-315212Y-147329201D01*
X-93767Y-146997200D02*
X-93767Y-146997200D01*
X198976Y-146725972D02*
X198976Y-146725972D01*
X546884Y-146530465D02*
X546884Y-146530465D01*
X930784Y-146421452D02*
X930784Y-146421452D01*
X1329520Y-146404941D02*
X1329520Y-146404941D01*
X1721119Y-146481842D02*
X1721119Y-146481842D01*
X2083999Y-146647917D02*
X2083999Y-146647917D01*
X2398164Y-146894014D02*
X2398164Y-146894014D01*
X2646300Y-147206570D02*
X2646300Y-147206570D01*
X2814732Y-147568363D02*
X2814732Y-147568363D01*
X2894180Y-147959453D02*
X2894180Y-147959453D01*
X2880264Y-148358288D02*
X2880264Y-148358288D01*
X2773751Y-148742889D02*
X2773751Y-148742889D01*
X2580511Y-149092062D02*
X2580511Y-149092062D01*
X2311194Y-149386564D02*
X2311194Y-149386564D01*
X1980640Y-149610165D02*
X1980640Y-149610165D01*
X1607067Y-149750544D02*
X1607067Y-149750544D01*
X1211061Y-149799964D02*
X1211061Y-149799964D01*
X814445Y-149755701D02*
X814445Y-149755701D01*
X439077Y-149620196D02*
X439077Y-149620196D01*
X105641Y-149400915D02*
X105641Y-149400915D01*
X-167485Y-149109942D02*
X-167485Y-149109942D01*
X-365252Y-148763314D02*
X-365252Y-148763314D01*
X-476760Y-148380131D02*
X-476760Y-148380131D01*
%TO.C,H2*%
X35500000Y-18200000D02*
X35500000Y-18200000D01*
X35546842Y-17803680D02*
X35546842Y-17803680D01*
X35684787Y-17429201D02*
X35684787Y-17429201D01*
X35906232Y-17097200D02*
X35906232Y-17097200D01*
X36198976Y-16825972D02*
X36198976Y-16825972D01*
X36546884Y-16630465D02*
X36546884Y-16630465D01*
X36930784Y-16521452D02*
X36930784Y-16521452D01*
X37329520Y-16504941D02*
X37329520Y-16504941D01*
X37721119Y-16581842D02*
X37721119Y-16581842D01*
X38083999Y-16747917D02*
X38083999Y-16747917D01*
X38398164Y-16994014D02*
X38398164Y-16994014D01*
X38646300Y-17306570D02*
X38646300Y-17306570D01*
X38814732Y-17668363D02*
X38814732Y-17668363D01*
X38894180Y-18059453D02*
X38894180Y-18059453D01*
X38880264Y-18458288D02*
X38880264Y-18458288D01*
X38773751Y-18842889D02*
X38773751Y-18842889D01*
X38580511Y-19192062D02*
X38580511Y-19192062D01*
X38311194Y-19486564D02*
X38311194Y-19486564D01*
X37980640Y-19710165D02*
X37980640Y-19710165D01*
X37607067Y-19850544D02*
X37607067Y-19850544D01*
X37211061Y-19899964D02*
X37211061Y-19899964D01*
X36814445Y-19855701D02*
X36814445Y-19855701D01*
X36439077Y-19720196D02*
X36439077Y-19720196D01*
X36105641Y-19500915D02*
X36105641Y-19500915D01*
X35832514Y-19209942D02*
X35832514Y-19209942D01*
X35634747Y-18863314D02*
X35634747Y-18863314D01*
X35523239Y-18480131D02*
X35523239Y-18480131D01*
%TO.C,H3*%
X200000Y-86900000D02*
X200000Y-86900000D01*
X246842Y-86503680D02*
X246842Y-86503680D01*
X384787Y-86129201D02*
X384787Y-86129201D01*
X606232Y-85797200D02*
X606232Y-85797200D01*
X898976Y-85525972D02*
X898976Y-85525972D01*
X1246884Y-85330465D02*
X1246884Y-85330465D01*
X1630784Y-85221452D02*
X1630784Y-85221452D01*
X2029520Y-85204941D02*
X2029520Y-85204941D01*
X2421119Y-85281842D02*
X2421119Y-85281842D01*
X2783999Y-85447917D02*
X2783999Y-85447917D01*
X3098164Y-85694014D02*
X3098164Y-85694014D01*
X3346300Y-86006570D02*
X3346300Y-86006570D01*
X3514732Y-86368363D02*
X3514732Y-86368363D01*
X3594180Y-86759453D02*
X3594180Y-86759453D01*
X3580264Y-87158288D02*
X3580264Y-87158288D01*
X3473751Y-87542889D02*
X3473751Y-87542889D01*
X3280511Y-87892062D02*
X3280511Y-87892062D01*
X3011194Y-88186564D02*
X3011194Y-88186564D01*
X2680640Y-88410165D02*
X2680640Y-88410165D01*
X2307067Y-88550544D02*
X2307067Y-88550544D01*
X1911061Y-88599964D02*
X1911061Y-88599964D01*
X1514445Y-88555701D02*
X1514445Y-88555701D01*
X1139077Y-88420196D02*
X1139077Y-88420196D01*
X805641Y-88200915D02*
X805641Y-88200915D01*
X532514Y-87909942D02*
X532514Y-87909942D01*
X334747Y-87563314D02*
X334747Y-87563314D01*
X223239Y-87180131D02*
X223239Y-87180131D01*
%TO.C,H1*%
X1100000Y-18200000D02*
X1100000Y-18200000D01*
X1146842Y-17803680D02*
X1146842Y-17803680D01*
X1284787Y-17429201D02*
X1284787Y-17429201D01*
X1506232Y-17097200D02*
X1506232Y-17097200D01*
X1798976Y-16825972D02*
X1798976Y-16825972D01*
X2146884Y-16630465D02*
X2146884Y-16630465D01*
X2530784Y-16521452D02*
X2530784Y-16521452D01*
X2929520Y-16504941D02*
X2929520Y-16504941D01*
X3321119Y-16581842D02*
X3321119Y-16581842D01*
X3683999Y-16747917D02*
X3683999Y-16747917D01*
X3998164Y-16994014D02*
X3998164Y-16994014D01*
X4246300Y-17306570D02*
X4246300Y-17306570D01*
X4414732Y-17668363D02*
X4414732Y-17668363D01*
X4494180Y-18059453D02*
X4494180Y-18059453D01*
X4480264Y-18458288D02*
X4480264Y-18458288D01*
X4373751Y-18842889D02*
X4373751Y-18842889D01*
X4180511Y-19192062D02*
X4180511Y-19192062D01*
X3911194Y-19486564D02*
X3911194Y-19486564D01*
X3580640Y-19710165D02*
X3580640Y-19710165D01*
X3207067Y-19850544D02*
X3207067Y-19850544D01*
X2811061Y-19899964D02*
X2811061Y-19899964D01*
X2414445Y-19855701D02*
X2414445Y-19855701D01*
X2039077Y-19720196D02*
X2039077Y-19720196D01*
X1705641Y-19500915D02*
X1705641Y-19500915D01*
X1432514Y-19209942D02*
X1432514Y-19209942D01*
X1234747Y-18863314D02*
X1234747Y-18863314D01*
X1123239Y-18480131D02*
X1123239Y-18480131D01*
%TO.C,H4*%
X36300000Y-86900000D02*
X36300000Y-86900000D01*
X36346842Y-86503680D02*
X36346842Y-86503680D01*
X36484787Y-86129201D02*
X36484787Y-86129201D01*
X36706232Y-85797200D02*
X36706232Y-85797200D01*
X36998976Y-85525972D02*
X36998976Y-85525972D01*
X37346884Y-85330465D02*
X37346884Y-85330465D01*
X37730784Y-85221452D02*
X37730784Y-85221452D01*
X38129520Y-85204941D02*
X38129520Y-85204941D01*
X38521119Y-85281842D02*
X38521119Y-85281842D01*
X38883999Y-85447917D02*
X38883999Y-85447917D01*
X39198164Y-85694014D02*
X39198164Y-85694014D01*
X39446300Y-86006570D02*
X39446300Y-86006570D01*
X39614732Y-86368363D02*
X39614732Y-86368363D01*
X39694180Y-86759453D02*
X39694180Y-86759453D01*
X39680264Y-87158288D02*
X39680264Y-87158288D01*
X39573751Y-87542889D02*
X39573751Y-87542889D01*
X39380511Y-87892062D02*
X39380511Y-87892062D01*
X39111194Y-88186564D02*
X39111194Y-88186564D01*
X38780640Y-88410165D02*
X38780640Y-88410165D01*
X38407067Y-88550544D02*
X38407067Y-88550544D01*
X38011061Y-88599964D02*
X38011061Y-88599964D01*
X37614445Y-88555701D02*
X37614445Y-88555701D01*
X37239077Y-88420196D02*
X37239077Y-88420196D01*
X36905641Y-88200915D02*
X36905641Y-88200915D01*
X36632514Y-87909942D02*
X36632514Y-87909942D01*
X36434747Y-87563314D02*
X36434747Y-87563314D01*
X36323239Y-87180131D02*
X36323239Y-87180131D01*
%TO.C,H6*%
X37100000Y-148100000D02*
X37100000Y-148100000D01*
X37146842Y-147703680D02*
X37146842Y-147703680D01*
X37284787Y-147329201D02*
X37284787Y-147329201D01*
X37506232Y-146997200D02*
X37506232Y-146997200D01*
X37798976Y-146725972D02*
X37798976Y-146725972D01*
X38146884Y-146530465D02*
X38146884Y-146530465D01*
X38530784Y-146421452D02*
X38530784Y-146421452D01*
X38929520Y-146404941D02*
X38929520Y-146404941D01*
X39321119Y-146481842D02*
X39321119Y-146481842D01*
X39683999Y-146647917D02*
X39683999Y-146647917D01*
X39998164Y-146894014D02*
X39998164Y-146894014D01*
X40246300Y-147206570D02*
X40246300Y-147206570D01*
X40414732Y-147568363D02*
X40414732Y-147568363D01*
X40494180Y-147959453D02*
X40494180Y-147959453D01*
X40480264Y-148358288D02*
X40480264Y-148358288D01*
X40373751Y-148742889D02*
X40373751Y-148742889D01*
X40180511Y-149092062D02*
X40180511Y-149092062D01*
X39911194Y-149386564D02*
X39911194Y-149386564D01*
X39580640Y-149610165D02*
X39580640Y-149610165D01*
X39207067Y-149750544D02*
X39207067Y-149750544D01*
X38811061Y-149799964D02*
X38811061Y-149799964D01*
X38414445Y-149755701D02*
X38414445Y-149755701D01*
X38039077Y-149620196D02*
X38039077Y-149620196D01*
X37705641Y-149400915D02*
X37705641Y-149400915D01*
X37432514Y-149109942D02*
X37432514Y-149109942D01*
X37234747Y-148763314D02*
X37234747Y-148763314D01*
X37123239Y-148380131D02*
X37123239Y-148380131D01*
%TD*%
%LPC*%
D13*
%TO.C,J10*%
X18550000Y-70700000D03*
X14350000Y-70700000D03*
%TD*%
%TO.C,J19*%
X40250000Y-103100000D03*
X36050000Y-103100000D03*
%TD*%
%TO.C,J2*%
X5000000Y-36400000D03*
X800000Y-36400000D03*
%TD*%
%TO.C,J22*%
X18350000Y-133600000D03*
X14150000Y-133600000D03*
%TD*%
%TO.C,J8*%
X4450000Y-70700000D03*
X250000Y-70700000D03*
%TD*%
%TO.C,J15*%
X11150000Y-103100000D03*
X6950000Y-103100000D03*
%TD*%
%TO.C,J20*%
X3450000Y-133600000D03*
X-750000Y-133600000D03*
%TD*%
%TO.C,J31*%
X36900000Y-162500000D03*
X41100000Y-162500000D03*
%TD*%
%TO.C,J25*%
X40750000Y-133600000D03*
X36550000Y-133600000D03*
%TD*%
%TO.C,J27*%
X6500000Y-162500000D03*
X10700000Y-162500000D03*
%TD*%
%TO.C,J28*%
X14100000Y-162500000D03*
X18300000Y-162500000D03*
%TD*%
%TO.C,J30*%
X29300000Y-162500000D03*
X33500000Y-162500000D03*
%TD*%
%TO.C,J4*%
X18650000Y-36400000D03*
X14450000Y-36400000D03*
%TD*%
%TO.C,J26*%
X-1100000Y-162500000D03*
X3100000Y-162500000D03*
%TD*%
%TO.C,J24*%
X33300000Y-133600000D03*
X29100000Y-133600000D03*
%TD*%
%TO.C,J6*%
X32350000Y-36400000D03*
X28150000Y-36400000D03*
%TD*%
%TO.C,J7*%
X39200000Y-36400000D03*
X35000000Y-36400000D03*
%TD*%
%TO.C,J23*%
X25800000Y-133600000D03*
X21600000Y-133600000D03*
%TD*%
%TO.C,J5*%
X25550000Y-36400000D03*
X21350000Y-36400000D03*
%TD*%
%TO.C,J21*%
X10900000Y-133600000D03*
X6700000Y-133600000D03*
%TD*%
%TO.C,J18*%
X33050000Y-103100000D03*
X28850000Y-103100000D03*
%TD*%
%TO.C,J12*%
X32850000Y-70700000D03*
X28650000Y-70700000D03*
%TD*%
%TO.C,J11*%
X25700000Y-70700000D03*
X21500000Y-70700000D03*
%TD*%
%TO.C,J3*%
X11850000Y-36400000D03*
X7650000Y-36400000D03*
%TD*%
%TO.C,J16*%
X18450000Y-103100000D03*
X14250000Y-103100000D03*
%TD*%
%TO.C,J9*%
X11350000Y-70700000D03*
X7150000Y-70700000D03*
%TD*%
%TO.C,J17*%
X25750000Y-103100000D03*
X21550000Y-103100000D03*
%TD*%
%TO.C,J14*%
X3950000Y-103100000D03*
X-250000Y-103100000D03*
%TD*%
%TO.C,J13*%
X39750000Y-70700000D03*
X35550000Y-70700000D03*
%TD*%
%TO.C,J29*%
X21700000Y-162500000D03*
X25900000Y-162500000D03*
%TD*%
D14*
%TO.C,H5*%
X1200000Y-148100000D03*
%TD*%
%TO.C,H2*%
X37200000Y-18200000D03*
%TD*%
%TO.C,H3*%
X1900000Y-86900000D03*
%TD*%
%TO.C,H1*%
X2800000Y-18200000D03*
%TD*%
%TO.C,H4*%
X38000000Y-86900000D03*
%TD*%
%TO.C,H6*%
X38800000Y-148100000D03*
%TD*%
%LPD*%
M02*
