%TF.GenerationSoftware,KiCad,Pcbnew,7.0.2*%
%TF.CreationDate,2025-02-12T15:24:12+00:00*%
%TF.ProjectId,fretboard,66726574-626f-4617-9264-2e6b69636164,rev?*%
%TF.SameCoordinates,Original*%
%TF.FileFunction,Copper,L2,Bot*%
%TF.FilePolarity,Positive*%
%FSLAX46Y46*%
G04 Gerber Fmt 4.6, Leading zero omitted, Abs format (unit mm)*
G04 Created by KiCad (PCBNEW 7.0.2) date 2025-02-12 15:24:12*
%MOMM*%
%LPD*%
G01*
G04 APERTURE LIST*
%TA.AperFunction,ComponentPad*%
%ADD10R,2.100000X2.100000*%
%TD*%
%TA.AperFunction,ViaPad*%
%ADD11C,0.800000*%
%TD*%
%TA.AperFunction,Conductor*%
%ADD12C,0.250000*%
%TD*%
G04 APERTURE END LIST*
D10*
%TO.P,J10,1,Pin_1*%
%TO.N,Net-(J10-Pin_1)*%
X18550000Y-70700000D03*
%TO.P,J10,2,Pin_2*%
%TO.N,unconnected-(J10-Pin_2-Pad2)*%
X14350000Y-70700000D03*
%TD*%
%TO.P,J19,1,Pin_1*%
%TO.N,Net-(J19-Pin_1)*%
X40250000Y-103100000D03*
%TO.P,J19,2,Pin_2*%
%TO.N,unconnected-(J19-Pin_2-Pad2)*%
X36050000Y-103100000D03*
%TD*%
%TO.P,J2,1,Pin_1*%
%TO.N,Net-(J2-Pin_1)*%
X5000000Y-36400000D03*
%TO.P,J2,2,Pin_2*%
%TO.N,unconnected-(J2-Pin_2-Pad2)*%
X800000Y-36400000D03*
%TD*%
%TO.P,J22,1,Pin_1*%
%TO.N,Net-(J22-Pin_1)*%
X18350000Y-133600000D03*
%TO.P,J22,2,Pin_2*%
%TO.N,unconnected-(J22-Pin_2-Pad2)*%
X14150000Y-133600000D03*
%TD*%
%TO.P,J8,1,Pin_1*%
%TO.N,Net-(J8-Pin_1)*%
X4450000Y-70700000D03*
%TO.P,J8,2,Pin_2*%
%TO.N,unconnected-(J8-Pin_2-Pad2)*%
X250000Y-70700000D03*
%TD*%
%TO.P,J15,1,Pin_1*%
%TO.N,Net-(J15-Pin_1)*%
X11150000Y-103100000D03*
%TO.P,J15,2,Pin_2*%
%TO.N,unconnected-(J15-Pin_2-Pad2)*%
X6950000Y-103100000D03*
%TD*%
%TO.P,J20,1,Pin_1*%
%TO.N,Net-(J20-Pin_1)*%
X3450000Y-133600000D03*
%TO.P,J20,2,Pin_2*%
%TO.N,unconnected-(J20-Pin_2-Pad2)*%
X-750000Y-133600000D03*
%TD*%
%TO.P,J31,1,Pin_1*%
%TO.N,Net-(J31-Pin_1)*%
X36900000Y-162500000D03*
%TO.P,J31,2,Pin_2*%
%TO.N,unconnected-(J31-Pin_2-Pad2)*%
X41100000Y-162500000D03*
%TD*%
%TO.P,J25,1,Pin_1*%
%TO.N,Net-(J25-Pin_1)*%
X40750000Y-133600000D03*
%TO.P,J25,2,Pin_2*%
%TO.N,unconnected-(J25-Pin_2-Pad2)*%
X36550000Y-133600000D03*
%TD*%
%TO.P,J27,1,Pin_1*%
%TO.N,Net-(J27-Pin_1)*%
X6500000Y-162500000D03*
%TO.P,J27,2,Pin_2*%
%TO.N,unconnected-(J27-Pin_2-Pad2)*%
X10700000Y-162500000D03*
%TD*%
%TO.P,J28,1,Pin_1*%
%TO.N,Net-(J28-Pin_1)*%
X14100000Y-162500000D03*
%TO.P,J28,2,Pin_2*%
%TO.N,unconnected-(J28-Pin_2-Pad2)*%
X18300000Y-162500000D03*
%TD*%
%TO.P,J30,1,Pin_1*%
%TO.N,Net-(J30-Pin_1)*%
X29300000Y-162500000D03*
%TO.P,J30,2,Pin_2*%
%TO.N,unconnected-(J30-Pin_2-Pad2)*%
X33500000Y-162500000D03*
%TD*%
%TO.P,J4,1,Pin_1*%
%TO.N,Net-(J4-Pin_1)*%
X18650000Y-36400000D03*
%TO.P,J4,2,Pin_2*%
%TO.N,unconnected-(J4-Pin_2-Pad2)*%
X14450000Y-36400000D03*
%TD*%
%TO.P,J26,1,Pin_1*%
%TO.N,Net-(J26-Pin_1)*%
X-1100000Y-162500000D03*
%TO.P,J26,2,Pin_2*%
%TO.N,unconnected-(J26-Pin_2-Pad2)*%
X3100000Y-162500000D03*
%TD*%
%TO.P,J24,1,Pin_1*%
%TO.N,Net-(J24-Pin_1)*%
X33300000Y-133600000D03*
%TO.P,J24,2,Pin_2*%
%TO.N,unconnected-(J24-Pin_2-Pad2)*%
X29100000Y-133600000D03*
%TD*%
%TO.P,J6,1,Pin_1*%
%TO.N,Net-(J6-Pin_1)*%
X32350000Y-36400000D03*
%TO.P,J6,2,Pin_2*%
%TO.N,unconnected-(J6-Pin_2-Pad2)*%
X28150000Y-36400000D03*
%TD*%
%TO.P,J7,1,Pin_1*%
%TO.N,Net-(J7-Pin_1)*%
X39200000Y-36400000D03*
%TO.P,J7,2,Pin_2*%
%TO.N,unconnected-(J7-Pin_2-Pad2)*%
X35000000Y-36400000D03*
%TD*%
%TO.P,J23,1,Pin_1*%
%TO.N,Net-(J23-Pin_1)*%
X25800000Y-133600000D03*
%TO.P,J23,2,Pin_2*%
%TO.N,unconnected-(J23-Pin_2-Pad2)*%
X21600000Y-133600000D03*
%TD*%
%TO.P,J5,1,Pin_1*%
%TO.N,Net-(J5-Pin_1)*%
X25550000Y-36400000D03*
%TO.P,J5,2,Pin_2*%
%TO.N,unconnected-(J5-Pin_2-Pad2)*%
X21350000Y-36400000D03*
%TD*%
%TO.P,J21,1,Pin_1*%
%TO.N,Net-(J21-Pin_1)*%
X10900000Y-133600000D03*
%TO.P,J21,2,Pin_2*%
%TO.N,unconnected-(J21-Pin_2-Pad2)*%
X6700000Y-133600000D03*
%TD*%
%TO.P,J18,1,Pin_1*%
%TO.N,Net-(J18-Pin_1)*%
X33050000Y-103100000D03*
%TO.P,J18,2,Pin_2*%
%TO.N,unconnected-(J18-Pin_2-Pad2)*%
X28850000Y-103100000D03*
%TD*%
%TO.P,J12,1,Pin_1*%
%TO.N,Net-(J12-Pin_1)*%
X32850000Y-70700000D03*
%TO.P,J12,2,Pin_2*%
%TO.N,unconnected-(J12-Pin_2-Pad2)*%
X28650000Y-70700000D03*
%TD*%
%TO.P,J11,1,Pin_1*%
%TO.N,Net-(J11-Pin_1)*%
X25700000Y-70700000D03*
%TO.P,J11,2,Pin_2*%
%TO.N,unconnected-(J11-Pin_2-Pad2)*%
X21500000Y-70700000D03*
%TD*%
%TO.P,J3,1,Pin_1*%
%TO.N,Net-(J3-Pin_1)*%
X11850000Y-36400000D03*
%TO.P,J3,2,Pin_2*%
%TO.N,unconnected-(J3-Pin_2-Pad2)*%
X7650000Y-36400000D03*
%TD*%
%TO.P,J16,1,Pin_1*%
%TO.N,Net-(J16-Pin_1)*%
X18450000Y-103100000D03*
%TO.P,J16,2,Pin_2*%
%TO.N,unconnected-(J16-Pin_2-Pad2)*%
X14250000Y-103100000D03*
%TD*%
%TO.P,J9,1,Pin_1*%
%TO.N,Net-(J9-Pin_1)*%
X11350000Y-70700000D03*
%TO.P,J9,2,Pin_2*%
%TO.N,unconnected-(J9-Pin_2-Pad2)*%
X7150000Y-70700000D03*
%TD*%
%TO.P,J17,1,Pin_1*%
%TO.N,Net-(J17-Pin_1)*%
X25750000Y-103100000D03*
%TO.P,J17,2,Pin_2*%
%TO.N,unconnected-(J17-Pin_2-Pad2)*%
X21550000Y-103100000D03*
%TD*%
%TO.P,J14,1,Pin_1*%
%TO.N,Net-(J14-Pin_1)*%
X3950000Y-103100000D03*
%TO.P,J14,2,Pin_2*%
%TO.N,unconnected-(J14-Pin_2-Pad2)*%
X-250000Y-103100000D03*
%TD*%
%TO.P,J13,1,Pin_1*%
%TO.N,Net-(J13-Pin_1)*%
X39750000Y-70700000D03*
%TO.P,J13,2,Pin_2*%
%TO.N,unconnected-(J13-Pin_2-Pad2)*%
X35550000Y-70700000D03*
%TD*%
%TO.P,J29,1,Pin_1*%
%TO.N,Net-(J29-Pin_1)*%
X21700000Y-162500000D03*
%TO.P,J29,2,Pin_2*%
%TO.N,unconnected-(J29-Pin_2-Pad2)*%
X25900000Y-162500000D03*
%TD*%
D11*
%TO.N,GND*%
X35100000Y-59500000D03*
X26900000Y-145800000D03*
X35300000Y-113100000D03*
X26900000Y-91800000D03*
X26700000Y-60800000D03*
X26900000Y-120700000D03*
X35200000Y-53100000D03*
X35100000Y-84100000D03*
X31800000Y-173800000D03*
X33950500Y-170006456D03*
X35100000Y-141200000D03*
%TO.N,165_LOAD*%
X14700000Y-118300000D03*
X17800000Y-86800000D03*
X17900000Y-115600000D03*
X14600000Y-146000000D03*
X14700000Y-89400000D03*
X17900000Y-143700000D03*
%TO.N,Net-(J2-Pin_1)*%
X27700000Y-42900000D03*
X31800000Y-57700000D03*
%TO.N,Net-(J4-Pin_1)*%
X31075500Y-55200000D03*
X29200000Y-46800000D03*
%TO.N,Net-(J6-Pin_1)*%
X31200000Y-42500000D03*
X30100000Y-50800000D03*
X29600000Y-48900000D03*
%TO.N,Net-(J8-Pin_1)*%
X25500000Y-56600000D03*
%TO.N,Net-(J12-Pin_1)*%
X30700000Y-79600000D03*
X32100000Y-85900000D03*
%TO.N,Net-(J14-Pin_1)*%
X30700000Y-94800000D03*
%TO.N,Net-(J16-Pin_1)*%
X30800000Y-97200000D03*
%TO.N,Net-(J18-Pin_1)*%
X30900000Y-109750500D03*
X31400000Y-117300000D03*
%TO.N,Net-(J20-Pin_1)*%
X30600000Y-124800000D03*
X31200000Y-114700000D03*
X14800000Y-125500000D03*
%TO.N,Net-(J22-Pin_1)*%
X30900000Y-126500000D03*
%TO.N,Net-(J24-Pin_1)*%
X30700000Y-128100000D03*
X31233530Y-119166470D03*
%TO.N,Net-(J28-Pin_1)*%
X30900000Y-154075500D03*
X32100000Y-143400000D03*
X30300000Y-145000000D03*
%TO.N,Net-(J30-Pin_1)*%
X29900000Y-157100000D03*
%TO.N,Net-(J3-Pin_1)*%
X35900000Y-55100000D03*
X34800201Y-44000201D03*
%TO.N,Net-(J5-Pin_1)*%
X36312299Y-44487701D03*
X35000000Y-54500000D03*
%TO.N,Net-(J7-Pin_1)*%
X32524500Y-49900000D03*
X34900000Y-48100000D03*
%TO.N,Net-(J9-Pin_1)*%
X26600000Y-58000000D03*
%TO.N,Net-(J11-Pin_1)*%
X36000000Y-79900000D03*
X35128906Y-89467035D03*
%TO.N,Net-(J13-Pin_1)*%
X35200000Y-79200000D03*
X38400000Y-79100000D03*
X32000000Y-84400000D03*
%TO.N,Net-(J15-Pin_1)*%
X26400000Y-86400000D03*
%TO.N,Net-(J17-Pin_1)*%
X29575500Y-89310227D03*
X33200000Y-95200000D03*
%TO.N,Net-(J19-Pin_1)*%
X35100000Y-116700000D03*
X36900000Y-108700000D03*
X37200000Y-112300000D03*
%TO.N,Net-(J21-Pin_1)*%
X18200000Y-124300000D03*
%TO.N,Net-(J26-Pin_1)*%
X14600000Y-157600000D03*
X32049500Y-146000000D03*
X30800000Y-151975500D03*
%TO.N,Net-(J23-Pin_1)*%
X33100000Y-131200000D03*
X31437701Y-116237701D03*
X33036128Y-125275433D03*
%TO.N,Net-(J25-Pin_1)*%
X39500000Y-129800000D03*
%TO.N,/ShiftReg1/DATA_OUT*%
X35600000Y-90800000D03*
X35800000Y-60600000D03*
%TO.N,/ShiftReg2/DATA_OUT*%
X37100000Y-118200000D03*
X36700000Y-91600000D03*
%TO.N,/ShiftReg3/DATA_OUT*%
X36750000Y-153900000D03*
X35000000Y-120500000D03*
%TO.N,Net-(J27-Pin_1)*%
X34740500Y-152700000D03*
X14400000Y-159200000D03*
X32049500Y-144700000D03*
%TO.N,Net-(J29-Pin_1)*%
X34740500Y-154800000D03*
X35300500Y-143400000D03*
%TO.N,Net-(J31-Pin_1)*%
X33800000Y-157100000D03*
X30200000Y-143400000D03*
%TD*%
D12*
%TO.N,165_LOAD*%
X17900000Y-143700000D02*
X16900000Y-143700000D01*
X17800000Y-86800000D02*
X17300000Y-86800000D01*
X17900000Y-115600000D02*
X17400000Y-115600000D01*
X17400000Y-115600000D02*
X14700000Y-118300000D01*
X16900000Y-143700000D02*
X14600000Y-146000000D01*
X17300000Y-86800000D02*
X14700000Y-89400000D01*
%TO.N,Net-(J2-Pin_1)*%
X31800000Y-44100000D02*
X28900000Y-44100000D01*
X28900000Y-44100000D02*
X27700000Y-42900000D01*
X31800000Y-57700000D02*
X31800000Y-44100000D01*
%TO.N,Net-(J4-Pin_1)*%
X31075500Y-48675500D02*
X29200000Y-46800000D01*
X31075500Y-55200000D02*
X31075500Y-48675500D01*
%TO.N,Net-(J6-Pin_1)*%
X30100000Y-50800000D02*
X30100000Y-49400000D01*
X30100000Y-49400000D02*
X29600000Y-48900000D01*
X32550000Y-41150000D02*
X32550000Y-36400000D01*
X31200000Y-42500000D02*
X32550000Y-41150000D01*
%TO.N,Net-(J8-Pin_1)*%
X4650000Y-70700000D02*
X4650000Y-70450000D01*
X4650000Y-70450000D02*
X18500000Y-56600000D01*
X18500000Y-56600000D02*
X25500000Y-56600000D01*
%TO.N,Net-(J12-Pin_1)*%
X32100000Y-85900000D02*
X30700000Y-84500000D01*
X30700000Y-84500000D02*
X30700000Y-79600000D01*
%TO.N,Net-(J14-Pin_1)*%
X15625000Y-104475000D02*
X15625000Y-103275000D01*
X5525000Y-104475000D02*
X15625000Y-104475000D01*
X15625000Y-103275000D02*
X24100000Y-94800000D01*
X24100000Y-94800000D02*
X30700000Y-94800000D01*
X4150000Y-103100000D02*
X5525000Y-104475000D01*
%TO.N,Net-(J16-Pin_1)*%
X18650000Y-103100000D02*
X24550000Y-97200000D01*
X24550000Y-97200000D02*
X30800000Y-97200000D01*
%TO.N,Net-(J18-Pin_1)*%
X30900000Y-109750500D02*
X32300000Y-111150500D01*
X32300000Y-111150500D02*
X32300000Y-116400000D01*
X32300000Y-116400000D02*
X31400000Y-117300000D01*
%TO.N,Net-(J20-Pin_1)*%
X30225000Y-115675000D02*
X30225000Y-124425000D01*
X30225000Y-124425000D02*
X30600000Y-124800000D01*
X14800000Y-125500000D02*
X16725000Y-123575000D01*
X29375000Y-123575000D02*
X17400000Y-123575000D01*
X31200000Y-114700000D02*
X30225000Y-115675000D01*
X30600000Y-124800000D02*
X29375000Y-123575000D01*
X16725000Y-123575000D02*
X17400000Y-123575000D01*
%TO.N,Net-(J22-Pin_1)*%
X30900000Y-126500000D02*
X25650000Y-126500000D01*
X25650000Y-126500000D02*
X18550000Y-133600000D01*
%TO.N,Net-(J24-Pin_1)*%
X31625000Y-119557940D02*
X31625000Y-127175000D01*
X31625000Y-127175000D02*
X30700000Y-128100000D01*
X33825000Y-133275000D02*
X33825000Y-130825000D01*
X33500000Y-133600000D02*
X33825000Y-133275000D01*
X31233530Y-119166470D02*
X31625000Y-119557940D01*
X31100000Y-128100000D02*
X30700000Y-128100000D01*
X33825000Y-130825000D02*
X31100000Y-128100000D01*
%TO.N,Net-(J28-Pin_1)*%
X22324500Y-154075500D02*
X30900000Y-154075500D01*
X30300000Y-145000000D02*
X30500000Y-145000000D01*
X30500000Y-145000000D02*
X32100000Y-143400000D01*
X13900000Y-162500000D02*
X22324500Y-154075500D01*
%TO.N,Net-(J30-Pin_1)*%
X29100000Y-162500000D02*
X29900000Y-161700000D01*
X29900000Y-161700000D02*
X29900000Y-157100000D01*
%TO.N,Net-(J3-Pin_1)*%
X35900000Y-55100000D02*
X35925000Y-55075000D01*
X35925000Y-45125000D02*
X34800201Y-44000201D01*
X35925000Y-55075000D02*
X35925000Y-45125000D01*
%TO.N,Net-(J5-Pin_1)*%
X36125305Y-55900000D02*
X36625000Y-55400305D01*
X35000000Y-54500000D02*
X35000000Y-55225305D01*
X35674695Y-55900000D02*
X36125305Y-55900000D01*
X35000000Y-55225305D02*
X35674695Y-55900000D01*
X36625000Y-44800402D02*
X36312299Y-44487701D01*
X36625000Y-55400305D02*
X36625000Y-44800402D01*
%TO.N,Net-(J7-Pin_1)*%
X33100000Y-49900000D02*
X34900000Y-48100000D01*
X32524500Y-49900000D02*
X33100000Y-49900000D01*
%TO.N,Net-(J9-Pin_1)*%
X11550000Y-70700000D02*
X24250000Y-58000000D01*
X24250000Y-58000000D02*
X26600000Y-58000000D01*
%TO.N,Net-(J11-Pin_1)*%
X35375000Y-85812689D02*
X35825000Y-85362689D01*
X35825000Y-80075000D02*
X36000000Y-79900000D01*
X35375000Y-89220941D02*
X35375000Y-85812689D01*
X35128906Y-89467035D02*
X35375000Y-89220941D01*
X35825000Y-85362689D02*
X35825000Y-80075000D01*
%TO.N,Net-(J13-Pin_1)*%
X38400000Y-79100000D02*
X35300000Y-79100000D01*
X32000000Y-82400000D02*
X35200000Y-79200000D01*
X32000000Y-84400000D02*
X32000000Y-82400000D01*
X35300000Y-79100000D02*
X35200000Y-79200000D01*
%TO.N,Net-(J15-Pin_1)*%
X11350000Y-101450000D02*
X26400000Y-86400000D01*
X11350000Y-103100000D02*
X11350000Y-101450000D01*
%TO.N,Net-(J17-Pin_1)*%
X29575500Y-89310227D02*
X29575500Y-91575500D01*
X29575500Y-91575500D02*
X33200000Y-95200000D01*
X33200000Y-95850000D02*
X33200000Y-95200000D01*
X25950000Y-103100000D02*
X33200000Y-95850000D01*
%TO.N,Net-(J19-Pin_1)*%
X40450000Y-105150000D02*
X40450000Y-103100000D01*
X36874695Y-119000000D02*
X35100000Y-117225305D01*
X37200000Y-112300000D02*
X37825000Y-112925000D01*
X37500000Y-119000000D02*
X36874695Y-119000000D01*
X36900000Y-108700000D02*
X40450000Y-105150000D01*
X35100000Y-117225305D02*
X35100000Y-116700000D01*
X37825000Y-112925000D02*
X37825000Y-118675000D01*
X37825000Y-118675000D02*
X37500000Y-119000000D01*
%TO.N,Net-(J21-Pin_1)*%
X11100000Y-131400000D02*
X11100000Y-133600000D01*
X18200000Y-124300000D02*
X11100000Y-131400000D01*
%TO.N,Net-(J26-Pin_1)*%
X30800000Y-147249500D02*
X32049500Y-146000000D01*
X30800000Y-151975500D02*
X30800000Y-147249500D01*
X14600000Y-157600000D02*
X20224500Y-151975500D01*
X20224500Y-151975500D02*
X30800000Y-151975500D01*
%TO.N,Net-(J23-Pin_1)*%
X28400000Y-131200000D02*
X26000000Y-133600000D01*
X30675000Y-116999695D02*
X30675000Y-117600305D01*
X31425000Y-116575000D02*
X31099695Y-116575000D01*
X33036128Y-119636128D02*
X33036128Y-125275433D01*
X31425000Y-118025000D02*
X33036128Y-119636128D01*
X31425000Y-116250402D02*
X31425000Y-116575000D01*
X31099695Y-116575000D02*
X30675000Y-116999695D01*
X31437701Y-116237701D02*
X31425000Y-116250402D01*
X30675000Y-117600305D02*
X31099695Y-118025000D01*
X33100000Y-131200000D02*
X28400000Y-131200000D01*
X31099695Y-118025000D02*
X31425000Y-118025000D01*
%TO.N,Net-(J25-Pin_1)*%
X39500000Y-132150000D02*
X40950000Y-133600000D01*
X39500000Y-129800000D02*
X39500000Y-132150000D01*
%TO.N,/ShiftReg1/DATA_OUT*%
X40625000Y-88275000D02*
X40625000Y-85812689D01*
X37000000Y-70700000D02*
X37000000Y-61800000D01*
X35600000Y-90800000D02*
X38100000Y-90800000D01*
X37000000Y-61800000D02*
X35800000Y-60600000D01*
X39475000Y-73175000D02*
X37000000Y-70700000D01*
X40625000Y-85812689D02*
X39475000Y-84662689D01*
X38100000Y-90800000D02*
X40625000Y-88275000D01*
X39475000Y-84662689D02*
X39475000Y-73175000D01*
%TO.N,/ShiftReg2/DATA_OUT*%
X34425000Y-93875000D02*
X36700000Y-91600000D01*
X36300000Y-108274695D02*
X36300000Y-106350000D01*
X36300000Y-106350000D02*
X34425000Y-104475000D01*
X34425000Y-104475000D02*
X34425000Y-93875000D01*
X36175000Y-117275000D02*
X36175000Y-108399695D01*
X37100000Y-118200000D02*
X36175000Y-117275000D01*
X36175000Y-108399695D02*
X36300000Y-108274695D01*
%TO.N,/ShiftReg3/DATA_OUT*%
X38000000Y-135275000D02*
X38000000Y-123500000D01*
X36750000Y-153900000D02*
X41425000Y-149225000D01*
X41425000Y-138700000D02*
X38000000Y-135275000D01*
X38000000Y-123500000D02*
X35000000Y-120500000D01*
X41425000Y-149225000D02*
X41425000Y-138700000D01*
%TO.N,Net-(J27-Pin_1)*%
X20899500Y-152700500D02*
X34740000Y-152700500D01*
X14400000Y-159200000D02*
X20899500Y-152700500D01*
X32774500Y-147674500D02*
X32774500Y-145425000D01*
X34740500Y-152700000D02*
X34740500Y-149640500D01*
X34740500Y-149640500D02*
X32774500Y-147674500D01*
X34740000Y-152700500D02*
X34740500Y-152700000D01*
X32774500Y-145425000D02*
X32049500Y-144700000D01*
%TO.N,Net-(J29-Pin_1)*%
X35465500Y-143565000D02*
X35465500Y-154075000D01*
X29200000Y-154800000D02*
X34740500Y-154800000D01*
X21500000Y-162500000D02*
X29200000Y-154800000D01*
X35465500Y-154075000D02*
X34740500Y-154800000D01*
X35300500Y-143400000D02*
X35465500Y-143565000D01*
%TO.N,Net-(J31-Pin_1)*%
X36025500Y-154874500D02*
X33800000Y-157100000D01*
X36025500Y-143099695D02*
X36025500Y-154874500D01*
X36700000Y-162500000D02*
X36700000Y-160000000D01*
X33800000Y-142600000D02*
X33875000Y-142675000D01*
X31000000Y-142600000D02*
X33800000Y-142600000D01*
X36700000Y-160000000D02*
X33800000Y-157100000D01*
X30200000Y-143400000D02*
X31000000Y-142600000D01*
X33875000Y-142675000D02*
X35600805Y-142675000D01*
X35600805Y-142675000D02*
X36025500Y-143099695D01*
%TD*%
%TA.AperFunction,Conductor*%
%TO.N,GND*%
G36*
X39649331Y-320185D02*
G01*
X39695086Y-372989D01*
X39706276Y-422500D01*
X40259516Y-34723500D01*
X40240915Y-34790848D01*
X40188856Y-34837449D01*
X40135532Y-34849500D01*
X38105439Y-34849500D01*
X38105420Y-34849500D01*
X38102128Y-34849501D01*
X38098848Y-34849853D01*
X38098840Y-34849854D01*
X38042515Y-34855909D01*
X37907669Y-34906204D01*
X37792454Y-34992454D01*
X37706204Y-35107668D01*
X37655910Y-35242515D01*
X37655909Y-35242517D01*
X37649500Y-35302127D01*
X37649500Y-35305448D01*
X37649500Y-35305449D01*
X37649500Y-37494560D01*
X37649500Y-37494578D01*
X37649501Y-37497872D01*
X37655909Y-37557483D01*
X37706204Y-37692331D01*
X37792454Y-37807546D01*
X37907669Y-37893796D01*
X38042517Y-37944091D01*
X38102127Y-37950500D01*
X40189548Y-37950499D01*
X40256587Y-37970184D01*
X40302342Y-38022987D01*
X40313532Y-38072499D01*
X40812742Y-69023500D01*
X40794141Y-69090848D01*
X40742082Y-69137449D01*
X40688758Y-69149500D01*
X38655439Y-69149500D01*
X38655420Y-69149500D01*
X38652128Y-69149501D01*
X38648848Y-69149853D01*
X38648840Y-69149854D01*
X38592515Y-69155909D01*
X38457669Y-69206204D01*
X38342454Y-69292454D01*
X38256204Y-69407668D01*
X38205910Y-69542515D01*
X38205909Y-69542517D01*
X38199500Y-69602127D01*
X38199500Y-69605449D01*
X38199500Y-70715547D01*
X38179815Y-70782586D01*
X38127011Y-70828341D01*
X38057853Y-70838285D01*
X37994297Y-70809260D01*
X37987819Y-70803228D01*
X37661819Y-70477228D01*
X37628334Y-70415905D01*
X37625500Y-70389547D01*
X37625500Y-61882739D01*
X37627763Y-61862238D01*
X37625561Y-61792144D01*
X37625500Y-61788250D01*
X37625500Y-61764544D01*
X37625500Y-61760650D01*
X37624998Y-61756681D01*
X37624080Y-61745024D01*
X37622709Y-61701373D01*
X37617120Y-61682140D01*
X37613174Y-61663082D01*
X37610664Y-61643208D01*
X37594588Y-61602606D01*
X37590804Y-61591552D01*
X37578619Y-61549613D01*
X37578618Y-61549612D01*
X37578618Y-61549610D01*
X37568417Y-61532361D01*
X37559860Y-61514895D01*
X37552486Y-61496268D01*
X37526813Y-61460932D01*
X37520402Y-61451172D01*
X37498169Y-61413578D01*
X37484006Y-61399415D01*
X37471369Y-61384620D01*
X37459595Y-61368414D01*
X37459594Y-61368413D01*
X37425935Y-61340568D01*
X37417305Y-61332714D01*
X36738960Y-60654369D01*
X36705475Y-60593046D01*
X36703323Y-60579668D01*
X36685674Y-60411744D01*
X36627179Y-60231716D01*
X36627179Y-60231715D01*
X36532533Y-60067783D01*
X36405870Y-59927110D01*
X36252730Y-59815848D01*
X36079802Y-59738855D01*
X35894648Y-59699500D01*
X35894646Y-59699500D01*
X35705354Y-59699500D01*
X35705352Y-59699500D01*
X35520197Y-59738855D01*
X35347269Y-59815848D01*
X35194129Y-59927110D01*
X35067466Y-60067783D01*
X34972820Y-60231715D01*
X34914326Y-60411742D01*
X34894540Y-60600000D01*
X34914326Y-60788257D01*
X34972820Y-60968284D01*
X35067466Y-61132216D01*
X35194129Y-61272889D01*
X35347269Y-61384151D01*
X35520197Y-61461144D01*
X35705352Y-61500500D01*
X35705354Y-61500500D01*
X35764548Y-61500500D01*
X35831587Y-61520185D01*
X35852229Y-61536819D01*
X36338181Y-62022771D01*
X36371666Y-62084094D01*
X36374500Y-62110452D01*
X36374500Y-69025500D01*
X36354815Y-69092539D01*
X36302011Y-69138294D01*
X36250500Y-69149500D01*
X34455439Y-69149500D01*
X34455420Y-69149500D01*
X34452128Y-69149501D01*
X34448848Y-69149853D01*
X34448840Y-69149854D01*
X34392515Y-69155909D01*
X34243333Y-69211551D01*
X34173641Y-69216535D01*
X34156667Y-69211551D01*
X34007485Y-69155909D01*
X33951166Y-69149854D01*
X33951165Y-69149853D01*
X33947873Y-69149500D01*
X33944550Y-69149500D01*
X31755439Y-69149500D01*
X31755420Y-69149500D01*
X31752128Y-69149501D01*
X31748848Y-69149853D01*
X31748840Y-69149854D01*
X31692515Y-69155909D01*
X31557669Y-69206204D01*
X31442454Y-69292454D01*
X31356204Y-69407668D01*
X31305910Y-69542515D01*
X31305909Y-69542517D01*
X31299500Y-69602127D01*
X31299500Y-69605448D01*
X31299500Y-69605449D01*
X31299500Y-71794560D01*
X31299500Y-71794578D01*
X31299501Y-71797872D01*
X31305909Y-71857483D01*
X31356204Y-71992331D01*
X31442454Y-72107546D01*
X31557669Y-72193796D01*
X31692517Y-72244091D01*
X31752127Y-72250500D01*
X33947872Y-72250499D01*
X34007483Y-72244091D01*
X34142331Y-72193796D01*
X34142335Y-72193792D01*
X34156665Y-72188448D01*
X34226357Y-72183464D01*
X34243333Y-72188448D01*
X34257666Y-72193794D01*
X34257669Y-72193796D01*
X34392517Y-72244091D01*
X34452127Y-72250500D01*
X36647872Y-72250499D01*
X36707483Y-72244091D01*
X36842331Y-72193796D01*
X36957546Y-72107546D01*
X37043796Y-71992331D01*
X37075236Y-71908035D01*
X37117106Y-71852103D01*
X37182570Y-71827685D01*
X37250843Y-71842536D01*
X37279098Y-71863688D01*
X38813181Y-73397771D01*
X38846666Y-73459094D01*
X38849500Y-73485452D01*
X38849500Y-78123466D01*
X38829815Y-78190505D01*
X38777011Y-78236260D01*
X38707853Y-78246204D01*
X38689582Y-78240934D01*
X38494648Y-78199500D01*
X38494646Y-78199500D01*
X38305354Y-78199500D01*
X38305352Y-78199500D01*
X38120197Y-78238855D01*
X37947272Y-78315847D01*
X37915603Y-78338856D01*
X37794129Y-78427112D01*
X37788401Y-78433472D01*
X37728916Y-78470121D01*
X37696253Y-78474500D01*
X35773746Y-78474500D01*
X35706707Y-78454815D01*
X35700880Y-78450831D01*
X35652730Y-78415849D01*
X35652726Y-78415847D01*
X35479802Y-78338855D01*
X35294648Y-78299500D01*
X35294646Y-78299500D01*
X35105354Y-78299500D01*
X35105352Y-78299500D01*
X34920197Y-78338855D01*
X34747269Y-78415848D01*
X34594129Y-78527110D01*
X34467466Y-78667783D01*
X34372820Y-78831715D01*
X34314326Y-79011742D01*
X34296679Y-79179649D01*
X34270094Y-79244263D01*
X34261039Y-79254368D01*
X31616208Y-81899199D01*
X31600110Y-81912096D01*
X31552096Y-81963225D01*
X31549387Y-81966020D01*
X31537180Y-81978227D01*
X31475857Y-82011712D01*
X31406165Y-82006728D01*
X31350232Y-81964856D01*
X31325815Y-81899392D01*
X31325500Y-81890573D01*
X31325500Y-80298687D01*
X31345185Y-80231647D01*
X31357350Y-80215714D01*
X31416382Y-80150153D01*
X31432533Y-80132216D01*
X31527179Y-79968284D01*
X31585674Y-79788256D01*
X31605460Y-79600000D01*
X31585674Y-79411744D01*
X31527179Y-79231716D01*
X31527179Y-79231715D01*
X31432533Y-79067783D01*
X31305870Y-78927110D01*
X31152730Y-78815848D01*
X30979802Y-78738855D01*
X30794648Y-78699500D01*
X30794646Y-78699500D01*
X30605354Y-78699500D01*
X30605352Y-78699500D01*
X30420197Y-78738855D01*
X30247269Y-78815848D01*
X30094129Y-78927110D01*
X29967466Y-79067783D01*
X29872820Y-79231715D01*
X29814326Y-79411742D01*
X29794540Y-79600000D01*
X29814326Y-79788257D01*
X29872820Y-79968284D01*
X29967464Y-80132213D01*
X30042650Y-80215714D01*
X30072880Y-80278706D01*
X30074500Y-80298687D01*
X30074499Y-84417256D01*
X30072235Y-84437763D01*
X30074439Y-84507872D01*
X30074500Y-84511767D01*
X30074500Y-84539350D01*
X30074988Y-84543219D01*
X30074989Y-84543225D01*
X30075004Y-84543343D01*
X30075918Y-84554967D01*
X30077290Y-84598626D01*
X30082879Y-84617860D01*
X30086825Y-84636916D01*
X30089335Y-84656792D01*
X30105414Y-84697404D01*
X30109197Y-84708451D01*
X30121382Y-84750391D01*
X30131580Y-84767635D01*
X30140136Y-84785100D01*
X30147514Y-84803732D01*
X30147515Y-84803733D01*
X30173180Y-84839059D01*
X30179593Y-84848822D01*
X30201826Y-84886416D01*
X30201829Y-84886419D01*
X30201830Y-84886420D01*
X30215995Y-84900585D01*
X30228627Y-84915375D01*
X30240406Y-84931587D01*
X30274058Y-84959426D01*
X30282699Y-84967289D01*
X31161038Y-85845629D01*
X31194523Y-85906952D01*
X31196678Y-85920348D01*
X31214326Y-86088257D01*
X31272820Y-86268284D01*
X31367466Y-86432216D01*
X31494129Y-86572889D01*
X31647269Y-86684151D01*
X31820197Y-86761144D01*
X32005352Y-86800500D01*
X32005354Y-86800500D01*
X32194648Y-86800500D01*
X32318083Y-86774262D01*
X32379803Y-86761144D01*
X32552730Y-86684151D01*
X32652393Y-86611742D01*
X32705870Y-86572889D01*
X32832533Y-86432216D01*
X32927179Y-86268284D01*
X32937491Y-86236547D01*
X32985674Y-86088256D01*
X33005460Y-85900000D01*
X32985674Y-85711744D01*
X32949365Y-85599998D01*
X32927179Y-85531715D01*
X32832533Y-85367783D01*
X32705871Y-85227112D01*
X32672885Y-85203146D01*
X32630220Y-85147816D01*
X32624241Y-85078202D01*
X32653622Y-85019855D01*
X32732533Y-84932216D01*
X32827179Y-84768284D01*
X32869863Y-84636916D01*
X32885674Y-84588256D01*
X32905460Y-84400000D01*
X32885674Y-84211744D01*
X32827179Y-84031716D01*
X32827179Y-84031715D01*
X32732533Y-83867783D01*
X32657350Y-83784284D01*
X32627120Y-83721293D01*
X32625500Y-83701312D01*
X32625500Y-82710452D01*
X32645185Y-82643413D01*
X32661819Y-82622771D01*
X33394044Y-81890546D01*
X34987821Y-80296768D01*
X35049142Y-80263285D01*
X35118834Y-80268269D01*
X35174767Y-80310141D01*
X35199184Y-80375605D01*
X35199500Y-80384451D01*
X35199500Y-85052236D01*
X35179815Y-85119275D01*
X35163181Y-85139917D01*
X34991211Y-85311886D01*
X34975112Y-85324784D01*
X34927097Y-85375913D01*
X34924393Y-85378704D01*
X34907628Y-85395469D01*
X34907621Y-85395476D01*
X34904880Y-85398218D01*
X34902499Y-85401286D01*
X34902490Y-85401297D01*
X34902411Y-85401400D01*
X34894842Y-85410261D01*
X34864935Y-85442109D01*
X34855285Y-85459663D01*
X34844609Y-85475917D01*
X34832326Y-85491752D01*
X34814975Y-85531847D01*
X34809838Y-85542333D01*
X34788802Y-85580596D01*
X34783821Y-85599998D01*
X34777520Y-85618400D01*
X34769561Y-85636791D01*
X34762728Y-85679931D01*
X34760360Y-85691363D01*
X34749500Y-85733666D01*
X34749500Y-85753705D01*
X34747973Y-85773103D01*
X34744840Y-85792883D01*
X34748950Y-85836362D01*
X34749500Y-85848032D01*
X34749500Y-88569711D01*
X34729815Y-88636750D01*
X34686214Y-88674529D01*
X34686719Y-88675224D01*
X34678638Y-88681094D01*
X34677011Y-88682505D01*
X34676183Y-88682878D01*
X34523035Y-88794146D01*
X34396372Y-88934818D01*
X34301726Y-89098750D01*
X34243232Y-89278777D01*
X34223446Y-89467035D01*
X34243232Y-89655292D01*
X34301726Y-89835319D01*
X34396372Y-89999251D01*
X34523035Y-90139924D01*
X34676173Y-90251184D01*
X34676176Y-90251186D01*
X34710163Y-90266318D01*
X34763400Y-90311568D01*
X34783722Y-90378417D01*
X34773277Y-90418160D01*
X34776848Y-90419321D01*
X34714326Y-90611742D01*
X34694540Y-90800000D01*
X34714326Y-90988257D01*
X34772820Y-91168284D01*
X34867466Y-91332216D01*
X34994129Y-91472889D01*
X35147269Y-91584151D01*
X35320193Y-91661143D01*
X35320196Y-91661143D01*
X35320197Y-91661144D01*
X35454787Y-91689751D01*
X35516266Y-91722943D01*
X35550043Y-91784105D01*
X35545391Y-91853820D01*
X35516685Y-91898722D01*
X34041208Y-93374199D01*
X34025110Y-93387096D01*
X33977096Y-93438225D01*
X33974392Y-93441016D01*
X33957628Y-93457780D01*
X33957621Y-93457787D01*
X33954880Y-93460529D01*
X33952499Y-93463597D01*
X33952490Y-93463608D01*
X33952411Y-93463711D01*
X33944842Y-93472572D01*
X33914935Y-93504420D01*
X33905285Y-93521974D01*
X33894609Y-93538228D01*
X33882326Y-93554063D01*
X33864975Y-93594158D01*
X33859838Y-93604644D01*
X33838802Y-93642907D01*
X33833821Y-93662309D01*
X33827520Y-93680711D01*
X33819561Y-93699102D01*
X33812728Y-93742242D01*
X33810360Y-93753674D01*
X33799500Y-93795977D01*
X33799500Y-93816016D01*
X33797973Y-93835414D01*
X33794840Y-93855194D01*
X33798950Y-93898673D01*
X33799500Y-93910343D01*
X33799500Y-94290251D01*
X33779815Y-94357290D01*
X33727011Y-94403045D01*
X33657853Y-94412989D01*
X33625064Y-94403531D01*
X33483284Y-94340406D01*
X33479803Y-94338856D01*
X33479802Y-94338855D01*
X33479798Y-94338854D01*
X33294648Y-94299500D01*
X33294646Y-94299500D01*
X33235452Y-94299500D01*
X33168413Y-94279815D01*
X33147771Y-94263181D01*
X30237319Y-91352728D01*
X30203834Y-91291405D01*
X30201000Y-91265047D01*
X30201000Y-90008914D01*
X30220685Y-89941875D01*
X30232850Y-89925941D01*
X30266457Y-89888617D01*
X30308033Y-89842443D01*
X30402679Y-89678511D01*
X30461174Y-89498483D01*
X30480960Y-89310227D01*
X30461174Y-89121971D01*
X30402679Y-88941943D01*
X30402679Y-88941942D01*
X30308033Y-88778010D01*
X30181370Y-88637337D01*
X30028230Y-88526075D01*
X29855302Y-88449082D01*
X29670148Y-88409727D01*
X29670146Y-88409727D01*
X29480854Y-88409727D01*
X29480852Y-88409727D01*
X29295697Y-88449082D01*
X29122769Y-88526075D01*
X28969629Y-88637337D01*
X28842966Y-88778010D01*
X28748320Y-88941942D01*
X28689826Y-89121969D01*
X28670040Y-89310227D01*
X28689826Y-89498484D01*
X28748320Y-89678511D01*
X28842966Y-89842443D01*
X28918149Y-89925942D01*
X28948379Y-89988934D01*
X28949999Y-90008914D01*
X28950000Y-91492756D01*
X28947735Y-91513266D01*
X28949939Y-91583372D01*
X28950000Y-91587267D01*
X28950000Y-91614850D01*
X28950488Y-91618719D01*
X28950489Y-91618725D01*
X28950504Y-91618843D01*
X28951418Y-91630467D01*
X28952790Y-91674126D01*
X28958379Y-91693360D01*
X28962325Y-91712416D01*
X28964835Y-91732292D01*
X28980914Y-91772904D01*
X28984697Y-91783951D01*
X28996882Y-91825891D01*
X29007080Y-91843135D01*
X29015636Y-91860600D01*
X29023014Y-91879232D01*
X29023015Y-91879233D01*
X29048680Y-91914559D01*
X29055093Y-91924322D01*
X29077326Y-91961916D01*
X29077329Y-91961919D01*
X29077330Y-91961920D01*
X29091495Y-91976085D01*
X29104127Y-91990875D01*
X29115906Y-92007087D01*
X29149558Y-92034926D01*
X29158199Y-92042789D01*
X30803229Y-93687819D01*
X30836714Y-93749142D01*
X30831730Y-93818834D01*
X30789858Y-93874767D01*
X30724394Y-93899184D01*
X30715548Y-93899500D01*
X30605352Y-93899500D01*
X30420197Y-93938855D01*
X30247272Y-94015847D01*
X30145175Y-94090024D01*
X30094129Y-94127112D01*
X30088401Y-94133472D01*
X30028916Y-94170121D01*
X29996253Y-94174500D01*
X24182744Y-94174500D01*
X24162237Y-94172235D01*
X24092127Y-94174439D01*
X24088232Y-94174500D01*
X24060650Y-94174500D01*
X24056805Y-94174985D01*
X24056780Y-94174987D01*
X24056653Y-94175004D01*
X24045033Y-94175918D01*
X24001369Y-94177290D01*
X23982129Y-94182880D01*
X23963081Y-94186825D01*
X23943209Y-94189335D01*
X23902599Y-94205413D01*
X23891554Y-94209194D01*
X23849610Y-94221381D01*
X23832365Y-94231579D01*
X23814904Y-94240133D01*
X23796267Y-94247512D01*
X23760931Y-94273185D01*
X23751174Y-94279595D01*
X23713580Y-94301829D01*
X23699413Y-94315996D01*
X23684624Y-94328626D01*
X23668413Y-94340404D01*
X23640572Y-94374058D01*
X23632711Y-94382697D01*
X16004421Y-102010986D01*
X15943098Y-102044471D01*
X15873406Y-102039487D01*
X15817473Y-101997615D01*
X15801280Y-101956458D01*
X15799534Y-101957110D01*
X15791494Y-101935554D01*
X15743796Y-101807669D01*
X15657546Y-101692454D01*
X15542331Y-101606204D01*
X15407483Y-101555909D01*
X15347873Y-101549500D01*
X15344550Y-101549500D01*
X13155439Y-101549500D01*
X13155420Y-101549500D01*
X13152128Y-101549501D01*
X13148848Y-101549853D01*
X13148840Y-101549854D01*
X13092515Y-101555909D01*
X12957669Y-101606204D01*
X12842453Y-101692454D01*
X12799267Y-101750144D01*
X12743333Y-101792015D01*
X12673641Y-101796999D01*
X12612318Y-101763514D01*
X12600733Y-101750144D01*
X12557546Y-101692454D01*
X12557545Y-101692453D01*
X12442331Y-101606204D01*
X12442329Y-101606203D01*
X12358034Y-101574762D01*
X12302101Y-101532891D01*
X12277685Y-101467426D01*
X12292537Y-101399153D01*
X12313684Y-101370904D01*
X26347771Y-87336819D01*
X26409095Y-87303334D01*
X26435453Y-87300500D01*
X26494648Y-87300500D01*
X26618083Y-87274262D01*
X26679803Y-87261144D01*
X26852730Y-87184151D01*
X27005871Y-87072888D01*
X27132533Y-86932216D01*
X27227179Y-86768284D01*
X27285674Y-86588256D01*
X27305460Y-86400000D01*
X27285674Y-86211744D01*
X27255332Y-86118363D01*
X27227179Y-86031715D01*
X27132533Y-85867783D01*
X27005870Y-85727110D01*
X26852730Y-85615848D01*
X26679802Y-85538855D01*
X26494648Y-85499500D01*
X26494646Y-85499500D01*
X26305354Y-85499500D01*
X26305352Y-85499500D01*
X26120197Y-85538855D01*
X25947269Y-85615848D01*
X25794129Y-85727110D01*
X25667466Y-85867783D01*
X25572820Y-86031715D01*
X25514326Y-86211742D01*
X25496679Y-86379649D01*
X25470094Y-86444263D01*
X25461039Y-86454368D01*
X10966208Y-100949199D01*
X10950110Y-100962096D01*
X10902096Y-101013225D01*
X10899392Y-101016016D01*
X10882628Y-101032780D01*
X10882621Y-101032787D01*
X10879880Y-101035529D01*
X10877499Y-101038597D01*
X10877490Y-101038608D01*
X10877411Y-101038711D01*
X10869842Y-101047572D01*
X10839935Y-101079420D01*
X10830285Y-101096974D01*
X10819609Y-101113228D01*
X10807326Y-101129063D01*
X10789975Y-101169158D01*
X10784838Y-101179644D01*
X10763802Y-101217907D01*
X10758821Y-101237309D01*
X10752520Y-101255711D01*
X10744561Y-101274102D01*
X10737728Y-101317242D01*
X10735360Y-101328674D01*
X10724500Y-101370977D01*
X10724500Y-101391016D01*
X10722973Y-101410415D01*
X10717511Y-101444899D01*
X10687581Y-101508033D01*
X10628269Y-101544964D01*
X10595038Y-101549500D01*
X10055439Y-101549500D01*
X10055420Y-101549500D01*
X10052128Y-101549501D01*
X10048848Y-101549853D01*
X10048840Y-101549854D01*
X9992515Y-101555909D01*
X9857669Y-101606204D01*
X9742454Y-101692454D01*
X9656204Y-101807668D01*
X9605909Y-101942516D01*
X9600000Y-101997481D01*
X9599500Y-102002127D01*
X9599500Y-102885089D01*
X9599501Y-103725500D01*
X9579816Y-103792539D01*
X9527013Y-103838294D01*
X9475501Y-103849500D01*
X8624500Y-103849500D01*
X8557461Y-103829815D01*
X8511706Y-103777011D01*
X8500500Y-103725500D01*
X8500499Y-102005439D01*
X8500499Y-102002128D01*
X8494091Y-101942517D01*
X8443796Y-101807669D01*
X8357546Y-101692454D01*
X8242331Y-101606204D01*
X8107483Y-101555909D01*
X8047873Y-101549500D01*
X8044550Y-101549500D01*
X5855439Y-101549500D01*
X5855420Y-101549500D01*
X5852128Y-101549501D01*
X5848848Y-101549853D01*
X5848840Y-101549854D01*
X5792515Y-101555909D01*
X5657669Y-101606204D01*
X5528182Y-101703138D01*
X5526262Y-101700573D01*
X5493322Y-101725227D01*
X5423630Y-101730205D01*
X5372472Y-101702264D01*
X5371818Y-101703138D01*
X5365736Y-101698585D01*
X5362310Y-101696714D01*
X5360599Y-101694739D01*
X5242331Y-101606204D01*
X5107483Y-101555909D01*
X5051166Y-101549854D01*
X5051165Y-101549853D01*
X5047873Y-101549500D01*
X5044550Y-101549500D01*
X2855439Y-101549500D01*
X2855420Y-101549500D01*
X2852128Y-101549501D01*
X2848848Y-101549853D01*
X2848840Y-101549854D01*
X2792515Y-101555909D01*
X2657669Y-101606204D01*
X2542454Y-101692454D01*
X2456204Y-101807668D01*
X2405909Y-101942516D01*
X2400000Y-101997481D01*
X2399500Y-102002127D01*
X2399500Y-102005448D01*
X2399500Y-102005449D01*
X2399500Y-104194560D01*
X2399500Y-104194578D01*
X2399501Y-104197872D01*
X2405909Y-104257483D01*
X2456204Y-104392331D01*
X2542454Y-104507546D01*
X2657669Y-104593796D01*
X2792517Y-104644091D01*
X2852127Y-104650500D01*
X4764547Y-104650499D01*
X4831586Y-104670184D01*
X4852228Y-104686818D01*
X5024197Y-104858787D01*
X5037098Y-104874889D01*
X5039212Y-104876874D01*
X5039214Y-104876877D01*
X5070852Y-104906587D01*
X5088240Y-104922916D01*
X5091036Y-104925626D01*
X5110530Y-104945120D01*
X5113615Y-104947513D01*
X5113701Y-104947580D01*
X5122573Y-104955158D01*
X5154418Y-104985062D01*
X5171974Y-104994714D01*
X5188231Y-105005392D01*
X5204064Y-105017674D01*
X5220185Y-105024649D01*
X5244156Y-105035023D01*
X5254643Y-105040160D01*
X5292908Y-105061197D01*
X5312316Y-105066180D01*
X5330710Y-105072478D01*
X5349105Y-105080438D01*
X5392254Y-105087271D01*
X5403680Y-105089638D01*
X5412029Y-105091782D01*
X5445980Y-105100500D01*
X5445981Y-105100500D01*
X5466016Y-105100500D01*
X5485413Y-105102026D01*
X5505196Y-105105160D01*
X5548674Y-105101050D01*
X5560344Y-105100500D01*
X15554151Y-105100500D01*
X15577385Y-105102696D01*
X15585412Y-105104227D01*
X15640759Y-105100745D01*
X15648545Y-105100500D01*
X15660458Y-105100500D01*
X15664350Y-105100500D01*
X15680042Y-105098517D01*
X15687738Y-105097788D01*
X15743138Y-105094304D01*
X15750902Y-105091781D01*
X15773676Y-105086689D01*
X15781792Y-105085664D01*
X15833396Y-105065231D01*
X15840671Y-105062612D01*
X15893441Y-105045467D01*
X15900337Y-105041090D01*
X15921132Y-105030494D01*
X15928732Y-105027486D01*
X15973624Y-104994869D01*
X15980026Y-104990517D01*
X16026877Y-104960786D01*
X16032461Y-104954838D01*
X16049979Y-104939394D01*
X16056587Y-104934594D01*
X16056588Y-104934591D01*
X16056590Y-104934591D01*
X16091938Y-104891861D01*
X16097080Y-104886027D01*
X16135062Y-104845582D01*
X16138999Y-104838418D01*
X16152119Y-104819114D01*
X16157324Y-104812823D01*
X16180942Y-104762630D01*
X16184467Y-104755711D01*
X16211197Y-104707092D01*
X16213228Y-104699177D01*
X16221132Y-104677223D01*
X16224614Y-104669826D01*
X16235010Y-104615325D01*
X16236698Y-104607768D01*
X16250500Y-104554019D01*
X16250499Y-104545848D01*
X16252697Y-104522603D01*
X16254227Y-104514588D01*
X16250745Y-104459241D01*
X16250500Y-104451455D01*
X16250500Y-103585451D01*
X16270185Y-103518412D01*
X16286815Y-103497774D01*
X16687819Y-103096769D01*
X16749142Y-103063285D01*
X16818834Y-103068269D01*
X16874767Y-103110141D01*
X16899184Y-103175605D01*
X16899500Y-103184451D01*
X16899500Y-104194560D01*
X16899500Y-104194578D01*
X16899501Y-104197872D01*
X16905909Y-104257483D01*
X16956204Y-104392331D01*
X17042454Y-104507546D01*
X17157669Y-104593796D01*
X17292517Y-104644091D01*
X17352127Y-104650500D01*
X19547872Y-104650499D01*
X19607483Y-104644091D01*
X19742331Y-104593796D01*
X19857546Y-104507546D01*
X19900734Y-104449854D01*
X19956667Y-104407984D01*
X20026358Y-104403000D01*
X20087681Y-104436485D01*
X20099263Y-104449850D01*
X20142454Y-104507546D01*
X20257669Y-104593796D01*
X20392517Y-104644091D01*
X20452127Y-104650500D01*
X22647872Y-104650499D01*
X22707483Y-104644091D01*
X22842331Y-104593796D01*
X22957546Y-104507546D01*
X23043796Y-104392331D01*
X23094091Y-104257483D01*
X23100500Y-104197873D01*
X23100499Y-102002128D01*
X23094091Y-101942517D01*
X23043796Y-101807669D01*
X22957546Y-101692454D01*
X22842331Y-101606204D01*
X22707483Y-101555909D01*
X22647873Y-101549500D01*
X22644551Y-101549500D01*
X21384451Y-101549500D01*
X21317412Y-101529815D01*
X21271657Y-101477011D01*
X21261713Y-101407853D01*
X21290738Y-101344297D01*
X21296770Y-101337819D01*
X24772772Y-97861819D01*
X24834095Y-97828334D01*
X24860453Y-97825500D01*
X30040546Y-97825500D01*
X30107585Y-97845185D01*
X30153340Y-97897989D01*
X30163284Y-97967147D01*
X30134259Y-98030703D01*
X30128227Y-98037181D01*
X26652226Y-101513181D01*
X26590903Y-101546666D01*
X26564545Y-101549500D01*
X24655439Y-101549500D01*
X24655420Y-101549500D01*
X24652128Y-101549501D01*
X24648848Y-101549853D01*
X24648840Y-101549854D01*
X24592515Y-101555909D01*
X24457669Y-101606204D01*
X24342454Y-101692454D01*
X24256204Y-101807668D01*
X24205909Y-101942516D01*
X24200000Y-101997481D01*
X24199500Y-102002127D01*
X24199500Y-102005448D01*
X24199500Y-102005449D01*
X24199500Y-104194560D01*
X24199500Y-104194578D01*
X24199501Y-104197872D01*
X24205909Y-104257483D01*
X24256204Y-104392331D01*
X24342454Y-104507546D01*
X24457669Y-104593796D01*
X24592517Y-104644091D01*
X24652127Y-104650500D01*
X26847872Y-104650499D01*
X26907483Y-104644091D01*
X27042331Y-104593796D01*
X27157546Y-104507546D01*
X27200734Y-104449854D01*
X27256667Y-104407984D01*
X27326358Y-104403000D01*
X27387681Y-104436485D01*
X27399263Y-104449850D01*
X27442454Y-104507546D01*
X27557669Y-104593796D01*
X27692517Y-104644091D01*
X27752127Y-104650500D01*
X29947872Y-104650499D01*
X30007483Y-104644091D01*
X30142331Y-104593796D01*
X30257546Y-104507546D01*
X30343796Y-104392331D01*
X30394091Y-104257483D01*
X30400500Y-104197873D01*
X30400499Y-102002128D01*
X30394091Y-101942517D01*
X30343796Y-101807669D01*
X30257546Y-101692454D01*
X30142331Y-101606204D01*
X30007483Y-101555909D01*
X29947873Y-101549500D01*
X29944551Y-101549500D01*
X28684451Y-101549500D01*
X28617412Y-101529815D01*
X28571657Y-101477011D01*
X28561713Y-101407853D01*
X28590738Y-101344297D01*
X28596770Y-101337819D01*
X28985390Y-100949199D01*
X33583789Y-96350800D01*
X33605035Y-96333781D01*
X33609070Y-96331221D01*
X33676223Y-96311928D01*
X33743147Y-96332003D01*
X33788593Y-96385073D01*
X33799500Y-96435926D01*
X33799500Y-101425500D01*
X33779815Y-101492539D01*
X33727011Y-101538294D01*
X33675500Y-101549500D01*
X31955439Y-101549500D01*
X31955420Y-101549500D01*
X31952128Y-101549501D01*
X31948848Y-101549853D01*
X31948840Y-101549854D01*
X31892515Y-101555909D01*
X31757669Y-101606204D01*
X31642454Y-101692454D01*
X31556204Y-101807668D01*
X31505909Y-101942516D01*
X31500000Y-101997481D01*
X31499500Y-102002127D01*
X31499500Y-102005448D01*
X31499500Y-102005449D01*
X31499500Y-104194560D01*
X31499500Y-104194578D01*
X31499501Y-104197872D01*
X31505909Y-104257483D01*
X31556204Y-104392331D01*
X31642454Y-104507546D01*
X31757669Y-104593796D01*
X31892517Y-104644091D01*
X31952127Y-104650500D01*
X33731522Y-104650499D01*
X33798561Y-104670184D01*
X33835968Y-104713353D01*
X33838410Y-104711909D01*
X33856580Y-104742635D01*
X33865136Y-104760100D01*
X33872514Y-104778732D01*
X33872515Y-104778733D01*
X33898180Y-104814059D01*
X33904593Y-104823822D01*
X33926826Y-104861416D01*
X33926829Y-104861419D01*
X33926830Y-104861420D01*
X33940995Y-104875585D01*
X33953627Y-104890375D01*
X33965406Y-104906587D01*
X33999058Y-104934426D01*
X34007698Y-104942288D01*
X35638182Y-106572772D01*
X35671666Y-106634093D01*
X35674500Y-106660451D01*
X35674500Y-107979882D01*
X35659156Y-108039629D01*
X35656616Y-108044248D01*
X35655282Y-108046676D01*
X35644609Y-108062923D01*
X35632326Y-108078758D01*
X35614975Y-108118853D01*
X35609838Y-108129339D01*
X35588802Y-108167602D01*
X35583821Y-108187004D01*
X35577520Y-108205406D01*
X35569561Y-108223797D01*
X35562728Y-108266937D01*
X35560360Y-108278369D01*
X35549500Y-108320672D01*
X35549500Y-108340711D01*
X35547973Y-108360109D01*
X35544840Y-108379889D01*
X35548950Y-108423368D01*
X35549500Y-108435038D01*
X35549500Y-115723466D01*
X35529815Y-115790505D01*
X35477011Y-115836260D01*
X35407853Y-115846204D01*
X35389582Y-115840934D01*
X35194648Y-115799500D01*
X35194646Y-115799500D01*
X35005354Y-115799500D01*
X35005352Y-115799500D01*
X34820197Y-115838855D01*
X34647269Y-115915848D01*
X34494129Y-116027110D01*
X34367466Y-116167783D01*
X34272820Y-116331715D01*
X34214326Y-116511742D01*
X34194540Y-116700000D01*
X34214326Y-116888257D01*
X34272820Y-117068284D01*
X34367466Y-117232216D01*
X34464138Y-117339580D01*
X34487281Y-117376907D01*
X34505414Y-117422709D01*
X34509197Y-117433756D01*
X34521382Y-117475696D01*
X34531580Y-117492940D01*
X34540136Y-117510405D01*
X34547514Y-117529037D01*
X34547515Y-117529038D01*
X34573180Y-117564364D01*
X34579593Y-117574127D01*
X34601826Y-117611721D01*
X34601829Y-117611724D01*
X34601830Y-117611725D01*
X34615995Y-117625890D01*
X34628627Y-117640680D01*
X34640406Y-117656892D01*
X34674058Y-117684731D01*
X34682699Y-117692594D01*
X36373892Y-119383787D01*
X36386793Y-119399889D01*
X36388907Y-119401874D01*
X36388909Y-119401877D01*
X36422360Y-119433290D01*
X36437935Y-119447916D01*
X36440731Y-119450626D01*
X36460225Y-119470120D01*
X36463310Y-119472513D01*
X36463396Y-119472580D01*
X36472268Y-119480158D01*
X36504113Y-119510062D01*
X36521669Y-119519714D01*
X36537926Y-119530392D01*
X36553759Y-119542674D01*
X36569880Y-119549649D01*
X36593851Y-119560023D01*
X36604338Y-119565160D01*
X36642603Y-119586197D01*
X36662011Y-119591180D01*
X36680405Y-119597478D01*
X36698800Y-119605438D01*
X36741949Y-119612271D01*
X36753375Y-119614638D01*
X36768917Y-119618629D01*
X36795675Y-119625500D01*
X36795676Y-119625500D01*
X36815711Y-119625500D01*
X36835108Y-119627026D01*
X36854891Y-119630160D01*
X36898369Y-119626050D01*
X36910039Y-119625500D01*
X37417256Y-119625500D01*
X37437762Y-119627764D01*
X37440665Y-119627672D01*
X37440667Y-119627673D01*
X37507872Y-119625561D01*
X37511768Y-119625500D01*
X37535448Y-119625500D01*
X37539350Y-119625500D01*
X37543313Y-119624999D01*
X37554962Y-119624080D01*
X37598627Y-119622709D01*
X37617859Y-119617120D01*
X37636918Y-119613174D01*
X37644091Y-119612268D01*
X37656792Y-119610664D01*
X37697407Y-119594582D01*
X37708444Y-119590803D01*
X37750390Y-119578618D01*
X37767629Y-119568422D01*
X37785102Y-119559862D01*
X37803732Y-119552486D01*
X37839064Y-119526814D01*
X37848830Y-119520400D01*
X37866311Y-119510062D01*
X37886420Y-119498170D01*
X37900587Y-119484002D01*
X37915376Y-119471371D01*
X37931587Y-119459594D01*
X37959436Y-119425929D01*
X37967279Y-119417310D01*
X38208786Y-119175802D01*
X38224882Y-119162909D01*
X38226873Y-119160788D01*
X38226877Y-119160786D01*
X38272935Y-119111738D01*
X38275550Y-119109039D01*
X38295120Y-119089471D01*
X38297585Y-119086292D01*
X38305167Y-119077416D01*
X38335062Y-119045582D01*
X38344717Y-119028018D01*
X38355394Y-119011764D01*
X38367673Y-118995936D01*
X38385018Y-118955852D01*
X38390160Y-118945356D01*
X38411197Y-118907092D01*
X38416179Y-118887684D01*
X38422481Y-118869280D01*
X38430437Y-118850896D01*
X38437269Y-118807752D01*
X38439633Y-118796338D01*
X38450500Y-118754019D01*
X38450500Y-118733982D01*
X38452027Y-118714584D01*
X38455160Y-118694804D01*
X38451050Y-118651324D01*
X38450500Y-118639655D01*
X38450500Y-113007739D01*
X38452763Y-112987238D01*
X38450561Y-112917143D01*
X38450500Y-112913249D01*
X38450500Y-112889544D01*
X38450500Y-112885650D01*
X38449998Y-112881681D01*
X38449080Y-112870024D01*
X38447709Y-112826372D01*
X38442119Y-112807134D01*
X38438174Y-112788082D01*
X38435664Y-112768208D01*
X38419578Y-112727581D01*
X38415805Y-112716560D01*
X38403617Y-112674610D01*
X38393421Y-112657369D01*
X38384863Y-112639902D01*
X38377486Y-112621268D01*
X38351798Y-112585912D01*
X38345409Y-112576184D01*
X38323170Y-112538579D01*
X38309006Y-112524415D01*
X38296369Y-112509620D01*
X38284595Y-112493414D01*
X38284594Y-112493413D01*
X38250935Y-112465568D01*
X38242305Y-112457714D01*
X38138960Y-112354369D01*
X38105475Y-112293046D01*
X38103323Y-112279668D01*
X38085674Y-112111744D01*
X38027179Y-111931716D01*
X38027179Y-111931715D01*
X37932533Y-111767783D01*
X37805870Y-111627110D01*
X37652730Y-111515848D01*
X37479802Y-111438855D01*
X37294648Y-111399500D01*
X37294646Y-111399500D01*
X37105354Y-111399500D01*
X37057884Y-111409590D01*
X36950280Y-111432461D01*
X36880613Y-111427144D01*
X36824880Y-111385006D01*
X36800775Y-111319426D01*
X36800500Y-111311170D01*
X36800500Y-109724500D01*
X36820185Y-109657461D01*
X36872989Y-109611706D01*
X36924500Y-109600500D01*
X36994648Y-109600500D01*
X37118084Y-109574262D01*
X37179803Y-109561144D01*
X37352730Y-109484151D01*
X37493032Y-109382216D01*
X37505870Y-109372889D01*
X37632533Y-109232216D01*
X37727179Y-109068284D01*
X37760300Y-108966348D01*
X37785674Y-108888256D01*
X37803321Y-108720345D01*
X37829905Y-108655732D01*
X37838952Y-108645636D01*
X40833789Y-105650800D01*
X40849885Y-105637906D01*
X40851873Y-105635787D01*
X40851877Y-105635786D01*
X40897949Y-105586723D01*
X40900534Y-105584055D01*
X40920120Y-105564471D01*
X40922585Y-105561292D01*
X40930167Y-105552416D01*
X40960062Y-105520582D01*
X40969717Y-105503018D01*
X40980394Y-105486764D01*
X40992673Y-105470936D01*
X41010018Y-105430852D01*
X41015160Y-105420356D01*
X41036197Y-105382092D01*
X41041179Y-105362684D01*
X41047481Y-105344280D01*
X41055437Y-105325896D01*
X41062269Y-105282752D01*
X41064633Y-105271338D01*
X41075500Y-105229019D01*
X41075500Y-105208982D01*
X41077027Y-105189584D01*
X41080160Y-105169804D01*
X41076050Y-105126324D01*
X41075500Y-105114655D01*
X41075500Y-104774499D01*
X41095185Y-104707460D01*
X41147989Y-104661705D01*
X41199500Y-104650499D01*
X41265355Y-104650499D01*
X41332394Y-104670184D01*
X41378149Y-104722988D01*
X41389339Y-104772499D01*
X41496226Y-111399500D01*
X41827006Y-131907853D01*
X41827259Y-131923500D01*
X41808658Y-131990848D01*
X41756599Y-132037449D01*
X41703275Y-132049500D01*
X40335453Y-132049500D01*
X40268414Y-132029815D01*
X40247772Y-132013181D01*
X40161819Y-131927228D01*
X40128334Y-131865905D01*
X40125500Y-131839547D01*
X40125500Y-130498687D01*
X40145185Y-130431648D01*
X40157350Y-130415714D01*
X40177430Y-130393413D01*
X40232533Y-130332216D01*
X40327179Y-130168284D01*
X40385674Y-129988256D01*
X40405460Y-129800000D01*
X40385674Y-129611744D01*
X40327179Y-129431716D01*
X40327179Y-129431715D01*
X40232533Y-129267783D01*
X40105870Y-129127110D01*
X39952730Y-129015848D01*
X39779802Y-128938855D01*
X39594648Y-128899500D01*
X39594646Y-128899500D01*
X39405354Y-128899500D01*
X39405352Y-128899500D01*
X39220197Y-128938855D01*
X39047269Y-129015848D01*
X38894132Y-129127108D01*
X38841650Y-129185396D01*
X38782163Y-129222044D01*
X38712306Y-129220713D01*
X38654258Y-129181826D01*
X38626448Y-129117730D01*
X38625500Y-129102423D01*
X38625500Y-123582743D01*
X38627764Y-123562239D01*
X38625561Y-123492112D01*
X38625500Y-123488218D01*
X38625500Y-123464541D01*
X38625500Y-123460650D01*
X38624998Y-123456683D01*
X38624081Y-123445027D01*
X38622710Y-123401373D01*
X38617118Y-123382126D01*
X38613174Y-123363085D01*
X38610664Y-123343208D01*
X38594579Y-123302583D01*
X38590808Y-123291568D01*
X38578618Y-123249610D01*
X38568414Y-123232355D01*
X38559861Y-123214895D01*
X38552486Y-123196269D01*
X38552486Y-123196268D01*
X38526808Y-123160925D01*
X38520401Y-123151171D01*
X38519151Y-123149058D01*
X38498170Y-123113580D01*
X38484006Y-123099416D01*
X38471367Y-123084617D01*
X38459595Y-123068413D01*
X38425941Y-123040573D01*
X38417299Y-123032709D01*
X35938960Y-120554369D01*
X35905475Y-120493046D01*
X35903323Y-120479668D01*
X35885674Y-120311744D01*
X35827179Y-120131716D01*
X35827179Y-120131715D01*
X35732533Y-119967783D01*
X35605870Y-119827110D01*
X35452730Y-119715848D01*
X35279802Y-119638855D01*
X35094648Y-119599500D01*
X35094646Y-119599500D01*
X34905354Y-119599500D01*
X34905352Y-119599500D01*
X34720197Y-119638855D01*
X34547269Y-119715848D01*
X34394129Y-119827110D01*
X34267466Y-119967783D01*
X34172820Y-120131715D01*
X34114326Y-120311742D01*
X34094540Y-120500000D01*
X34114326Y-120688257D01*
X34172820Y-120868284D01*
X34267466Y-121032216D01*
X34394129Y-121172889D01*
X34547269Y-121284151D01*
X34720197Y-121361144D01*
X34905352Y-121400500D01*
X34905354Y-121400500D01*
X34964548Y-121400500D01*
X35031587Y-121420185D01*
X35052229Y-121436819D01*
X37338181Y-123722771D01*
X37371666Y-123784094D01*
X37374500Y-123810452D01*
X37374500Y-131925500D01*
X37354815Y-131992539D01*
X37302011Y-132038294D01*
X37250500Y-132049500D01*
X35455439Y-132049500D01*
X35455420Y-132049500D01*
X35452128Y-132049501D01*
X35448848Y-132049853D01*
X35448840Y-132049854D01*
X35392515Y-132055909D01*
X35257669Y-132106204D01*
X35142454Y-132192454D01*
X35056203Y-132307670D01*
X35041180Y-132347948D01*
X34999308Y-132403880D01*
X34933843Y-132428296D01*
X34865570Y-132413443D01*
X34816166Y-132364037D01*
X34808819Y-132347948D01*
X34793796Y-132307669D01*
X34707546Y-132192454D01*
X34592331Y-132106204D01*
X34531165Y-132083390D01*
X34475233Y-132041519D01*
X34450816Y-131976055D01*
X34450500Y-131967209D01*
X34450500Y-130907743D01*
X34452764Y-130887239D01*
X34450561Y-130817126D01*
X34450500Y-130813231D01*
X34450500Y-130789540D01*
X34450500Y-130785650D01*
X34449998Y-130781677D01*
X34449080Y-130770018D01*
X34447709Y-130726373D01*
X34442120Y-130707140D01*
X34438174Y-130688082D01*
X34435664Y-130668206D01*
X34419588Y-130627604D01*
X34415804Y-130616553D01*
X34406811Y-130585602D01*
X34403618Y-130574610D01*
X34393414Y-130557355D01*
X34384861Y-130539895D01*
X34377486Y-130521269D01*
X34377486Y-130521268D01*
X34351808Y-130485925D01*
X34345401Y-130476171D01*
X34338598Y-130464667D01*
X34323170Y-130438580D01*
X34309006Y-130424416D01*
X34296367Y-130409617D01*
X34284595Y-130393413D01*
X34250941Y-130365573D01*
X34242299Y-130357709D01*
X33066416Y-129181826D01*
X31872268Y-127987677D01*
X31838785Y-127926357D01*
X31843769Y-127856665D01*
X31872268Y-127812320D01*
X32008786Y-127675802D01*
X32024886Y-127662905D01*
X32026874Y-127660787D01*
X32026877Y-127660786D01*
X32072964Y-127611707D01*
X32075549Y-127609039D01*
X32095120Y-127589470D01*
X32097565Y-127586316D01*
X32105154Y-127577429D01*
X32135062Y-127545582D01*
X32144713Y-127528026D01*
X32155393Y-127511767D01*
X32167674Y-127495936D01*
X32185018Y-127455851D01*
X32190160Y-127445356D01*
X32200191Y-127427110D01*
X32211197Y-127407092D01*
X32216178Y-127387688D01*
X32222480Y-127369283D01*
X32230438Y-127350895D01*
X32237270Y-127307748D01*
X32239639Y-127296316D01*
X32250500Y-127254020D01*
X32250500Y-127233983D01*
X32252027Y-127214584D01*
X32255160Y-127194804D01*
X32251050Y-127151324D01*
X32250500Y-127139655D01*
X32250500Y-126061083D01*
X32270185Y-125994044D01*
X32322989Y-125948289D01*
X32392147Y-125938345D01*
X32447383Y-125960763D01*
X32583398Y-126059584D01*
X32583399Y-126059584D01*
X32583400Y-126059585D01*
X32756325Y-126136577D01*
X32941480Y-126175933D01*
X32941482Y-126175933D01*
X33130776Y-126175933D01*
X33254212Y-126149695D01*
X33315931Y-126136577D01*
X33488858Y-126059584D01*
X33526527Y-126032216D01*
X33641998Y-125948322D01*
X33698473Y-125885601D01*
X33768661Y-125807649D01*
X33863307Y-125643717D01*
X33921802Y-125463689D01*
X33941588Y-125275433D01*
X33921802Y-125087177D01*
X33863307Y-124907149D01*
X33863307Y-124907148D01*
X33768661Y-124743216D01*
X33693478Y-124659717D01*
X33663248Y-124596726D01*
X33661628Y-124576745D01*
X33661628Y-119718868D01*
X33663891Y-119698367D01*
X33662021Y-119638856D01*
X33661689Y-119628272D01*
X33661628Y-119624378D01*
X33661628Y-119600672D01*
X33661628Y-119596778D01*
X33661126Y-119592809D01*
X33660208Y-119581152D01*
X33658837Y-119537501D01*
X33653248Y-119518268D01*
X33649302Y-119499210D01*
X33646792Y-119479334D01*
X33630716Y-119438732D01*
X33626932Y-119427681D01*
X33616991Y-119393466D01*
X33614746Y-119385738D01*
X33604542Y-119368483D01*
X33595989Y-119351023D01*
X33588614Y-119332397D01*
X33588614Y-119332396D01*
X33562936Y-119297053D01*
X33556529Y-119287299D01*
X33534297Y-119249707D01*
X33520134Y-119235544D01*
X33507495Y-119220745D01*
X33495723Y-119204541D01*
X33462069Y-119176701D01*
X33453427Y-119168837D01*
X32194056Y-117909466D01*
X32160571Y-117848143D01*
X32165555Y-117778451D01*
X32174343Y-117759798D01*
X32227179Y-117668284D01*
X32285674Y-117488256D01*
X32303321Y-117320344D01*
X32329904Y-117255734D01*
X32338951Y-117245638D01*
X32683789Y-116900800D01*
X32699885Y-116887906D01*
X32701873Y-116885787D01*
X32701877Y-116885786D01*
X32747949Y-116836723D01*
X32750534Y-116834055D01*
X32770120Y-116814471D01*
X32772585Y-116811292D01*
X32780167Y-116802416D01*
X32810062Y-116770582D01*
X32819717Y-116753018D01*
X32830394Y-116736764D01*
X32842673Y-116720936D01*
X32860018Y-116680852D01*
X32865160Y-116670356D01*
X32886197Y-116632092D01*
X32891179Y-116612684D01*
X32897481Y-116594280D01*
X32905437Y-116575896D01*
X32912269Y-116532752D01*
X32914633Y-116521338D01*
X32925500Y-116479019D01*
X32925500Y-116458982D01*
X32927027Y-116439584D01*
X32928182Y-116432291D01*
X32930160Y-116419804D01*
X32926047Y-116376303D01*
X32925499Y-116364676D01*
X32925499Y-111233249D01*
X32927764Y-111212740D01*
X32925561Y-111142625D01*
X32925500Y-111138731D01*
X32925500Y-111115040D01*
X32925500Y-111111150D01*
X32924998Y-111107177D01*
X32924080Y-111095518D01*
X32922709Y-111051873D01*
X32917120Y-111032640D01*
X32913174Y-111013582D01*
X32910664Y-110993706D01*
X32894588Y-110953104D01*
X32890804Y-110942053D01*
X32884881Y-110921668D01*
X32878618Y-110900110D01*
X32868414Y-110882855D01*
X32859861Y-110865395D01*
X32852486Y-110846769D01*
X32852486Y-110846768D01*
X32826808Y-110811425D01*
X32820401Y-110801671D01*
X32798169Y-110764079D01*
X32784006Y-110749916D01*
X32771367Y-110735117D01*
X32759595Y-110718913D01*
X32725941Y-110691073D01*
X32717299Y-110683209D01*
X31838960Y-109804869D01*
X31805475Y-109743546D01*
X31803323Y-109730168D01*
X31785674Y-109562244D01*
X31727179Y-109382216D01*
X31727179Y-109382215D01*
X31632533Y-109218283D01*
X31505870Y-109077610D01*
X31352730Y-108966348D01*
X31179802Y-108889355D01*
X30994648Y-108850000D01*
X30994646Y-108850000D01*
X30805354Y-108850000D01*
X30805352Y-108850000D01*
X30620197Y-108889355D01*
X30447269Y-108966348D01*
X30294129Y-109077610D01*
X30167466Y-109218283D01*
X30072820Y-109382215D01*
X30014326Y-109562242D01*
X29994540Y-109750500D01*
X30014326Y-109938757D01*
X30072820Y-110118784D01*
X30167466Y-110282716D01*
X30294129Y-110423389D01*
X30447269Y-110534651D01*
X30620197Y-110611644D01*
X30805352Y-110651000D01*
X30805354Y-110651000D01*
X30864548Y-110651000D01*
X30931587Y-110670685D01*
X30952229Y-110687319D01*
X31638181Y-111373271D01*
X31671666Y-111434594D01*
X31674500Y-111460952D01*
X31674500Y-113734597D01*
X31654815Y-113801636D01*
X31602011Y-113847391D01*
X31532853Y-113857335D01*
X31500065Y-113847877D01*
X31479800Y-113838854D01*
X31294648Y-113799500D01*
X31294646Y-113799500D01*
X31105354Y-113799500D01*
X31105352Y-113799500D01*
X30920197Y-113838855D01*
X30747269Y-113915848D01*
X30594129Y-114027110D01*
X30467466Y-114167783D01*
X30372820Y-114331715D01*
X30314326Y-114511742D01*
X30296679Y-114679649D01*
X30270094Y-114744263D01*
X30261039Y-114754368D01*
X29841208Y-115174199D01*
X29825110Y-115187096D01*
X29777096Y-115238225D01*
X29774392Y-115241016D01*
X29757628Y-115257780D01*
X29757621Y-115257787D01*
X29754880Y-115260529D01*
X29752499Y-115263597D01*
X29752490Y-115263608D01*
X29752411Y-115263711D01*
X29744842Y-115272572D01*
X29714935Y-115304420D01*
X29705285Y-115321974D01*
X29694609Y-115338228D01*
X29682326Y-115354063D01*
X29664975Y-115394158D01*
X29659838Y-115404644D01*
X29638802Y-115442907D01*
X29633821Y-115462309D01*
X29627520Y-115480711D01*
X29619561Y-115499102D01*
X29612728Y-115542242D01*
X29610360Y-115553674D01*
X29599500Y-115595977D01*
X29599500Y-115616016D01*
X29597973Y-115635414D01*
X29594840Y-115655194D01*
X29598950Y-115698673D01*
X29599500Y-115710343D01*
X29599500Y-122826993D01*
X29579815Y-122894032D01*
X29527011Y-122939787D01*
X29469683Y-122948030D01*
X29469683Y-122949500D01*
X29459460Y-122949500D01*
X29457853Y-122949731D01*
X29456696Y-122949500D01*
X29454019Y-122949500D01*
X29433984Y-122949500D01*
X29414586Y-122947973D01*
X29407162Y-122946797D01*
X29394805Y-122944840D01*
X29394804Y-122944840D01*
X29368484Y-122947328D01*
X29351325Y-122948950D01*
X29339656Y-122949500D01*
X16807741Y-122949500D01*
X16787237Y-122947236D01*
X16717145Y-122949439D01*
X16713251Y-122949500D01*
X16685650Y-122949500D01*
X16681799Y-122949986D01*
X16681768Y-122949988D01*
X16681640Y-122950005D01*
X16670028Y-122950918D01*
X16626368Y-122952290D01*
X16607128Y-122957880D01*
X16588081Y-122961825D01*
X16568209Y-122964335D01*
X16527599Y-122980413D01*
X16516554Y-122984194D01*
X16474610Y-122996381D01*
X16457365Y-123006579D01*
X16439904Y-123015133D01*
X16421267Y-123022512D01*
X16385931Y-123048185D01*
X16376174Y-123054595D01*
X16338580Y-123076829D01*
X16324413Y-123090996D01*
X16309624Y-123103626D01*
X16293413Y-123115404D01*
X16265572Y-123149058D01*
X16257711Y-123157697D01*
X14852228Y-124563181D01*
X14790905Y-124596666D01*
X14764547Y-124599500D01*
X14705352Y-124599500D01*
X14520197Y-124638855D01*
X14347269Y-124715848D01*
X14194129Y-124827110D01*
X14067466Y-124967783D01*
X13972820Y-125131715D01*
X13914326Y-125311742D01*
X13894540Y-125500000D01*
X13914326Y-125688257D01*
X13972820Y-125868284D01*
X14067466Y-126032216D01*
X14194129Y-126172889D01*
X14347269Y-126284151D01*
X14520197Y-126361144D01*
X14705352Y-126400500D01*
X14907679Y-126400500D01*
X14907679Y-126402291D01*
X14961549Y-126406399D01*
X15017285Y-126448534D01*
X15041393Y-126514112D01*
X15026220Y-126582314D01*
X15005350Y-126610057D01*
X10716208Y-130899199D01*
X10700110Y-130912096D01*
X10652096Y-130963225D01*
X10649392Y-130966016D01*
X10632628Y-130982780D01*
X10632621Y-130982787D01*
X10629880Y-130985529D01*
X10627499Y-130988597D01*
X10627490Y-130988608D01*
X10627411Y-130988711D01*
X10619842Y-130997572D01*
X10589935Y-131029420D01*
X10580285Y-131046974D01*
X10569609Y-131063228D01*
X10557326Y-131079063D01*
X10539975Y-131119158D01*
X10534838Y-131129644D01*
X10513802Y-131167907D01*
X10508821Y-131187309D01*
X10502520Y-131205711D01*
X10494561Y-131224102D01*
X10487728Y-131267242D01*
X10485360Y-131278674D01*
X10474500Y-131320977D01*
X10474500Y-131341016D01*
X10472973Y-131360414D01*
X10469840Y-131380194D01*
X10473950Y-131423673D01*
X10474500Y-131435343D01*
X10474500Y-131925500D01*
X10454815Y-131992539D01*
X10402011Y-132038294D01*
X10350500Y-132049500D01*
X9805439Y-132049500D01*
X9805420Y-132049500D01*
X9802128Y-132049501D01*
X9798848Y-132049853D01*
X9798840Y-132049854D01*
X9742515Y-132055909D01*
X9607669Y-132106204D01*
X9492454Y-132192454D01*
X9406204Y-132307668D01*
X9355910Y-132442515D01*
X9355909Y-132442517D01*
X9349500Y-132502127D01*
X9349500Y-132505448D01*
X9349500Y-132505449D01*
X9349500Y-134694560D01*
X9349500Y-134694578D01*
X9349501Y-134697872D01*
X9349853Y-134701152D01*
X9349854Y-134701159D01*
X9355909Y-134757484D01*
X9381056Y-134824906D01*
X9406204Y-134892331D01*
X9492454Y-135007546D01*
X9607669Y-135093796D01*
X9742517Y-135144091D01*
X9802127Y-135150500D01*
X11997872Y-135150499D01*
X12057483Y-135144091D01*
X12192331Y-135093796D01*
X12307546Y-135007546D01*
X12393796Y-134892331D01*
X12408818Y-134852053D01*
X12450689Y-134796120D01*
X12516154Y-134771703D01*
X12584427Y-134786555D01*
X12633832Y-134835960D01*
X12641180Y-134852050D01*
X12656204Y-134892331D01*
X12742454Y-135007546D01*
X12857669Y-135093796D01*
X12992517Y-135144091D01*
X13052127Y-135150500D01*
X15247872Y-135150499D01*
X15307483Y-135144091D01*
X15442331Y-135093796D01*
X15557546Y-135007546D01*
X15643796Y-134892331D01*
X15694091Y-134757483D01*
X15700500Y-134697873D01*
X15700499Y-132502128D01*
X15694091Y-132442517D01*
X15643796Y-132307669D01*
X15557546Y-132192454D01*
X15442331Y-132106204D01*
X15307483Y-132055909D01*
X15247873Y-132049500D01*
X15244550Y-132049500D01*
X13055439Y-132049500D01*
X13055420Y-132049500D01*
X13052128Y-132049501D01*
X13048848Y-132049853D01*
X13048840Y-132049854D01*
X12992515Y-132055909D01*
X12857669Y-132106204D01*
X12742454Y-132192454D01*
X12656203Y-132307670D01*
X12641180Y-132347948D01*
X12599308Y-132403880D01*
X12533843Y-132428296D01*
X12465570Y-132413443D01*
X12416166Y-132364037D01*
X12408819Y-132347948D01*
X12393796Y-132307669D01*
X12307546Y-132192454D01*
X12192331Y-132106204D01*
X12057483Y-132055909D01*
X11997873Y-132049500D01*
X11994551Y-132049500D01*
X11849500Y-132049500D01*
X11782461Y-132029815D01*
X11736706Y-131977011D01*
X11725500Y-131925500D01*
X11725500Y-131710452D01*
X11745185Y-131643413D01*
X11761819Y-131622771D01*
X18147772Y-125236819D01*
X18209095Y-125203334D01*
X18235453Y-125200500D01*
X18294648Y-125200500D01*
X18418084Y-125174262D01*
X18479803Y-125161144D01*
X18652730Y-125084151D01*
X18805870Y-124972889D01*
X18810468Y-124967783D01*
X18932533Y-124832216D01*
X19027179Y-124668284D01*
X19085674Y-124488256D01*
X19104247Y-124311538D01*
X19130832Y-124246924D01*
X19188129Y-124206939D01*
X19227568Y-124200500D01*
X29064548Y-124200500D01*
X29131587Y-124220185D01*
X29152229Y-124236819D01*
X29661038Y-124745628D01*
X29694523Y-124806951D01*
X29696678Y-124820347D01*
X29714326Y-124988257D01*
X29772820Y-125168284D01*
X29867466Y-125332216D01*
X29994129Y-125472889D01*
X30147269Y-125584151D01*
X30252347Y-125630936D01*
X30305584Y-125676186D01*
X30325905Y-125743035D01*
X30306860Y-125810259D01*
X30294070Y-125827176D01*
X30288408Y-125833465D01*
X30228927Y-125870118D01*
X30196253Y-125874500D01*
X25732740Y-125874500D01*
X25712236Y-125872236D01*
X25642144Y-125874439D01*
X25638250Y-125874500D01*
X25610650Y-125874500D01*
X25606799Y-125874986D01*
X25606768Y-125874988D01*
X25606640Y-125875005D01*
X25595028Y-125875918D01*
X25551372Y-125877290D01*
X25532135Y-125882879D01*
X25513094Y-125886822D01*
X25493208Y-125889335D01*
X25452582Y-125905419D01*
X25441537Y-125909200D01*
X25399613Y-125921381D01*
X25382365Y-125931581D01*
X25364903Y-125940135D01*
X25352915Y-125944881D01*
X25346265Y-125947515D01*
X25310926Y-125973189D01*
X25301168Y-125979599D01*
X25263579Y-126001829D01*
X25249410Y-126015998D01*
X25234622Y-126028628D01*
X25218413Y-126040405D01*
X25190572Y-126074058D01*
X25182711Y-126082696D01*
X19252226Y-132013181D01*
X19190903Y-132046666D01*
X19164545Y-132049500D01*
X17255439Y-132049500D01*
X17255420Y-132049500D01*
X17252128Y-132049501D01*
X17248848Y-132049853D01*
X17248840Y-132049854D01*
X17192515Y-132055909D01*
X17057669Y-132106204D01*
X16942454Y-132192454D01*
X16856204Y-132307668D01*
X16805910Y-132442515D01*
X16805909Y-132442517D01*
X16799500Y-132502127D01*
X16799500Y-132505448D01*
X16799500Y-132505449D01*
X16799500Y-134694560D01*
X16799500Y-134694578D01*
X16799501Y-134697872D01*
X16799853Y-134701152D01*
X16799854Y-134701159D01*
X16805909Y-134757484D01*
X16831056Y-134824906D01*
X16856204Y-134892331D01*
X16942454Y-135007546D01*
X17057669Y-135093796D01*
X17192517Y-135144091D01*
X17252127Y-135150500D01*
X19447872Y-135150499D01*
X19507483Y-135144091D01*
X19642331Y-135093796D01*
X19757546Y-135007546D01*
X19843796Y-134892331D01*
X19858818Y-134852053D01*
X19900689Y-134796120D01*
X19966154Y-134771703D01*
X20034427Y-134786555D01*
X20083832Y-134835960D01*
X20091180Y-134852050D01*
X20106204Y-134892331D01*
X20192454Y-135007546D01*
X20307669Y-135093796D01*
X20442517Y-135144091D01*
X20502127Y-135150500D01*
X22697872Y-135150499D01*
X22757483Y-135144091D01*
X22892331Y-135093796D01*
X23007546Y-135007546D01*
X23093796Y-134892331D01*
X23144091Y-134757483D01*
X23150500Y-134697873D01*
X23150499Y-132502128D01*
X23144091Y-132442517D01*
X23093796Y-132307669D01*
X23007546Y-132192454D01*
X22892331Y-132106204D01*
X22757483Y-132055909D01*
X22697873Y-132049500D01*
X22694551Y-132049500D01*
X21284451Y-132049500D01*
X21217412Y-132029815D01*
X21171657Y-131977011D01*
X21161713Y-131907853D01*
X21190738Y-131844297D01*
X21196770Y-131837819D01*
X22217464Y-130817126D01*
X25872771Y-127161819D01*
X25934095Y-127128334D01*
X25960453Y-127125500D01*
X30127630Y-127125500D01*
X30194669Y-127145185D01*
X30240424Y-127197989D01*
X30250368Y-127267147D01*
X30221343Y-127330703D01*
X30200515Y-127349818D01*
X30094129Y-127427110D01*
X29967466Y-127567783D01*
X29872820Y-127731715D01*
X29814326Y-127911742D01*
X29794540Y-128100000D01*
X29814326Y-128288257D01*
X29872820Y-128468284D01*
X29967466Y-128632216D01*
X30094129Y-128772889D01*
X30247269Y-128884151D01*
X30420197Y-128961144D01*
X30605352Y-129000500D01*
X30605354Y-129000500D01*
X30794648Y-129000500D01*
X30992552Y-128958434D01*
X30993461Y-128962715D01*
X31038040Y-128956700D01*
X31101341Y-128986276D01*
X31107009Y-128991599D01*
X32478228Y-130362819D01*
X32511713Y-130424142D01*
X32506729Y-130493834D01*
X32464857Y-130549767D01*
X32399393Y-130574184D01*
X32390547Y-130574500D01*
X28482744Y-130574500D01*
X28462236Y-130572235D01*
X28392113Y-130574439D01*
X28388219Y-130574500D01*
X28360650Y-130574500D01*
X28356794Y-130574986D01*
X28356791Y-130574987D01*
X28356735Y-130574994D01*
X28356662Y-130575003D01*
X28345043Y-130575917D01*
X28301372Y-130577289D01*
X28282128Y-130582880D01*
X28263084Y-130586824D01*
X28243208Y-130589335D01*
X28202600Y-130605413D01*
X28191554Y-130609194D01*
X28149610Y-130621382D01*
X28149607Y-130621383D01*
X28132365Y-130631579D01*
X28114904Y-130640133D01*
X28096267Y-130647512D01*
X28060931Y-130673185D01*
X28051174Y-130679595D01*
X28013580Y-130701829D01*
X27999413Y-130715996D01*
X27984624Y-130728626D01*
X27968413Y-130740404D01*
X27940572Y-130774058D01*
X27932711Y-130782697D01*
X26702227Y-132013181D01*
X26640904Y-132046666D01*
X26614546Y-132049500D01*
X24705439Y-132049500D01*
X24705420Y-132049500D01*
X24702128Y-132049501D01*
X24698848Y-132049853D01*
X24698840Y-132049854D01*
X24642515Y-132055909D01*
X24507669Y-132106204D01*
X24392454Y-132192454D01*
X24306204Y-132307668D01*
X24255910Y-132442515D01*
X24255909Y-132442517D01*
X24249500Y-132502127D01*
X24249500Y-132505448D01*
X24249500Y-132505449D01*
X24249500Y-134694560D01*
X24249500Y-134694578D01*
X24249501Y-134697872D01*
X24249853Y-134701152D01*
X24249854Y-134701159D01*
X24255909Y-134757484D01*
X24281056Y-134824907D01*
X24306204Y-134892331D01*
X24392454Y-135007546D01*
X24507669Y-135093796D01*
X24642517Y-135144091D01*
X24702127Y-135150500D01*
X26897872Y-135150499D01*
X26957483Y-135144091D01*
X27092331Y-135093796D01*
X27207546Y-135007546D01*
X27293796Y-134892331D01*
X27333818Y-134785025D01*
X27375689Y-134729092D01*
X27441154Y-134704675D01*
X27509427Y-134719527D01*
X27558832Y-134768932D01*
X27566181Y-134785024D01*
X27606204Y-134892331D01*
X27692454Y-135007546D01*
X27807669Y-135093796D01*
X27942517Y-135144091D01*
X28002127Y-135150500D01*
X30197872Y-135150499D01*
X30257483Y-135144091D01*
X30392331Y-135093796D01*
X30507546Y-135007546D01*
X30593796Y-134892331D01*
X30644091Y-134757483D01*
X30650500Y-134697873D01*
X30650499Y-132502128D01*
X30644091Y-132442517D01*
X30593796Y-132307669D01*
X30507546Y-132192454D01*
X30392331Y-132106204D01*
X30283686Y-132065682D01*
X30227753Y-132023810D01*
X30203336Y-131958346D01*
X30218188Y-131890073D01*
X30267593Y-131840668D01*
X30327020Y-131825500D01*
X32072981Y-131825500D01*
X32140020Y-131845185D01*
X32185775Y-131897989D01*
X32195719Y-131967147D01*
X32166694Y-132030703D01*
X32116314Y-132065682D01*
X32007669Y-132106204D01*
X31892454Y-132192454D01*
X31806204Y-132307668D01*
X31755910Y-132442515D01*
X31755909Y-132442517D01*
X31749500Y-132502127D01*
X31749500Y-132505448D01*
X31749500Y-132505449D01*
X31749500Y-134694560D01*
X31749500Y-134694578D01*
X31749501Y-134697872D01*
X31749853Y-134701152D01*
X31749854Y-134701159D01*
X31755909Y-134757484D01*
X31781056Y-134824907D01*
X31806204Y-134892331D01*
X31892454Y-135007546D01*
X32007669Y-135093796D01*
X32142517Y-135144091D01*
X32202127Y-135150500D01*
X34397872Y-135150499D01*
X34457483Y-135144091D01*
X34592331Y-135093796D01*
X34707546Y-135007546D01*
X34793796Y-134892331D01*
X34808818Y-134852053D01*
X34850689Y-134796120D01*
X34916154Y-134771703D01*
X34984427Y-134786555D01*
X35033832Y-134835960D01*
X35041180Y-134852050D01*
X35056204Y-134892331D01*
X35142454Y-135007546D01*
X35257669Y-135093796D01*
X35392517Y-135144091D01*
X35452127Y-135150500D01*
X37250114Y-135150499D01*
X37317153Y-135170184D01*
X37362908Y-135222987D01*
X37374053Y-135270599D01*
X37374439Y-135282867D01*
X37374500Y-135286767D01*
X37374500Y-135314350D01*
X37374988Y-135318219D01*
X37374989Y-135318225D01*
X37375004Y-135318343D01*
X37375918Y-135329967D01*
X37377290Y-135373626D01*
X37382879Y-135392860D01*
X37386825Y-135411916D01*
X37389335Y-135431792D01*
X37405414Y-135472404D01*
X37409197Y-135483451D01*
X37421382Y-135525391D01*
X37431580Y-135542635D01*
X37440136Y-135560100D01*
X37447514Y-135578732D01*
X37447515Y-135578733D01*
X37473180Y-135614059D01*
X37479593Y-135623822D01*
X37501826Y-135661416D01*
X37501829Y-135661419D01*
X37501830Y-135661420D01*
X37515995Y-135675585D01*
X37528627Y-135690375D01*
X37540406Y-135706587D01*
X37574058Y-135734426D01*
X37582699Y-135742289D01*
X40763181Y-138922771D01*
X40796666Y-138984094D01*
X40799500Y-139010452D01*
X40799500Y-146263283D01*
X40779815Y-146330322D01*
X40727011Y-146376077D01*
X40657853Y-146386021D01*
X40594297Y-146356996D01*
X40585108Y-146348167D01*
X40517758Y-146276447D01*
X40515094Y-146273610D01*
X40411919Y-146188256D01*
X40275665Y-146075536D01*
X40275660Y-146075532D01*
X40272663Y-146073053D01*
X40269375Y-146070966D01*
X40269369Y-146070962D01*
X40010293Y-145906548D01*
X40010288Y-145906545D01*
X40007007Y-145904463D01*
X39722315Y-145770497D01*
X39718612Y-145769293D01*
X39718610Y-145769293D01*
X39426788Y-145674474D01*
X39426786Y-145674473D01*
X39423079Y-145673269D01*
X39419254Y-145672539D01*
X39419249Y-145672538D01*
X39117841Y-145615041D01*
X39117827Y-145615039D01*
X39114015Y-145614312D01*
X39110121Y-145614067D01*
X38880545Y-145599623D01*
X38880531Y-145599622D01*
X38878583Y-145599500D01*
X38721417Y-145599500D01*
X38719469Y-145599622D01*
X38719454Y-145599623D01*
X38489878Y-145614067D01*
X38489876Y-145614067D01*
X38485985Y-145614312D01*
X38482174Y-145615038D01*
X38482158Y-145615041D01*
X38180750Y-145672538D01*
X38180741Y-145672540D01*
X38176921Y-145673269D01*
X38173217Y-145674472D01*
X38173211Y-145674474D01*
X37881389Y-145769293D01*
X37881382Y-145769295D01*
X37877685Y-145770497D01*
X37874170Y-145772150D01*
X37874165Y-145772153D01*
X37596511Y-145902807D01*
X37596504Y-145902810D01*
X37592993Y-145904463D01*
X37589717Y-145906541D01*
X37589706Y-145906548D01*
X37330630Y-146070962D01*
X37330616Y-146070971D01*
X37327337Y-146073053D01*
X37324346Y-146075526D01*
X37324334Y-146075536D01*
X37087902Y-146271131D01*
X37087897Y-146271135D01*
X37084906Y-146273610D01*
X37082248Y-146276440D01*
X37082241Y-146276447D01*
X36872189Y-146500129D01*
X36872182Y-146500136D01*
X36869933Y-146502532D01*
X36869932Y-146502533D01*
X36869522Y-146502970D01*
X36869870Y-146502575D01*
X36812640Y-146541227D01*
X36742789Y-146542821D01*
X36683164Y-146506398D01*
X36652697Y-146443521D01*
X36651000Y-146423078D01*
X36651000Y-143182434D01*
X36653263Y-143161933D01*
X36652578Y-143140138D01*
X36651061Y-143091838D01*
X36651000Y-143087944D01*
X36651000Y-143064239D01*
X36651000Y-143060345D01*
X36650498Y-143056376D01*
X36649580Y-143044719D01*
X36648209Y-143001067D01*
X36642619Y-142981829D01*
X36638674Y-142962777D01*
X36636164Y-142942903D01*
X36625452Y-142915848D01*
X36620078Y-142902276D01*
X36616305Y-142891255D01*
X36604117Y-142849305D01*
X36600386Y-142842997D01*
X36593921Y-142832064D01*
X36585363Y-142814597D01*
X36577986Y-142795963D01*
X36552298Y-142760607D01*
X36545909Y-142750879D01*
X36523670Y-142713274D01*
X36509506Y-142699110D01*
X36496869Y-142684315D01*
X36485095Y-142668109D01*
X36485094Y-142668108D01*
X36451435Y-142640263D01*
X36442805Y-142632409D01*
X36101607Y-142291211D01*
X36088711Y-142275113D01*
X36037580Y-142227098D01*
X36034783Y-142224387D01*
X36018032Y-142207636D01*
X36015276Y-142204880D01*
X36012095Y-142202412D01*
X36003227Y-142194837D01*
X35971387Y-142164938D01*
X35953829Y-142155285D01*
X35937569Y-142144604D01*
X35921741Y-142132327D01*
X35881656Y-142114980D01*
X35871166Y-142109841D01*
X35832896Y-142088802D01*
X35813496Y-142083821D01*
X35795089Y-142077519D01*
X35776702Y-142069562D01*
X35733563Y-142062729D01*
X35722129Y-142060361D01*
X35679824Y-142049500D01*
X35659789Y-142049500D01*
X35640391Y-142047973D01*
X35632967Y-142046797D01*
X35620610Y-142044840D01*
X35620609Y-142044840D01*
X35587556Y-142047964D01*
X35577130Y-142048950D01*
X35565461Y-142049500D01*
X34128864Y-142049500D01*
X34069128Y-142034163D01*
X34032090Y-142013802D01*
X34012691Y-142008821D01*
X33994284Y-142002519D01*
X33975897Y-141994562D01*
X33932758Y-141987729D01*
X33921324Y-141985361D01*
X33879019Y-141974500D01*
X33858984Y-141974500D01*
X33839586Y-141972973D01*
X33832162Y-141971797D01*
X33819805Y-141969840D01*
X33819804Y-141969840D01*
X33794468Y-141972235D01*
X33776325Y-141973950D01*
X33764656Y-141974500D01*
X31082744Y-141974500D01*
X31062237Y-141972235D01*
X30992127Y-141974439D01*
X30988232Y-141974500D01*
X30960650Y-141974500D01*
X30956805Y-141974985D01*
X30956780Y-141974987D01*
X30956653Y-141975004D01*
X30945033Y-141975918D01*
X30901369Y-141977290D01*
X30882129Y-141982880D01*
X30863081Y-141986825D01*
X30843209Y-141989335D01*
X30802599Y-142005413D01*
X30791554Y-142009194D01*
X30749610Y-142021381D01*
X30732365Y-142031579D01*
X30714904Y-142040133D01*
X30696267Y-142047512D01*
X30660931Y-142073185D01*
X30651174Y-142079595D01*
X30613580Y-142101829D01*
X30599413Y-142115996D01*
X30584624Y-142128626D01*
X30568413Y-142140404D01*
X30540572Y-142174058D01*
X30532711Y-142182697D01*
X30252227Y-142463182D01*
X30190907Y-142496666D01*
X30164548Y-142499500D01*
X30105352Y-142499500D01*
X29920197Y-142538855D01*
X29747269Y-142615848D01*
X29594129Y-142727110D01*
X29467466Y-142867783D01*
X29372820Y-143031715D01*
X29314326Y-143211742D01*
X29294540Y-143400000D01*
X29314326Y-143588257D01*
X29372820Y-143768284D01*
X29467466Y-143932216D01*
X29594129Y-144072889D01*
X29681545Y-144136400D01*
X29724211Y-144191730D01*
X29730190Y-144261343D01*
X29700810Y-144319690D01*
X29567466Y-144467783D01*
X29472820Y-144631715D01*
X29414326Y-144811742D01*
X29394540Y-145000000D01*
X29414326Y-145188257D01*
X29472820Y-145368284D01*
X29567466Y-145532216D01*
X29694129Y-145672889D01*
X29847269Y-145784151D01*
X30020197Y-145861144D01*
X30205352Y-145900500D01*
X30205354Y-145900500D01*
X30394648Y-145900500D01*
X30518083Y-145874262D01*
X30579803Y-145861144D01*
X30752730Y-145784151D01*
X30779872Y-145764431D01*
X30905870Y-145672889D01*
X30928778Y-145647447D01*
X30989704Y-145579781D01*
X31049190Y-145543133D01*
X31119047Y-145544463D01*
X31177096Y-145583350D01*
X31204906Y-145647447D01*
X31199785Y-145701071D01*
X31163827Y-145811740D01*
X31163826Y-145811744D01*
X31146179Y-145979649D01*
X31119594Y-146044263D01*
X31110539Y-146054368D01*
X30416208Y-146748699D01*
X30400110Y-146761596D01*
X30352096Y-146812725D01*
X30349392Y-146815516D01*
X30332628Y-146832280D01*
X30332621Y-146832287D01*
X30329880Y-146835029D01*
X30327499Y-146838097D01*
X30327490Y-146838108D01*
X30327411Y-146838211D01*
X30319842Y-146847072D01*
X30289935Y-146878920D01*
X30280285Y-146896474D01*
X30269609Y-146912728D01*
X30257326Y-146928563D01*
X30239975Y-146968658D01*
X30234838Y-146979144D01*
X30213802Y-147017407D01*
X30208821Y-147036809D01*
X30202520Y-147055211D01*
X30194561Y-147073602D01*
X30187728Y-147116742D01*
X30185360Y-147128174D01*
X30174500Y-147170477D01*
X30174500Y-147190516D01*
X30172973Y-147209914D01*
X30169840Y-147229694D01*
X30173950Y-147273173D01*
X30174500Y-147284843D01*
X30174500Y-151226000D01*
X30154815Y-151293039D01*
X30102011Y-151338794D01*
X30050500Y-151350000D01*
X20307240Y-151350000D01*
X20286736Y-151347736D01*
X20216644Y-151349939D01*
X20212750Y-151350000D01*
X20185150Y-151350000D01*
X20181299Y-151350486D01*
X20181268Y-151350488D01*
X20181140Y-151350505D01*
X20169528Y-151351418D01*
X20125868Y-151352790D01*
X20106628Y-151358380D01*
X20087581Y-151362325D01*
X20067709Y-151364835D01*
X20027099Y-151380913D01*
X20016054Y-151384694D01*
X19974111Y-151396880D01*
X19956869Y-151407078D01*
X19939397Y-151415638D01*
X19920766Y-151423014D01*
X19885438Y-151448681D01*
X19875680Y-151455091D01*
X19838079Y-151477329D01*
X19823910Y-151491498D01*
X19809122Y-151504128D01*
X19792913Y-151515905D01*
X19765072Y-151549558D01*
X19757211Y-151558196D01*
X14652228Y-156663181D01*
X14590905Y-156696666D01*
X14564547Y-156699500D01*
X14505352Y-156699500D01*
X14320197Y-156738855D01*
X14147269Y-156815848D01*
X13994129Y-156927110D01*
X13867466Y-157067783D01*
X13772820Y-157231715D01*
X13714326Y-157411742D01*
X13694540Y-157600000D01*
X13714326Y-157788257D01*
X13772820Y-157968284D01*
X13867464Y-158132213D01*
X13867467Y-158132216D01*
X13961264Y-158236388D01*
X13991494Y-158299379D01*
X13982869Y-158368714D01*
X13941999Y-158419678D01*
X13794129Y-158527110D01*
X13667466Y-158667783D01*
X13572820Y-158831715D01*
X13514326Y-159011742D01*
X13494540Y-159200000D01*
X13514326Y-159388257D01*
X13572820Y-159568284D01*
X13667466Y-159732216D01*
X13794129Y-159872889D01*
X13947269Y-159984151D01*
X14120197Y-160061144D01*
X14305352Y-160100500D01*
X14305354Y-160100500D01*
X14494648Y-160100500D01*
X14642617Y-160069048D01*
X14679803Y-160061144D01*
X14852730Y-159984151D01*
X14879717Y-159964544D01*
X15005870Y-159872889D01*
X15132533Y-159732216D01*
X15227179Y-159568284D01*
X15238736Y-159532714D01*
X15285674Y-159388256D01*
X15303321Y-159220345D01*
X15329905Y-159155732D01*
X15338952Y-159145636D01*
X21122271Y-153362319D01*
X21183595Y-153328834D01*
X21209953Y-153326000D01*
X21909786Y-153326000D01*
X21976825Y-153345685D01*
X22022580Y-153398489D01*
X22032524Y-153467647D01*
X22003499Y-153531203D01*
X21972909Y-153556731D01*
X21938079Y-153577330D01*
X21923910Y-153591498D01*
X21909122Y-153604128D01*
X21892913Y-153615905D01*
X21865072Y-153649558D01*
X21857211Y-153658196D01*
X14602226Y-160913181D01*
X14540903Y-160946666D01*
X14514545Y-160949500D01*
X13005439Y-160949500D01*
X13005420Y-160949500D01*
X13002128Y-160949501D01*
X12998848Y-160949853D01*
X12998840Y-160949854D01*
X12942515Y-160955909D01*
X12807669Y-161006204D01*
X12692454Y-161092454D01*
X12606204Y-161207668D01*
X12555910Y-161342515D01*
X12555909Y-161342517D01*
X12549500Y-161402127D01*
X12549500Y-161405448D01*
X12549500Y-161405449D01*
X12549500Y-163594560D01*
X12549500Y-163594578D01*
X12549501Y-163597872D01*
X12555909Y-163657483D01*
X12606204Y-163792331D01*
X12692454Y-163907546D01*
X12807669Y-163993796D01*
X12942517Y-164044091D01*
X13002127Y-164050500D01*
X15197872Y-164050499D01*
X15257483Y-164044091D01*
X15392331Y-163993796D01*
X15507546Y-163907546D01*
X15593796Y-163792331D01*
X15644091Y-163657483D01*
X15650500Y-163597873D01*
X15650500Y-163594578D01*
X16749500Y-163594578D01*
X16749501Y-163597872D01*
X16755909Y-163657483D01*
X16806204Y-163792331D01*
X16892454Y-163907546D01*
X17007669Y-163993796D01*
X17142517Y-164044091D01*
X17202127Y-164050500D01*
X19397872Y-164050499D01*
X19457483Y-164044091D01*
X19592331Y-163993796D01*
X19707546Y-163907546D01*
X19793796Y-163792331D01*
X19844091Y-163657483D01*
X19850500Y-163597873D01*
X19850499Y-161402128D01*
X19844091Y-161342517D01*
X19793796Y-161207669D01*
X19707546Y-161092454D01*
X19592331Y-161006204D01*
X19457483Y-160955909D01*
X19397873Y-160949500D01*
X19394550Y-160949500D01*
X17205439Y-160949500D01*
X17205420Y-160949500D01*
X17202128Y-160949501D01*
X17198848Y-160949853D01*
X17198840Y-160949854D01*
X17142515Y-160955909D01*
X17007669Y-161006204D01*
X16892454Y-161092454D01*
X16806204Y-161207668D01*
X16755910Y-161342515D01*
X16755909Y-161342517D01*
X16749500Y-161402127D01*
X16749500Y-161405448D01*
X16749500Y-161405449D01*
X16749500Y-163594560D01*
X16749500Y-163594578D01*
X15650500Y-163594578D01*
X15650499Y-161685451D01*
X15670184Y-161618413D01*
X15686813Y-161597776D01*
X22547271Y-154737319D01*
X22608595Y-154703834D01*
X22634953Y-154701000D01*
X28115047Y-154701000D01*
X28182086Y-154720685D01*
X28227841Y-154773489D01*
X28237785Y-154842647D01*
X28208760Y-154906203D01*
X28202728Y-154912681D01*
X22202226Y-160913181D01*
X22140903Y-160946666D01*
X22114545Y-160949500D01*
X20605439Y-160949500D01*
X20605420Y-160949500D01*
X20602128Y-160949501D01*
X20598848Y-160949853D01*
X20598840Y-160949854D01*
X20542515Y-160955909D01*
X20407669Y-161006204D01*
X20292454Y-161092454D01*
X20206204Y-161207668D01*
X20155910Y-161342515D01*
X20155909Y-161342517D01*
X20149500Y-161402127D01*
X20149500Y-161405448D01*
X20149500Y-161405449D01*
X20149500Y-163594560D01*
X20149500Y-163594578D01*
X20149501Y-163597872D01*
X20155909Y-163657483D01*
X20206204Y-163792331D01*
X20292454Y-163907546D01*
X20407669Y-163993796D01*
X20542517Y-164044091D01*
X20602127Y-164050500D01*
X22797872Y-164050499D01*
X22857483Y-164044091D01*
X22992331Y-163993796D01*
X23107546Y-163907546D01*
X23193796Y-163792331D01*
X23244091Y-163657483D01*
X23250500Y-163597873D01*
X23250500Y-163594578D01*
X24349500Y-163594578D01*
X24349501Y-163597872D01*
X24355909Y-163657483D01*
X24406204Y-163792331D01*
X24492454Y-163907546D01*
X24607669Y-163993796D01*
X24742517Y-164044091D01*
X24802127Y-164050500D01*
X26997872Y-164050499D01*
X27057483Y-164044091D01*
X27192331Y-163993796D01*
X27307546Y-163907546D01*
X27393796Y-163792331D01*
X27444091Y-163657483D01*
X27450500Y-163597873D01*
X27450500Y-163594578D01*
X27749500Y-163594578D01*
X27749501Y-163597872D01*
X27755909Y-163657483D01*
X27806204Y-163792331D01*
X27892454Y-163907546D01*
X28007669Y-163993796D01*
X28142517Y-164044091D01*
X28202127Y-164050500D01*
X30397872Y-164050499D01*
X30457483Y-164044091D01*
X30592331Y-163993796D01*
X30707546Y-163907546D01*
X30793796Y-163792331D01*
X30844091Y-163657483D01*
X30850500Y-163597873D01*
X30850500Y-163594578D01*
X31949500Y-163594578D01*
X31949501Y-163597872D01*
X31955909Y-163657483D01*
X32006204Y-163792331D01*
X32092454Y-163907546D01*
X32207669Y-163993796D01*
X32342517Y-164044091D01*
X32402127Y-164050500D01*
X34597872Y-164050499D01*
X34657483Y-164044091D01*
X34792331Y-163993796D01*
X34907546Y-163907546D01*
X34993796Y-163792331D01*
X35044091Y-163657483D01*
X35050500Y-163597873D01*
X35050499Y-161402128D01*
X35044091Y-161342517D01*
X34993796Y-161207669D01*
X34907546Y-161092454D01*
X34792331Y-161006204D01*
X34657483Y-160955909D01*
X34597873Y-160949500D01*
X34594550Y-160949500D01*
X32405439Y-160949500D01*
X32405420Y-160949500D01*
X32402128Y-160949501D01*
X32398848Y-160949853D01*
X32398840Y-160949854D01*
X32342515Y-160955909D01*
X32207669Y-161006204D01*
X32092454Y-161092454D01*
X32006204Y-161207668D01*
X31955910Y-161342515D01*
X31955909Y-161342517D01*
X31949500Y-161402127D01*
X31949500Y-161405448D01*
X31949500Y-161405449D01*
X31949500Y-163594560D01*
X31949500Y-163594578D01*
X30850500Y-163594578D01*
X30850499Y-161402128D01*
X30844091Y-161342517D01*
X30793796Y-161207669D01*
X30707546Y-161092454D01*
X30592331Y-161006204D01*
X30592328Y-161006203D01*
X30578058Y-160995520D01*
X30580550Y-160992190D01*
X30550219Y-160969476D01*
X30525813Y-160904007D01*
X30525499Y-160895182D01*
X30525499Y-159388256D01*
X30525499Y-157798683D01*
X30545184Y-157731648D01*
X30557350Y-157715714D01*
X30632533Y-157632216D01*
X30727179Y-157468284D01*
X30785674Y-157288256D01*
X30805460Y-157100000D01*
X30785674Y-156911744D01*
X30727179Y-156731716D01*
X30727179Y-156731715D01*
X30632533Y-156567783D01*
X30505870Y-156427110D01*
X30352730Y-156315848D01*
X30179802Y-156238855D01*
X29994648Y-156199500D01*
X29994646Y-156199500D01*
X29805354Y-156199500D01*
X29805352Y-156199500D01*
X29620197Y-156238855D01*
X29447269Y-156315848D01*
X29294129Y-156427110D01*
X29167466Y-156567783D01*
X29072820Y-156731715D01*
X29014326Y-156911742D01*
X28994540Y-157100000D01*
X29014326Y-157288257D01*
X29072820Y-157468284D01*
X29167464Y-157632213D01*
X29242650Y-157715714D01*
X29272880Y-157778706D01*
X29274500Y-157798687D01*
X29274500Y-160825500D01*
X29254815Y-160892539D01*
X29202011Y-160938294D01*
X29150500Y-160949500D01*
X28205439Y-160949500D01*
X28205420Y-160949500D01*
X28202128Y-160949501D01*
X28198848Y-160949853D01*
X28198840Y-160949854D01*
X28142515Y-160955909D01*
X28007669Y-161006204D01*
X27892454Y-161092454D01*
X27806204Y-161207668D01*
X27755910Y-161342515D01*
X27755909Y-161342517D01*
X27749500Y-161402127D01*
X27749500Y-161405448D01*
X27749500Y-161405449D01*
X27749500Y-163594560D01*
X27749500Y-163594578D01*
X27450500Y-163594578D01*
X27450499Y-161402128D01*
X27444091Y-161342517D01*
X27393796Y-161207669D01*
X27307546Y-161092454D01*
X27192331Y-161006204D01*
X27057483Y-160955909D01*
X26997873Y-160949500D01*
X26994550Y-160949500D01*
X24805439Y-160949500D01*
X24805420Y-160949500D01*
X24802128Y-160949501D01*
X24798848Y-160949853D01*
X24798840Y-160949854D01*
X24742515Y-160955909D01*
X24607669Y-161006204D01*
X24492454Y-161092454D01*
X24406204Y-161207668D01*
X24355910Y-161342515D01*
X24355909Y-161342517D01*
X24349500Y-161402127D01*
X24349500Y-161405448D01*
X24349500Y-161405449D01*
X24349500Y-163594560D01*
X24349500Y-163594578D01*
X23250500Y-163594578D01*
X23250499Y-161685451D01*
X23270184Y-161618413D01*
X23286813Y-161597776D01*
X29422771Y-155461819D01*
X29484095Y-155428334D01*
X29510453Y-155425500D01*
X34036753Y-155425500D01*
X34103792Y-155445185D01*
X34128900Y-155466526D01*
X34134629Y-155472888D01*
X34227147Y-155540106D01*
X34253419Y-155559194D01*
X34296084Y-155614524D01*
X34302063Y-155684138D01*
X34269457Y-155745933D01*
X34268214Y-155747193D01*
X33852228Y-156163181D01*
X33790905Y-156196666D01*
X33764547Y-156199500D01*
X33705352Y-156199500D01*
X33520197Y-156238855D01*
X33347269Y-156315848D01*
X33194129Y-156427110D01*
X33067466Y-156567783D01*
X32972820Y-156731715D01*
X32914326Y-156911742D01*
X32894540Y-157100000D01*
X32914326Y-157288257D01*
X32972820Y-157468284D01*
X33067466Y-157632216D01*
X33194129Y-157772889D01*
X33347269Y-157884151D01*
X33520197Y-157961144D01*
X33705352Y-158000500D01*
X33705354Y-158000500D01*
X33764548Y-158000500D01*
X33831587Y-158020185D01*
X33852229Y-158036819D01*
X36038181Y-160222771D01*
X36071666Y-160284094D01*
X36074500Y-160310452D01*
X36074500Y-160825500D01*
X36054815Y-160892539D01*
X36002011Y-160938294D01*
X35950501Y-160949500D01*
X35805439Y-160949500D01*
X35805420Y-160949500D01*
X35802128Y-160949501D01*
X35798848Y-160949853D01*
X35798840Y-160949854D01*
X35742515Y-160955909D01*
X35607669Y-161006204D01*
X35492454Y-161092454D01*
X35406204Y-161207668D01*
X35355910Y-161342515D01*
X35355909Y-161342517D01*
X35349500Y-161402127D01*
X35349500Y-161405448D01*
X35349500Y-161405449D01*
X35349500Y-163594560D01*
X35349500Y-163594578D01*
X35349501Y-163597872D01*
X35355909Y-163657483D01*
X35406204Y-163792331D01*
X35492454Y-163907546D01*
X35607669Y-163993796D01*
X35742517Y-164044091D01*
X35802127Y-164050500D01*
X37997872Y-164050499D01*
X38057483Y-164044091D01*
X38192331Y-163993796D01*
X38307546Y-163907546D01*
X38393796Y-163792331D01*
X38444091Y-163657483D01*
X38450500Y-163597873D01*
X38450499Y-161402128D01*
X38444091Y-161342517D01*
X38393796Y-161207669D01*
X38307546Y-161092454D01*
X38192331Y-161006204D01*
X38057483Y-160955909D01*
X37997873Y-160949500D01*
X37994551Y-160949500D01*
X37449500Y-160949500D01*
X37382461Y-160929815D01*
X37336706Y-160877011D01*
X37325500Y-160825500D01*
X37325500Y-160082739D01*
X37327763Y-160062238D01*
X37325561Y-159992144D01*
X37325500Y-159988250D01*
X37325500Y-159964544D01*
X37325500Y-159960650D01*
X37324998Y-159956681D01*
X37324080Y-159945024D01*
X37322709Y-159901373D01*
X37317120Y-159882137D01*
X37313176Y-159863093D01*
X37310664Y-159843208D01*
X37294582Y-159802591D01*
X37290798Y-159791540D01*
X37278617Y-159749610D01*
X37268421Y-159732369D01*
X37259863Y-159714902D01*
X37252486Y-159696268D01*
X37226798Y-159660912D01*
X37220409Y-159651184D01*
X37198170Y-159613579D01*
X37184006Y-159599414D01*
X37171369Y-159584620D01*
X37159595Y-159568414D01*
X37159438Y-159568284D01*
X37125935Y-159540568D01*
X37117305Y-159532714D01*
X34772271Y-157187680D01*
X34738786Y-157126357D01*
X34743770Y-157056665D01*
X34772269Y-157012320D01*
X36409289Y-155375300D01*
X36425385Y-155362406D01*
X36427373Y-155360287D01*
X36427377Y-155360286D01*
X36473449Y-155311223D01*
X36476034Y-155308555D01*
X36495620Y-155288971D01*
X36498085Y-155285792D01*
X36505667Y-155276916D01*
X36535562Y-155245082D01*
X36545217Y-155227518D01*
X36555894Y-155211264D01*
X36568173Y-155195436D01*
X36585518Y-155155352D01*
X36590660Y-155144856D01*
X36611697Y-155106592D01*
X36616679Y-155087184D01*
X36622981Y-155068780D01*
X36630937Y-155050396D01*
X36637769Y-155007252D01*
X36640133Y-154995838D01*
X36651000Y-154953519D01*
X36651000Y-154933482D01*
X36652527Y-154914082D01*
X36653950Y-154905099D01*
X36683881Y-154841965D01*
X36743194Y-154805035D01*
X36776423Y-154800500D01*
X36844648Y-154800500D01*
X36971724Y-154773489D01*
X37029803Y-154761144D01*
X37202730Y-154684151D01*
X37355871Y-154572888D01*
X37482533Y-154432216D01*
X37577179Y-154268284D01*
X37635674Y-154088256D01*
X37653321Y-153920345D01*
X37679905Y-153855732D01*
X37688952Y-153845636D01*
X41808789Y-149725800D01*
X41824885Y-149712906D01*
X41826873Y-149710787D01*
X41826877Y-149710786D01*
X41872949Y-149661723D01*
X41875534Y-149659055D01*
X41895120Y-149639471D01*
X41897309Y-149636647D01*
X41956349Y-149599417D01*
X42026216Y-149600016D01*
X42084668Y-149638293D01*
X42113147Y-149702095D01*
X42114246Y-149716689D01*
X42293388Y-160823500D01*
X42274787Y-160890848D01*
X42222728Y-160937449D01*
X42169404Y-160949500D01*
X40005439Y-160949500D01*
X40005420Y-160949500D01*
X40002128Y-160949501D01*
X39998848Y-160949853D01*
X39998840Y-160949854D01*
X39942515Y-160955909D01*
X39807669Y-161006204D01*
X39692454Y-161092454D01*
X39606204Y-161207668D01*
X39555910Y-161342515D01*
X39555909Y-161342517D01*
X39549500Y-161402127D01*
X39549500Y-161405448D01*
X39549500Y-161405449D01*
X39549500Y-163594560D01*
X39549500Y-163594578D01*
X39549501Y-163597872D01*
X39555909Y-163657483D01*
X39606204Y-163792331D01*
X39692454Y-163907546D01*
X39807669Y-163993796D01*
X39942517Y-164044091D01*
X40002127Y-164050500D01*
X42197872Y-164050499D01*
X42210126Y-164049181D01*
X42278883Y-164061582D01*
X42330024Y-164109190D01*
X42347370Y-164170470D01*
X42692582Y-185573500D01*
X42673981Y-185640848D01*
X42621922Y-185687449D01*
X42568598Y-185699500D01*
X-2568598Y-185699500D01*
X-2635637Y-185679815D01*
X-2681392Y-185627011D01*
X-2692582Y-185573500D01*
X-2347371Y-164170471D01*
X-2326608Y-164103758D01*
X-2273073Y-164058861D01*
X-2210131Y-164049182D01*
X-2197873Y-164050500D01*
X-2128Y-164050499D01*
X57483Y-164044091D01*
X192331Y-163993796D01*
X307546Y-163907546D01*
X393796Y-163792331D01*
X444091Y-163657483D01*
X450500Y-163597873D01*
X450500Y-163594578D01*
X1549500Y-163594578D01*
X1549501Y-163597872D01*
X1555909Y-163657483D01*
X1606204Y-163792331D01*
X1692454Y-163907546D01*
X1807669Y-163993796D01*
X1942517Y-164044091D01*
X2002127Y-164050500D01*
X4197872Y-164050499D01*
X4257483Y-164044091D01*
X4392331Y-163993796D01*
X4507546Y-163907546D01*
X4593796Y-163792331D01*
X4644091Y-163657483D01*
X4650500Y-163597873D01*
X4650500Y-163594578D01*
X4949500Y-163594578D01*
X4949501Y-163597872D01*
X4955909Y-163657483D01*
X5006204Y-163792331D01*
X5092454Y-163907546D01*
X5207669Y-163993796D01*
X5342517Y-164044091D01*
X5402127Y-164050500D01*
X7597872Y-164050499D01*
X7657483Y-164044091D01*
X7792331Y-163993796D01*
X7907546Y-163907546D01*
X7993796Y-163792331D01*
X8044091Y-163657483D01*
X8050500Y-163597873D01*
X8050500Y-163594578D01*
X9149500Y-163594578D01*
X9149501Y-163597872D01*
X9155909Y-163657483D01*
X9206204Y-163792331D01*
X9292454Y-163907546D01*
X9407669Y-163993796D01*
X9542517Y-164044091D01*
X9602127Y-164050500D01*
X11797872Y-164050499D01*
X11857483Y-164044091D01*
X11992331Y-163993796D01*
X12107546Y-163907546D01*
X12193796Y-163792331D01*
X12244091Y-163657483D01*
X12250500Y-163597873D01*
X12250499Y-161402128D01*
X12244091Y-161342517D01*
X12193796Y-161207669D01*
X12107546Y-161092454D01*
X11992331Y-161006204D01*
X11857483Y-160955909D01*
X11797873Y-160949500D01*
X11794550Y-160949500D01*
X9605439Y-160949500D01*
X9605420Y-160949500D01*
X9602128Y-160949501D01*
X9598848Y-160949853D01*
X9598840Y-160949854D01*
X9542515Y-160955909D01*
X9407669Y-161006204D01*
X9292454Y-161092454D01*
X9206204Y-161207668D01*
X9155910Y-161342515D01*
X9155909Y-161342517D01*
X9149500Y-161402127D01*
X9149500Y-161405448D01*
X9149500Y-161405449D01*
X9149500Y-163594560D01*
X9149500Y-163594578D01*
X8050500Y-163594578D01*
X8050499Y-161402128D01*
X8044091Y-161342517D01*
X7993796Y-161207669D01*
X7907546Y-161092454D01*
X7792331Y-161006204D01*
X7657483Y-160955909D01*
X7597873Y-160949500D01*
X7594550Y-160949500D01*
X5405439Y-160949500D01*
X5405420Y-160949500D01*
X5402128Y-160949501D01*
X5398848Y-160949853D01*
X5398840Y-160949854D01*
X5342515Y-160955909D01*
X5207669Y-161006204D01*
X5092454Y-161092454D01*
X5006204Y-161207668D01*
X4955910Y-161342515D01*
X4955909Y-161342517D01*
X4949500Y-161402127D01*
X4949500Y-161405448D01*
X4949500Y-161405449D01*
X4949500Y-163594560D01*
X4949500Y-163594578D01*
X4650500Y-163594578D01*
X4650499Y-161402128D01*
X4644091Y-161342517D01*
X4593796Y-161207669D01*
X4507546Y-161092454D01*
X4392331Y-161006204D01*
X4257483Y-160955909D01*
X4197873Y-160949500D01*
X4194550Y-160949500D01*
X2005439Y-160949500D01*
X2005420Y-160949500D01*
X2002128Y-160949501D01*
X1998848Y-160949853D01*
X1998840Y-160949854D01*
X1942515Y-160955909D01*
X1807669Y-161006204D01*
X1692454Y-161092454D01*
X1606204Y-161207668D01*
X1555910Y-161342515D01*
X1555909Y-161342517D01*
X1549500Y-161402127D01*
X1549500Y-161405448D01*
X1549500Y-161405449D01*
X1549500Y-163594560D01*
X1549500Y-163594578D01*
X450500Y-163594578D01*
X450499Y-161402128D01*
X444091Y-161342517D01*
X393796Y-161207669D01*
X307546Y-161092454D01*
X192331Y-161006204D01*
X57483Y-160955909D01*
X-2127Y-160949500D01*
X-5448Y-160949500D01*
X-5449Y-160949500D01*
X-2169404Y-160949500D01*
X-2236443Y-160929815D01*
X-2282198Y-160877011D01*
X-2293388Y-160823500D01*
X-2090708Y-148257318D01*
X-1300500Y-148257318D01*
X-1261066Y-148569473D01*
X-1182819Y-148874225D01*
X-1066994Y-149166766D01*
X-915416Y-149442484D01*
X-730478Y-149697030D01*
X-515094Y-149926390D01*
X-272663Y-150126947D01*
X-7007Y-150295537D01*
X277685Y-150429503D01*
X576921Y-150526731D01*
X885985Y-150585688D01*
X1121417Y-150600500D01*
X1123378Y-150600500D01*
X1276622Y-150600500D01*
X1278583Y-150600500D01*
X1514015Y-150585688D01*
X1823079Y-150526731D01*
X2122315Y-150429503D01*
X2407007Y-150295537D01*
X2672663Y-150126947D01*
X2915094Y-149926390D01*
X3130478Y-149697030D01*
X3315416Y-149442484D01*
X3466994Y-149166766D01*
X3582819Y-148874225D01*
X3661066Y-148569473D01*
X3700500Y-148257318D01*
X3700500Y-147942682D01*
X3661066Y-147630527D01*
X3582819Y-147325775D01*
X3466994Y-147033234D01*
X3315416Y-146757516D01*
X3130478Y-146502970D01*
X2915094Y-146273610D01*
X2811919Y-146188256D01*
X2675665Y-146075536D01*
X2675660Y-146075532D01*
X2672663Y-146073053D01*
X2669375Y-146070966D01*
X2669369Y-146070962D01*
X2557550Y-146000000D01*
X13694540Y-146000000D01*
X13714326Y-146188257D01*
X13772820Y-146368284D01*
X13867466Y-146532216D01*
X13994129Y-146672889D01*
X14147269Y-146784151D01*
X14320197Y-146861144D01*
X14505352Y-146900500D01*
X14505354Y-146900500D01*
X14694648Y-146900500D01*
X14818084Y-146874262D01*
X14879803Y-146861144D01*
X15052730Y-146784151D01*
X15205871Y-146672888D01*
X15332533Y-146532216D01*
X15427179Y-146368284D01*
X15485674Y-146188256D01*
X15503321Y-146020344D01*
X15529904Y-145955734D01*
X15538951Y-145945638D01*
X17115301Y-144369289D01*
X17176622Y-144335806D01*
X17246314Y-144340790D01*
X17283139Y-144365841D01*
X17283586Y-144365227D01*
X17294126Y-144372884D01*
X17294129Y-144372888D01*
X17447270Y-144484151D01*
X17447271Y-144484151D01*
X17447272Y-144484152D01*
X17620197Y-144561144D01*
X17805352Y-144600500D01*
X17805354Y-144600500D01*
X17994648Y-144600500D01*
X18118084Y-144574262D01*
X18179803Y-144561144D01*
X18352730Y-144484151D01*
X18505871Y-144372888D01*
X18632533Y-144232216D01*
X18727179Y-144068284D01*
X18785674Y-143888256D01*
X18805460Y-143700000D01*
X18785674Y-143511744D01*
X18743230Y-143381115D01*
X18727179Y-143331715D01*
X18632533Y-143167783D01*
X18505870Y-143027110D01*
X18352730Y-142915848D01*
X18179802Y-142838855D01*
X17994648Y-142799500D01*
X17994646Y-142799500D01*
X17805354Y-142799500D01*
X17805352Y-142799500D01*
X17620197Y-142838855D01*
X17447272Y-142915847D01*
X17410033Y-142942903D01*
X17294129Y-143027112D01*
X17288401Y-143033472D01*
X17228916Y-143070121D01*
X17196253Y-143074500D01*
X16982740Y-143074500D01*
X16962236Y-143072236D01*
X16892144Y-143074439D01*
X16888250Y-143074500D01*
X16860650Y-143074500D01*
X16856799Y-143074986D01*
X16856768Y-143074988D01*
X16856640Y-143075005D01*
X16845028Y-143075918D01*
X16801368Y-143077290D01*
X16782128Y-143082880D01*
X16763081Y-143086825D01*
X16743209Y-143089335D01*
X16702599Y-143105413D01*
X16691554Y-143109194D01*
X16649611Y-143121380D01*
X16632369Y-143131578D01*
X16614897Y-143140138D01*
X16596266Y-143147514D01*
X16560938Y-143173181D01*
X16551180Y-143179591D01*
X16513579Y-143201829D01*
X16499410Y-143215998D01*
X16484622Y-143228628D01*
X16468413Y-143240405D01*
X16440572Y-143274058D01*
X16432711Y-143282696D01*
X14652228Y-145063181D01*
X14590905Y-145096666D01*
X14564547Y-145099500D01*
X14505352Y-145099500D01*
X14320197Y-145138855D01*
X14147269Y-145215848D01*
X13994129Y-145327110D01*
X13867466Y-145467783D01*
X13772820Y-145631715D01*
X13714326Y-145811742D01*
X13694540Y-146000000D01*
X2557550Y-146000000D01*
X2410293Y-145906548D01*
X2410288Y-145906545D01*
X2407007Y-145904463D01*
X2122315Y-145770497D01*
X2118612Y-145769293D01*
X2118610Y-145769293D01*
X1826788Y-145674474D01*
X1826786Y-145674473D01*
X1823079Y-145673269D01*
X1819254Y-145672539D01*
X1819249Y-145672538D01*
X1517841Y-145615041D01*
X1517827Y-145615039D01*
X1514015Y-145614312D01*
X1510121Y-145614067D01*
X1280545Y-145599623D01*
X1280531Y-145599622D01*
X1278583Y-145599500D01*
X1121417Y-145599500D01*
X1119469Y-145599622D01*
X1119454Y-145599623D01*
X889878Y-145614067D01*
X889876Y-145614067D01*
X885985Y-145614312D01*
X882174Y-145615038D01*
X882158Y-145615041D01*
X580750Y-145672538D01*
X580741Y-145672540D01*
X576921Y-145673269D01*
X573217Y-145674472D01*
X573211Y-145674474D01*
X281389Y-145769293D01*
X281382Y-145769295D01*
X277685Y-145770497D01*
X274170Y-145772150D01*
X274165Y-145772153D01*
X85050Y-145861144D01*
X-7007Y-145904463D01*
X-10288Y-145906545D01*
X-10293Y-145906548D01*
X-269369Y-146070962D01*
X-269375Y-146070966D01*
X-272663Y-146073053D01*
X-275660Y-146075532D01*
X-275665Y-146075536D01*
X-411919Y-146188256D01*
X-515094Y-146273610D01*
X-730478Y-146502970D01*
X-915416Y-146757516D01*
X-1066994Y-147033234D01*
X-1182819Y-147325775D01*
X-1261066Y-147630527D01*
X-1300500Y-147942682D01*
X-1300500Y-148257318D01*
X-2090708Y-148257318D01*
X-1881275Y-135272499D01*
X-1860512Y-135205786D01*
X-1806977Y-135160889D01*
X-1757295Y-135150499D01*
X347872Y-135150499D01*
X407483Y-135144091D01*
X542331Y-135093796D01*
X657546Y-135007546D01*
X743796Y-134892331D01*
X794091Y-134757483D01*
X800500Y-134697873D01*
X800500Y-134694578D01*
X1899500Y-134694578D01*
X1899501Y-134697872D01*
X1899853Y-134701152D01*
X1899854Y-134701159D01*
X1905909Y-134757484D01*
X1931056Y-134824906D01*
X1956204Y-134892331D01*
X2042454Y-135007546D01*
X2157669Y-135093796D01*
X2292517Y-135144091D01*
X2352127Y-135150500D01*
X4547872Y-135150499D01*
X4607483Y-135144091D01*
X4742331Y-135093796D01*
X4857546Y-135007546D01*
X4943796Y-134892331D01*
X4958818Y-134852053D01*
X5000689Y-134796120D01*
X5066154Y-134771703D01*
X5134427Y-134786555D01*
X5183832Y-134835960D01*
X5191180Y-134852050D01*
X5206204Y-134892331D01*
X5292454Y-135007546D01*
X5407669Y-135093796D01*
X5542517Y-135144091D01*
X5602127Y-135150500D01*
X7797872Y-135150499D01*
X7857483Y-135144091D01*
X7992331Y-135093796D01*
X8107546Y-135007546D01*
X8193796Y-134892331D01*
X8244091Y-134757483D01*
X8250500Y-134697873D01*
X8250499Y-132502128D01*
X8244091Y-132442517D01*
X8193796Y-132307669D01*
X8107546Y-132192454D01*
X7992331Y-132106204D01*
X7857483Y-132055909D01*
X7797873Y-132049500D01*
X7794550Y-132049500D01*
X5605439Y-132049500D01*
X5605420Y-132049500D01*
X5602128Y-132049501D01*
X5598848Y-132049853D01*
X5598840Y-132049854D01*
X5542515Y-132055909D01*
X5407669Y-132106204D01*
X5292454Y-132192454D01*
X5206203Y-132307670D01*
X5191180Y-132347948D01*
X5149308Y-132403880D01*
X5083843Y-132428296D01*
X5015570Y-132413443D01*
X4966166Y-132364037D01*
X4958819Y-132347948D01*
X4943796Y-132307669D01*
X4857546Y-132192454D01*
X4742331Y-132106204D01*
X4607483Y-132055909D01*
X4547873Y-132049500D01*
X4544550Y-132049500D01*
X2355439Y-132049500D01*
X2355420Y-132049500D01*
X2352128Y-132049501D01*
X2348848Y-132049853D01*
X2348840Y-132049854D01*
X2292515Y-132055909D01*
X2157669Y-132106204D01*
X2042454Y-132192454D01*
X1956204Y-132307668D01*
X1905910Y-132442515D01*
X1905909Y-132442517D01*
X1899500Y-132502127D01*
X1899500Y-132505448D01*
X1899500Y-132505449D01*
X1899500Y-134694560D01*
X1899500Y-134694578D01*
X800500Y-134694578D01*
X800499Y-132502128D01*
X794091Y-132442517D01*
X743796Y-132307669D01*
X657546Y-132192454D01*
X542331Y-132106204D01*
X407483Y-132055909D01*
X347873Y-132049500D01*
X344551Y-132049500D01*
X-1703275Y-132049500D01*
X-1770314Y-132029815D01*
X-1816069Y-131977011D01*
X-1827259Y-131923500D01*
X-1827006Y-131907853D01*
X-1607524Y-118300000D01*
X13794540Y-118300000D01*
X13814326Y-118488257D01*
X13872820Y-118668284D01*
X13967466Y-118832216D01*
X14094129Y-118972889D01*
X14247269Y-119084151D01*
X14420197Y-119161144D01*
X14605352Y-119200500D01*
X14605354Y-119200500D01*
X14794648Y-119200500D01*
X14943610Y-119168837D01*
X14979803Y-119161144D01*
X15152730Y-119084151D01*
X15274148Y-118995936D01*
X15305870Y-118972889D01*
X15432533Y-118832216D01*
X15527179Y-118668284D01*
X15536481Y-118639655D01*
X15585674Y-118488256D01*
X15603321Y-118320345D01*
X15629905Y-118255732D01*
X15638952Y-118245636D01*
X17423798Y-116460790D01*
X17485119Y-116427307D01*
X17554811Y-116432291D01*
X17561914Y-116435194D01*
X17620198Y-116461145D01*
X17805352Y-116500500D01*
X17805354Y-116500500D01*
X17994648Y-116500500D01*
X18118084Y-116474262D01*
X18179803Y-116461144D01*
X18352730Y-116384151D01*
X18505871Y-116272888D01*
X18632533Y-116132216D01*
X18727179Y-115968284D01*
X18785674Y-115788256D01*
X18805460Y-115600000D01*
X18785674Y-115411744D01*
X18750802Y-115304420D01*
X18727179Y-115231715D01*
X18632533Y-115067783D01*
X18505870Y-114927110D01*
X18352730Y-114815848D01*
X18179802Y-114738855D01*
X17994648Y-114699500D01*
X17994646Y-114699500D01*
X17805354Y-114699500D01*
X17805352Y-114699500D01*
X17620197Y-114738855D01*
X17447269Y-114815848D01*
X17294128Y-114927111D01*
X17254733Y-114970864D01*
X17208230Y-115003184D01*
X17202605Y-115005411D01*
X17191558Y-115009193D01*
X17149610Y-115021381D01*
X17132365Y-115031579D01*
X17114904Y-115040133D01*
X17096267Y-115047512D01*
X17060931Y-115073185D01*
X17051174Y-115079595D01*
X17013580Y-115101829D01*
X16999413Y-115115996D01*
X16984624Y-115128626D01*
X16968413Y-115140404D01*
X16940572Y-115174058D01*
X16932711Y-115182697D01*
X14752228Y-117363181D01*
X14690905Y-117396666D01*
X14664547Y-117399500D01*
X14605352Y-117399500D01*
X14420197Y-117438855D01*
X14247269Y-117515848D01*
X14094129Y-117627110D01*
X13967466Y-117767783D01*
X13872820Y-117931715D01*
X13814326Y-118111742D01*
X13794540Y-118300000D01*
X-1607524Y-118300000D01*
X-1496226Y-111399500D01*
X-1389339Y-104772499D01*
X-1368576Y-104705786D01*
X-1315041Y-104660889D01*
X-1265359Y-104650499D01*
X847872Y-104650499D01*
X907483Y-104644091D01*
X1042331Y-104593796D01*
X1157546Y-104507546D01*
X1243796Y-104392331D01*
X1294091Y-104257483D01*
X1300500Y-104197873D01*
X1300499Y-102002128D01*
X1294091Y-101942517D01*
X1243796Y-101807669D01*
X1157546Y-101692454D01*
X1042331Y-101606204D01*
X907483Y-101555909D01*
X847873Y-101549500D01*
X844551Y-101549500D01*
X-1211340Y-101549500D01*
X-1278379Y-101529815D01*
X-1324134Y-101477011D01*
X-1335324Y-101423500D01*
X-1335071Y-101407853D01*
X-1103611Y-87057318D01*
X-600500Y-87057318D01*
X-561066Y-87369473D01*
X-482819Y-87674225D01*
X-366994Y-87966766D01*
X-215416Y-88242484D01*
X-30478Y-88497030D01*
X184906Y-88726390D01*
X247304Y-88778010D01*
X349013Y-88862152D01*
X427337Y-88926947D01*
X430627Y-88929035D01*
X430630Y-88929037D01*
X450965Y-88941942D01*
X692993Y-89095537D01*
X977685Y-89229503D01*
X1276921Y-89326731D01*
X1585985Y-89385688D01*
X1821417Y-89400500D01*
X1823378Y-89400500D01*
X1976622Y-89400500D01*
X1978583Y-89400500D01*
X1986530Y-89400000D01*
X13794540Y-89400000D01*
X13814326Y-89588257D01*
X13872820Y-89768284D01*
X13967466Y-89932216D01*
X14094129Y-90072889D01*
X14247269Y-90184151D01*
X14420197Y-90261144D01*
X14605352Y-90300500D01*
X14605354Y-90300500D01*
X14794648Y-90300500D01*
X14918084Y-90274262D01*
X14979803Y-90261144D01*
X15152730Y-90184151D01*
X15193108Y-90154815D01*
X15305870Y-90072889D01*
X15432533Y-89932216D01*
X15527179Y-89768284D01*
X15556348Y-89678511D01*
X15585674Y-89588256D01*
X15603321Y-89420344D01*
X15629904Y-89355734D01*
X15638951Y-89345638D01*
X17323799Y-87660790D01*
X17385120Y-87627307D01*
X17454812Y-87632291D01*
X17461888Y-87635182D01*
X17514371Y-87658550D01*
X17520199Y-87661145D01*
X17705352Y-87700500D01*
X17705354Y-87700500D01*
X17894648Y-87700500D01*
X18036012Y-87670452D01*
X18079803Y-87661144D01*
X18252730Y-87584151D01*
X18405871Y-87472888D01*
X18532533Y-87332216D01*
X18627179Y-87168284D01*
X18685674Y-86988256D01*
X18705460Y-86800000D01*
X18685674Y-86611744D01*
X18628052Y-86434402D01*
X18627179Y-86431715D01*
X18532533Y-86267783D01*
X18405870Y-86127110D01*
X18252730Y-86015848D01*
X18079802Y-85938855D01*
X17894648Y-85899500D01*
X17894646Y-85899500D01*
X17705354Y-85899500D01*
X17705352Y-85899500D01*
X17520197Y-85938855D01*
X17347269Y-86015848D01*
X17194128Y-86127111D01*
X17154733Y-86170863D01*
X17108246Y-86203176D01*
X17102608Y-86205409D01*
X17091544Y-86209198D01*
X17049609Y-86221381D01*
X17032369Y-86231578D01*
X17014897Y-86240138D01*
X16996266Y-86247514D01*
X16960938Y-86273181D01*
X16951180Y-86279591D01*
X16913579Y-86301829D01*
X16899410Y-86315998D01*
X16884622Y-86328628D01*
X16868413Y-86340405D01*
X16840572Y-86374058D01*
X16832711Y-86382696D01*
X14752228Y-88463181D01*
X14690905Y-88496666D01*
X14664547Y-88499500D01*
X14605352Y-88499500D01*
X14420197Y-88538855D01*
X14247269Y-88615848D01*
X14094129Y-88727110D01*
X13967466Y-88867783D01*
X13872820Y-89031715D01*
X13814326Y-89211742D01*
X13794540Y-89400000D01*
X1986530Y-89400000D01*
X2214015Y-89385688D01*
X2523079Y-89326731D01*
X2822315Y-89229503D01*
X3107007Y-89095537D01*
X3372663Y-88926947D01*
X3615094Y-88726390D01*
X3830478Y-88497030D01*
X4015416Y-88242484D01*
X4166994Y-87966766D01*
X4282819Y-87674225D01*
X4361066Y-87369473D01*
X4400500Y-87057318D01*
X4400500Y-86742682D01*
X4361066Y-86430527D01*
X4282819Y-86125775D01*
X4166994Y-85833234D01*
X4015416Y-85557516D01*
X3830478Y-85302970D01*
X3615094Y-85073610D01*
X3513538Y-84989595D01*
X3375665Y-84875536D01*
X3375660Y-84875532D01*
X3372663Y-84873053D01*
X3369375Y-84870966D01*
X3369369Y-84870962D01*
X3110293Y-84706548D01*
X3110288Y-84706545D01*
X3107007Y-84704463D01*
X2822315Y-84570497D01*
X2818612Y-84569293D01*
X2818610Y-84569293D01*
X2526788Y-84474474D01*
X2526786Y-84474473D01*
X2523079Y-84473269D01*
X2519254Y-84472539D01*
X2519249Y-84472538D01*
X2217841Y-84415041D01*
X2217827Y-84415039D01*
X2214015Y-84414312D01*
X2210121Y-84414067D01*
X1980545Y-84399623D01*
X1980531Y-84399622D01*
X1978583Y-84399500D01*
X1821417Y-84399500D01*
X1819469Y-84399622D01*
X1819454Y-84399623D01*
X1589878Y-84414067D01*
X1589876Y-84414067D01*
X1585985Y-84414312D01*
X1582174Y-84415038D01*
X1582158Y-84415041D01*
X1280750Y-84472538D01*
X1280741Y-84472540D01*
X1276921Y-84473269D01*
X1273217Y-84474472D01*
X1273211Y-84474474D01*
X981389Y-84569293D01*
X981382Y-84569295D01*
X977685Y-84570497D01*
X974170Y-84572150D01*
X974165Y-84572153D01*
X696511Y-84702807D01*
X696504Y-84702810D01*
X692993Y-84704463D01*
X689717Y-84706541D01*
X689706Y-84706548D01*
X430630Y-84870962D01*
X430616Y-84870971D01*
X427337Y-84873053D01*
X424346Y-84875526D01*
X424334Y-84875536D01*
X187902Y-85071131D01*
X187897Y-85071135D01*
X184906Y-85073610D01*
X182248Y-85076440D01*
X182241Y-85076447D01*
X7573Y-85262449D01*
X-30478Y-85302970D01*
X-215416Y-85557516D01*
X-366994Y-85833234D01*
X-482819Y-86125775D01*
X-561066Y-86430527D01*
X-600500Y-86742682D01*
X-600500Y-87057318D01*
X-1103611Y-87057318D01*
X-873003Y-72759617D01*
X-866759Y-72372499D01*
X-845996Y-72305786D01*
X-792461Y-72260889D01*
X-742779Y-72250499D01*
X1347872Y-72250499D01*
X1407483Y-72244091D01*
X1542331Y-72193796D01*
X1657546Y-72107546D01*
X1743796Y-71992331D01*
X1794091Y-71857483D01*
X1800500Y-71797873D01*
X1800500Y-71794578D01*
X2899500Y-71794578D01*
X2899501Y-71797872D01*
X2905909Y-71857483D01*
X2956204Y-71992331D01*
X3042454Y-72107546D01*
X3157669Y-72193796D01*
X3292517Y-72244091D01*
X3352127Y-72250500D01*
X5547872Y-72250499D01*
X5607483Y-72244091D01*
X5742331Y-72193796D01*
X5742335Y-72193792D01*
X5756665Y-72188448D01*
X5826357Y-72183464D01*
X5843333Y-72188448D01*
X5857666Y-72193794D01*
X5857669Y-72193796D01*
X5992517Y-72244091D01*
X6052127Y-72250500D01*
X8247872Y-72250499D01*
X8307483Y-72244091D01*
X8442331Y-72193796D01*
X8557546Y-72107546D01*
X8643796Y-71992331D01*
X8694091Y-71857483D01*
X8700500Y-71797873D01*
X8700499Y-69602128D01*
X8694091Y-69542517D01*
X8643796Y-69407669D01*
X8557546Y-69292454D01*
X8442331Y-69206204D01*
X8307483Y-69155909D01*
X8247873Y-69149500D01*
X8244551Y-69149500D01*
X7134451Y-69149500D01*
X7067412Y-69129815D01*
X7021657Y-69077011D01*
X7011713Y-69007853D01*
X7040738Y-68944297D01*
X7046770Y-68937819D01*
X18722772Y-57261819D01*
X18784095Y-57228334D01*
X18810453Y-57225500D01*
X23870211Y-57225500D01*
X23937250Y-57245185D01*
X23983005Y-57297989D01*
X23992949Y-57367147D01*
X23963924Y-57430703D01*
X23943093Y-57449821D01*
X23910937Y-57473182D01*
X23901180Y-57479591D01*
X23863579Y-57501829D01*
X23849410Y-57515998D01*
X23834622Y-57528628D01*
X23818413Y-57540405D01*
X23790572Y-57574058D01*
X23782711Y-57582696D01*
X12252226Y-69113181D01*
X12190903Y-69146666D01*
X12164545Y-69149500D01*
X10255439Y-69149500D01*
X10255420Y-69149500D01*
X10252128Y-69149501D01*
X10248848Y-69149853D01*
X10248840Y-69149854D01*
X10192515Y-69155909D01*
X10057669Y-69206204D01*
X9942454Y-69292454D01*
X9856204Y-69407668D01*
X9805910Y-69542515D01*
X9805909Y-69542517D01*
X9799500Y-69602127D01*
X9799500Y-69605448D01*
X9799500Y-69605449D01*
X9799500Y-71794560D01*
X9799500Y-71794578D01*
X9799501Y-71797872D01*
X9805909Y-71857483D01*
X9856204Y-71992331D01*
X9942454Y-72107546D01*
X10057669Y-72193796D01*
X10192517Y-72244091D01*
X10252127Y-72250500D01*
X12447872Y-72250499D01*
X12507483Y-72244091D01*
X12642331Y-72193796D01*
X12757546Y-72107546D01*
X12757546Y-72107545D01*
X12771818Y-72096862D01*
X12773737Y-72099426D01*
X12806667Y-72074776D01*
X12876359Y-72069792D01*
X12927529Y-72097733D01*
X12928182Y-72096862D01*
X12934242Y-72101398D01*
X12937682Y-72103277D01*
X12939400Y-72105259D01*
X12942452Y-72107544D01*
X12942454Y-72107546D01*
X13057669Y-72193796D01*
X13192517Y-72244091D01*
X13252127Y-72250500D01*
X15447872Y-72250499D01*
X15507483Y-72244091D01*
X15642331Y-72193796D01*
X15757546Y-72107546D01*
X15843796Y-71992331D01*
X15894091Y-71857483D01*
X15900500Y-71797873D01*
X15900500Y-71794578D01*
X16999500Y-71794578D01*
X16999501Y-71797872D01*
X17005909Y-71857483D01*
X17056204Y-71992331D01*
X17142454Y-72107546D01*
X17257669Y-72193796D01*
X17392517Y-72244091D01*
X17452127Y-72250500D01*
X19647872Y-72250499D01*
X19707483Y-72244091D01*
X19842331Y-72193796D01*
X19950689Y-72112678D01*
X20016154Y-72088262D01*
X20084427Y-72103114D01*
X20099309Y-72112678D01*
X20207669Y-72193796D01*
X20342517Y-72244091D01*
X20402127Y-72250500D01*
X22597872Y-72250499D01*
X22657483Y-72244091D01*
X22792331Y-72193796D01*
X22907546Y-72107546D01*
X22993796Y-71992331D01*
X23044091Y-71857483D01*
X23050500Y-71797873D01*
X23050500Y-71794578D01*
X24149500Y-71794578D01*
X24149501Y-71797872D01*
X24155909Y-71857483D01*
X24206204Y-71992331D01*
X24292454Y-72107546D01*
X24407669Y-72193796D01*
X24542517Y-72244091D01*
X24602127Y-72250500D01*
X26797872Y-72250499D01*
X26857483Y-72244091D01*
X26992331Y-72193796D01*
X27100689Y-72112678D01*
X27166154Y-72088262D01*
X27234427Y-72103114D01*
X27249309Y-72112678D01*
X27357669Y-72193796D01*
X27492517Y-72244091D01*
X27552127Y-72250500D01*
X29747872Y-72250499D01*
X29807483Y-72244091D01*
X29942331Y-72193796D01*
X30057546Y-72107546D01*
X30143796Y-71992331D01*
X30194091Y-71857483D01*
X30200500Y-71797873D01*
X30200499Y-69602128D01*
X30194091Y-69542517D01*
X30143796Y-69407669D01*
X30057546Y-69292454D01*
X29942331Y-69206204D01*
X29807483Y-69155909D01*
X29747873Y-69149500D01*
X29744550Y-69149500D01*
X27555439Y-69149500D01*
X27555420Y-69149500D01*
X27552128Y-69149501D01*
X27548848Y-69149853D01*
X27548840Y-69149854D01*
X27492515Y-69155909D01*
X27357667Y-69206204D01*
X27249310Y-69287320D01*
X27183846Y-69311737D01*
X27115573Y-69296885D01*
X27100690Y-69287320D01*
X26992333Y-69206205D01*
X26992331Y-69206204D01*
X26857483Y-69155909D01*
X26797873Y-69149500D01*
X26794550Y-69149500D01*
X24605439Y-69149500D01*
X24605420Y-69149500D01*
X24602128Y-69149501D01*
X24598848Y-69149853D01*
X24598840Y-69149854D01*
X24542515Y-69155909D01*
X24407669Y-69206204D01*
X24292454Y-69292454D01*
X24206204Y-69407668D01*
X24155910Y-69542515D01*
X24155909Y-69542517D01*
X24149500Y-69602127D01*
X24149500Y-69605448D01*
X24149500Y-69605449D01*
X24149500Y-71794560D01*
X24149500Y-71794578D01*
X23050500Y-71794578D01*
X23050499Y-69602128D01*
X23044091Y-69542517D01*
X22993796Y-69407669D01*
X22907546Y-69292454D01*
X22792331Y-69206204D01*
X22657483Y-69155909D01*
X22597873Y-69149500D01*
X22594550Y-69149500D01*
X20405439Y-69149500D01*
X20405420Y-69149500D01*
X20402128Y-69149501D01*
X20398848Y-69149853D01*
X20398840Y-69149854D01*
X20342515Y-69155909D01*
X20207667Y-69206204D01*
X20099310Y-69287320D01*
X20033846Y-69311737D01*
X19965573Y-69296885D01*
X19950690Y-69287320D01*
X19842333Y-69206205D01*
X19842331Y-69206204D01*
X19707483Y-69155909D01*
X19647873Y-69149500D01*
X19644550Y-69149500D01*
X17455439Y-69149500D01*
X17455420Y-69149500D01*
X17452128Y-69149501D01*
X17448848Y-69149853D01*
X17448840Y-69149854D01*
X17392515Y-69155909D01*
X17257669Y-69206204D01*
X17142454Y-69292454D01*
X17056204Y-69407668D01*
X17005910Y-69542515D01*
X17005909Y-69542517D01*
X16999500Y-69602127D01*
X16999500Y-69605448D01*
X16999500Y-69605449D01*
X16999500Y-71794560D01*
X16999500Y-71794578D01*
X15900500Y-71794578D01*
X15900499Y-69602128D01*
X15894091Y-69542517D01*
X15843796Y-69407669D01*
X15757546Y-69292454D01*
X15642331Y-69206204D01*
X15507483Y-69155909D01*
X15447873Y-69149500D01*
X15444551Y-69149500D01*
X14284451Y-69149500D01*
X14217412Y-69129815D01*
X14171657Y-69077011D01*
X14161713Y-69007853D01*
X14190738Y-68944297D01*
X14196770Y-68937819D01*
X24472772Y-58661819D01*
X24534095Y-58628334D01*
X24560453Y-58625500D01*
X25896253Y-58625500D01*
X25963292Y-58645185D01*
X25988400Y-58666526D01*
X25994129Y-58672888D01*
X26147270Y-58784151D01*
X26147271Y-58784151D01*
X26147272Y-58784152D01*
X26320197Y-58861144D01*
X26505352Y-58900500D01*
X26505354Y-58900500D01*
X26694648Y-58900500D01*
X26818083Y-58874262D01*
X26879803Y-58861144D01*
X27052730Y-58784151D01*
X27205871Y-58672888D01*
X27332533Y-58532216D01*
X27427179Y-58368284D01*
X27485674Y-58188256D01*
X27505460Y-58000000D01*
X27485674Y-57811744D01*
X27427179Y-57631716D01*
X27427179Y-57631715D01*
X27332533Y-57467783D01*
X27205870Y-57327110D01*
X27052730Y-57215848D01*
X26879802Y-57138855D01*
X26694648Y-57099500D01*
X26694646Y-57099500D01*
X26505354Y-57099500D01*
X26505353Y-57099500D01*
X26478241Y-57105262D01*
X26408574Y-57099944D01*
X26352841Y-57057805D01*
X26328738Y-56992225D01*
X26334532Y-56945653D01*
X26385674Y-56788256D01*
X26405460Y-56600000D01*
X26385674Y-56411744D01*
X26327179Y-56231716D01*
X26327179Y-56231715D01*
X26232533Y-56067783D01*
X26105870Y-55927110D01*
X25952730Y-55815848D01*
X25779802Y-55738855D01*
X25594648Y-55699500D01*
X25594646Y-55699500D01*
X25405354Y-55699500D01*
X25405352Y-55699500D01*
X25220197Y-55738855D01*
X25047272Y-55815847D01*
X25018023Y-55837098D01*
X24894129Y-55927112D01*
X24888401Y-55933472D01*
X24828916Y-55970121D01*
X24796253Y-55974500D01*
X18582744Y-55974500D01*
X18562237Y-55972235D01*
X18492127Y-55974439D01*
X18488232Y-55974500D01*
X18460650Y-55974500D01*
X18456805Y-55974985D01*
X18456780Y-55974987D01*
X18456653Y-55975004D01*
X18445033Y-55975918D01*
X18401369Y-55977290D01*
X18382129Y-55982880D01*
X18363081Y-55986825D01*
X18343209Y-55989335D01*
X18302599Y-56005413D01*
X18291554Y-56009194D01*
X18249610Y-56021381D01*
X18232365Y-56031579D01*
X18214904Y-56040133D01*
X18196267Y-56047512D01*
X18160931Y-56073185D01*
X18151174Y-56079595D01*
X18113580Y-56101829D01*
X18099413Y-56115996D01*
X18084624Y-56128626D01*
X18068413Y-56140404D01*
X18040572Y-56174058D01*
X18032711Y-56182697D01*
X5102226Y-69113181D01*
X5040903Y-69146666D01*
X5014545Y-69149500D01*
X3355439Y-69149500D01*
X3355420Y-69149500D01*
X3352128Y-69149501D01*
X3348848Y-69149853D01*
X3348840Y-69149854D01*
X3292515Y-69155909D01*
X3157669Y-69206204D01*
X3042454Y-69292454D01*
X2956204Y-69407668D01*
X2905910Y-69542515D01*
X2905909Y-69542517D01*
X2899500Y-69602127D01*
X2899500Y-69605448D01*
X2899500Y-69605449D01*
X2899500Y-71794560D01*
X2899500Y-71794578D01*
X1800500Y-71794578D01*
X1800499Y-69602128D01*
X1794091Y-69542517D01*
X1743796Y-69407669D01*
X1657546Y-69292454D01*
X1542331Y-69206204D01*
X1407483Y-69155909D01*
X1347873Y-69149500D01*
X1344551Y-69149500D01*
X-688759Y-69149500D01*
X-755798Y-69129815D01*
X-801553Y-69077011D01*
X-812743Y-69023500D01*
X-812490Y-69007853D01*
X-602239Y-55972235D01*
X-391396Y-42899999D01*
X26794540Y-42899999D01*
X26814326Y-43088257D01*
X26872820Y-43268284D01*
X26967466Y-43432216D01*
X27094129Y-43572889D01*
X27247269Y-43684151D01*
X27420197Y-43761144D01*
X27605352Y-43800500D01*
X27605354Y-43800500D01*
X27664548Y-43800500D01*
X27731587Y-43820185D01*
X27752228Y-43836818D01*
X28086254Y-44170845D01*
X28399196Y-44483787D01*
X28412096Y-44499888D01*
X28463223Y-44547900D01*
X28466020Y-44550611D01*
X28485529Y-44570120D01*
X28488709Y-44572587D01*
X28497571Y-44580155D01*
X28516109Y-44597564D01*
X28529418Y-44610062D01*
X28546970Y-44619711D01*
X28563238Y-44630397D01*
X28579064Y-44642673D01*
X28619146Y-44660017D01*
X28629633Y-44665155D01*
X28667907Y-44686197D01*
X28676410Y-44688379D01*
X28687308Y-44691178D01*
X28705713Y-44697478D01*
X28724104Y-44705437D01*
X28767250Y-44712270D01*
X28778668Y-44714635D01*
X28820981Y-44725500D01*
X28841016Y-44725500D01*
X28860415Y-44727027D01*
X28880196Y-44730160D01*
X28923674Y-44726050D01*
X28935344Y-44725500D01*
X31050500Y-44725500D01*
X31117539Y-44745185D01*
X31163294Y-44797989D01*
X31174500Y-44849500D01*
X31174500Y-47590547D01*
X31154815Y-47657586D01*
X31102011Y-47703341D01*
X31032853Y-47713285D01*
X30969297Y-47684260D01*
X30962819Y-47678228D01*
X30138960Y-46854369D01*
X30105475Y-46793046D01*
X30103323Y-46779668D01*
X30085674Y-46611744D01*
X30027179Y-46431716D01*
X30027179Y-46431715D01*
X29932533Y-46267783D01*
X29805870Y-46127110D01*
X29652730Y-46015848D01*
X29479802Y-45938855D01*
X29294648Y-45899500D01*
X29294646Y-45899500D01*
X29105354Y-45899500D01*
X29105352Y-45899500D01*
X28920197Y-45938855D01*
X28747269Y-46015848D01*
X28594129Y-46127110D01*
X28467466Y-46267783D01*
X28372820Y-46431715D01*
X28314326Y-46611742D01*
X28294540Y-46799999D01*
X28314326Y-46988257D01*
X28372820Y-47168284D01*
X28467466Y-47332216D01*
X28594129Y-47472889D01*
X28747269Y-47584151D01*
X28920197Y-47661144D01*
X29105352Y-47700500D01*
X29105354Y-47700500D01*
X29164548Y-47700500D01*
X29231587Y-47720185D01*
X29252229Y-47736819D01*
X29354579Y-47839169D01*
X29388064Y-47900492D01*
X29383080Y-47970184D01*
X29341208Y-48026117D01*
X29317334Y-48040129D01*
X29147269Y-48115848D01*
X28994129Y-48227110D01*
X28867466Y-48367783D01*
X28772820Y-48531715D01*
X28714326Y-48711742D01*
X28694540Y-48899999D01*
X28714326Y-49088257D01*
X28772820Y-49268284D01*
X28867466Y-49432216D01*
X28994129Y-49572889D01*
X29147269Y-49684151D01*
X29320194Y-49761143D01*
X29320195Y-49761143D01*
X29320197Y-49761144D01*
X29376280Y-49773064D01*
X29437761Y-49806254D01*
X29471539Y-49867417D01*
X29474500Y-49894354D01*
X29474500Y-50101312D01*
X29454815Y-50168351D01*
X29442650Y-50184284D01*
X29367466Y-50267783D01*
X29272820Y-50431715D01*
X29214326Y-50611742D01*
X29194540Y-50800000D01*
X29214326Y-50988257D01*
X29272820Y-51168284D01*
X29367466Y-51332216D01*
X29494129Y-51472889D01*
X29647269Y-51584151D01*
X29820197Y-51661144D01*
X30005352Y-51700500D01*
X30005354Y-51700500D01*
X30194647Y-51700500D01*
X30253328Y-51688026D01*
X30300218Y-51678060D01*
X30369885Y-51683376D01*
X30425619Y-51725513D01*
X30449724Y-51791092D01*
X30449999Y-51799350D01*
X30449999Y-54501312D01*
X30430314Y-54568351D01*
X30418150Y-54584284D01*
X30342964Y-54667786D01*
X30248320Y-54831715D01*
X30189826Y-55011742D01*
X30170040Y-55199999D01*
X30189826Y-55388257D01*
X30248320Y-55568284D01*
X30342966Y-55732216D01*
X30469629Y-55872889D01*
X30622769Y-55984151D01*
X30795697Y-56061144D01*
X30980852Y-56100500D01*
X31050500Y-56100500D01*
X31117539Y-56120185D01*
X31163294Y-56172989D01*
X31174500Y-56224500D01*
X31174500Y-57001312D01*
X31154815Y-57068351D01*
X31142650Y-57084284D01*
X31067466Y-57167783D01*
X30972820Y-57331715D01*
X30914326Y-57511742D01*
X30894540Y-57699999D01*
X30914326Y-57888257D01*
X30972820Y-58068284D01*
X31067466Y-58232216D01*
X31194129Y-58372889D01*
X31347269Y-58484151D01*
X31520197Y-58561144D01*
X31705352Y-58600500D01*
X31705354Y-58600500D01*
X31894648Y-58600500D01*
X32018084Y-58574262D01*
X32079803Y-58561144D01*
X32252730Y-58484151D01*
X32405871Y-58372888D01*
X32532533Y-58232216D01*
X32627179Y-58068284D01*
X32685674Y-57888256D01*
X32705460Y-57700000D01*
X32685674Y-57511744D01*
X32641482Y-57375735D01*
X32627179Y-57331715D01*
X32532533Y-57167783D01*
X32457350Y-57084284D01*
X32427120Y-57021293D01*
X32425500Y-57001312D01*
X32425500Y-50924500D01*
X32445185Y-50857461D01*
X32497989Y-50811706D01*
X32549500Y-50800500D01*
X32619148Y-50800500D01*
X32742584Y-50774262D01*
X32804303Y-50761144D01*
X32977230Y-50684151D01*
X33130371Y-50572888D01*
X33143743Y-50558035D01*
X33201294Y-50521934D01*
X33217855Y-50517122D01*
X33236918Y-50513174D01*
X33243196Y-50512381D01*
X33256792Y-50510664D01*
X33297407Y-50494582D01*
X33308444Y-50490803D01*
X33350390Y-50478618D01*
X33367629Y-50468422D01*
X33385102Y-50459862D01*
X33403732Y-50452486D01*
X33439064Y-50426814D01*
X33448830Y-50420400D01*
X33486418Y-50398171D01*
X33486417Y-50398171D01*
X33486420Y-50398170D01*
X33500585Y-50384004D01*
X33515373Y-50371373D01*
X33531587Y-50359594D01*
X33559438Y-50325926D01*
X33567279Y-50317309D01*
X34847771Y-49036819D01*
X34909095Y-49003334D01*
X34935453Y-49000500D01*
X34994648Y-49000500D01*
X35149719Y-48967539D01*
X35219386Y-48972855D01*
X35275120Y-49014992D01*
X35299225Y-49080572D01*
X35299500Y-49088829D01*
X35299500Y-53489915D01*
X35279815Y-53556954D01*
X35227011Y-53602709D01*
X35157853Y-53612653D01*
X35149720Y-53611206D01*
X35109743Y-53602709D01*
X35094646Y-53599500D01*
X34905354Y-53599500D01*
X34905352Y-53599500D01*
X34720197Y-53638855D01*
X34547269Y-53715848D01*
X34394129Y-53827110D01*
X34267466Y-53967783D01*
X34172820Y-54131715D01*
X34114326Y-54311742D01*
X34094540Y-54499999D01*
X34114326Y-54688257D01*
X34172820Y-54868284D01*
X34267466Y-55032215D01*
X34341400Y-55114327D01*
X34371630Y-55177318D01*
X34373189Y-55193404D01*
X34374439Y-55233177D01*
X34374500Y-55237072D01*
X34374500Y-55264655D01*
X34374988Y-55268524D01*
X34374989Y-55268530D01*
X34375004Y-55268648D01*
X34375918Y-55280272D01*
X34377290Y-55323931D01*
X34382879Y-55343165D01*
X34386825Y-55362221D01*
X34389335Y-55382097D01*
X34405414Y-55422709D01*
X34409197Y-55433756D01*
X34421382Y-55475696D01*
X34431580Y-55492940D01*
X34440136Y-55510405D01*
X34447514Y-55529037D01*
X34447515Y-55529038D01*
X34473180Y-55564364D01*
X34479593Y-55574127D01*
X34501826Y-55611721D01*
X34501829Y-55611724D01*
X34501830Y-55611725D01*
X34515995Y-55625890D01*
X34528627Y-55640680D01*
X34540406Y-55656892D01*
X34574058Y-55684731D01*
X34582699Y-55692594D01*
X35173891Y-56283787D01*
X35186791Y-56299888D01*
X35237918Y-56347900D01*
X35240715Y-56350611D01*
X35260224Y-56370120D01*
X35263404Y-56372587D01*
X35272266Y-56380155D01*
X35304113Y-56410062D01*
X35307173Y-56411744D01*
X35321667Y-56419712D01*
X35337931Y-56430396D01*
X35349667Y-56439499D01*
X35353759Y-56442673D01*
X35378604Y-56453424D01*
X35393847Y-56460021D01*
X35404326Y-56465154D01*
X35442603Y-56486197D01*
X35462001Y-56491177D01*
X35480403Y-56497477D01*
X35498799Y-56505438D01*
X35541956Y-56512273D01*
X35553359Y-56514634D01*
X35595676Y-56525500D01*
X35615711Y-56525500D01*
X35635108Y-56527026D01*
X35654891Y-56530160D01*
X35698369Y-56526050D01*
X35710039Y-56525500D01*
X36042561Y-56525500D01*
X36063067Y-56527764D01*
X36065970Y-56527672D01*
X36065972Y-56527673D01*
X36133177Y-56525561D01*
X36137073Y-56525500D01*
X36160753Y-56525500D01*
X36164655Y-56525500D01*
X36168618Y-56524999D01*
X36180267Y-56524080D01*
X36223932Y-56522709D01*
X36243164Y-56517120D01*
X36262223Y-56513174D01*
X36269396Y-56512268D01*
X36282097Y-56510664D01*
X36322712Y-56494582D01*
X36333749Y-56490803D01*
X36375695Y-56478618D01*
X36392934Y-56468422D01*
X36410407Y-56459862D01*
X36429037Y-56452486D01*
X36464369Y-56426814D01*
X36474135Y-56420400D01*
X36511723Y-56398171D01*
X36511722Y-56398171D01*
X36511725Y-56398170D01*
X36525890Y-56384004D01*
X36540678Y-56371373D01*
X36556892Y-56359594D01*
X36584743Y-56325926D01*
X36592584Y-56317309D01*
X37008786Y-55901107D01*
X37024881Y-55888215D01*
X37026873Y-55886093D01*
X37026877Y-55886091D01*
X37072949Y-55837028D01*
X37075534Y-55834360D01*
X37095120Y-55814776D01*
X37097585Y-55811597D01*
X37105167Y-55802721D01*
X37135062Y-55770887D01*
X37144717Y-55753323D01*
X37155394Y-55737069D01*
X37167673Y-55721241D01*
X37185018Y-55681157D01*
X37190160Y-55670661D01*
X37197730Y-55656892D01*
X37211197Y-55632397D01*
X37216179Y-55612989D01*
X37222481Y-55594585D01*
X37230437Y-55576201D01*
X37237269Y-55533057D01*
X37239633Y-55521643D01*
X37250500Y-55479324D01*
X37250500Y-55459288D01*
X37252027Y-55439889D01*
X37252998Y-55433756D01*
X37255160Y-55420109D01*
X37251050Y-55376629D01*
X37250500Y-55364960D01*
X37250500Y-44883145D01*
X37252764Y-44862641D01*
X37250561Y-44792528D01*
X37250500Y-44788633D01*
X37250500Y-44764942D01*
X37250500Y-44761052D01*
X37249998Y-44757079D01*
X37249080Y-44745420D01*
X37249073Y-44745185D01*
X37247709Y-44701775D01*
X37242120Y-44682542D01*
X37238174Y-44663484D01*
X37235664Y-44643610D01*
X37235293Y-44642672D01*
X37219777Y-44603486D01*
X37211749Y-44544879D01*
X37217759Y-44487701D01*
X37197973Y-44299445D01*
X37146032Y-44139588D01*
X37139478Y-44119416D01*
X37044832Y-43955484D01*
X36918169Y-43814811D01*
X36765029Y-43703549D01*
X36592101Y-43626556D01*
X36406947Y-43587201D01*
X36406945Y-43587201D01*
X36217653Y-43587201D01*
X36217651Y-43587201D01*
X36032496Y-43626556D01*
X35859568Y-43703549D01*
X35828628Y-43726028D01*
X35762821Y-43749507D01*
X35694767Y-43733680D01*
X35646073Y-43683574D01*
X35637813Y-43664026D01*
X35627380Y-43631917D01*
X35532734Y-43467984D01*
X35406071Y-43327311D01*
X35252931Y-43216049D01*
X35080003Y-43139056D01*
X34894849Y-43099701D01*
X34894847Y-43099701D01*
X34705555Y-43099701D01*
X34705553Y-43099701D01*
X34520398Y-43139056D01*
X34347470Y-43216049D01*
X34194330Y-43327311D01*
X34067667Y-43467984D01*
X33973021Y-43631916D01*
X33914527Y-43811943D01*
X33894741Y-44000201D01*
X33914527Y-44188458D01*
X33973021Y-44368485D01*
X34067667Y-44532417D01*
X34194330Y-44673090D01*
X34347470Y-44784352D01*
X34520398Y-44861345D01*
X34705553Y-44900701D01*
X34705555Y-44900701D01*
X34764749Y-44900701D01*
X34831788Y-44920386D01*
X34852430Y-44937020D01*
X35263181Y-45347771D01*
X35296666Y-45409094D01*
X35299500Y-45435452D01*
X35299500Y-47111170D01*
X35279815Y-47178209D01*
X35227011Y-47223964D01*
X35157853Y-47233908D01*
X35149720Y-47232461D01*
X35052444Y-47211785D01*
X34994646Y-47199500D01*
X34805354Y-47199500D01*
X34805352Y-47199500D01*
X34620197Y-47238855D01*
X34447269Y-47315848D01*
X34294129Y-47427110D01*
X34167466Y-47567783D01*
X34072820Y-47731715D01*
X34014326Y-47911742D01*
X33996679Y-48079649D01*
X33970094Y-48144263D01*
X33961039Y-48154368D01*
X33052942Y-49062465D01*
X32991619Y-49095950D01*
X32921927Y-49090966D01*
X32914826Y-49088064D01*
X32804300Y-49038854D01*
X32619148Y-48999500D01*
X32619146Y-48999500D01*
X32549500Y-48999500D01*
X32482461Y-48979815D01*
X32436706Y-48927011D01*
X32425500Y-48875500D01*
X32425500Y-44170845D01*
X32427697Y-44147607D01*
X32429227Y-44139586D01*
X32425745Y-44084240D01*
X32425500Y-44076454D01*
X32425500Y-44064543D01*
X32425500Y-44060650D01*
X32423516Y-44044951D01*
X32422789Y-44037266D01*
X32419304Y-43981862D01*
X32416777Y-43974086D01*
X32411688Y-43951317D01*
X32410664Y-43943208D01*
X32390233Y-43891606D01*
X32387608Y-43884315D01*
X32370467Y-43831559D01*
X32366087Y-43824657D01*
X32355495Y-43803869D01*
X32352486Y-43796268D01*
X32319870Y-43751377D01*
X32315503Y-43744949D01*
X32285786Y-43698123D01*
X32279833Y-43692533D01*
X32264396Y-43675023D01*
X32259593Y-43668412D01*
X32216861Y-43633061D01*
X32211018Y-43627910D01*
X32170582Y-43589938D01*
X32163415Y-43585998D01*
X32144113Y-43572879D01*
X32137824Y-43567676D01*
X32106749Y-43553053D01*
X32087633Y-43544058D01*
X32080700Y-43540525D01*
X32032093Y-43513803D01*
X32028813Y-43512961D01*
X32024173Y-43511769D01*
X32002223Y-43503866D01*
X31994826Y-43500386D01*
X31994824Y-43500385D01*
X31940356Y-43489994D01*
X31932759Y-43488296D01*
X31879021Y-43474500D01*
X31879019Y-43474500D01*
X31870849Y-43474500D01*
X31847615Y-43472304D01*
X31839587Y-43470772D01*
X31784241Y-43474255D01*
X31776455Y-43474500D01*
X31772371Y-43474500D01*
X31705332Y-43454815D01*
X31659577Y-43402011D01*
X31649633Y-43332853D01*
X31678658Y-43269297D01*
X31699486Y-43250182D01*
X31805870Y-43172889D01*
X31836334Y-43139056D01*
X31932533Y-43032216D01*
X32027179Y-42868284D01*
X32085674Y-42688256D01*
X32103321Y-42520344D01*
X32129904Y-42455734D01*
X32138951Y-42445638D01*
X32933789Y-41650800D01*
X32949885Y-41637906D01*
X32951873Y-41635787D01*
X32951877Y-41635786D01*
X32997949Y-41586723D01*
X33000534Y-41584055D01*
X33020120Y-41564471D01*
X33022585Y-41561292D01*
X33030167Y-41552416D01*
X33060062Y-41520582D01*
X33069717Y-41503018D01*
X33080394Y-41486764D01*
X33092673Y-41470936D01*
X33110018Y-41430852D01*
X33115160Y-41420356D01*
X33136197Y-41382092D01*
X33141179Y-41362684D01*
X33147481Y-41344280D01*
X33155437Y-41325896D01*
X33162269Y-41282752D01*
X33164633Y-41271338D01*
X33175500Y-41229019D01*
X33175500Y-41208982D01*
X33177027Y-41189584D01*
X33180160Y-41169804D01*
X33176047Y-41126303D01*
X33175499Y-41114676D01*
X33175499Y-38074498D01*
X33195184Y-38007460D01*
X33247988Y-37961705D01*
X33299499Y-37950499D01*
X33444561Y-37950499D01*
X33447872Y-37950499D01*
X33507483Y-37944091D01*
X33631668Y-37897772D01*
X33701357Y-37892789D01*
X33718331Y-37897772D01*
X33842517Y-37944091D01*
X33902127Y-37950500D01*
X36097872Y-37950499D01*
X36157483Y-37944091D01*
X36292331Y-37893796D01*
X36407546Y-37807546D01*
X36493796Y-37692331D01*
X36544091Y-37557483D01*
X36550500Y-37497873D01*
X36550499Y-35302128D01*
X36544091Y-35242517D01*
X36493796Y-35107669D01*
X36407546Y-34992454D01*
X36292331Y-34906204D01*
X36157483Y-34855909D01*
X36097873Y-34849500D01*
X36094550Y-34849500D01*
X33905439Y-34849500D01*
X33905420Y-34849500D01*
X33902128Y-34849501D01*
X33898848Y-34849853D01*
X33898840Y-34849854D01*
X33842515Y-34855909D01*
X33718333Y-34902226D01*
X33648641Y-34907210D01*
X33631667Y-34902226D01*
X33507485Y-34855909D01*
X33451166Y-34849854D01*
X33451165Y-34849853D01*
X33447873Y-34849500D01*
X33444550Y-34849500D01*
X31255439Y-34849500D01*
X31255420Y-34849500D01*
X31252128Y-34849501D01*
X31248848Y-34849853D01*
X31248840Y-34849854D01*
X31192515Y-34855909D01*
X31057669Y-34906204D01*
X30942454Y-34992454D01*
X30856204Y-35107668D01*
X30805910Y-35242515D01*
X30805909Y-35242517D01*
X30799500Y-35302127D01*
X30799500Y-35305448D01*
X30799500Y-35305449D01*
X30799500Y-37494560D01*
X30799500Y-37494578D01*
X30799501Y-37497872D01*
X30805909Y-37557483D01*
X30856204Y-37692331D01*
X30942454Y-37807546D01*
X31057669Y-37893796D01*
X31192517Y-37944091D01*
X31252127Y-37950500D01*
X31800500Y-37950499D01*
X31867539Y-37970183D01*
X31913294Y-38022987D01*
X31924500Y-38074499D01*
X31924500Y-40839547D01*
X31904815Y-40906586D01*
X31888181Y-40927228D01*
X31252228Y-41563181D01*
X31190905Y-41596666D01*
X31164547Y-41599500D01*
X31105352Y-41599500D01*
X30920197Y-41638855D01*
X30747269Y-41715848D01*
X30594129Y-41827110D01*
X30467466Y-41967783D01*
X30372820Y-42131715D01*
X30314326Y-42311742D01*
X30294540Y-42499999D01*
X30314326Y-42688257D01*
X30372820Y-42868284D01*
X30467466Y-43032216D01*
X30594129Y-43172889D01*
X30700514Y-43250182D01*
X30743180Y-43305512D01*
X30749159Y-43375125D01*
X30716553Y-43436920D01*
X30655715Y-43471277D01*
X30627629Y-43474500D01*
X29210453Y-43474500D01*
X29143414Y-43454815D01*
X29122772Y-43438181D01*
X28638960Y-42954369D01*
X28605475Y-42893046D01*
X28603323Y-42879668D01*
X28585674Y-42711744D01*
X28527179Y-42531716D01*
X28527179Y-42531715D01*
X28432533Y-42367783D01*
X28305870Y-42227110D01*
X28152730Y-42115848D01*
X27979802Y-42038855D01*
X27794648Y-41999500D01*
X27794646Y-41999500D01*
X27605354Y-41999500D01*
X27605352Y-41999500D01*
X27420197Y-42038855D01*
X27247269Y-42115848D01*
X27094129Y-42227110D01*
X26967466Y-42367783D01*
X26872820Y-42531715D01*
X26814326Y-42711742D01*
X26794540Y-42899999D01*
X-391396Y-42899999D01*
X-313533Y-38072499D01*
X-292770Y-38005786D01*
X-239235Y-37960889D01*
X-189553Y-37950499D01*
X1897872Y-37950499D01*
X1957483Y-37944091D01*
X2092331Y-37893796D01*
X2207546Y-37807546D01*
X2293796Y-37692331D01*
X2344091Y-37557483D01*
X2350500Y-37497873D01*
X2350500Y-37494578D01*
X3449500Y-37494578D01*
X3449501Y-37497872D01*
X3455909Y-37557483D01*
X3506204Y-37692331D01*
X3592454Y-37807546D01*
X3707669Y-37893796D01*
X3842517Y-37944091D01*
X3902127Y-37950500D01*
X6097872Y-37950499D01*
X6157483Y-37944091D01*
X6281668Y-37897772D01*
X6351357Y-37892789D01*
X6368331Y-37897772D01*
X6492517Y-37944091D01*
X6552127Y-37950500D01*
X8747872Y-37950499D01*
X8807483Y-37944091D01*
X8942331Y-37893796D01*
X9057546Y-37807546D01*
X9143796Y-37692331D01*
X9194091Y-37557483D01*
X9200500Y-37497873D01*
X9200500Y-37494578D01*
X10299500Y-37494578D01*
X10299501Y-37497872D01*
X10305909Y-37557483D01*
X10356204Y-37692331D01*
X10442454Y-37807546D01*
X10557669Y-37893796D01*
X10692517Y-37944091D01*
X10752127Y-37950500D01*
X12947872Y-37950499D01*
X13007483Y-37944091D01*
X13106666Y-37907097D01*
X13176357Y-37902114D01*
X13193332Y-37907098D01*
X13292514Y-37944090D01*
X13292517Y-37944091D01*
X13352127Y-37950500D01*
X15547872Y-37950499D01*
X15607483Y-37944091D01*
X15742331Y-37893796D01*
X15857546Y-37807546D01*
X15943796Y-37692331D01*
X15994091Y-37557483D01*
X16000500Y-37497873D01*
X16000500Y-37494578D01*
X17099500Y-37494578D01*
X17099501Y-37497872D01*
X17105909Y-37557483D01*
X17156204Y-37692331D01*
X17242454Y-37807546D01*
X17357669Y-37893796D01*
X17492517Y-37944091D01*
X17552127Y-37950500D01*
X19747872Y-37950499D01*
X19807483Y-37944091D01*
X19942331Y-37893796D01*
X19942335Y-37893792D01*
X19956665Y-37888448D01*
X20026357Y-37883464D01*
X20043333Y-37888448D01*
X20057666Y-37893794D01*
X20057669Y-37893796D01*
X20192517Y-37944091D01*
X20252127Y-37950500D01*
X22447872Y-37950499D01*
X22507483Y-37944091D01*
X22642331Y-37893796D01*
X22757546Y-37807546D01*
X22843796Y-37692331D01*
X22894091Y-37557483D01*
X22900500Y-37497873D01*
X22900500Y-37494578D01*
X23999500Y-37494578D01*
X23999501Y-37497872D01*
X24005909Y-37557483D01*
X24056204Y-37692331D01*
X24142454Y-37807546D01*
X24257669Y-37893796D01*
X24392517Y-37944091D01*
X24452127Y-37950500D01*
X26647872Y-37950499D01*
X26707483Y-37944091D01*
X26806666Y-37907097D01*
X26876357Y-37902114D01*
X26893332Y-37907098D01*
X26992514Y-37944090D01*
X26992517Y-37944091D01*
X27052127Y-37950500D01*
X29247872Y-37950499D01*
X29307483Y-37944091D01*
X29442331Y-37893796D01*
X29557546Y-37807546D01*
X29643796Y-37692331D01*
X29694091Y-37557483D01*
X29700500Y-37497873D01*
X29700499Y-35302128D01*
X29694091Y-35242517D01*
X29643796Y-35107669D01*
X29557546Y-34992454D01*
X29442331Y-34906204D01*
X29307483Y-34855909D01*
X29247873Y-34849500D01*
X29244550Y-34849500D01*
X27055439Y-34849500D01*
X27055420Y-34849500D01*
X27052128Y-34849501D01*
X27048848Y-34849853D01*
X27048840Y-34849854D01*
X26992515Y-34855909D01*
X26893333Y-34892902D01*
X26823641Y-34897886D01*
X26806667Y-34892902D01*
X26707485Y-34855909D01*
X26651166Y-34849854D01*
X26651165Y-34849853D01*
X26647873Y-34849500D01*
X26644550Y-34849500D01*
X24455439Y-34849500D01*
X24455420Y-34849500D01*
X24452128Y-34849501D01*
X24448848Y-34849853D01*
X24448840Y-34849854D01*
X24392515Y-34855909D01*
X24257669Y-34906204D01*
X24142454Y-34992454D01*
X24056204Y-35107668D01*
X24005910Y-35242515D01*
X24005909Y-35242517D01*
X23999500Y-35302127D01*
X23999500Y-35305448D01*
X23999500Y-35305449D01*
X23999500Y-37494560D01*
X23999500Y-37494578D01*
X22900500Y-37494578D01*
X22900499Y-35302128D01*
X22894091Y-35242517D01*
X22843796Y-35107669D01*
X22757546Y-34992454D01*
X22642331Y-34906204D01*
X22507483Y-34855909D01*
X22447873Y-34849500D01*
X22444550Y-34849500D01*
X20255439Y-34849500D01*
X20255420Y-34849500D01*
X20252128Y-34849501D01*
X20248848Y-34849853D01*
X20248840Y-34849854D01*
X20192515Y-34855909D01*
X20043333Y-34911551D01*
X19973641Y-34916535D01*
X19956667Y-34911551D01*
X19807485Y-34855909D01*
X19751166Y-34849854D01*
X19751165Y-34849853D01*
X19747873Y-34849500D01*
X19744550Y-34849500D01*
X17555439Y-34849500D01*
X17555420Y-34849500D01*
X17552128Y-34849501D01*
X17548848Y-34849853D01*
X17548840Y-34849854D01*
X17492515Y-34855909D01*
X17357669Y-34906204D01*
X17242454Y-34992454D01*
X17156204Y-35107668D01*
X17105910Y-35242515D01*
X17105909Y-35242517D01*
X17099500Y-35302127D01*
X17099500Y-35305448D01*
X17099500Y-35305449D01*
X17099500Y-37494560D01*
X17099500Y-37494578D01*
X16000500Y-37494578D01*
X16000499Y-35302128D01*
X15994091Y-35242517D01*
X15943796Y-35107669D01*
X15857546Y-34992454D01*
X15742331Y-34906204D01*
X15607483Y-34855909D01*
X15547873Y-34849500D01*
X15544550Y-34849500D01*
X13355439Y-34849500D01*
X13355420Y-34849500D01*
X13352128Y-34849501D01*
X13348848Y-34849853D01*
X13348840Y-34849854D01*
X13292515Y-34855909D01*
X13193333Y-34892902D01*
X13123641Y-34897886D01*
X13106667Y-34892902D01*
X13007485Y-34855909D01*
X12951166Y-34849854D01*
X12951165Y-34849853D01*
X12947873Y-34849500D01*
X12944550Y-34849500D01*
X10755439Y-34849500D01*
X10755420Y-34849500D01*
X10752128Y-34849501D01*
X10748848Y-34849853D01*
X10748840Y-34849854D01*
X10692515Y-34855909D01*
X10557669Y-34906204D01*
X10442454Y-34992454D01*
X10356204Y-35107668D01*
X10305910Y-35242515D01*
X10305909Y-35242517D01*
X10299500Y-35302127D01*
X10299500Y-35305448D01*
X10299500Y-35305449D01*
X10299500Y-37494560D01*
X10299500Y-37494578D01*
X9200500Y-37494578D01*
X9200499Y-35302128D01*
X9194091Y-35242517D01*
X9143796Y-35107669D01*
X9057546Y-34992454D01*
X8942331Y-34906204D01*
X8807483Y-34855909D01*
X8747873Y-34849500D01*
X8744550Y-34849500D01*
X6555439Y-34849500D01*
X6555420Y-34849500D01*
X6552128Y-34849501D01*
X6548848Y-34849853D01*
X6548840Y-34849854D01*
X6492515Y-34855909D01*
X6368333Y-34902226D01*
X6298641Y-34907210D01*
X6281667Y-34902226D01*
X6157485Y-34855909D01*
X6101166Y-34849854D01*
X6101165Y-34849853D01*
X6097873Y-34849500D01*
X6094550Y-34849500D01*
X3905439Y-34849500D01*
X3905420Y-34849500D01*
X3902128Y-34849501D01*
X3898848Y-34849853D01*
X3898840Y-34849854D01*
X3842515Y-34855909D01*
X3707669Y-34906204D01*
X3592454Y-34992454D01*
X3506204Y-35107668D01*
X3455910Y-35242515D01*
X3455909Y-35242517D01*
X3449500Y-35302127D01*
X3449500Y-35305448D01*
X3449500Y-35305449D01*
X3449500Y-37494560D01*
X3449500Y-37494578D01*
X2350500Y-37494578D01*
X2350499Y-35302128D01*
X2344091Y-35242517D01*
X2293796Y-35107669D01*
X2207546Y-34992454D01*
X2092331Y-34906204D01*
X1957483Y-34855909D01*
X1897873Y-34849500D01*
X1894551Y-34849500D01*
X-135533Y-34849500D01*
X-202572Y-34829815D01*
X-248327Y-34777011D01*
X-259517Y-34723500D01*
X-32150Y-20626731D01*
X4453Y-18357318D01*
X299500Y-18357318D01*
X338934Y-18669473D01*
X417181Y-18974225D01*
X533006Y-19266766D01*
X534880Y-19270176D01*
X534884Y-19270183D01*
X682710Y-19539076D01*
X684584Y-19542484D01*
X869522Y-19797030D01*
X1084906Y-20026390D01*
X1327337Y-20226947D01*
X1592993Y-20395537D01*
X1877685Y-20529503D01*
X2176921Y-20626731D01*
X2485985Y-20685688D01*
X2721417Y-20700500D01*
X2723378Y-20700500D01*
X2876622Y-20700500D01*
X2878583Y-20700500D01*
X3114015Y-20685688D01*
X3423079Y-20626731D01*
X3722315Y-20529503D01*
X4007007Y-20395537D01*
X4272663Y-20226947D01*
X4515094Y-20026390D01*
X4730478Y-19797030D01*
X4915416Y-19542484D01*
X5066994Y-19266766D01*
X5182819Y-18974225D01*
X5261066Y-18669473D01*
X5300500Y-18357318D01*
X34699500Y-18357318D01*
X34738934Y-18669473D01*
X34817181Y-18974225D01*
X34933006Y-19266766D01*
X34934880Y-19270176D01*
X34934884Y-19270183D01*
X35082710Y-19539076D01*
X35084584Y-19542484D01*
X35269522Y-19797030D01*
X35484906Y-20026390D01*
X35727337Y-20226947D01*
X35992993Y-20395537D01*
X36277685Y-20529503D01*
X36576921Y-20626731D01*
X36885985Y-20685688D01*
X37121417Y-20700500D01*
X37123378Y-20700500D01*
X37276622Y-20700500D01*
X37278583Y-20700500D01*
X37514015Y-20685688D01*
X37823079Y-20626731D01*
X38122315Y-20529503D01*
X38407007Y-20395537D01*
X38672663Y-20226947D01*
X38915094Y-20026390D01*
X39130478Y-19797030D01*
X39315416Y-19542484D01*
X39466994Y-19266766D01*
X39582819Y-18974225D01*
X39661066Y-18669473D01*
X39700500Y-18357318D01*
X39700500Y-18042682D01*
X39661066Y-17730527D01*
X39582819Y-17425775D01*
X39466994Y-17133234D01*
X39315416Y-16857516D01*
X39130478Y-16602970D01*
X38915094Y-16373610D01*
X38813538Y-16289595D01*
X38675665Y-16175536D01*
X38675660Y-16175532D01*
X38672663Y-16173053D01*
X38669375Y-16170966D01*
X38669369Y-16170962D01*
X38410293Y-16006548D01*
X38410288Y-16006545D01*
X38407007Y-16004463D01*
X38122315Y-15870497D01*
X38118612Y-15869293D01*
X38118610Y-15869293D01*
X37826788Y-15774474D01*
X37826786Y-15774473D01*
X37823079Y-15773269D01*
X37819254Y-15772539D01*
X37819249Y-15772538D01*
X37517841Y-15715041D01*
X37517827Y-15715039D01*
X37514015Y-15714312D01*
X37510121Y-15714067D01*
X37280545Y-15699623D01*
X37280531Y-15699622D01*
X37278583Y-15699500D01*
X37121417Y-15699500D01*
X37119469Y-15699622D01*
X37119454Y-15699623D01*
X36889878Y-15714067D01*
X36889876Y-15714067D01*
X36885985Y-15714312D01*
X36882174Y-15715038D01*
X36882158Y-15715041D01*
X36580750Y-15772538D01*
X36580741Y-15772540D01*
X36576921Y-15773269D01*
X36573217Y-15774472D01*
X36573211Y-15774474D01*
X36281389Y-15869293D01*
X36281382Y-15869295D01*
X36277685Y-15870497D01*
X36274170Y-15872150D01*
X36274165Y-15872153D01*
X35996511Y-16002807D01*
X35996504Y-16002810D01*
X35992993Y-16004463D01*
X35989717Y-16006541D01*
X35989706Y-16006548D01*
X35730630Y-16170962D01*
X35730616Y-16170971D01*
X35727337Y-16173053D01*
X35724346Y-16175526D01*
X35724334Y-16175536D01*
X35487902Y-16371131D01*
X35487897Y-16371135D01*
X35484906Y-16373610D01*
X35482248Y-16376440D01*
X35482241Y-16376447D01*
X35272190Y-16600128D01*
X35272183Y-16600135D01*
X35269522Y-16602970D01*
X35267236Y-16606115D01*
X35267228Y-16606126D01*
X35086872Y-16854366D01*
X35086867Y-16854372D01*
X35084584Y-16857516D01*
X35082717Y-16860911D01*
X35082710Y-16860923D01*
X34934884Y-17129816D01*
X34934877Y-17129829D01*
X34933006Y-17133234D01*
X34931572Y-17136853D01*
X34931568Y-17136864D01*
X34818615Y-17422152D01*
X34817181Y-17425775D01*
X34816214Y-17429539D01*
X34816212Y-17429547D01*
X34739905Y-17726743D01*
X34739903Y-17726751D01*
X34738934Y-17730527D01*
X34738445Y-17734394D01*
X34738444Y-17734402D01*
X34699988Y-18038815D01*
X34699987Y-18038823D01*
X34699500Y-18042682D01*
X34699500Y-18357318D01*
X5300500Y-18357318D01*
X5300500Y-18042682D01*
X5261066Y-17730527D01*
X5182819Y-17425775D01*
X5066994Y-17133234D01*
X4915416Y-16857516D01*
X4730478Y-16602970D01*
X4515094Y-16373610D01*
X4413538Y-16289595D01*
X4275665Y-16175536D01*
X4275660Y-16175532D01*
X4272663Y-16173053D01*
X4269375Y-16170966D01*
X4269369Y-16170962D01*
X4010293Y-16006548D01*
X4010288Y-16006545D01*
X4007007Y-16004463D01*
X3722315Y-15870497D01*
X3718612Y-15869293D01*
X3718610Y-15869293D01*
X3426788Y-15774474D01*
X3426786Y-15774473D01*
X3423079Y-15773269D01*
X3419254Y-15772539D01*
X3419249Y-15772538D01*
X3117841Y-15715041D01*
X3117827Y-15715039D01*
X3114015Y-15714312D01*
X3110121Y-15714067D01*
X2880545Y-15699623D01*
X2880531Y-15699622D01*
X2878583Y-15699500D01*
X2721417Y-15699500D01*
X2719469Y-15699622D01*
X2719454Y-15699623D01*
X2489878Y-15714067D01*
X2489876Y-15714067D01*
X2485985Y-15714312D01*
X2482174Y-15715038D01*
X2482158Y-15715041D01*
X2180750Y-15772538D01*
X2180741Y-15772540D01*
X2176921Y-15773269D01*
X2173217Y-15774472D01*
X2173211Y-15774474D01*
X1881389Y-15869293D01*
X1881382Y-15869295D01*
X1877685Y-15870497D01*
X1874170Y-15872150D01*
X1874165Y-15872153D01*
X1596511Y-16002807D01*
X1596504Y-16002810D01*
X1592993Y-16004463D01*
X1589717Y-16006541D01*
X1589706Y-16006548D01*
X1330630Y-16170962D01*
X1330616Y-16170971D01*
X1327337Y-16173053D01*
X1324346Y-16175526D01*
X1324334Y-16175536D01*
X1087902Y-16371131D01*
X1087897Y-16371135D01*
X1084906Y-16373610D01*
X1082248Y-16376440D01*
X1082241Y-16376447D01*
X872190Y-16600128D01*
X872183Y-16600135D01*
X869522Y-16602970D01*
X867236Y-16606115D01*
X867228Y-16606126D01*
X686872Y-16854366D01*
X686867Y-16854372D01*
X684584Y-16857516D01*
X682717Y-16860911D01*
X682710Y-16860923D01*
X534884Y-17129816D01*
X534877Y-17129829D01*
X533006Y-17133234D01*
X531572Y-17136853D01*
X531568Y-17136864D01*
X418615Y-17422152D01*
X417181Y-17425775D01*
X416214Y-17429539D01*
X416212Y-17429547D01*
X339905Y-17726743D01*
X339903Y-17726751D01*
X338934Y-17730527D01*
X338445Y-17734394D01*
X338444Y-17734402D01*
X299988Y-18038815D01*
X299987Y-18038823D01*
X299500Y-18042682D01*
X299500Y-18357318D01*
X4453Y-18357318D01*
X293724Y-422499D01*
X314487Y-355787D01*
X368022Y-310890D01*
X417708Y-300500D01*
X39582292Y-300500D01*
X39649331Y-320185D01*
G37*
%TD.AperFunction*%
%TD*%
M02*
