M48
; DRILL file {KiCad 7.0.2} date Fri Feb 14 16:13:01 2025
; FORMAT={-:-/ absolute / inch / decimal}
; #@! TF.CreationDate,2025-02-14T16:13:01+00:00
; #@! TF.GenerationSoftware,Kicad,Pcbnew,7.0.2
; #@! TF.FileFunction,Plated,1,4,PTH
FMAT,2
INCH
; #@! TA.AperFunction,Plated,PTH,ViaDrill
T1C0.0118
; #@! TA.AperFunction,Plated,PTH,ViaDrill
T2C0.0157
; #@! TA.AperFunction,Plated,PTH,ComponentDrill
T3C0.0157
; #@! TA.AperFunction,Plated,PTH,ComponentDrill
T4C0.0276
; #@! TA.AperFunction,Plated,PTH,ComponentDrill
T5C0.0315
; #@! TA.AperFunction,Plated,PTH,ComponentDrill
T6C0.0394
; #@! TA.AperFunction,Plated,PTH,ComponentDrill
T7C0.0433
%
G90
G05
T1
X4.6693Y-1.4803
X4.6693Y-2.5039
X4.6693Y-3.7047
X4.6772Y-1.5945
X4.6772Y-2.6181
X4.6772Y-3.8189
T2
X4.4016Y-1.9213
X4.4055Y-3.1102
X4.4094Y-1.7677
X4.4173Y-4.0079
X4.4213Y-3.689
X4.4213Y-4.3189
X4.4488Y-2.9961
X4.4528Y-3.878
X4.4685Y-2.8189
X4.4882Y-4.0945
X4.4961Y-1.8386
X4.5118Y-4.0079
X4.5307Y-2.6528
X4.5315Y-1.7835
X4.5354Y-1.6181
X4.5394Y-4.6496
X4.5546Y-3.6919
X4.5551Y-1.4882
X4.5551Y-2.1929
X4.5591Y-3.7598
X4.5591Y-4.4134
X4.563Y-2.5118
X4.5669Y-3.1772
X4.5709Y-4.1417
X4.5748Y-2.7677
X4.5748Y-2.878
X4.5984Y-1.9646
X4.6063Y-2.0079
X4.6063Y-2.0866
X4.6063Y-3.0315
X4.6063Y-3.1102
X4.6063Y-4.2323
X4.6063Y-4.311
X4.6142Y-3.9843
X4.6457Y-2.126
X4.6457Y-2.4134
X4.6457Y-3.1496
X4.6457Y-4.3504
X4.6496Y-3.2756
X4.6535Y-4.4173
X4.6614Y-3.6339
X4.6654Y-1.4134
X4.6693Y-2.1772
X4.6693Y-3.2205
X4.7008Y-5.2756
X4.7253Y-3.3043
X4.7338Y-2.0472
X4.7338Y-3.0709
X4.7338Y-4.2717
X4.7677Y-4.5118
X4.7953Y-1.4961
X4.7992Y-3.2323
X4.8031Y-5.0394
X4.8071Y-2.5276
X4.8071Y-3.7205
X4.811Y-3.0157
X4.815Y-2.2559
X4.8425Y-1.8307
X4.8425Y-1.9961
X4.8425Y-5.248
X4.8583Y-4.3543
X4.8661Y-2.126
X4.8661Y-4.185
X4.874Y-1.4213
X4.8937Y-2.9792
X4.8937Y-2.4409
X4.9016Y-2.7677
X4.9016Y-5.2795
X4.9409Y-3.2559
X4.9606Y-3.5157
X4.9921Y-2.2008
X5.0Y-1.7953
X5.0079Y-4.0079
X5.0433Y-2.0276
X5.0433Y-4.3504
X5.1181Y-5.4409
X5.1457Y-2.2323
X5.1457Y-3.0472
X5.1457Y-4.3425
X5.1575Y-4.2953
X5.1614Y-5.311
X5.1723Y-2.3858
X5.1805Y-3.9449
X5.185Y-4.0591
X5.1969Y-4.3543
X5.2047Y-3.0866
X5.2126Y-3.2953
X5.2128Y-3.2246
X5.2323Y-2.3504
X5.2402Y-2.2205
X5.2402Y-2.6772
X5.2441Y-4.5945
X5.252Y-4.4764
X5.252Y-5.0039
X5.2598Y-3.0945
X5.2716Y-3.2445
X5.2717Y-2.4055
X5.2717Y-3.2047
X5.2795Y-4.5591
X5.2835Y-2.5512
X5.2863Y-2.2586
X5.3034Y-4.5272
X5.3071Y-4.3268
X5.311Y-2.1299
X5.311Y-2.3031
X5.315Y-3.0354
X5.3189Y-3.3031
X5.3425Y-2.1732
X5.3425Y-4.5315
X5.3429Y-2.9956
X5.3429Y-4.2953
X5.3583Y-3.5748
X5.3701Y-2.7953
X5.4055Y-3.0157
X5.4094Y-3.4173
X5.4094Y-5.1732
X5.4101Y-4.5223
X5.4134Y-3.6811
X5.4213Y-4.7835
X5.4252Y-2.748
X5.4252Y-4.6496
X5.4331Y-2.5709
X5.437Y-4.3544
X5.4567Y-2.3937
X5.4567Y-2.8346
X5.4685Y-3.0866
X5.4724Y-4.0866
X5.4764Y-2.0906
X5.5039Y-2.1457
X5.5079Y-3.1024
X5.5118Y-4.3228
X5.5162Y-3.0346
X5.5197Y-2.8425
X5.5276Y-4.3622
X5.5394Y-2.9882
X5.5394Y-4.2165
X5.5394Y-4.2717
X5.5512Y-3.189
X5.5591Y-2.2008
X5.5591Y-2.2874
X5.563Y-2.248
X5.5748Y-2.0945
X5.5748Y-2.8386
X5.6299Y-4.8504
X5.6575Y-4.8898
X5.6929Y-3.9921
X5.6969Y-3.2795
X5.7087Y-1.9685
X5.7126Y-4.6457
X5.748Y-1.8898
X5.7717Y-4.4331
X5.8031Y-3.4606
X5.811Y-3.0709
X5.8701Y-3.7441
X5.9016Y-5.4606
X5.9449Y-5.6191
X6.0315Y-2.2874
X6.1378Y-3.6496
X6.2205Y-5.5512
X6.4882Y-3.8504
T4
X4.7047Y-3.4449
X4.7638Y-3.4449
X4.8228Y-3.4449
X4.8819Y-3.4449
X4.9409Y-3.4449
X5.0Y-3.4449
X5.0591Y-3.4449
X5.1181Y-3.4449
T5
X4.0551Y-1.6929
X4.0551Y-2.1654
X4.0551Y-2.6378
X4.0551Y-3.1102
X4.0551Y-3.5827
X4.0551Y-4.0551
X4.1551Y-1.5929
X4.1551Y-1.7929
X4.1551Y-2.0654
X4.1551Y-2.2654
X4.1551Y-2.5378
X4.1551Y-2.7378
X4.1551Y-3.0102
X4.1551Y-3.2102
X4.1551Y-3.4827
X4.1551Y-3.6827
X4.1551Y-3.9551
X4.1551Y-4.1551
T6
X4.3701Y-4.5181
X4.3701Y-4.6181
X4.3701Y-4.7181
X4.3701Y-4.8181
X4.3701Y-4.9181
X4.3701Y-5.0181
X4.3701Y-5.1181
X4.4638Y-5.5512
X4.5638Y-5.5512
X4.6638Y-5.5512
X4.7638Y-5.5512
X4.8638Y-5.5512
X4.9638Y-5.5512
X6.3189Y-5.263
X6.3189Y-5.363
X6.3189Y-5.463
X6.3189Y-5.563
X6.4961Y-5.2608
X6.5961Y-5.2608
X6.8248Y-2.3937
X6.8248Y-2.4937
X6.8248Y-2.5937
X6.8248Y-2.6937
X6.8248Y-2.7937
X6.8248Y-2.8937
X6.8248Y-2.9937
X6.8248Y-3.0937
X6.8248Y-3.1937
X6.8248Y-3.2937
X6.8248Y-3.3937
X6.8248Y-3.4937
X6.8248Y-3.5937
X6.8248Y-3.6937
X6.8248Y-3.7937
X6.8248Y-3.8937
X6.8248Y-3.9937
X6.8248Y-4.0937
X6.8248Y-4.1937
X6.8248Y-4.2937
X6.8248Y-4.3937
X6.8248Y-4.4937
X6.8248Y-4.5937
X6.8248Y-4.6937
X6.9248Y-2.3937
X6.9248Y-2.4937
X6.9248Y-2.5937
X6.9248Y-2.6937
X6.9248Y-2.7937
X6.9248Y-2.8937
X6.9248Y-2.9937
X6.9248Y-3.0937
X6.9248Y-3.1937
X6.9248Y-3.2937
X6.9248Y-3.3937
X6.9248Y-3.4937
X6.9248Y-3.5937
X6.9248Y-3.6937
X6.9248Y-3.7937
X6.9248Y-3.8937
X6.9248Y-3.9937
X6.9248Y-4.0937
X6.9248Y-4.1937
X6.9248Y-4.2937
X6.9248Y-4.3937
X6.9248Y-4.4937
X6.9248Y-4.5937
X6.9248Y-4.6937
X7.0248Y-2.3937
X7.0248Y-2.4937
X7.0248Y-2.5937
X7.0248Y-2.6937
X7.0248Y-2.7937
X7.0248Y-2.8937
X7.0248Y-2.9937
X7.0248Y-3.0937
X7.0248Y-3.1937
X7.0248Y-3.2937
X7.0248Y-3.3937
X7.0248Y-3.4937
X7.0248Y-3.5937
X7.0248Y-3.6937
X7.0248Y-3.7937
X7.0248Y-3.8937
X7.0248Y-3.9937
X7.0248Y-4.0937
X7.0248Y-4.1937
X7.0248Y-4.2937
X7.0248Y-4.3937
X7.0248Y-4.4937
X7.0248Y-4.5937
X7.0248Y-4.6937
X7.1248Y-2.3937
X7.1248Y-2.4937
X7.1248Y-2.5937
X7.1248Y-2.6937
X7.1248Y-2.7937
X7.1248Y-2.8937
X7.1248Y-2.9937
X7.1248Y-3.0937
X7.1248Y-3.1937
X7.1248Y-3.2937
X7.1248Y-3.3937
X7.1248Y-3.4937
X7.1248Y-3.5937
X7.1248Y-3.6937
X7.1248Y-3.7937
X7.1248Y-3.8937
X7.1248Y-3.9937
X7.1248Y-4.0937
X7.1248Y-4.1937
X7.1248Y-4.2937
X7.1248Y-4.3937
X7.1248Y-4.4937
X7.1248Y-4.5937
X7.1248Y-4.6937
X7.2248Y-2.3937
X7.2248Y-2.4937
X7.2248Y-2.5937
X7.2248Y-2.6937
X7.2248Y-2.7937
X7.2248Y-2.8937
X7.2248Y-2.9937
X7.2248Y-3.0937
X7.2248Y-3.1937
X7.2248Y-3.2937
X7.2248Y-3.3937
X7.2248Y-3.4937
X7.2248Y-3.5937
X7.2248Y-3.6937
X7.2248Y-3.7937
X7.2248Y-3.8937
X7.2248Y-3.9937
X7.2248Y-4.0937
X7.2248Y-4.1937
X7.2248Y-4.2937
X7.2248Y-4.3937
X7.2248Y-4.4937
X7.2248Y-4.5937
X7.2248Y-4.6937
X7.3248Y-2.3937
X7.3248Y-2.4937
X7.3248Y-2.5937
X7.3248Y-2.6937
X7.3248Y-2.7937
X7.3248Y-2.8937
X7.3248Y-2.9937
X7.3248Y-3.0937
X7.3248Y-3.1937
X7.3248Y-3.2937
X7.3248Y-3.3937
X7.3248Y-3.4937
X7.3248Y-3.5937
X7.3248Y-3.6937
X7.3248Y-3.7937
X7.3248Y-3.8937
X7.3248Y-3.9937
X7.3248Y-4.0937
X7.3248Y-4.1937
X7.3248Y-4.2937
X7.3248Y-4.3937
X7.3248Y-4.4937
X7.3248Y-4.5937
X7.3248Y-4.6937
T7
X5.9236Y-2.3921
X5.9236Y-2.4921
X5.9236Y-2.5921
X5.9236Y-2.6921
X5.9236Y-2.7921
X5.9236Y-2.8921
X5.9236Y-2.9921
X5.9236Y-3.0921
X5.9236Y-3.1921
X5.9236Y-3.2921
X5.9236Y-3.3921
X5.9236Y-3.4921
X5.9236Y-3.5921
X5.9236Y-3.6921
X5.9236Y-3.7921
X5.9236Y-3.8921
X5.9236Y-3.9921
X5.9236Y-4.0921
X5.9236Y-4.1921
X5.9236Y-4.2921
X5.9236Y-4.3921
X5.9236Y-4.4921
X5.9236Y-4.5921
X5.9236Y-4.6921
X6.0236Y-2.3921
X6.0236Y-2.4921
X6.0236Y-2.5921
X6.0236Y-2.6921
X6.0236Y-2.7921
X6.0236Y-2.8921
X6.0236Y-2.9921
X6.0236Y-3.0921
X6.0236Y-3.1921
X6.0236Y-3.2921
X6.0236Y-3.3921
X6.0236Y-3.4921
X6.0236Y-3.5921
X6.0236Y-3.6921
X6.0236Y-3.7921
X6.0236Y-3.8921
X6.0236Y-3.9921
X6.0236Y-4.0921
X6.0236Y-4.1921
X6.0236Y-4.2921
X6.0236Y-4.3921
X6.0236Y-4.4921
X6.0236Y-4.5921
X6.0236Y-4.6921
X6.6236Y-2.3921
X6.6236Y-2.4921
X6.6236Y-2.5921
X6.6236Y-2.6921
X6.6236Y-2.7921
X6.6236Y-2.8921
X6.6236Y-2.9921
X6.6236Y-3.0921
X6.6236Y-3.1921
X6.6236Y-3.2921
X6.6236Y-3.3921
X6.6236Y-3.4921
X6.6236Y-3.5921
X6.6236Y-3.6921
X6.6236Y-3.7921
X6.6236Y-3.8921
X6.6236Y-3.9921
X6.6236Y-4.0921
X6.6236Y-4.1921
X6.6236Y-4.2921
X6.6236Y-4.3921
X6.6236Y-4.4921
X6.6236Y-4.5921
X6.6236Y-4.6921
X6.7236Y-2.3921
X6.7236Y-2.4921
X6.7236Y-2.5921
X6.7236Y-2.6921
X6.7236Y-2.7921
X6.7236Y-2.8921
X6.7236Y-2.9921
X6.7236Y-3.0921
X6.7236Y-3.1921
X6.7236Y-3.2921
X6.7236Y-3.3921
X6.7236Y-3.4921
X6.7236Y-3.5921
X6.7236Y-3.6921
X6.7236Y-3.7921
X6.7236Y-3.8921
X6.7236Y-3.9921
X6.7236Y-4.0921
X6.7236Y-4.1921
X6.7236Y-4.2921
X6.7236Y-4.3921
X6.7236Y-4.4921
X6.7236Y-4.5921
X6.7236Y-4.6921
T3
G00X7.126Y-1.4567
M15
G01X7.0866Y-1.4567
M16
G05
G00X7.126Y-1.5551
M15
G01X7.0866Y-1.5551
M16
G05
G00X7.0866Y-1.752
M15
G01X7.126Y-1.752
M16
G05
G00X7.0866Y-1.8504
M15
G01X7.126Y-1.8504
M16
G05
G00X7.3031Y-1.6732
M15
G01X7.3031Y-1.6339
M16
G05
T0
M30
