%TF.GenerationSoftware,KiCad,Pcbnew,9.0.1*%
%TF.CreationDate,2025-05-25T21:46:02+01:00*%
%TF.ProjectId,body2,626f6479-322e-46b6-9963-61645f706362,rev?*%
%TF.SameCoordinates,Original*%
%TF.FileFunction,Legend,Top*%
%TF.FilePolarity,Positive*%
%FSLAX46Y46*%
G04 Gerber Fmt 4.6, Leading zero omitted, Abs format (unit mm)*
G04 Created by KiCad (PCBNEW 9.0.1) date 2025-05-25 21:46:02*
%MOMM*%
%LPD*%
G01*
G04 APERTURE LIST*
G04 Aperture macros list*
%AMRoundRect*
0 Rectangle with rounded corners*
0 $1 Rounding radius*
0 $2 $3 $4 $5 $6 $7 $8 $9 X,Y pos of 4 corners*
0 Add a 4 corners polygon primitive as box body*
4,1,4,$2,$3,$4,$5,$6,$7,$8,$9,$2,$3,0*
0 Add four circle primitives for the rounded corners*
1,1,$1+$1,$2,$3*
1,1,$1+$1,$4,$5*
1,1,$1+$1,$6,$7*
1,1,$1+$1,$8,$9*
0 Add four rect primitives between the rounded corners*
20,1,$1+$1,$2,$3,$4,$5,0*
20,1,$1+$1,$4,$5,$6,$7,0*
20,1,$1+$1,$6,$7,$8,$9,0*
20,1,$1+$1,$8,$9,$2,$3,0*%
G04 Aperture macros list end*
%ADD10C,0.200000*%
%ADD11C,0.100000*%
%ADD12C,0.150000*%
%ADD13C,0.120000*%
%ADD14RoundRect,0.225000X-0.225000X-0.250000X0.225000X-0.250000X0.225000X0.250000X-0.225000X0.250000X0*%
%ADD15RoundRect,0.200000X-0.200000X-0.275000X0.200000X-0.275000X0.200000X0.275000X-0.200000X0.275000X0*%
%ADD16RoundRect,0.225000X-0.250000X0.225000X-0.250000X-0.225000X0.250000X-0.225000X0.250000X0.225000X0*%
%ADD17RoundRect,0.200000X0.275000X-0.200000X0.275000X0.200000X-0.275000X0.200000X-0.275000X-0.200000X0*%
%ADD18R,1.500000X1.000000*%
%ADD19RoundRect,0.225000X0.225000X0.250000X-0.225000X0.250000X-0.225000X-0.250000X0.225000X-0.250000X0*%
%ADD20RoundRect,0.250000X0.250000X0.475000X-0.250000X0.475000X-0.250000X-0.475000X0.250000X-0.475000X0*%
%ADD21RoundRect,0.150000X-0.587500X-0.150000X0.587500X-0.150000X0.587500X0.150000X-0.587500X0.150000X0*%
%ADD22RoundRect,0.200000X0.200000X0.275000X-0.200000X0.275000X-0.200000X-0.275000X0.200000X-0.275000X0*%
%ADD23R,1.000000X1.500000*%
%ADD24R,1.000000X1.000000*%
%ADD25C,1.000000*%
%ADD26RoundRect,0.200000X-0.275000X0.200000X-0.275000X-0.200000X0.275000X-0.200000X0.275000X0.200000X0*%
%ADD27RoundRect,0.218750X0.218750X0.256250X-0.218750X0.256250X-0.218750X-0.256250X0.218750X-0.256250X0*%
%ADD28RoundRect,0.225000X0.250000X-0.225000X0.250000X0.225000X-0.250000X0.225000X-0.250000X-0.225000X0*%
%ADD29C,3.200000*%
%ADD30RoundRect,0.250000X-1.100000X0.325000X-1.100000X-0.325000X1.100000X-0.325000X1.100000X0.325000X0*%
%ADD31C,1.600000*%
%ADD32O,1.600000X1.600000*%
%ADD33RoundRect,0.150000X-0.825000X-0.150000X0.825000X-0.150000X0.825000X0.150000X-0.825000X0.150000X0*%
%ADD34O,1.700000X1.700000*%
%ADD35RoundRect,0.050000X-0.375000X-0.050000X0.375000X-0.050000X0.375000X0.050000X-0.375000X0.050000X0*%
%ADD36RoundRect,0.050000X-0.050000X-0.375000X0.050000X-0.375000X0.050000X0.375000X-0.050000X0.375000X0*%
%ADD37R,1.650000X1.650000*%
%ADD38RoundRect,0.150000X0.587500X0.150000X-0.587500X0.150000X-0.587500X-0.150000X0.587500X-0.150000X0*%
%ADD39C,1.200000*%
%ADD40O,1.200000X2.200000*%
%ADD41O,1.600000X2.300000*%
%ADD42O,2.200000X1.200000*%
%ADD43O,1.600000X2.500000*%
%ADD44RoundRect,0.100000X-0.637500X-0.100000X0.637500X-0.100000X0.637500X0.100000X-0.637500X0.100000X0*%
%ADD45R,1.700000X1.700000*%
%ADD46C,1.700000*%
%ADD47O,1.870000X1.170000*%
%ADD48RoundRect,0.250000X-1.000000X-0.650000X1.000000X-0.650000X1.000000X0.650000X-1.000000X0.650000X0*%
%ADD49RoundRect,0.250000X-0.300000X-1.600000X0.300000X-1.600000X0.300000X1.600000X-0.300000X1.600000X0*%
%ADD50RoundRect,0.212500X0.212500X1.087500X-0.212500X1.087500X-0.212500X-1.087500X0.212500X-1.087500X0*%
%ADD51RoundRect,0.216667X0.433333X0.733333X-0.433333X0.733333X-0.433333X-0.733333X0.433333X-0.733333X0*%
G04 APERTURE END LIST*
D10*
X108474435Y-102625406D02*
X108703006Y-102625406D01*
X108703006Y-102625406D02*
X108817292Y-102550168D01*
X108817292Y-102550168D02*
X108874435Y-102474929D01*
X108874435Y-102474929D02*
X108988720Y-102249215D01*
X108988720Y-102249215D02*
X109045863Y-101948263D01*
X109045863Y-101948263D02*
X109045863Y-101346358D01*
X109045863Y-101346358D02*
X108988720Y-101195882D01*
X108988720Y-101195882D02*
X108931578Y-101120644D01*
X108931578Y-101120644D02*
X108817292Y-101045406D01*
X108817292Y-101045406D02*
X108588720Y-101045406D01*
X108588720Y-101045406D02*
X108474435Y-101120644D01*
X108474435Y-101120644D02*
X108417292Y-101195882D01*
X108417292Y-101195882D02*
X108360149Y-101346358D01*
X108360149Y-101346358D02*
X108360149Y-101722548D01*
X108360149Y-101722548D02*
X108417292Y-101873025D01*
X108417292Y-101873025D02*
X108474435Y-101948263D01*
X108474435Y-101948263D02*
X108588720Y-102023501D01*
X108588720Y-102023501D02*
X108817292Y-102023501D01*
X108817292Y-102023501D02*
X108931578Y-101948263D01*
X108931578Y-101948263D02*
X108988720Y-101873025D01*
X108988720Y-101873025D02*
X109045863Y-101722548D01*
X109388720Y-101045406D02*
X109788720Y-102625406D01*
X109788720Y-102625406D02*
X110188720Y-101045406D01*
X108988720Y-103589118D02*
X108417292Y-103589118D01*
X108417292Y-103589118D02*
X108360149Y-104341499D01*
X108360149Y-104341499D02*
X108417292Y-104266260D01*
X108417292Y-104266260D02*
X108531578Y-104191022D01*
X108531578Y-104191022D02*
X108817292Y-104191022D01*
X108817292Y-104191022D02*
X108931578Y-104266260D01*
X108931578Y-104266260D02*
X108988720Y-104341499D01*
X108988720Y-104341499D02*
X109045863Y-104491975D01*
X109045863Y-104491975D02*
X109045863Y-104868165D01*
X109045863Y-104868165D02*
X108988720Y-105018641D01*
X108988720Y-105018641D02*
X108931578Y-105093880D01*
X108931578Y-105093880D02*
X108817292Y-105169118D01*
X108817292Y-105169118D02*
X108531578Y-105169118D01*
X108531578Y-105169118D02*
X108417292Y-105093880D01*
X108417292Y-105093880D02*
X108360149Y-105018641D01*
X109388720Y-103589118D02*
X109788720Y-105169118D01*
X109788720Y-105169118D02*
X110188720Y-103589118D01*
X108303006Y-106132830D02*
X109045863Y-106132830D01*
X109045863Y-106132830D02*
X108645863Y-106734734D01*
X108645863Y-106734734D02*
X108817292Y-106734734D01*
X108817292Y-106734734D02*
X108931578Y-106809972D01*
X108931578Y-106809972D02*
X108988720Y-106885211D01*
X108988720Y-106885211D02*
X109045863Y-107035687D01*
X109045863Y-107035687D02*
X109045863Y-107411877D01*
X109045863Y-107411877D02*
X108988720Y-107562353D01*
X108988720Y-107562353D02*
X108931578Y-107637592D01*
X108931578Y-107637592D02*
X108817292Y-107712830D01*
X108817292Y-107712830D02*
X108474435Y-107712830D01*
X108474435Y-107712830D02*
X108360149Y-107637592D01*
X108360149Y-107637592D02*
X108303006Y-107562353D01*
X109560149Y-107562353D02*
X109617292Y-107637592D01*
X109617292Y-107637592D02*
X109560149Y-107712830D01*
X109560149Y-107712830D02*
X109503006Y-107637592D01*
X109503006Y-107637592D02*
X109560149Y-107562353D01*
X109560149Y-107562353D02*
X109560149Y-107712830D01*
X110017292Y-106132830D02*
X110760149Y-106132830D01*
X110760149Y-106132830D02*
X110360149Y-106734734D01*
X110360149Y-106734734D02*
X110531578Y-106734734D01*
X110531578Y-106734734D02*
X110645864Y-106809972D01*
X110645864Y-106809972D02*
X110703006Y-106885211D01*
X110703006Y-106885211D02*
X110760149Y-107035687D01*
X110760149Y-107035687D02*
X110760149Y-107411877D01*
X110760149Y-107411877D02*
X110703006Y-107562353D01*
X110703006Y-107562353D02*
X110645864Y-107637592D01*
X110645864Y-107637592D02*
X110531578Y-107712830D01*
X110531578Y-107712830D02*
X110188721Y-107712830D01*
X110188721Y-107712830D02*
X110074435Y-107637592D01*
X110074435Y-107637592D02*
X110017292Y-107562353D01*
X111103006Y-106132830D02*
X111503006Y-107712830D01*
X111503006Y-107712830D02*
X111903006Y-106132830D01*
X109045863Y-110256542D02*
X108360149Y-110256542D01*
X108703006Y-110256542D02*
X108703006Y-108676542D01*
X108703006Y-108676542D02*
X108588720Y-108902256D01*
X108588720Y-108902256D02*
X108474435Y-109052732D01*
X108474435Y-109052732D02*
X108360149Y-109127970D01*
X109560149Y-110106065D02*
X109617292Y-110181304D01*
X109617292Y-110181304D02*
X109560149Y-110256542D01*
X109560149Y-110256542D02*
X109503006Y-110181304D01*
X109503006Y-110181304D02*
X109560149Y-110106065D01*
X109560149Y-110106065D02*
X109560149Y-110256542D01*
X110303006Y-109353684D02*
X110188721Y-109278446D01*
X110188721Y-109278446D02*
X110131578Y-109203208D01*
X110131578Y-109203208D02*
X110074435Y-109052732D01*
X110074435Y-109052732D02*
X110074435Y-108977494D01*
X110074435Y-108977494D02*
X110131578Y-108827018D01*
X110131578Y-108827018D02*
X110188721Y-108751780D01*
X110188721Y-108751780D02*
X110303006Y-108676542D01*
X110303006Y-108676542D02*
X110531578Y-108676542D01*
X110531578Y-108676542D02*
X110645864Y-108751780D01*
X110645864Y-108751780D02*
X110703006Y-108827018D01*
X110703006Y-108827018D02*
X110760149Y-108977494D01*
X110760149Y-108977494D02*
X110760149Y-109052732D01*
X110760149Y-109052732D02*
X110703006Y-109203208D01*
X110703006Y-109203208D02*
X110645864Y-109278446D01*
X110645864Y-109278446D02*
X110531578Y-109353684D01*
X110531578Y-109353684D02*
X110303006Y-109353684D01*
X110303006Y-109353684D02*
X110188721Y-109428923D01*
X110188721Y-109428923D02*
X110131578Y-109504161D01*
X110131578Y-109504161D02*
X110074435Y-109654637D01*
X110074435Y-109654637D02*
X110074435Y-109955589D01*
X110074435Y-109955589D02*
X110131578Y-110106065D01*
X110131578Y-110106065D02*
X110188721Y-110181304D01*
X110188721Y-110181304D02*
X110303006Y-110256542D01*
X110303006Y-110256542D02*
X110531578Y-110256542D01*
X110531578Y-110256542D02*
X110645864Y-110181304D01*
X110645864Y-110181304D02*
X110703006Y-110106065D01*
X110703006Y-110106065D02*
X110760149Y-109955589D01*
X110760149Y-109955589D02*
X110760149Y-109654637D01*
X110760149Y-109654637D02*
X110703006Y-109504161D01*
X110703006Y-109504161D02*
X110645864Y-109428923D01*
X110645864Y-109428923D02*
X110531578Y-109353684D01*
X111103006Y-108676542D02*
X111503006Y-110256542D01*
X111503006Y-110256542D02*
X111903006Y-108676542D01*
X108417292Y-112800254D02*
X108417292Y-111220254D01*
X108417292Y-111220254D02*
X108817292Y-112348825D01*
X108817292Y-112348825D02*
X109217292Y-111220254D01*
X109217292Y-111220254D02*
X109217292Y-112800254D01*
X109788721Y-112800254D02*
X109788721Y-111220254D01*
X110360150Y-112800254D02*
X110360150Y-111220254D01*
X110360150Y-111220254D02*
X110645864Y-111220254D01*
X110645864Y-111220254D02*
X110817293Y-111295492D01*
X110817293Y-111295492D02*
X110931578Y-111445968D01*
X110931578Y-111445968D02*
X110988721Y-111596444D01*
X110988721Y-111596444D02*
X111045864Y-111897396D01*
X111045864Y-111897396D02*
X111045864Y-112123111D01*
X111045864Y-112123111D02*
X110988721Y-112424063D01*
X110988721Y-112424063D02*
X110931578Y-112574539D01*
X110931578Y-112574539D02*
X110817293Y-112725016D01*
X110817293Y-112725016D02*
X110645864Y-112800254D01*
X110645864Y-112800254D02*
X110360150Y-112800254D01*
X111560150Y-112800254D02*
X111560150Y-111220254D01*
X113560151Y-111746920D02*
X113560151Y-112800254D01*
X113274436Y-111145016D02*
X112988722Y-112273587D01*
X112988722Y-112273587D02*
X113731579Y-112273587D01*
X108417292Y-115343966D02*
X108417292Y-113763966D01*
X108417292Y-113763966D02*
X108817292Y-114892537D01*
X108817292Y-114892537D02*
X109217292Y-113763966D01*
X109217292Y-113763966D02*
X109217292Y-115343966D01*
X109788721Y-115343966D02*
X109788721Y-113763966D01*
X110360150Y-115343966D02*
X110360150Y-113763966D01*
X110360150Y-113763966D02*
X110645864Y-113763966D01*
X110645864Y-113763966D02*
X110817293Y-113839204D01*
X110817293Y-113839204D02*
X110931578Y-113989680D01*
X110931578Y-113989680D02*
X110988721Y-114140156D01*
X110988721Y-114140156D02*
X111045864Y-114441108D01*
X111045864Y-114441108D02*
X111045864Y-114666823D01*
X111045864Y-114666823D02*
X110988721Y-114967775D01*
X110988721Y-114967775D02*
X110931578Y-115118251D01*
X110931578Y-115118251D02*
X110817293Y-115268728D01*
X110817293Y-115268728D02*
X110645864Y-115343966D01*
X110645864Y-115343966D02*
X110360150Y-115343966D01*
X111560150Y-115343966D02*
X111560150Y-113763966D01*
X113617293Y-113763966D02*
X113045865Y-113763966D01*
X113045865Y-113763966D02*
X112988722Y-114516347D01*
X112988722Y-114516347D02*
X113045865Y-114441108D01*
X113045865Y-114441108D02*
X113160151Y-114365870D01*
X113160151Y-114365870D02*
X113445865Y-114365870D01*
X113445865Y-114365870D02*
X113560151Y-114441108D01*
X113560151Y-114441108D02*
X113617293Y-114516347D01*
X113617293Y-114516347D02*
X113674436Y-114666823D01*
X113674436Y-114666823D02*
X113674436Y-115043013D01*
X113674436Y-115043013D02*
X113617293Y-115193489D01*
X113617293Y-115193489D02*
X113560151Y-115268728D01*
X113560151Y-115268728D02*
X113445865Y-115343966D01*
X113445865Y-115343966D02*
X113160151Y-115343966D01*
X113160151Y-115343966D02*
X113045865Y-115268728D01*
X113045865Y-115268728D02*
X112988722Y-115193489D01*
X108360149Y-117436249D02*
X108931578Y-117436249D01*
X108245863Y-117887678D02*
X108645863Y-116307678D01*
X108645863Y-116307678D02*
X109045863Y-117887678D01*
X109445863Y-116307678D02*
X109445863Y-117586725D01*
X109445863Y-117586725D02*
X109503006Y-117737201D01*
X109503006Y-117737201D02*
X109560149Y-117812440D01*
X109560149Y-117812440D02*
X109674434Y-117887678D01*
X109674434Y-117887678D02*
X109903006Y-117887678D01*
X109903006Y-117887678D02*
X110017291Y-117812440D01*
X110017291Y-117812440D02*
X110074434Y-117737201D01*
X110074434Y-117737201D02*
X110131577Y-117586725D01*
X110131577Y-117586725D02*
X110131577Y-116307678D01*
X110703006Y-117887678D02*
X110703006Y-116307678D01*
X110703006Y-116307678D02*
X110988720Y-116307678D01*
X110988720Y-116307678D02*
X111160149Y-116382916D01*
X111160149Y-116382916D02*
X111274434Y-116533392D01*
X111274434Y-116533392D02*
X111331577Y-116683868D01*
X111331577Y-116683868D02*
X111388720Y-116984820D01*
X111388720Y-116984820D02*
X111388720Y-117210535D01*
X111388720Y-117210535D02*
X111331577Y-117511487D01*
X111331577Y-117511487D02*
X111274434Y-117661963D01*
X111274434Y-117661963D02*
X111160149Y-117812440D01*
X111160149Y-117812440D02*
X110988720Y-117887678D01*
X110988720Y-117887678D02*
X110703006Y-117887678D01*
X113445863Y-117887678D02*
X112760149Y-117887678D01*
X113103006Y-117887678D02*
X113103006Y-116307678D01*
X113103006Y-116307678D02*
X112988720Y-116533392D01*
X112988720Y-116533392D02*
X112874435Y-116683868D01*
X112874435Y-116683868D02*
X112760149Y-116759106D01*
X108360149Y-119979961D02*
X108931578Y-119979961D01*
X108245863Y-120431390D02*
X108645863Y-118851390D01*
X108645863Y-118851390D02*
X109045863Y-120431390D01*
X109445863Y-118851390D02*
X109445863Y-120130437D01*
X109445863Y-120130437D02*
X109503006Y-120280913D01*
X109503006Y-120280913D02*
X109560149Y-120356152D01*
X109560149Y-120356152D02*
X109674434Y-120431390D01*
X109674434Y-120431390D02*
X109903006Y-120431390D01*
X109903006Y-120431390D02*
X110017291Y-120356152D01*
X110017291Y-120356152D02*
X110074434Y-120280913D01*
X110074434Y-120280913D02*
X110131577Y-120130437D01*
X110131577Y-120130437D02*
X110131577Y-118851390D01*
X110703006Y-120431390D02*
X110703006Y-118851390D01*
X110703006Y-118851390D02*
X110988720Y-118851390D01*
X110988720Y-118851390D02*
X111160149Y-118926628D01*
X111160149Y-118926628D02*
X111274434Y-119077104D01*
X111274434Y-119077104D02*
X111331577Y-119227580D01*
X111331577Y-119227580D02*
X111388720Y-119528532D01*
X111388720Y-119528532D02*
X111388720Y-119754247D01*
X111388720Y-119754247D02*
X111331577Y-120055199D01*
X111331577Y-120055199D02*
X111274434Y-120205675D01*
X111274434Y-120205675D02*
X111160149Y-120356152D01*
X111160149Y-120356152D02*
X110988720Y-120431390D01*
X110988720Y-120431390D02*
X110703006Y-120431390D01*
X112760149Y-119001866D02*
X112817292Y-118926628D01*
X112817292Y-118926628D02*
X112931578Y-118851390D01*
X112931578Y-118851390D02*
X113217292Y-118851390D01*
X113217292Y-118851390D02*
X113331578Y-118926628D01*
X113331578Y-118926628D02*
X113388720Y-119001866D01*
X113388720Y-119001866D02*
X113445863Y-119152342D01*
X113445863Y-119152342D02*
X113445863Y-119302818D01*
X113445863Y-119302818D02*
X113388720Y-119528532D01*
X113388720Y-119528532D02*
X112703006Y-120431390D01*
X112703006Y-120431390D02*
X113445863Y-120431390D01*
X108360149Y-122523673D02*
X108931578Y-122523673D01*
X108245863Y-122975102D02*
X108645863Y-121395102D01*
X108645863Y-121395102D02*
X109045863Y-122975102D01*
X109445863Y-121395102D02*
X109445863Y-122674149D01*
X109445863Y-122674149D02*
X109503006Y-122824625D01*
X109503006Y-122824625D02*
X109560149Y-122899864D01*
X109560149Y-122899864D02*
X109674434Y-122975102D01*
X109674434Y-122975102D02*
X109903006Y-122975102D01*
X109903006Y-122975102D02*
X110017291Y-122899864D01*
X110017291Y-122899864D02*
X110074434Y-122824625D01*
X110074434Y-122824625D02*
X110131577Y-122674149D01*
X110131577Y-122674149D02*
X110131577Y-121395102D01*
X110703006Y-122975102D02*
X110703006Y-121395102D01*
X110703006Y-121395102D02*
X110988720Y-121395102D01*
X110988720Y-121395102D02*
X111160149Y-121470340D01*
X111160149Y-121470340D02*
X111274434Y-121620816D01*
X111274434Y-121620816D02*
X111331577Y-121771292D01*
X111331577Y-121771292D02*
X111388720Y-122072244D01*
X111388720Y-122072244D02*
X111388720Y-122297959D01*
X111388720Y-122297959D02*
X111331577Y-122598911D01*
X111331577Y-122598911D02*
X111274434Y-122749387D01*
X111274434Y-122749387D02*
X111160149Y-122899864D01*
X111160149Y-122899864D02*
X110988720Y-122975102D01*
X110988720Y-122975102D02*
X110703006Y-122975102D01*
X112703006Y-121395102D02*
X113445863Y-121395102D01*
X113445863Y-121395102D02*
X113045863Y-121997006D01*
X113045863Y-121997006D02*
X113217292Y-121997006D01*
X113217292Y-121997006D02*
X113331578Y-122072244D01*
X113331578Y-122072244D02*
X113388720Y-122147483D01*
X113388720Y-122147483D02*
X113445863Y-122297959D01*
X113445863Y-122297959D02*
X113445863Y-122674149D01*
X113445863Y-122674149D02*
X113388720Y-122824625D01*
X113388720Y-122824625D02*
X113331578Y-122899864D01*
X113331578Y-122899864D02*
X113217292Y-122975102D01*
X113217292Y-122975102D02*
X112874435Y-122975102D01*
X112874435Y-122975102D02*
X112760149Y-122899864D01*
X112760149Y-122899864D02*
X112703006Y-122824625D01*
X108360149Y-125067385D02*
X108931578Y-125067385D01*
X108245863Y-125518814D02*
X108645863Y-123938814D01*
X108645863Y-123938814D02*
X109045863Y-125518814D01*
X109445863Y-123938814D02*
X109445863Y-125217861D01*
X109445863Y-125217861D02*
X109503006Y-125368337D01*
X109503006Y-125368337D02*
X109560149Y-125443576D01*
X109560149Y-125443576D02*
X109674434Y-125518814D01*
X109674434Y-125518814D02*
X109903006Y-125518814D01*
X109903006Y-125518814D02*
X110017291Y-125443576D01*
X110017291Y-125443576D02*
X110074434Y-125368337D01*
X110074434Y-125368337D02*
X110131577Y-125217861D01*
X110131577Y-125217861D02*
X110131577Y-123938814D01*
X110703006Y-125518814D02*
X110703006Y-123938814D01*
X110703006Y-123938814D02*
X110988720Y-123938814D01*
X110988720Y-123938814D02*
X111160149Y-124014052D01*
X111160149Y-124014052D02*
X111274434Y-124164528D01*
X111274434Y-124164528D02*
X111331577Y-124315004D01*
X111331577Y-124315004D02*
X111388720Y-124615956D01*
X111388720Y-124615956D02*
X111388720Y-124841671D01*
X111388720Y-124841671D02*
X111331577Y-125142623D01*
X111331577Y-125142623D02*
X111274434Y-125293099D01*
X111274434Y-125293099D02*
X111160149Y-125443576D01*
X111160149Y-125443576D02*
X110988720Y-125518814D01*
X110988720Y-125518814D02*
X110703006Y-125518814D01*
X113331578Y-124465480D02*
X113331578Y-125518814D01*
X113045863Y-123863576D02*
X112760149Y-124992147D01*
X112760149Y-124992147D02*
X113503006Y-124992147D01*
X109045863Y-126557764D02*
X108931578Y-126482526D01*
X108931578Y-126482526D02*
X108760149Y-126482526D01*
X108760149Y-126482526D02*
X108588720Y-126557764D01*
X108588720Y-126557764D02*
X108474435Y-126708240D01*
X108474435Y-126708240D02*
X108417292Y-126858716D01*
X108417292Y-126858716D02*
X108360149Y-127159668D01*
X108360149Y-127159668D02*
X108360149Y-127385383D01*
X108360149Y-127385383D02*
X108417292Y-127686335D01*
X108417292Y-127686335D02*
X108474435Y-127836811D01*
X108474435Y-127836811D02*
X108588720Y-127987288D01*
X108588720Y-127987288D02*
X108760149Y-128062526D01*
X108760149Y-128062526D02*
X108874435Y-128062526D01*
X108874435Y-128062526D02*
X109045863Y-127987288D01*
X109045863Y-127987288D02*
X109103006Y-127912049D01*
X109103006Y-127912049D02*
X109103006Y-127385383D01*
X109103006Y-127385383D02*
X108874435Y-127385383D01*
X109617292Y-128062526D02*
X109617292Y-126482526D01*
X109617292Y-126482526D02*
X110303006Y-128062526D01*
X110303006Y-128062526D02*
X110303006Y-126482526D01*
X110874435Y-128062526D02*
X110874435Y-126482526D01*
X110874435Y-126482526D02*
X111160149Y-126482526D01*
X111160149Y-126482526D02*
X111331578Y-126557764D01*
X111331578Y-126557764D02*
X111445863Y-126708240D01*
X111445863Y-126708240D02*
X111503006Y-126858716D01*
X111503006Y-126858716D02*
X111560149Y-127159668D01*
X111560149Y-127159668D02*
X111560149Y-127385383D01*
X111560149Y-127385383D02*
X111503006Y-127686335D01*
X111503006Y-127686335D02*
X111445863Y-127836811D01*
X111445863Y-127836811D02*
X111331578Y-127987288D01*
X111331578Y-127987288D02*
X111160149Y-128062526D01*
X111160149Y-128062526D02*
X110874435Y-128062526D01*
X109045863Y-129101476D02*
X108931578Y-129026238D01*
X108931578Y-129026238D02*
X108760149Y-129026238D01*
X108760149Y-129026238D02*
X108588720Y-129101476D01*
X108588720Y-129101476D02*
X108474435Y-129251952D01*
X108474435Y-129251952D02*
X108417292Y-129402428D01*
X108417292Y-129402428D02*
X108360149Y-129703380D01*
X108360149Y-129703380D02*
X108360149Y-129929095D01*
X108360149Y-129929095D02*
X108417292Y-130230047D01*
X108417292Y-130230047D02*
X108474435Y-130380523D01*
X108474435Y-130380523D02*
X108588720Y-130531000D01*
X108588720Y-130531000D02*
X108760149Y-130606238D01*
X108760149Y-130606238D02*
X108874435Y-130606238D01*
X108874435Y-130606238D02*
X109045863Y-130531000D01*
X109045863Y-130531000D02*
X109103006Y-130455761D01*
X109103006Y-130455761D02*
X109103006Y-129929095D01*
X109103006Y-129929095D02*
X108874435Y-129929095D01*
X109617292Y-130606238D02*
X109617292Y-129026238D01*
X109617292Y-129026238D02*
X110303006Y-130606238D01*
X110303006Y-130606238D02*
X110303006Y-129026238D01*
X110874435Y-130606238D02*
X110874435Y-129026238D01*
X110874435Y-129026238D02*
X111160149Y-129026238D01*
X111160149Y-129026238D02*
X111331578Y-129101476D01*
X111331578Y-129101476D02*
X111445863Y-129251952D01*
X111445863Y-129251952D02*
X111503006Y-129402428D01*
X111503006Y-129402428D02*
X111560149Y-129703380D01*
X111560149Y-129703380D02*
X111560149Y-129929095D01*
X111560149Y-129929095D02*
X111503006Y-130230047D01*
X111503006Y-130230047D02*
X111445863Y-130380523D01*
X111445863Y-130380523D02*
X111331578Y-130531000D01*
X111331578Y-130531000D02*
X111160149Y-130606238D01*
X111160149Y-130606238D02*
X110874435Y-130606238D01*
D11*
X136601503Y-57062475D02*
X136791979Y-57062475D01*
X136791979Y-57062475D02*
X136887217Y-57014856D01*
X136887217Y-57014856D02*
X136934836Y-56967236D01*
X136934836Y-56967236D02*
X137030074Y-56824379D01*
X137030074Y-56824379D02*
X137077693Y-56633903D01*
X137077693Y-56633903D02*
X137077693Y-56252951D01*
X137077693Y-56252951D02*
X137030074Y-56157713D01*
X137030074Y-56157713D02*
X136982455Y-56110094D01*
X136982455Y-56110094D02*
X136887217Y-56062475D01*
X136887217Y-56062475D02*
X136696741Y-56062475D01*
X136696741Y-56062475D02*
X136601503Y-56110094D01*
X136601503Y-56110094D02*
X136553884Y-56157713D01*
X136553884Y-56157713D02*
X136506265Y-56252951D01*
X136506265Y-56252951D02*
X136506265Y-56491046D01*
X136506265Y-56491046D02*
X136553884Y-56586284D01*
X136553884Y-56586284D02*
X136601503Y-56633903D01*
X136601503Y-56633903D02*
X136696741Y-56681522D01*
X136696741Y-56681522D02*
X136887217Y-56681522D01*
X136887217Y-56681522D02*
X136982455Y-56633903D01*
X136982455Y-56633903D02*
X137030074Y-56586284D01*
X137030074Y-56586284D02*
X137077693Y-56491046D01*
X137363408Y-56062475D02*
X137696741Y-57062475D01*
X137696741Y-57062475D02*
X138030074Y-56062475D01*
X138982456Y-56062475D02*
X139553884Y-56062475D01*
X139268170Y-57062475D02*
X139268170Y-56062475D01*
X140077694Y-56062475D02*
X140268170Y-56062475D01*
X140268170Y-56062475D02*
X140363408Y-56110094D01*
X140363408Y-56110094D02*
X140458646Y-56205332D01*
X140458646Y-56205332D02*
X140506265Y-56395808D01*
X140506265Y-56395808D02*
X140506265Y-56729141D01*
X140506265Y-56729141D02*
X140458646Y-56919617D01*
X140458646Y-56919617D02*
X140363408Y-57014856D01*
X140363408Y-57014856D02*
X140268170Y-57062475D01*
X140268170Y-57062475D02*
X140077694Y-57062475D01*
X140077694Y-57062475D02*
X139982456Y-57014856D01*
X139982456Y-57014856D02*
X139887218Y-56919617D01*
X139887218Y-56919617D02*
X139839599Y-56729141D01*
X139839599Y-56729141D02*
X139839599Y-56395808D01*
X139839599Y-56395808D02*
X139887218Y-56205332D01*
X139887218Y-56205332D02*
X139982456Y-56110094D01*
X139982456Y-56110094D02*
X140077694Y-56062475D01*
X142172932Y-56062475D02*
X141696742Y-56062475D01*
X141696742Y-56062475D02*
X141649123Y-56538665D01*
X141649123Y-56538665D02*
X141696742Y-56491046D01*
X141696742Y-56491046D02*
X141791980Y-56443427D01*
X141791980Y-56443427D02*
X142030075Y-56443427D01*
X142030075Y-56443427D02*
X142125313Y-56491046D01*
X142125313Y-56491046D02*
X142172932Y-56538665D01*
X142172932Y-56538665D02*
X142220551Y-56633903D01*
X142220551Y-56633903D02*
X142220551Y-56871998D01*
X142220551Y-56871998D02*
X142172932Y-56967236D01*
X142172932Y-56967236D02*
X142125313Y-57014856D01*
X142125313Y-57014856D02*
X142030075Y-57062475D01*
X142030075Y-57062475D02*
X141791980Y-57062475D01*
X141791980Y-57062475D02*
X141696742Y-57014856D01*
X141696742Y-57014856D02*
X141649123Y-56967236D01*
X142506266Y-56062475D02*
X142839599Y-57062475D01*
X142839599Y-57062475D02*
X143172932Y-56062475D01*
X136839598Y-57672419D02*
X136839598Y-58386704D01*
X136839598Y-58386704D02*
X136791979Y-58529561D01*
X136791979Y-58529561D02*
X136696741Y-58624800D01*
X136696741Y-58624800D02*
X136553884Y-58672419D01*
X136553884Y-58672419D02*
X136458646Y-58672419D01*
X137315789Y-57672419D02*
X137315789Y-58481942D01*
X137315789Y-58481942D02*
X137363408Y-58577180D01*
X137363408Y-58577180D02*
X137411027Y-58624800D01*
X137411027Y-58624800D02*
X137506265Y-58672419D01*
X137506265Y-58672419D02*
X137696741Y-58672419D01*
X137696741Y-58672419D02*
X137791979Y-58624800D01*
X137791979Y-58624800D02*
X137839598Y-58577180D01*
X137839598Y-58577180D02*
X137887217Y-58481942D01*
X137887217Y-58481942D02*
X137887217Y-57672419D01*
X138363408Y-58672419D02*
X138363408Y-57672419D01*
X138363408Y-57672419D02*
X138696741Y-58386704D01*
X138696741Y-58386704D02*
X139030074Y-57672419D01*
X139030074Y-57672419D02*
X139030074Y-58672419D01*
X139506265Y-58672419D02*
X139506265Y-57672419D01*
X139506265Y-57672419D02*
X139887217Y-57672419D01*
X139887217Y-57672419D02*
X139982455Y-57720038D01*
X139982455Y-57720038D02*
X140030074Y-57767657D01*
X140030074Y-57767657D02*
X140077693Y-57862895D01*
X140077693Y-57862895D02*
X140077693Y-58005752D01*
X140077693Y-58005752D02*
X140030074Y-58100990D01*
X140030074Y-58100990D02*
X139982455Y-58148609D01*
X139982455Y-58148609D02*
X139887217Y-58196228D01*
X139887217Y-58196228D02*
X139506265Y-58196228D01*
X140506265Y-58148609D02*
X140839598Y-58148609D01*
X140982455Y-58672419D02*
X140506265Y-58672419D01*
X140506265Y-58672419D02*
X140506265Y-57672419D01*
X140506265Y-57672419D02*
X140982455Y-57672419D01*
X141982455Y-58672419D02*
X141649122Y-58196228D01*
X141411027Y-58672419D02*
X141411027Y-57672419D01*
X141411027Y-57672419D02*
X141791979Y-57672419D01*
X141791979Y-57672419D02*
X141887217Y-57720038D01*
X141887217Y-57720038D02*
X141934836Y-57767657D01*
X141934836Y-57767657D02*
X141982455Y-57862895D01*
X141982455Y-57862895D02*
X141982455Y-58005752D01*
X141982455Y-58005752D02*
X141934836Y-58100990D01*
X141934836Y-58100990D02*
X141887217Y-58148609D01*
X141887217Y-58148609D02*
X141791979Y-58196228D01*
X141791979Y-58196228D02*
X141411027Y-58196228D01*
X169989598Y-51272419D02*
X169989598Y-51986704D01*
X169989598Y-51986704D02*
X169941979Y-52129561D01*
X169941979Y-52129561D02*
X169846741Y-52224800D01*
X169846741Y-52224800D02*
X169703884Y-52272419D01*
X169703884Y-52272419D02*
X169608646Y-52272419D01*
X170941979Y-52272419D02*
X170465789Y-52272419D01*
X170465789Y-52272419D02*
X170465789Y-51272419D01*
X171846741Y-52177180D02*
X171799122Y-52224800D01*
X171799122Y-52224800D02*
X171656265Y-52272419D01*
X171656265Y-52272419D02*
X171561027Y-52272419D01*
X171561027Y-52272419D02*
X171418170Y-52224800D01*
X171418170Y-52224800D02*
X171322932Y-52129561D01*
X171322932Y-52129561D02*
X171275313Y-52034323D01*
X171275313Y-52034323D02*
X171227694Y-51843847D01*
X171227694Y-51843847D02*
X171227694Y-51700990D01*
X171227694Y-51700990D02*
X171275313Y-51510514D01*
X171275313Y-51510514D02*
X171322932Y-51415276D01*
X171322932Y-51415276D02*
X171418170Y-51320038D01*
X171418170Y-51320038D02*
X171561027Y-51272419D01*
X171561027Y-51272419D02*
X171656265Y-51272419D01*
X171656265Y-51272419D02*
X171799122Y-51320038D01*
X171799122Y-51320038D02*
X171846741Y-51367657D01*
X172561027Y-51272419D02*
X172561027Y-51986704D01*
X172561027Y-51986704D02*
X172513408Y-52129561D01*
X172513408Y-52129561D02*
X172418170Y-52224800D01*
X172418170Y-52224800D02*
X172275313Y-52272419D01*
X172275313Y-52272419D02*
X172180075Y-52272419D01*
X173513408Y-52272419D02*
X173037218Y-52272419D01*
X173037218Y-52272419D02*
X173037218Y-51272419D01*
X174418170Y-52177180D02*
X174370551Y-52224800D01*
X174370551Y-52224800D02*
X174227694Y-52272419D01*
X174227694Y-52272419D02*
X174132456Y-52272419D01*
X174132456Y-52272419D02*
X173989599Y-52224800D01*
X173989599Y-52224800D02*
X173894361Y-52129561D01*
X173894361Y-52129561D02*
X173846742Y-52034323D01*
X173846742Y-52034323D02*
X173799123Y-51843847D01*
X173799123Y-51843847D02*
X173799123Y-51700990D01*
X173799123Y-51700990D02*
X173846742Y-51510514D01*
X173846742Y-51510514D02*
X173894361Y-51415276D01*
X173894361Y-51415276D02*
X173989599Y-51320038D01*
X173989599Y-51320038D02*
X174132456Y-51272419D01*
X174132456Y-51272419D02*
X174227694Y-51272419D01*
X174227694Y-51272419D02*
X174370551Y-51320038D01*
X174370551Y-51320038D02*
X174418170Y-51367657D01*
X175132456Y-51272419D02*
X175132456Y-51986704D01*
X175132456Y-51986704D02*
X175084837Y-52129561D01*
X175084837Y-52129561D02*
X174989599Y-52224800D01*
X174989599Y-52224800D02*
X174846742Y-52272419D01*
X174846742Y-52272419D02*
X174751504Y-52272419D01*
X176084837Y-52272419D02*
X175608647Y-52272419D01*
X175608647Y-52272419D02*
X175608647Y-51272419D01*
X176989599Y-52177180D02*
X176941980Y-52224800D01*
X176941980Y-52224800D02*
X176799123Y-52272419D01*
X176799123Y-52272419D02*
X176703885Y-52272419D01*
X176703885Y-52272419D02*
X176561028Y-52224800D01*
X176561028Y-52224800D02*
X176465790Y-52129561D01*
X176465790Y-52129561D02*
X176418171Y-52034323D01*
X176418171Y-52034323D02*
X176370552Y-51843847D01*
X176370552Y-51843847D02*
X176370552Y-51700990D01*
X176370552Y-51700990D02*
X176418171Y-51510514D01*
X176418171Y-51510514D02*
X176465790Y-51415276D01*
X176465790Y-51415276D02*
X176561028Y-51320038D01*
X176561028Y-51320038D02*
X176703885Y-51272419D01*
X176703885Y-51272419D02*
X176799123Y-51272419D01*
X176799123Y-51272419D02*
X176941980Y-51320038D01*
X176941980Y-51320038D02*
X176989599Y-51367657D01*
X177703885Y-51272419D02*
X177703885Y-51986704D01*
X177703885Y-51986704D02*
X177656266Y-52129561D01*
X177656266Y-52129561D02*
X177561028Y-52224800D01*
X177561028Y-52224800D02*
X177418171Y-52272419D01*
X177418171Y-52272419D02*
X177322933Y-52272419D01*
X178656266Y-52272419D02*
X178180076Y-52272419D01*
X178180076Y-52272419D02*
X178180076Y-51272419D01*
X179561028Y-52177180D02*
X179513409Y-52224800D01*
X179513409Y-52224800D02*
X179370552Y-52272419D01*
X179370552Y-52272419D02*
X179275314Y-52272419D01*
X179275314Y-52272419D02*
X179132457Y-52224800D01*
X179132457Y-52224800D02*
X179037219Y-52129561D01*
X179037219Y-52129561D02*
X178989600Y-52034323D01*
X178989600Y-52034323D02*
X178941981Y-51843847D01*
X178941981Y-51843847D02*
X178941981Y-51700990D01*
X178941981Y-51700990D02*
X178989600Y-51510514D01*
X178989600Y-51510514D02*
X179037219Y-51415276D01*
X179037219Y-51415276D02*
X179132457Y-51320038D01*
X179132457Y-51320038D02*
X179275314Y-51272419D01*
X179275314Y-51272419D02*
X179370552Y-51272419D01*
X179370552Y-51272419D02*
X179513409Y-51320038D01*
X179513409Y-51320038D02*
X179561028Y-51367657D01*
D10*
X101411279Y-100710644D02*
X101268422Y-100635406D01*
X101268422Y-100635406D02*
X101054136Y-100635406D01*
X101054136Y-100635406D02*
X100839850Y-100710644D01*
X100839850Y-100710644D02*
X100696993Y-100861120D01*
X100696993Y-100861120D02*
X100625564Y-101011596D01*
X100625564Y-101011596D02*
X100554136Y-101312548D01*
X100554136Y-101312548D02*
X100554136Y-101538263D01*
X100554136Y-101538263D02*
X100625564Y-101839215D01*
X100625564Y-101839215D02*
X100696993Y-101989691D01*
X100696993Y-101989691D02*
X100839850Y-102140168D01*
X100839850Y-102140168D02*
X101054136Y-102215406D01*
X101054136Y-102215406D02*
X101196993Y-102215406D01*
X101196993Y-102215406D02*
X101411279Y-102140168D01*
X101411279Y-102140168D02*
X101482707Y-102064929D01*
X101482707Y-102064929D02*
X101482707Y-101538263D01*
X101482707Y-101538263D02*
X101196993Y-101538263D01*
X101411279Y-103254356D02*
X101268422Y-103179118D01*
X101268422Y-103179118D02*
X101054136Y-103179118D01*
X101054136Y-103179118D02*
X100839850Y-103254356D01*
X100839850Y-103254356D02*
X100696993Y-103404832D01*
X100696993Y-103404832D02*
X100625564Y-103555308D01*
X100625564Y-103555308D02*
X100554136Y-103856260D01*
X100554136Y-103856260D02*
X100554136Y-104081975D01*
X100554136Y-104081975D02*
X100625564Y-104382927D01*
X100625564Y-104382927D02*
X100696993Y-104533403D01*
X100696993Y-104533403D02*
X100839850Y-104683880D01*
X100839850Y-104683880D02*
X101054136Y-104759118D01*
X101054136Y-104759118D02*
X101196993Y-104759118D01*
X101196993Y-104759118D02*
X101411279Y-104683880D01*
X101411279Y-104683880D02*
X101482707Y-104608641D01*
X101482707Y-104608641D02*
X101482707Y-104081975D01*
X101482707Y-104081975D02*
X101196993Y-104081975D01*
X101411279Y-105798068D02*
X101268422Y-105722830D01*
X101268422Y-105722830D02*
X101054136Y-105722830D01*
X101054136Y-105722830D02*
X100839850Y-105798068D01*
X100839850Y-105798068D02*
X100696993Y-105948544D01*
X100696993Y-105948544D02*
X100625564Y-106099020D01*
X100625564Y-106099020D02*
X100554136Y-106399972D01*
X100554136Y-106399972D02*
X100554136Y-106625687D01*
X100554136Y-106625687D02*
X100625564Y-106926639D01*
X100625564Y-106926639D02*
X100696993Y-107077115D01*
X100696993Y-107077115D02*
X100839850Y-107227592D01*
X100839850Y-107227592D02*
X101054136Y-107302830D01*
X101054136Y-107302830D02*
X101196993Y-107302830D01*
X101196993Y-107302830D02*
X101411279Y-107227592D01*
X101411279Y-107227592D02*
X101482707Y-107152353D01*
X101482707Y-107152353D02*
X101482707Y-106625687D01*
X101482707Y-106625687D02*
X101196993Y-106625687D01*
X101411279Y-108341780D02*
X101268422Y-108266542D01*
X101268422Y-108266542D02*
X101054136Y-108266542D01*
X101054136Y-108266542D02*
X100839850Y-108341780D01*
X100839850Y-108341780D02*
X100696993Y-108492256D01*
X100696993Y-108492256D02*
X100625564Y-108642732D01*
X100625564Y-108642732D02*
X100554136Y-108943684D01*
X100554136Y-108943684D02*
X100554136Y-109169399D01*
X100554136Y-109169399D02*
X100625564Y-109470351D01*
X100625564Y-109470351D02*
X100696993Y-109620827D01*
X100696993Y-109620827D02*
X100839850Y-109771304D01*
X100839850Y-109771304D02*
X101054136Y-109846542D01*
X101054136Y-109846542D02*
X101196993Y-109846542D01*
X101196993Y-109846542D02*
X101411279Y-109771304D01*
X101411279Y-109771304D02*
X101482707Y-109696065D01*
X101482707Y-109696065D02*
X101482707Y-109169399D01*
X101482707Y-109169399D02*
X101196993Y-109169399D01*
X101411279Y-110885492D02*
X101268422Y-110810254D01*
X101268422Y-110810254D02*
X101054136Y-110810254D01*
X101054136Y-110810254D02*
X100839850Y-110885492D01*
X100839850Y-110885492D02*
X100696993Y-111035968D01*
X100696993Y-111035968D02*
X100625564Y-111186444D01*
X100625564Y-111186444D02*
X100554136Y-111487396D01*
X100554136Y-111487396D02*
X100554136Y-111713111D01*
X100554136Y-111713111D02*
X100625564Y-112014063D01*
X100625564Y-112014063D02*
X100696993Y-112164539D01*
X100696993Y-112164539D02*
X100839850Y-112315016D01*
X100839850Y-112315016D02*
X101054136Y-112390254D01*
X101054136Y-112390254D02*
X101196993Y-112390254D01*
X101196993Y-112390254D02*
X101411279Y-112315016D01*
X101411279Y-112315016D02*
X101482707Y-112239777D01*
X101482707Y-112239777D02*
X101482707Y-111713111D01*
X101482707Y-111713111D02*
X101196993Y-111713111D01*
X101411279Y-113429204D02*
X101268422Y-113353966D01*
X101268422Y-113353966D02*
X101054136Y-113353966D01*
X101054136Y-113353966D02*
X100839850Y-113429204D01*
X100839850Y-113429204D02*
X100696993Y-113579680D01*
X100696993Y-113579680D02*
X100625564Y-113730156D01*
X100625564Y-113730156D02*
X100554136Y-114031108D01*
X100554136Y-114031108D02*
X100554136Y-114256823D01*
X100554136Y-114256823D02*
X100625564Y-114557775D01*
X100625564Y-114557775D02*
X100696993Y-114708251D01*
X100696993Y-114708251D02*
X100839850Y-114858728D01*
X100839850Y-114858728D02*
X101054136Y-114933966D01*
X101054136Y-114933966D02*
X101196993Y-114933966D01*
X101196993Y-114933966D02*
X101411279Y-114858728D01*
X101411279Y-114858728D02*
X101482707Y-114783489D01*
X101482707Y-114783489D02*
X101482707Y-114256823D01*
X101482707Y-114256823D02*
X101196993Y-114256823D01*
X101411279Y-115972916D02*
X101268422Y-115897678D01*
X101268422Y-115897678D02*
X101054136Y-115897678D01*
X101054136Y-115897678D02*
X100839850Y-115972916D01*
X100839850Y-115972916D02*
X100696993Y-116123392D01*
X100696993Y-116123392D02*
X100625564Y-116273868D01*
X100625564Y-116273868D02*
X100554136Y-116574820D01*
X100554136Y-116574820D02*
X100554136Y-116800535D01*
X100554136Y-116800535D02*
X100625564Y-117101487D01*
X100625564Y-117101487D02*
X100696993Y-117251963D01*
X100696993Y-117251963D02*
X100839850Y-117402440D01*
X100839850Y-117402440D02*
X101054136Y-117477678D01*
X101054136Y-117477678D02*
X101196993Y-117477678D01*
X101196993Y-117477678D02*
X101411279Y-117402440D01*
X101411279Y-117402440D02*
X101482707Y-117327201D01*
X101482707Y-117327201D02*
X101482707Y-116800535D01*
X101482707Y-116800535D02*
X101196993Y-116800535D01*
X101411279Y-118516628D02*
X101268422Y-118441390D01*
X101268422Y-118441390D02*
X101054136Y-118441390D01*
X101054136Y-118441390D02*
X100839850Y-118516628D01*
X100839850Y-118516628D02*
X100696993Y-118667104D01*
X100696993Y-118667104D02*
X100625564Y-118817580D01*
X100625564Y-118817580D02*
X100554136Y-119118532D01*
X100554136Y-119118532D02*
X100554136Y-119344247D01*
X100554136Y-119344247D02*
X100625564Y-119645199D01*
X100625564Y-119645199D02*
X100696993Y-119795675D01*
X100696993Y-119795675D02*
X100839850Y-119946152D01*
X100839850Y-119946152D02*
X101054136Y-120021390D01*
X101054136Y-120021390D02*
X101196993Y-120021390D01*
X101196993Y-120021390D02*
X101411279Y-119946152D01*
X101411279Y-119946152D02*
X101482707Y-119870913D01*
X101482707Y-119870913D02*
X101482707Y-119344247D01*
X101482707Y-119344247D02*
X101196993Y-119344247D01*
X101411279Y-121060340D02*
X101268422Y-120985102D01*
X101268422Y-120985102D02*
X101054136Y-120985102D01*
X101054136Y-120985102D02*
X100839850Y-121060340D01*
X100839850Y-121060340D02*
X100696993Y-121210816D01*
X100696993Y-121210816D02*
X100625564Y-121361292D01*
X100625564Y-121361292D02*
X100554136Y-121662244D01*
X100554136Y-121662244D02*
X100554136Y-121887959D01*
X100554136Y-121887959D02*
X100625564Y-122188911D01*
X100625564Y-122188911D02*
X100696993Y-122339387D01*
X100696993Y-122339387D02*
X100839850Y-122489864D01*
X100839850Y-122489864D02*
X101054136Y-122565102D01*
X101054136Y-122565102D02*
X101196993Y-122565102D01*
X101196993Y-122565102D02*
X101411279Y-122489864D01*
X101411279Y-122489864D02*
X101482707Y-122414625D01*
X101482707Y-122414625D02*
X101482707Y-121887959D01*
X101482707Y-121887959D02*
X101196993Y-121887959D01*
X101411279Y-123604052D02*
X101268422Y-123528814D01*
X101268422Y-123528814D02*
X101054136Y-123528814D01*
X101054136Y-123528814D02*
X100839850Y-123604052D01*
X100839850Y-123604052D02*
X100696993Y-123754528D01*
X100696993Y-123754528D02*
X100625564Y-123905004D01*
X100625564Y-123905004D02*
X100554136Y-124205956D01*
X100554136Y-124205956D02*
X100554136Y-124431671D01*
X100554136Y-124431671D02*
X100625564Y-124732623D01*
X100625564Y-124732623D02*
X100696993Y-124883099D01*
X100696993Y-124883099D02*
X100839850Y-125033576D01*
X100839850Y-125033576D02*
X101054136Y-125108814D01*
X101054136Y-125108814D02*
X101196993Y-125108814D01*
X101196993Y-125108814D02*
X101411279Y-125033576D01*
X101411279Y-125033576D02*
X101482707Y-124958337D01*
X101482707Y-124958337D02*
X101482707Y-124431671D01*
X101482707Y-124431671D02*
X101196993Y-124431671D01*
X101411279Y-126147764D02*
X101268422Y-126072526D01*
X101268422Y-126072526D02*
X101054136Y-126072526D01*
X101054136Y-126072526D02*
X100839850Y-126147764D01*
X100839850Y-126147764D02*
X100696993Y-126298240D01*
X100696993Y-126298240D02*
X100625564Y-126448716D01*
X100625564Y-126448716D02*
X100554136Y-126749668D01*
X100554136Y-126749668D02*
X100554136Y-126975383D01*
X100554136Y-126975383D02*
X100625564Y-127276335D01*
X100625564Y-127276335D02*
X100696993Y-127426811D01*
X100696993Y-127426811D02*
X100839850Y-127577288D01*
X100839850Y-127577288D02*
X101054136Y-127652526D01*
X101054136Y-127652526D02*
X101196993Y-127652526D01*
X101196993Y-127652526D02*
X101411279Y-127577288D01*
X101411279Y-127577288D02*
X101482707Y-127502049D01*
X101482707Y-127502049D02*
X101482707Y-126975383D01*
X101482707Y-126975383D02*
X101196993Y-126975383D01*
X101411279Y-128691476D02*
X101268422Y-128616238D01*
X101268422Y-128616238D02*
X101054136Y-128616238D01*
X101054136Y-128616238D02*
X100839850Y-128691476D01*
X100839850Y-128691476D02*
X100696993Y-128841952D01*
X100696993Y-128841952D02*
X100625564Y-128992428D01*
X100625564Y-128992428D02*
X100554136Y-129293380D01*
X100554136Y-129293380D02*
X100554136Y-129519095D01*
X100554136Y-129519095D02*
X100625564Y-129820047D01*
X100625564Y-129820047D02*
X100696993Y-129970523D01*
X100696993Y-129970523D02*
X100839850Y-130121000D01*
X100839850Y-130121000D02*
X101054136Y-130196238D01*
X101054136Y-130196238D02*
X101196993Y-130196238D01*
X101196993Y-130196238D02*
X101411279Y-130121000D01*
X101411279Y-130121000D02*
X101482707Y-130045761D01*
X101482707Y-130045761D02*
X101482707Y-129519095D01*
X101482707Y-129519095D02*
X101196993Y-129519095D01*
D11*
X148537217Y-57248609D02*
X148203884Y-57248609D01*
X148203884Y-57772419D02*
X148203884Y-56772419D01*
X148203884Y-56772419D02*
X148680074Y-56772419D01*
X149632455Y-57772419D02*
X149299122Y-57296228D01*
X149061027Y-57772419D02*
X149061027Y-56772419D01*
X149061027Y-56772419D02*
X149441979Y-56772419D01*
X149441979Y-56772419D02*
X149537217Y-56820038D01*
X149537217Y-56820038D02*
X149584836Y-56867657D01*
X149584836Y-56867657D02*
X149632455Y-56962895D01*
X149632455Y-56962895D02*
X149632455Y-57105752D01*
X149632455Y-57105752D02*
X149584836Y-57200990D01*
X149584836Y-57200990D02*
X149537217Y-57248609D01*
X149537217Y-57248609D02*
X149441979Y-57296228D01*
X149441979Y-57296228D02*
X149061027Y-57296228D01*
X150061027Y-57248609D02*
X150394360Y-57248609D01*
X150537217Y-57772419D02*
X150061027Y-57772419D01*
X150061027Y-57772419D02*
X150061027Y-56772419D01*
X150061027Y-56772419D02*
X150537217Y-56772419D01*
X150822932Y-56772419D02*
X151394360Y-56772419D01*
X151108646Y-57772419D02*
X151108646Y-56772419D01*
X152061027Y-57248609D02*
X152203884Y-57296228D01*
X152203884Y-57296228D02*
X152251503Y-57343847D01*
X152251503Y-57343847D02*
X152299122Y-57439085D01*
X152299122Y-57439085D02*
X152299122Y-57581942D01*
X152299122Y-57581942D02*
X152251503Y-57677180D01*
X152251503Y-57677180D02*
X152203884Y-57724800D01*
X152203884Y-57724800D02*
X152108646Y-57772419D01*
X152108646Y-57772419D02*
X151727694Y-57772419D01*
X151727694Y-57772419D02*
X151727694Y-56772419D01*
X151727694Y-56772419D02*
X152061027Y-56772419D01*
X152061027Y-56772419D02*
X152156265Y-56820038D01*
X152156265Y-56820038D02*
X152203884Y-56867657D01*
X152203884Y-56867657D02*
X152251503Y-56962895D01*
X152251503Y-56962895D02*
X152251503Y-57058133D01*
X152251503Y-57058133D02*
X152203884Y-57153371D01*
X152203884Y-57153371D02*
X152156265Y-57200990D01*
X152156265Y-57200990D02*
X152061027Y-57248609D01*
X152061027Y-57248609D02*
X151727694Y-57248609D01*
X152918170Y-56772419D02*
X153108646Y-56772419D01*
X153108646Y-56772419D02*
X153203884Y-56820038D01*
X153203884Y-56820038D02*
X153299122Y-56915276D01*
X153299122Y-56915276D02*
X153346741Y-57105752D01*
X153346741Y-57105752D02*
X153346741Y-57439085D01*
X153346741Y-57439085D02*
X153299122Y-57629561D01*
X153299122Y-57629561D02*
X153203884Y-57724800D01*
X153203884Y-57724800D02*
X153108646Y-57772419D01*
X153108646Y-57772419D02*
X152918170Y-57772419D01*
X152918170Y-57772419D02*
X152822932Y-57724800D01*
X152822932Y-57724800D02*
X152727694Y-57629561D01*
X152727694Y-57629561D02*
X152680075Y-57439085D01*
X152680075Y-57439085D02*
X152680075Y-57105752D01*
X152680075Y-57105752D02*
X152727694Y-56915276D01*
X152727694Y-56915276D02*
X152822932Y-56820038D01*
X152822932Y-56820038D02*
X152918170Y-56772419D01*
X153727694Y-57486704D02*
X154203884Y-57486704D01*
X153632456Y-57772419D02*
X153965789Y-56772419D01*
X153965789Y-56772419D02*
X154299122Y-57772419D01*
X155203884Y-57772419D02*
X154870551Y-57296228D01*
X154632456Y-57772419D02*
X154632456Y-56772419D01*
X154632456Y-56772419D02*
X155013408Y-56772419D01*
X155013408Y-56772419D02*
X155108646Y-56820038D01*
X155108646Y-56820038D02*
X155156265Y-56867657D01*
X155156265Y-56867657D02*
X155203884Y-56962895D01*
X155203884Y-56962895D02*
X155203884Y-57105752D01*
X155203884Y-57105752D02*
X155156265Y-57200990D01*
X155156265Y-57200990D02*
X155108646Y-57248609D01*
X155108646Y-57248609D02*
X155013408Y-57296228D01*
X155013408Y-57296228D02*
X154632456Y-57296228D01*
X155632456Y-57772419D02*
X155632456Y-56772419D01*
X155632456Y-56772419D02*
X155870551Y-56772419D01*
X155870551Y-56772419D02*
X156013408Y-56820038D01*
X156013408Y-56820038D02*
X156108646Y-56915276D01*
X156108646Y-56915276D02*
X156156265Y-57010514D01*
X156156265Y-57010514D02*
X156203884Y-57200990D01*
X156203884Y-57200990D02*
X156203884Y-57343847D01*
X156203884Y-57343847D02*
X156156265Y-57534323D01*
X156156265Y-57534323D02*
X156108646Y-57629561D01*
X156108646Y-57629561D02*
X156013408Y-57724800D01*
X156013408Y-57724800D02*
X155870551Y-57772419D01*
X155870551Y-57772419D02*
X155632456Y-57772419D01*
G36*
X159806112Y-61298863D02*
G01*
X159925904Y-61318742D01*
X160013729Y-61347644D01*
X160093760Y-61392166D01*
X160160920Y-61449512D01*
X160216573Y-61520690D01*
X160257900Y-61601155D01*
X160282663Y-61686963D01*
X160291067Y-61779710D01*
X160283640Y-61866540D01*
X160261794Y-61946840D01*
X160225488Y-62021999D01*
X160175954Y-62089059D01*
X160112379Y-62147914D01*
X160032903Y-62198953D01*
X160178291Y-62260454D01*
X160274703Y-62324616D01*
X160349949Y-62404103D01*
X160406594Y-62499005D01*
X160441777Y-62604724D01*
X160453733Y-62720655D01*
X160442463Y-62838550D01*
X160409546Y-62944843D01*
X160354939Y-63042031D01*
X160276779Y-63131838D01*
X160183772Y-63203554D01*
X160075709Y-63255760D01*
X159949703Y-63288464D01*
X159801971Y-63300000D01*
X159249982Y-63300000D01*
X159249982Y-63104605D01*
X159446720Y-63104605D01*
X159695359Y-63104605D01*
X159843423Y-63098516D01*
X159947483Y-63082872D01*
X160017882Y-63061008D01*
X160081863Y-63026304D01*
X160136408Y-62981073D01*
X160182501Y-62924476D01*
X160217267Y-62860340D01*
X160237784Y-62793742D01*
X160244661Y-62723464D01*
X160234802Y-62636177D01*
X160205878Y-62557965D01*
X160157222Y-62486549D01*
X160093395Y-62427495D01*
X160014213Y-62381233D01*
X159916765Y-62347941D01*
X159795404Y-62330691D01*
X159560170Y-62323028D01*
X159446720Y-62323028D01*
X159446720Y-63104605D01*
X159249982Y-63104605D01*
X159249982Y-62127634D01*
X159446720Y-62127634D01*
X159561514Y-62127634D01*
X159756449Y-62116143D01*
X159868893Y-62088921D01*
X159957473Y-62038561D01*
X160024720Y-61966434D01*
X160067753Y-61878157D01*
X160082117Y-61780687D01*
X160070857Y-61693605D01*
X160038840Y-61623031D01*
X159985764Y-61565020D01*
X159916745Y-61524704D01*
X159817794Y-61497236D01*
X159678995Y-61486741D01*
X159446720Y-61486741D01*
X159446720Y-62127634D01*
X159249982Y-62127634D01*
X159249982Y-61291346D01*
X159646144Y-61291346D01*
X159806112Y-61298863D01*
G37*
G36*
X160746824Y-61815003D02*
G01*
X160942219Y-61815003D01*
X160942219Y-62032257D01*
X161035527Y-61916324D01*
X161126622Y-61839916D01*
X161193485Y-61803813D01*
X161260506Y-61782847D01*
X161328855Y-61775924D01*
X161407955Y-61787719D01*
X161498237Y-61826482D01*
X161398586Y-61981699D01*
X161340148Y-61961408D01*
X161297470Y-61955687D01*
X161236488Y-61963893D01*
X161175538Y-61989279D01*
X161112944Y-62034577D01*
X161061545Y-62092455D01*
X161016169Y-62172298D01*
X160977756Y-62279431D01*
X160953605Y-62439249D01*
X160942219Y-62795150D01*
X160942219Y-63300000D01*
X160746824Y-63300000D01*
X160746824Y-61815003D01*
G37*
G36*
X162482436Y-61784913D02*
G01*
X162592289Y-61811144D01*
X162693684Y-61854204D01*
X162786650Y-61913591D01*
X162873234Y-61990898D01*
X162953925Y-62088189D01*
X162953925Y-61815003D01*
X163142480Y-61815003D01*
X163142480Y-63300000D01*
X162953925Y-63300000D01*
X162953925Y-63044521D01*
X162868543Y-63135793D01*
X162778741Y-63208699D01*
X162684036Y-63264951D01*
X162582059Y-63305864D01*
X162473483Y-63330644D01*
X162356873Y-63339078D01*
X162203705Y-63324560D01*
X162064721Y-63282055D01*
X161936818Y-63211416D01*
X161817829Y-63110223D01*
X161719734Y-62989028D01*
X161650675Y-62857487D01*
X161608829Y-62713317D01*
X161594655Y-62555425D01*
X161787177Y-62555425D01*
X161796040Y-62658158D01*
X161822645Y-62757928D01*
X161867777Y-62856088D01*
X161928278Y-62945392D01*
X162000175Y-63019375D01*
X162084298Y-63079448D01*
X162177546Y-63123981D01*
X162274269Y-63150432D01*
X162375924Y-63159316D01*
X162478665Y-63150545D01*
X162577495Y-63124329D01*
X162673778Y-63080059D01*
X162761110Y-63020390D01*
X162832798Y-62949212D01*
X162890300Y-62865614D01*
X162932022Y-62772804D01*
X162957424Y-62671832D01*
X162966137Y-62560921D01*
X162955053Y-62434636D01*
X162922943Y-62322232D01*
X162870308Y-62221065D01*
X162796022Y-62129221D01*
X162705592Y-62052945D01*
X162606996Y-61999332D01*
X162498444Y-61966848D01*
X162377390Y-61955687D01*
X162272942Y-61964530D01*
X162175063Y-61990675D01*
X162082222Y-62034333D01*
X161998565Y-62093452D01*
X161927122Y-62166498D01*
X161867044Y-62254884D01*
X161822430Y-62352078D01*
X161796013Y-62451800D01*
X161787177Y-62555425D01*
X161594655Y-62555425D01*
X161594469Y-62553349D01*
X161608834Y-62397183D01*
X161650843Y-62255488D01*
X161720491Y-62125210D01*
X161819905Y-62004169D01*
X161939852Y-61903277D01*
X162068654Y-61832811D01*
X162208469Y-61790406D01*
X162362369Y-61775924D01*
X162482436Y-61784913D01*
G37*
G36*
X165056123Y-63300000D02*
G01*
X164867568Y-63300000D01*
X164867568Y-63044521D01*
X164782185Y-63135793D01*
X164692384Y-63208699D01*
X164597679Y-63264951D01*
X164495702Y-63305864D01*
X164387126Y-63330644D01*
X164270516Y-63339078D01*
X164117347Y-63324560D01*
X163978363Y-63282055D01*
X163850460Y-63211416D01*
X163731472Y-63110223D01*
X163633376Y-62989028D01*
X163564318Y-62857487D01*
X163522472Y-62713317D01*
X163508298Y-62555425D01*
X163700819Y-62555425D01*
X163709682Y-62658158D01*
X163736287Y-62757928D01*
X163781420Y-62856088D01*
X163841921Y-62945392D01*
X163913817Y-63019375D01*
X163997941Y-63079448D01*
X164091267Y-63123985D01*
X164188031Y-63150434D01*
X164289689Y-63159316D01*
X164392349Y-63150548D01*
X164491139Y-63124334D01*
X164587421Y-63080059D01*
X164674830Y-63020383D01*
X164746556Y-62949204D01*
X164804064Y-62865614D01*
X164845787Y-62772804D01*
X164871189Y-62671832D01*
X164879902Y-62560921D01*
X164868817Y-62434636D01*
X164836707Y-62322232D01*
X164784073Y-62221065D01*
X164709787Y-62129221D01*
X164619297Y-62052941D01*
X164520660Y-61999328D01*
X164412085Y-61966846D01*
X164291032Y-61955687D01*
X164186584Y-61964530D01*
X164088706Y-61990675D01*
X163995865Y-62034333D01*
X163912208Y-62093452D01*
X163840764Y-62166498D01*
X163780687Y-62254884D01*
X163736072Y-62352078D01*
X163709656Y-62451800D01*
X163700819Y-62555425D01*
X163508298Y-62555425D01*
X163508112Y-62553349D01*
X163522477Y-62397183D01*
X163564486Y-62255488D01*
X163634134Y-62125210D01*
X163733548Y-62004169D01*
X163853495Y-61903277D01*
X163982297Y-61832811D01*
X164122112Y-61790406D01*
X164276011Y-61775924D01*
X164396095Y-61784873D01*
X164505951Y-61810986D01*
X164607327Y-61853838D01*
X164700273Y-61912943D01*
X164786855Y-61990078D01*
X164867568Y-62087334D01*
X164867568Y-61236636D01*
X165056123Y-61236636D01*
X165056123Y-63300000D01*
G37*
G36*
X166236549Y-61977058D02*
G01*
X166113572Y-62104187D01*
X166005053Y-62016998D01*
X165906576Y-61970242D01*
X165814375Y-61955687D01*
X165754831Y-61962660D01*
X165702326Y-61983025D01*
X165655129Y-62017236D01*
X165617682Y-62061601D01*
X165596141Y-62108941D01*
X165588939Y-62160851D01*
X165602025Y-62230217D01*
X165643527Y-62298970D01*
X165716336Y-62363464D01*
X165873115Y-62456263D01*
X166012514Y-62537336D01*
X166105313Y-62607879D01*
X166162787Y-62669364D01*
X166204565Y-62741480D01*
X166229454Y-62818663D01*
X166237892Y-62902616D01*
X166223392Y-63019069D01*
X166181012Y-63121032D01*
X166109420Y-63212194D01*
X166017259Y-63282371D01*
X165911612Y-63324499D01*
X165788363Y-63339078D01*
X165662988Y-63325302D01*
X165543143Y-63283879D01*
X165435917Y-63217827D01*
X165349825Y-63131716D01*
X165470115Y-62995184D01*
X165549555Y-63071224D01*
X165626774Y-63121421D01*
X165703051Y-63149989D01*
X165780181Y-63159316D01*
X165853833Y-63150885D01*
X165918238Y-63126374D01*
X165975575Y-63085432D01*
X166021141Y-63032068D01*
X166047384Y-62974800D01*
X166056175Y-62911653D01*
X166042920Y-62834198D01*
X166002930Y-62765352D01*
X165930065Y-62703553D01*
X165762473Y-62606594D01*
X165631587Y-62530107D01*
X165543902Y-62462049D01*
X165489166Y-62401308D01*
X165449056Y-62330893D01*
X165424969Y-62254383D01*
X165416748Y-62170010D01*
X165429957Y-62061802D01*
X165468194Y-61969085D01*
X165532152Y-61888154D01*
X165615022Y-61826297D01*
X165710987Y-61788922D01*
X165823900Y-61775924D01*
X165920565Y-61787077D01*
X166020137Y-61821737D01*
X166124845Y-61883296D01*
X166236549Y-61977058D01*
G37*
G36*
X166575558Y-61236636D02*
G01*
X166766922Y-61236636D01*
X166766922Y-62080617D01*
X166849718Y-61984324D01*
X166934751Y-61908847D01*
X167022400Y-61851762D01*
X167117702Y-61809688D01*
X167217859Y-61784455D01*
X167324284Y-61775924D01*
X167432855Y-61785640D01*
X167530735Y-61813955D01*
X167620062Y-61860676D01*
X167698739Y-61923691D01*
X167761866Y-61999004D01*
X167810572Y-62088066D01*
X167841476Y-62186083D01*
X167863542Y-62330432D01*
X167872121Y-62535275D01*
X167872121Y-63300000D01*
X167680879Y-63300000D01*
X167680879Y-62593161D01*
X167674331Y-62358144D01*
X167660362Y-62251221D01*
X167628582Y-62157652D01*
X167585396Y-62085154D01*
X167531280Y-62029937D01*
X167465208Y-61989907D01*
X167384692Y-61964700D01*
X167286060Y-61955687D01*
X167174455Y-61968388D01*
X167071736Y-62006067D01*
X166975261Y-62070115D01*
X166893613Y-62153118D01*
X166833794Y-62246939D01*
X166794277Y-62353436D01*
X166775482Y-62485391D01*
X166766922Y-62756559D01*
X166766922Y-63300000D01*
X166575558Y-63300000D01*
X166575558Y-61236636D01*
G37*
G36*
X169102394Y-61784913D02*
G01*
X169212247Y-61811144D01*
X169313642Y-61854204D01*
X169406608Y-61913591D01*
X169493192Y-61990898D01*
X169573883Y-62088189D01*
X169573883Y-61815003D01*
X169762438Y-61815003D01*
X169762438Y-63300000D01*
X169573883Y-63300000D01*
X169573883Y-63044521D01*
X169488501Y-63135793D01*
X169398699Y-63208699D01*
X169303995Y-63264951D01*
X169202017Y-63305864D01*
X169093441Y-63330644D01*
X168976831Y-63339078D01*
X168823663Y-63324560D01*
X168684679Y-63282055D01*
X168556776Y-63211416D01*
X168437787Y-63110223D01*
X168339692Y-62989028D01*
X168270633Y-62857487D01*
X168228787Y-62713317D01*
X168214613Y-62555425D01*
X168407135Y-62555425D01*
X168415998Y-62658158D01*
X168442603Y-62757928D01*
X168487735Y-62856088D01*
X168548236Y-62945392D01*
X168620133Y-63019375D01*
X168704256Y-63079448D01*
X168797504Y-63123981D01*
X168894227Y-63150432D01*
X168995882Y-63159316D01*
X169098623Y-63150545D01*
X169197453Y-63124329D01*
X169293736Y-63080059D01*
X169381069Y-63020390D01*
X169452756Y-62949212D01*
X169510258Y-62865614D01*
X169551980Y-62772804D01*
X169577382Y-62671832D01*
X169586095Y-62560921D01*
X169575011Y-62434636D01*
X169542901Y-62322232D01*
X169490266Y-62221065D01*
X169415980Y-62129221D01*
X169325550Y-62052945D01*
X169226955Y-61999332D01*
X169118402Y-61966848D01*
X168997348Y-61955687D01*
X168892900Y-61964530D01*
X168795021Y-61990675D01*
X168702180Y-62034333D01*
X168618523Y-62093452D01*
X168547080Y-62166498D01*
X168487002Y-62254884D01*
X168442388Y-62352078D01*
X168415971Y-62451800D01*
X168407135Y-62555425D01*
X168214613Y-62555425D01*
X168214427Y-62553349D01*
X168228792Y-62397183D01*
X168270802Y-62255488D01*
X168340449Y-62125210D01*
X168439863Y-62004169D01*
X168559811Y-61903277D01*
X168688613Y-61832811D01*
X168828428Y-61790406D01*
X168982327Y-61775924D01*
X169102394Y-61784913D01*
G37*
G36*
X169991538Y-61815003D02*
G01*
X170188276Y-61815003D01*
X170643178Y-62893579D01*
X171120062Y-61815003D01*
X171154134Y-61815003D01*
X171629675Y-62893579D01*
X172092759Y-61815003D01*
X172292184Y-61815003D01*
X171647383Y-63300000D01*
X171610502Y-63300000D01*
X171137770Y-62237055D01*
X170661008Y-63300000D01*
X170625471Y-63300000D01*
X169991538Y-61815003D01*
G37*
G36*
X173294068Y-61291346D02*
G01*
X173494836Y-61291346D01*
X173494836Y-63300000D01*
X173294068Y-63300000D01*
X173294068Y-61291346D01*
G37*
G36*
X173922383Y-61815003D02*
G01*
X174113747Y-61815003D01*
X174113747Y-62081472D01*
X174195701Y-61985213D01*
X174280288Y-61909600D01*
X174367882Y-61852250D01*
X174463226Y-61809942D01*
X174563817Y-61784530D01*
X174671109Y-61775924D01*
X174779680Y-61785640D01*
X174877560Y-61813955D01*
X174966887Y-61860676D01*
X175045523Y-61923719D01*
X175108657Y-61999224D01*
X175157397Y-62088677D01*
X175188344Y-62187132D01*
X175210390Y-62331389D01*
X175218946Y-62535275D01*
X175218946Y-63300000D01*
X175029047Y-63300000D01*
X175029047Y-62593161D01*
X175022070Y-62358139D01*
X175007187Y-62251221D01*
X174976127Y-62157733D01*
X174933154Y-62085239D01*
X174878715Y-62029937D01*
X174812264Y-61989885D01*
X174731523Y-61964686D01*
X174632885Y-61955687D01*
X174521280Y-61968388D01*
X174418561Y-62006067D01*
X174322086Y-62070115D01*
X174240438Y-62153118D01*
X174180619Y-62246939D01*
X174141102Y-62353436D01*
X174122278Y-62486416D01*
X174113747Y-62756559D01*
X174113747Y-63300000D01*
X173922383Y-63300000D01*
X173922383Y-61815003D01*
G37*
G36*
X176375558Y-61977058D02*
G01*
X176252581Y-62104187D01*
X176144062Y-62016998D01*
X176045585Y-61970242D01*
X175953384Y-61955687D01*
X175893840Y-61962660D01*
X175841335Y-61983025D01*
X175794138Y-62017236D01*
X175756691Y-62061601D01*
X175735151Y-62108941D01*
X175727948Y-62160851D01*
X175741034Y-62230217D01*
X175782536Y-62298970D01*
X175855345Y-62363464D01*
X176012124Y-62456263D01*
X176151523Y-62537336D01*
X176244322Y-62607879D01*
X176301796Y-62669364D01*
X176343574Y-62741480D01*
X176368463Y-62818663D01*
X176376901Y-62902616D01*
X176362402Y-63019069D01*
X176320021Y-63121032D01*
X176248429Y-63212194D01*
X176156268Y-63282371D01*
X176050621Y-63324499D01*
X175927372Y-63339078D01*
X175801997Y-63325302D01*
X175682152Y-63283879D01*
X175574926Y-63217827D01*
X175488834Y-63131716D01*
X175609124Y-62995184D01*
X175688564Y-63071224D01*
X175765783Y-63121421D01*
X175842060Y-63149989D01*
X175919190Y-63159316D01*
X175992842Y-63150885D01*
X176057247Y-63126374D01*
X176114584Y-63085432D01*
X176160150Y-63032068D01*
X176186393Y-62974800D01*
X176195184Y-62911653D01*
X176181929Y-62834198D01*
X176141939Y-62765352D01*
X176069074Y-62703553D01*
X175901482Y-62606594D01*
X175770596Y-62530107D01*
X175682911Y-62462049D01*
X175628175Y-62401308D01*
X175588065Y-62330893D01*
X175563978Y-62254383D01*
X175555757Y-62170010D01*
X175568966Y-62061802D01*
X175607204Y-61969085D01*
X175671161Y-61888154D01*
X175754031Y-61826297D01*
X175849996Y-61788922D01*
X175962909Y-61775924D01*
X176059574Y-61787077D01*
X176159146Y-61821737D01*
X176263854Y-61883296D01*
X176375558Y-61977058D01*
G37*
G36*
X176881263Y-61260083D02*
G01*
X177073970Y-61260083D01*
X177073970Y-61815003D01*
X177377198Y-61815003D01*
X177377198Y-61979134D01*
X177073970Y-61979134D01*
X177073970Y-63300000D01*
X176881263Y-63300000D01*
X176881263Y-61979134D01*
X176620289Y-61979134D01*
X176620289Y-61815003D01*
X176881263Y-61815003D01*
X176881263Y-61260083D01*
G37*
G36*
X177589811Y-61815003D02*
G01*
X177785205Y-61815003D01*
X177785205Y-62032257D01*
X177878514Y-61916324D01*
X177969609Y-61839916D01*
X178036472Y-61803813D01*
X178103493Y-61782847D01*
X178171842Y-61775924D01*
X178250942Y-61787719D01*
X178341224Y-61826482D01*
X178241573Y-61981699D01*
X178183135Y-61961408D01*
X178140457Y-61955687D01*
X178079475Y-61963893D01*
X178018524Y-61989279D01*
X177955931Y-62034577D01*
X177904532Y-62092455D01*
X177859155Y-62172298D01*
X177820743Y-62279431D01*
X177796591Y-62439249D01*
X177785205Y-62795150D01*
X177785205Y-63300000D01*
X177589811Y-63300000D01*
X177589811Y-61815003D01*
G37*
G36*
X178479832Y-61815003D02*
G01*
X178672418Y-61815003D01*
X178672418Y-62511828D01*
X178680948Y-62747172D01*
X178699773Y-62863049D01*
X178735659Y-62948688D01*
X178787383Y-63020292D01*
X178856088Y-63079815D01*
X178936422Y-63123323D01*
X179027386Y-63150030D01*
X179131472Y-63159316D01*
X179235627Y-63150170D01*
X179325120Y-63124067D01*
X179402704Y-63081891D01*
X179469690Y-63024350D01*
X179520511Y-62956882D01*
X179556454Y-62878070D01*
X179575845Y-62767859D01*
X179585153Y-62511828D01*
X179585153Y-61815003D01*
X179780425Y-61815003D01*
X179780425Y-62544312D01*
X179770680Y-62750124D01*
X179745192Y-62900404D01*
X179708618Y-63007274D01*
X179652432Y-63103990D01*
X179580920Y-63184694D01*
X179492829Y-63251029D01*
X179393108Y-63298366D01*
X179274044Y-63328380D01*
X179131472Y-63339078D01*
X178988898Y-63328405D01*
X178869345Y-63298412D01*
X178768771Y-63251029D01*
X178679972Y-63184512D01*
X178607976Y-63103148D01*
X178551517Y-63005198D01*
X178515122Y-62896893D01*
X178489620Y-62743032D01*
X178479832Y-62530635D01*
X178479832Y-61815003D01*
G37*
G36*
X180204919Y-61815003D02*
G01*
X180394818Y-61815003D01*
X180394818Y-62071824D01*
X180500453Y-61944372D01*
X180599738Y-61864218D01*
X180699213Y-61814677D01*
X180800257Y-61785597D01*
X180904431Y-61775924D01*
X181009887Y-61786570D01*
X181109351Y-61818300D01*
X181198741Y-61868477D01*
X181267864Y-61931018D01*
X181322502Y-62011355D01*
X181374476Y-62132519D01*
X181445700Y-62022424D01*
X181525267Y-61934764D01*
X181613468Y-61866782D01*
X181712293Y-61816011D01*
X181814668Y-61785989D01*
X181922313Y-61775924D01*
X182022857Y-61784888D01*
X182112994Y-61810947D01*
X182194766Y-61853838D01*
X182266348Y-61912067D01*
X182324643Y-61983830D01*
X182370376Y-62070969D01*
X182399462Y-62166203D01*
X182419917Y-62301699D01*
X182427773Y-62488747D01*
X182427773Y-63300000D01*
X182232379Y-63300000D01*
X182232379Y-62485205D01*
X182221713Y-62263914D01*
X182198185Y-62155355D01*
X182152193Y-62074522D01*
X182081437Y-62010642D01*
X181992532Y-61969932D01*
X181883967Y-61955687D01*
X181793676Y-61964844D01*
X181709340Y-61992037D01*
X181629221Y-62037997D01*
X181559376Y-62098752D01*
X181503378Y-62171381D01*
X181460450Y-62257449D01*
X181434142Y-62351971D01*
X181414843Y-62498830D01*
X181407205Y-62715648D01*
X181407205Y-63300000D01*
X181217306Y-63300000D01*
X181217306Y-62535886D01*
X181206769Y-62287318D01*
X181183845Y-62169033D01*
X181137853Y-62081872D01*
X181066974Y-62014061D01*
X181008999Y-61982069D01*
X180943568Y-61962484D01*
X180868893Y-61955687D01*
X180783000Y-61964485D01*
X180700843Y-61990874D01*
X180620865Y-62035921D01*
X180550858Y-62095321D01*
X180494200Y-62166812D01*
X180450139Y-62251953D01*
X180422242Y-62344944D01*
X180402461Y-62479485D01*
X180394818Y-62667655D01*
X180394818Y-63300000D01*
X180204919Y-63300000D01*
X180204919Y-61815003D01*
G37*
G36*
X183672971Y-61787926D02*
G01*
X183805751Y-61822596D01*
X183924922Y-61879063D01*
X184032683Y-61957999D01*
X184130390Y-62061566D01*
X184199693Y-62166124D01*
X184250314Y-62283368D01*
X184282237Y-62415508D01*
X184294277Y-62565317D01*
X182958147Y-62565317D01*
X182971247Y-62693529D01*
X183003499Y-62805771D01*
X183054034Y-62904787D01*
X183123377Y-62992620D01*
X183208615Y-63065974D01*
X183301588Y-63117450D01*
X183404003Y-63148611D01*
X183518318Y-63159316D01*
X183629993Y-63149355D01*
X183738869Y-63119382D01*
X183839577Y-63072031D01*
X183921196Y-63013381D01*
X183993734Y-62934346D01*
X184083862Y-62799790D01*
X184245062Y-62884542D01*
X184157101Y-63031330D01*
X184062002Y-63140387D01*
X183951414Y-63226173D01*
X183828384Y-63288398D01*
X183693022Y-63325890D01*
X183534682Y-63339078D01*
X183389647Y-63328659D01*
X183262905Y-63298873D01*
X183151535Y-63251061D01*
X183053209Y-63185360D01*
X182966329Y-63100697D01*
X182875420Y-62975484D01*
X182812052Y-62845135D01*
X182774197Y-62707940D01*
X182761409Y-62561653D01*
X182772429Y-62422962D01*
X182777902Y-62401186D01*
X182977198Y-62401186D01*
X184083862Y-62401186D01*
X184034765Y-62259694D01*
X183972487Y-62158042D01*
X183889170Y-62077047D01*
X183779169Y-62011374D01*
X183655908Y-61969613D01*
X183526378Y-61955687D01*
X183419347Y-61964708D01*
X183322248Y-61991018D01*
X183233184Y-62034360D01*
X183150732Y-62095638D01*
X183083821Y-62170121D01*
X183025647Y-62270080D01*
X182977198Y-62401186D01*
X182777902Y-62401186D01*
X182804860Y-62293920D01*
X182858654Y-62172581D01*
X182934944Y-62057414D01*
X183029886Y-61955167D01*
X183134527Y-61877374D01*
X183250165Y-61821804D01*
X183378942Y-61787719D01*
X183523691Y-61775924D01*
X183672971Y-61787926D01*
G37*
G36*
X184651482Y-61815003D02*
G01*
X184842847Y-61815003D01*
X184842847Y-62081472D01*
X184924800Y-61985213D01*
X185009388Y-61909600D01*
X185096981Y-61852250D01*
X185192325Y-61809942D01*
X185292916Y-61784530D01*
X185400209Y-61775924D01*
X185508780Y-61785640D01*
X185606660Y-61813955D01*
X185695987Y-61860676D01*
X185774623Y-61923719D01*
X185837756Y-61999224D01*
X185886496Y-62088677D01*
X185917444Y-62187132D01*
X185939490Y-62331389D01*
X185948046Y-62535275D01*
X185948046Y-63300000D01*
X185758147Y-63300000D01*
X185758147Y-62593161D01*
X185751170Y-62358139D01*
X185736287Y-62251221D01*
X185705227Y-62157733D01*
X185662253Y-62085239D01*
X185607815Y-62029937D01*
X185541364Y-61989885D01*
X185460623Y-61964686D01*
X185361985Y-61955687D01*
X185250380Y-61968388D01*
X185147661Y-62006067D01*
X185051186Y-62070115D01*
X184969538Y-62153118D01*
X184909719Y-62246939D01*
X184870202Y-62353436D01*
X184851378Y-62486416D01*
X184842847Y-62756559D01*
X184842847Y-63300000D01*
X184651482Y-63300000D01*
X184651482Y-61815003D01*
G37*
G36*
X186523970Y-61260083D02*
G01*
X186716678Y-61260083D01*
X186716678Y-61815003D01*
X187019905Y-61815003D01*
X187019905Y-61979134D01*
X186716678Y-61979134D01*
X186716678Y-63300000D01*
X186523970Y-63300000D01*
X186523970Y-61979134D01*
X186262997Y-61979134D01*
X186262997Y-61815003D01*
X186523970Y-61815003D01*
X186523970Y-61260083D01*
G37*
G36*
X188052320Y-61977058D02*
G01*
X187929344Y-62104187D01*
X187820824Y-62016998D01*
X187722347Y-61970242D01*
X187630146Y-61955687D01*
X187570602Y-61962660D01*
X187518097Y-61983025D01*
X187470900Y-62017236D01*
X187433453Y-62061601D01*
X187411913Y-62108941D01*
X187404710Y-62160851D01*
X187417796Y-62230217D01*
X187459298Y-62298970D01*
X187532107Y-62363464D01*
X187688886Y-62456263D01*
X187828285Y-62537336D01*
X187921084Y-62607879D01*
X187978558Y-62669364D01*
X188020336Y-62741480D01*
X188045225Y-62818663D01*
X188053663Y-62902616D01*
X188039164Y-63019069D01*
X187996783Y-63121032D01*
X187925191Y-63212194D01*
X187833030Y-63282371D01*
X187727383Y-63324499D01*
X187604134Y-63339078D01*
X187478759Y-63325302D01*
X187358914Y-63283879D01*
X187251688Y-63217827D01*
X187165596Y-63131716D01*
X187285886Y-62995184D01*
X187365326Y-63071224D01*
X187442545Y-63121421D01*
X187518822Y-63149989D01*
X187595952Y-63159316D01*
X187669604Y-63150885D01*
X187734009Y-63126374D01*
X187791346Y-63085432D01*
X187836912Y-63032068D01*
X187863155Y-62974800D01*
X187871946Y-62911653D01*
X187858691Y-62834198D01*
X187818702Y-62765352D01*
X187745836Y-62703553D01*
X187578244Y-62606594D01*
X187447358Y-62530107D01*
X187359673Y-62462049D01*
X187304937Y-62401308D01*
X187264827Y-62330893D01*
X187240740Y-62254383D01*
X187232519Y-62170010D01*
X187245728Y-62061802D01*
X187283966Y-61969085D01*
X187347923Y-61888154D01*
X187430793Y-61826297D01*
X187526759Y-61788922D01*
X187639672Y-61775924D01*
X187736336Y-61787077D01*
X187835908Y-61821737D01*
X187940616Y-61883296D01*
X188052320Y-61977058D01*
G37*
G36*
X159806112Y-64658863D02*
G01*
X159925904Y-64678742D01*
X160013729Y-64707644D01*
X160093760Y-64752166D01*
X160160920Y-64809512D01*
X160216573Y-64880690D01*
X160257900Y-64961155D01*
X160282663Y-65046963D01*
X160291067Y-65139710D01*
X160283640Y-65226540D01*
X160261794Y-65306840D01*
X160225488Y-65381999D01*
X160175954Y-65449059D01*
X160112379Y-65507914D01*
X160032903Y-65558953D01*
X160178291Y-65620454D01*
X160274703Y-65684616D01*
X160349949Y-65764103D01*
X160406594Y-65859005D01*
X160441777Y-65964724D01*
X160453733Y-66080655D01*
X160442463Y-66198550D01*
X160409546Y-66304843D01*
X160354939Y-66402031D01*
X160276779Y-66491838D01*
X160183772Y-66563554D01*
X160075709Y-66615760D01*
X159949703Y-66648464D01*
X159801971Y-66660000D01*
X159249982Y-66660000D01*
X159249982Y-66464605D01*
X159446720Y-66464605D01*
X159695359Y-66464605D01*
X159843423Y-66458516D01*
X159947483Y-66442872D01*
X160017882Y-66421008D01*
X160081863Y-66386304D01*
X160136408Y-66341073D01*
X160182501Y-66284476D01*
X160217267Y-66220340D01*
X160237784Y-66153742D01*
X160244661Y-66083464D01*
X160234802Y-65996177D01*
X160205878Y-65917965D01*
X160157222Y-65846549D01*
X160093395Y-65787495D01*
X160014213Y-65741233D01*
X159916765Y-65707941D01*
X159795404Y-65690691D01*
X159560170Y-65683028D01*
X159446720Y-65683028D01*
X159446720Y-66464605D01*
X159249982Y-66464605D01*
X159249982Y-65487634D01*
X159446720Y-65487634D01*
X159561514Y-65487634D01*
X159756449Y-65476143D01*
X159868893Y-65448921D01*
X159957473Y-65398561D01*
X160024720Y-65326434D01*
X160067753Y-65238157D01*
X160082117Y-65140687D01*
X160070857Y-65053605D01*
X160038840Y-64983031D01*
X159985764Y-64925020D01*
X159916745Y-64884704D01*
X159817794Y-64857236D01*
X159678995Y-64846741D01*
X159446720Y-64846741D01*
X159446720Y-65487634D01*
X159249982Y-65487634D01*
X159249982Y-64651346D01*
X159646144Y-64651346D01*
X159806112Y-64658863D01*
G37*
G36*
X160890317Y-64557557D02*
G01*
X160951021Y-64569096D01*
X161001692Y-64603597D01*
X161036037Y-64654365D01*
X161047487Y-64714605D01*
X161036104Y-64773585D01*
X161001692Y-64824148D01*
X160951021Y-64858649D01*
X160890317Y-64870188D01*
X160829613Y-64858649D01*
X160778942Y-64824148D01*
X160744530Y-64773585D01*
X160733147Y-64714605D01*
X160744597Y-64654365D01*
X160778942Y-64603597D01*
X160829613Y-64569096D01*
X160890317Y-64557557D01*
G37*
G36*
X160796039Y-65175003D02*
G01*
X160990090Y-65175003D01*
X160990090Y-66887756D01*
X160980979Y-67011607D01*
X160957192Y-67099608D01*
X160922435Y-67160697D01*
X160872101Y-67207982D01*
X160811485Y-67236283D01*
X160737299Y-67246182D01*
X160638349Y-67235453D01*
X160518702Y-67199776D01*
X160518702Y-67026852D01*
X160594428Y-67057372D01*
X160656699Y-67066420D01*
X160705003Y-67059024D01*
X160742845Y-67037952D01*
X160772836Y-67002184D01*
X160788608Y-66949811D01*
X160796039Y-66831214D01*
X160796039Y-65175003D01*
G37*
G36*
X162208884Y-65144913D02*
G01*
X162318737Y-65171144D01*
X162420132Y-65214204D01*
X162513098Y-65273591D01*
X162599682Y-65350898D01*
X162680373Y-65448189D01*
X162680373Y-65175003D01*
X162868928Y-65175003D01*
X162868928Y-66660000D01*
X162680373Y-66660000D01*
X162680373Y-66404521D01*
X162594991Y-66495793D01*
X162505189Y-66568699D01*
X162410484Y-66624951D01*
X162308507Y-66665864D01*
X162199931Y-66690644D01*
X162083321Y-66699078D01*
X161930153Y-66684560D01*
X161791169Y-66642055D01*
X161663266Y-66571416D01*
X161544277Y-66470223D01*
X161446182Y-66349028D01*
X161377123Y-66217487D01*
X161335277Y-66073317D01*
X161321103Y-65915425D01*
X161513625Y-65915425D01*
X161522488Y-66018158D01*
X161549093Y-66117928D01*
X161594225Y-66216088D01*
X161654726Y-66305392D01*
X161726623Y-66379375D01*
X161810746Y-66439448D01*
X161903994Y-66483981D01*
X162000717Y-66510432D01*
X162102372Y-66519316D01*
X162205113Y-66510545D01*
X162303943Y-66484329D01*
X162400226Y-66440059D01*
X162487558Y-66380390D01*
X162559246Y-66309212D01*
X162616748Y-66225614D01*
X162658470Y-66132804D01*
X162683872Y-66031832D01*
X162692585Y-65920921D01*
X162681501Y-65794636D01*
X162649391Y-65682232D01*
X162596756Y-65581065D01*
X162522470Y-65489221D01*
X162432040Y-65412945D01*
X162333444Y-65359332D01*
X162224892Y-65326848D01*
X162103838Y-65315687D01*
X161999390Y-65324530D01*
X161901511Y-65350675D01*
X161808670Y-65394333D01*
X161725013Y-65453452D01*
X161653570Y-65526498D01*
X161593492Y-65614884D01*
X161548878Y-65712078D01*
X161522461Y-65811800D01*
X161513625Y-65915425D01*
X161321103Y-65915425D01*
X161320917Y-65913349D01*
X161335282Y-65757183D01*
X161377291Y-65615488D01*
X161446939Y-65485210D01*
X161546353Y-65364169D01*
X161666300Y-65263277D01*
X161795102Y-65192811D01*
X161934917Y-65150406D01*
X162088817Y-65135924D01*
X162208884Y-65144913D01*
G37*
G36*
X163226378Y-65175003D02*
G01*
X163421772Y-65175003D01*
X163421772Y-65392257D01*
X163515080Y-65276324D01*
X163606175Y-65199916D01*
X163673039Y-65163813D01*
X163740059Y-65142847D01*
X163808408Y-65135924D01*
X163887508Y-65147719D01*
X163977791Y-65186482D01*
X163878140Y-65341699D01*
X163819701Y-65321408D01*
X163777023Y-65315687D01*
X163716041Y-65323893D01*
X163655091Y-65349279D01*
X163592498Y-65394577D01*
X163541099Y-65452455D01*
X163495722Y-65532298D01*
X163457309Y-65639431D01*
X163433158Y-65799249D01*
X163421772Y-66155150D01*
X163421772Y-66660000D01*
X163226378Y-66660000D01*
X163226378Y-65175003D01*
G37*
G36*
X164139602Y-64596636D02*
G01*
X164332309Y-64596636D01*
X164332309Y-65783656D01*
X165019487Y-65175003D01*
X165300854Y-65175003D01*
X164485327Y-65886238D01*
X165348726Y-66660000D01*
X165078227Y-66660000D01*
X164332309Y-65987721D01*
X164332309Y-66660000D01*
X164139602Y-66660000D01*
X164139602Y-64596636D01*
G37*
G36*
X166366874Y-65144913D02*
G01*
X166476727Y-65171144D01*
X166578122Y-65214204D01*
X166671088Y-65273591D01*
X166757672Y-65350898D01*
X166838363Y-65448189D01*
X166838363Y-65175003D01*
X167026919Y-65175003D01*
X167026919Y-66660000D01*
X166838363Y-66660000D01*
X166838363Y-66404521D01*
X166752981Y-66495793D01*
X166663179Y-66568699D01*
X166568475Y-66624951D01*
X166466497Y-66665864D01*
X166357922Y-66690644D01*
X166241311Y-66699078D01*
X166088143Y-66684560D01*
X165949159Y-66642055D01*
X165821256Y-66571416D01*
X165702267Y-66470223D01*
X165604172Y-66349028D01*
X165535113Y-66217487D01*
X165493268Y-66073317D01*
X165479093Y-65915425D01*
X165671615Y-65915425D01*
X165680478Y-66018158D01*
X165707083Y-66117928D01*
X165752215Y-66216088D01*
X165812717Y-66305392D01*
X165884613Y-66379375D01*
X165968736Y-66439448D01*
X166061984Y-66483981D01*
X166158707Y-66510432D01*
X166260362Y-66519316D01*
X166363103Y-66510545D01*
X166461933Y-66484329D01*
X166558217Y-66440059D01*
X166645549Y-66380390D01*
X166717236Y-66309212D01*
X166774738Y-66225614D01*
X166816460Y-66132804D01*
X166841862Y-66031832D01*
X166850575Y-65920921D01*
X166839491Y-65794636D01*
X166807381Y-65682232D01*
X166754746Y-65581065D01*
X166680460Y-65489221D01*
X166590030Y-65412945D01*
X166491435Y-65359332D01*
X166382882Y-65326848D01*
X166261828Y-65315687D01*
X166157380Y-65324530D01*
X166059502Y-65350675D01*
X165966660Y-65394333D01*
X165883003Y-65453452D01*
X165811560Y-65526498D01*
X165751482Y-65614884D01*
X165706868Y-65712078D01*
X165680451Y-65811800D01*
X165671615Y-65915425D01*
X165479093Y-65915425D01*
X165478907Y-65913349D01*
X165493272Y-65757183D01*
X165535282Y-65615488D01*
X165604929Y-65485210D01*
X165704344Y-65364169D01*
X165824291Y-65263277D01*
X165953093Y-65192811D01*
X166092908Y-65150406D01*
X166246807Y-65135924D01*
X166366874Y-65144913D01*
G37*
G36*
X167384368Y-65175003D02*
G01*
X167579762Y-65175003D01*
X167579762Y-65392257D01*
X167673070Y-65276324D01*
X167764166Y-65199916D01*
X167831029Y-65163813D01*
X167898050Y-65142847D01*
X167966399Y-65135924D01*
X168045499Y-65147719D01*
X168135781Y-65186482D01*
X168036130Y-65341699D01*
X167977692Y-65321408D01*
X167935013Y-65315687D01*
X167874032Y-65323893D01*
X167813081Y-65349279D01*
X167750488Y-65394577D01*
X167699089Y-65452455D01*
X167653712Y-65532298D01*
X167615300Y-65639431D01*
X167591148Y-65799249D01*
X167579762Y-66155150D01*
X167579762Y-66660000D01*
X167384368Y-66660000D01*
X167384368Y-65175003D01*
G37*
G36*
X169782711Y-66660000D02*
G01*
X169594155Y-66660000D01*
X169594155Y-66404521D01*
X169508773Y-66495793D01*
X169418971Y-66568699D01*
X169324267Y-66624951D01*
X169222289Y-66665864D01*
X169113714Y-66690644D01*
X168997103Y-66699078D01*
X168843935Y-66684560D01*
X168704951Y-66642055D01*
X168577048Y-66571416D01*
X168458060Y-66470223D01*
X168359964Y-66349028D01*
X168290905Y-66217487D01*
X168249060Y-66073317D01*
X168234885Y-65915425D01*
X168427407Y-65915425D01*
X168436270Y-66018158D01*
X168462875Y-66117928D01*
X168508007Y-66216088D01*
X168568509Y-66305392D01*
X168640405Y-66379375D01*
X168724528Y-66439448D01*
X168817854Y-66483985D01*
X168914619Y-66510434D01*
X169016277Y-66519316D01*
X169118937Y-66510548D01*
X169217726Y-66484334D01*
X169314009Y-66440059D01*
X169401418Y-66380383D01*
X169473143Y-66309204D01*
X169530652Y-66225614D01*
X169572374Y-66132804D01*
X169597776Y-66031832D01*
X169606489Y-65920921D01*
X169595405Y-65794636D01*
X169563295Y-65682232D01*
X169510660Y-65581065D01*
X169436374Y-65489221D01*
X169345885Y-65412941D01*
X169247248Y-65359328D01*
X169138673Y-65326846D01*
X169017620Y-65315687D01*
X168913172Y-65324530D01*
X168815294Y-65350675D01*
X168722452Y-65394333D01*
X168638795Y-65453452D01*
X168567352Y-65526498D01*
X168507274Y-65614884D01*
X168462660Y-65712078D01*
X168436243Y-65811800D01*
X168427407Y-65915425D01*
X168234885Y-65915425D01*
X168234699Y-65913349D01*
X168249064Y-65757183D01*
X168291074Y-65615488D01*
X168360721Y-65485210D01*
X168460136Y-65364169D01*
X168580083Y-65263277D01*
X168708885Y-65192811D01*
X168848700Y-65150406D01*
X169002599Y-65135924D01*
X169122683Y-65144873D01*
X169232539Y-65170986D01*
X169333914Y-65213838D01*
X169426861Y-65272943D01*
X169513443Y-65350078D01*
X169594155Y-65447334D01*
X169594155Y-64596636D01*
X169782711Y-64596636D01*
X169782711Y-66660000D01*
G37*
G36*
X171054243Y-65146241D02*
G01*
X171176584Y-65176257D01*
X171288587Y-65225414D01*
X171391939Y-65294290D01*
X171487770Y-65384563D01*
X171577856Y-65503919D01*
X171641271Y-65631792D01*
X171679595Y-65770152D01*
X171692690Y-65921653D01*
X171679028Y-66073208D01*
X171638847Y-66212829D01*
X171571926Y-66343175D01*
X171476168Y-66466193D01*
X171384641Y-66550009D01*
X171284672Y-66614442D01*
X171175053Y-66660768D01*
X171054033Y-66689243D01*
X170919417Y-66699078D01*
X170784202Y-66689227D01*
X170662768Y-66660722D01*
X170552899Y-66614373D01*
X170452825Y-66549948D01*
X170361322Y-66466193D01*
X170265564Y-66343175D01*
X170198643Y-66212829D01*
X170158463Y-66073208D01*
X170145274Y-65926905D01*
X170340073Y-65926905D01*
X170348786Y-66032517D01*
X170374624Y-66132385D01*
X170417864Y-66227934D01*
X170476516Y-66314644D01*
X170546372Y-66385968D01*
X170628279Y-66443356D01*
X170719239Y-66485436D01*
X170815776Y-66510733D01*
X170919417Y-66519316D01*
X171022974Y-66510733D01*
X171119430Y-66485437D01*
X171210310Y-66443356D01*
X171292285Y-66385956D01*
X171362139Y-66314631D01*
X171420725Y-66227934D01*
X171464035Y-66132378D01*
X171489913Y-66032511D01*
X171498639Y-65926905D01*
X171487650Y-65804885D01*
X171455583Y-65694551D01*
X171402577Y-65593523D01*
X171327180Y-65500090D01*
X171235715Y-65421650D01*
X171138434Y-65367185D01*
X171033759Y-65334588D01*
X170919417Y-65323503D01*
X170804297Y-65334623D01*
X170699246Y-65367275D01*
X170601948Y-65421748D01*
X170510799Y-65500090D01*
X170435753Y-65593479D01*
X170382968Y-65694494D01*
X170351022Y-65804846D01*
X170340073Y-65926905D01*
X170145274Y-65926905D01*
X170144801Y-65921653D01*
X170157875Y-65770863D01*
X170196167Y-65632969D01*
X170259575Y-65505342D01*
X170349720Y-65386029D01*
X170445602Y-65295226D01*
X170549101Y-65225951D01*
X170661354Y-65176505D01*
X170784067Y-65146306D01*
X170919417Y-65135924D01*
X171054243Y-65146241D01*
G37*
G36*
X172215247Y-64620083D02*
G01*
X172407955Y-64620083D01*
X172407955Y-65175003D01*
X172711182Y-65175003D01*
X172711182Y-65339134D01*
X172407955Y-65339134D01*
X172407955Y-66660000D01*
X172215247Y-66660000D01*
X172215247Y-65339134D01*
X171954274Y-65339134D01*
X171954274Y-65175003D01*
X172215247Y-65175003D01*
X172215247Y-64620083D01*
G37*
G36*
X173162909Y-64620083D02*
G01*
X173355617Y-64620083D01*
X173355617Y-65175003D01*
X173658845Y-65175003D01*
X173658845Y-65339134D01*
X173355617Y-65339134D01*
X173355617Y-66660000D01*
X173162909Y-66660000D01*
X173162909Y-65339134D01*
X172901936Y-65339134D01*
X172901936Y-65175003D01*
X173162909Y-65175003D01*
X173162909Y-64620083D01*
G37*
G36*
X174010799Y-64557557D02*
G01*
X174071608Y-64569077D01*
X174122784Y-64603597D01*
X174157703Y-64654422D01*
X174169312Y-64714605D01*
X174157771Y-64773528D01*
X174122784Y-64824148D01*
X174071608Y-64858668D01*
X174010799Y-64870188D01*
X173951229Y-64858739D01*
X173900157Y-64824148D01*
X173865265Y-64773538D01*
X173853750Y-64714605D01*
X173865333Y-64654413D01*
X173900157Y-64603597D01*
X173951229Y-64569006D01*
X174010799Y-64557557D01*
G37*
G36*
X173915177Y-65175003D02*
G01*
X174107885Y-65175003D01*
X174107885Y-66660000D01*
X173915177Y-66660000D01*
X173915177Y-65175003D01*
G37*
G36*
X174430286Y-65175003D02*
G01*
X174625680Y-65175003D01*
X174625680Y-65392257D01*
X174718988Y-65276324D01*
X174810083Y-65199916D01*
X174876946Y-65163813D01*
X174943967Y-65142847D01*
X175012316Y-65135924D01*
X175091416Y-65147719D01*
X175181699Y-65186482D01*
X175082048Y-65341699D01*
X175023609Y-65321408D01*
X174980931Y-65315687D01*
X174919949Y-65323893D01*
X174858999Y-65349279D01*
X174796406Y-65394577D01*
X174745007Y-65452455D01*
X174699630Y-65532298D01*
X174661217Y-65639431D01*
X174637066Y-65799249D01*
X174625680Y-66155150D01*
X174625680Y-66660000D01*
X174430286Y-66660000D01*
X174430286Y-65175003D01*
G37*
G36*
X176229256Y-65284424D02*
G01*
X176036671Y-65284424D01*
X176052914Y-65138511D01*
X176091697Y-65010353D01*
X176152219Y-64896837D01*
X176235362Y-64795694D01*
X176336554Y-64711836D01*
X176447255Y-64652717D01*
X176569499Y-64616809D01*
X176706140Y-64604452D01*
X176842254Y-64616322D01*
X176960349Y-64650334D01*
X177063774Y-64705477D01*
X177154937Y-64782627D01*
X177230801Y-64876995D01*
X177283766Y-64977346D01*
X177315570Y-65085241D01*
X177326395Y-65202847D01*
X177317237Y-65314079D01*
X177290008Y-65419921D01*
X177244330Y-65521828D01*
X177137896Y-65679021D01*
X176926081Y-65925073D01*
X176425994Y-66464605D01*
X177353750Y-66464605D01*
X177353750Y-66660000D01*
X175988799Y-66660000D01*
X176756699Y-65830184D01*
X176965797Y-65592740D01*
X177060659Y-65459912D01*
X177100043Y-65377140D01*
X177123259Y-65292712D01*
X177131001Y-65205411D01*
X177116973Y-65097937D01*
X177075532Y-65001950D01*
X177004605Y-64914152D01*
X176914188Y-64846387D01*
X176812255Y-64805939D01*
X176695150Y-64792030D01*
X176601064Y-64800454D01*
X176517560Y-64824842D01*
X176442593Y-64864835D01*
X176374703Y-64921357D01*
X176319795Y-64989299D01*
X176276907Y-65070750D01*
X176246305Y-65168105D01*
X176229256Y-65284424D01*
G37*
G36*
X177880460Y-66363000D02*
G01*
X177945084Y-66375234D01*
X177999284Y-66411849D01*
X178036140Y-66465877D01*
X178048499Y-66531039D01*
X178036225Y-66595173D01*
X177999284Y-66649619D01*
X177945037Y-66686712D01*
X177880460Y-66699078D01*
X177815862Y-66686715D01*
X177761514Y-66649619D01*
X177724668Y-66595182D01*
X177712421Y-66531039D01*
X177724753Y-66465867D01*
X177761514Y-66411849D01*
X177815815Y-66375230D01*
X177880460Y-66363000D01*
G37*
G36*
X178748499Y-64651346D02*
G01*
X179143318Y-64651346D01*
X179143318Y-66660000D01*
X178943893Y-66660000D01*
X178943893Y-64846741D01*
X178628332Y-64846741D01*
X178748499Y-64651346D01*
G37*
D12*
X183134819Y-84261904D02*
X183944342Y-84261904D01*
X183944342Y-84261904D02*
X184039580Y-84214285D01*
X184039580Y-84214285D02*
X184087200Y-84166666D01*
X184087200Y-84166666D02*
X184134819Y-84071428D01*
X184134819Y-84071428D02*
X184134819Y-83880952D01*
X184134819Y-83880952D02*
X184087200Y-83785714D01*
X184087200Y-83785714D02*
X184039580Y-83738095D01*
X184039580Y-83738095D02*
X183944342Y-83690476D01*
X183944342Y-83690476D02*
X183134819Y-83690476D01*
X184087200Y-83261904D02*
X184134819Y-83119047D01*
X184134819Y-83119047D02*
X184134819Y-82880952D01*
X184134819Y-82880952D02*
X184087200Y-82785714D01*
X184087200Y-82785714D02*
X184039580Y-82738095D01*
X184039580Y-82738095D02*
X183944342Y-82690476D01*
X183944342Y-82690476D02*
X183849104Y-82690476D01*
X183849104Y-82690476D02*
X183753866Y-82738095D01*
X183753866Y-82738095D02*
X183706247Y-82785714D01*
X183706247Y-82785714D02*
X183658628Y-82880952D01*
X183658628Y-82880952D02*
X183611009Y-83071428D01*
X183611009Y-83071428D02*
X183563390Y-83166666D01*
X183563390Y-83166666D02*
X183515771Y-83214285D01*
X183515771Y-83214285D02*
X183420533Y-83261904D01*
X183420533Y-83261904D02*
X183325295Y-83261904D01*
X183325295Y-83261904D02*
X183230057Y-83214285D01*
X183230057Y-83214285D02*
X183182438Y-83166666D01*
X183182438Y-83166666D02*
X183134819Y-83071428D01*
X183134819Y-83071428D02*
X183134819Y-82833333D01*
X183134819Y-82833333D02*
X183182438Y-82690476D01*
X183611009Y-81928571D02*
X183658628Y-81785714D01*
X183658628Y-81785714D02*
X183706247Y-81738095D01*
X183706247Y-81738095D02*
X183801485Y-81690476D01*
X183801485Y-81690476D02*
X183944342Y-81690476D01*
X183944342Y-81690476D02*
X184039580Y-81738095D01*
X184039580Y-81738095D02*
X184087200Y-81785714D01*
X184087200Y-81785714D02*
X184134819Y-81880952D01*
X184134819Y-81880952D02*
X184134819Y-82261904D01*
X184134819Y-82261904D02*
X183134819Y-82261904D01*
X183134819Y-82261904D02*
X183134819Y-81928571D01*
X183134819Y-81928571D02*
X183182438Y-81833333D01*
X183182438Y-81833333D02*
X183230057Y-81785714D01*
X183230057Y-81785714D02*
X183325295Y-81738095D01*
X183325295Y-81738095D02*
X183420533Y-81738095D01*
X183420533Y-81738095D02*
X183515771Y-81785714D01*
X183515771Y-81785714D02*
X183563390Y-81833333D01*
X183563390Y-81833333D02*
X183611009Y-81928571D01*
X183611009Y-81928571D02*
X183611009Y-82261904D01*
D13*
%TO.C,C26*%
X151684420Y-127490000D02*
X151965580Y-127490000D01*
X151684420Y-128510000D02*
X151965580Y-128510000D01*
%TO.C,R10*%
X116157742Y-116237500D02*
X116632258Y-116237500D01*
X116157742Y-117282500D02*
X116632258Y-117282500D01*
%TO.C,C13*%
X154315000Y-113859420D02*
X154315000Y-114140580D01*
X155335000Y-113859420D02*
X155335000Y-114140580D01*
%TO.C,R57*%
X140437500Y-110527258D02*
X140437500Y-110052742D01*
X141482500Y-110527258D02*
X141482500Y-110052742D01*
%TO.C,JP19*%
X140750000Y-59100000D02*
X142750000Y-59100000D01*
X140750000Y-61900000D02*
X140750000Y-59100000D01*
X142750000Y-59100000D02*
X142750000Y-61900000D01*
X142750000Y-61900000D02*
X140750000Y-61900000D01*
%TO.C,C39*%
X129600580Y-107280000D02*
X129319420Y-107280000D01*
X129600580Y-108300000D02*
X129319420Y-108300000D01*
%TO.C,C56*%
X118511252Y-61765000D02*
X117988748Y-61765000D01*
X118511252Y-63235000D02*
X117988748Y-63235000D01*
%TO.C,C11*%
X165684420Y-112490000D02*
X165965580Y-112490000D01*
X165684420Y-113510000D02*
X165965580Y-113510000D01*
%TO.C,JP2*%
X112687500Y-82674999D02*
X114687500Y-82674999D01*
X112687500Y-85474999D02*
X112687500Y-82674999D01*
X114687500Y-82674999D02*
X114687500Y-85474999D01*
X114687500Y-85474999D02*
X112687500Y-85474999D01*
%TO.C,D5*%
X152000000Y-131440000D02*
X151350000Y-131440000D01*
X152000000Y-131440000D02*
X152650000Y-131440000D01*
X152000000Y-134560000D02*
X151350000Y-134560000D01*
X152000000Y-134560000D02*
X152650000Y-134560000D01*
X150837500Y-131490000D02*
X150597500Y-131160000D01*
X151077500Y-131160000D01*
X150837500Y-131490000D01*
G36*
X150837500Y-131490000D02*
G01*
X150597500Y-131160000D01*
X151077500Y-131160000D01*
X150837500Y-131490000D01*
G37*
%TO.C,C44*%
X129190580Y-120190000D02*
X128909420Y-120190000D01*
X129190580Y-121210000D02*
X128909420Y-121210000D01*
%TO.C,R20*%
X166062258Y-104477500D02*
X165587742Y-104477500D01*
X166062258Y-105522500D02*
X165587742Y-105522500D01*
%TO.C,D4*%
X151825000Y-123440000D02*
X151175000Y-123440000D01*
X151825000Y-123440000D02*
X152475000Y-123440000D01*
X151825000Y-126560000D02*
X151175000Y-126560000D01*
X151825000Y-126560000D02*
X152475000Y-126560000D01*
X150662500Y-123490000D02*
X150422500Y-123160000D01*
X150902500Y-123160000D01*
X150662500Y-123490000D01*
G36*
X150662500Y-123490000D02*
G01*
X150422500Y-123160000D01*
X150902500Y-123160000D01*
X150662500Y-123490000D01*
G37*
%TO.C,C33*%
X165859420Y-140490000D02*
X166140580Y-140490000D01*
X165859420Y-141510000D02*
X166140580Y-141510000D01*
%TO.C,C41*%
X133319420Y-113780000D02*
X133600580Y-113780000D01*
X133319420Y-114800000D02*
X133600580Y-114800000D01*
%TO.C,JP11*%
X171875000Y-129600000D02*
X174675000Y-129600000D01*
X171875000Y-131600000D02*
X171875000Y-129600000D01*
X174675000Y-129600000D02*
X174675000Y-131600000D01*
X174675000Y-131600000D02*
X171875000Y-131600000D01*
%TO.C,R2*%
X116632258Y-113777500D02*
X116157742Y-113777500D01*
X116632258Y-114822500D02*
X116157742Y-114822500D01*
%TO.C,R59*%
X138527500Y-124937258D02*
X138527500Y-124462742D01*
X139572500Y-124937258D02*
X139572500Y-124462742D01*
%TO.C,J10*%
X112340000Y-98645000D02*
X113100000Y-98645000D01*
X112340000Y-99975000D02*
X112340000Y-98645000D01*
X113735000Y-98645000D02*
X117605000Y-98645000D01*
X113735000Y-99215000D02*
X113735000Y-98645000D01*
X113735000Y-101305000D02*
X113735000Y-100735000D01*
X113735000Y-101305000D02*
X117605000Y-101305000D01*
X117605000Y-99667470D02*
X117605000Y-98645000D01*
X117605000Y-101305000D02*
X117605000Y-100282530D01*
%TO.C,C9*%
X160315000Y-110859420D02*
X160315000Y-111140580D01*
X161335000Y-110859420D02*
X161335000Y-111140580D01*
%TO.C,R25*%
X170302500Y-108237258D02*
X170302500Y-107762742D01*
X171347500Y-108237258D02*
X171347500Y-107762742D01*
%TO.C,R35*%
X169587742Y-127477500D02*
X170062258Y-127477500D01*
X169587742Y-128522500D02*
X170062258Y-128522500D01*
%TO.C,C8*%
X161684420Y-113490000D02*
X161965580Y-113490000D01*
X161684420Y-114510000D02*
X161965580Y-114510000D01*
%TO.C,JP12*%
X139460000Y-105390000D02*
X141460000Y-105390000D01*
X139460000Y-108190000D02*
X139460000Y-105390000D01*
X141460000Y-105390000D02*
X141460000Y-108190000D01*
X141460000Y-108190000D02*
X139460000Y-108190000D01*
%TO.C,J9*%
X112340000Y-94745000D02*
X113100000Y-94745000D01*
X112340000Y-96075000D02*
X112340000Y-94745000D01*
X113735000Y-94745000D02*
X117605000Y-94745000D01*
X113735000Y-95315000D02*
X113735000Y-94745000D01*
X113735000Y-97405000D02*
X113735000Y-96835000D01*
X113735000Y-97405000D02*
X117605000Y-97405000D01*
X117605000Y-95767470D02*
X117605000Y-94745000D01*
X117605000Y-97405000D02*
X117605000Y-96382530D01*
%TO.C,C54*%
X128540000Y-139559420D02*
X128540000Y-139840580D01*
X129560000Y-139559420D02*
X129560000Y-139840580D01*
%TO.C,JP18*%
X121350000Y-52100000D02*
X124150000Y-52100000D01*
X121350000Y-54100000D02*
X121350000Y-52100000D01*
X124150000Y-52100000D02*
X124150000Y-54100000D01*
X124150000Y-54100000D02*
X121350000Y-54100000D01*
%TO.C,C30*%
X161859420Y-141490000D02*
X162140580Y-141490000D01*
X161859420Y-142510000D02*
X162140580Y-142510000D01*
%TO.C,R5*%
X114615000Y-87487258D02*
X114615000Y-87012742D01*
X115660000Y-87487258D02*
X115660000Y-87012742D01*
%TO.C,R43*%
X178477500Y-141762742D02*
X178477500Y-142237258D01*
X179522500Y-141762742D02*
X179522500Y-142237258D01*
%TO.C,R41*%
X154302500Y-125237258D02*
X154302500Y-124762742D01*
X155347500Y-125237258D02*
X155347500Y-124762742D01*
%TO.C,JP6*%
X160425000Y-104000000D02*
X163225000Y-104000000D01*
X160425000Y-106000000D02*
X160425000Y-104000000D01*
X163225000Y-104000000D02*
X163225000Y-106000000D01*
X163225000Y-106000000D02*
X160425000Y-106000000D01*
%TO.C,C43*%
X130450000Y-111149420D02*
X130450000Y-111430580D01*
X131470000Y-111149420D02*
X131470000Y-111430580D01*
%TO.C,FB3*%
X129212779Y-132690000D02*
X128887221Y-132690000D01*
X129212779Y-133710000D02*
X128887221Y-133710000D01*
%TO.C,JP4*%
X142250000Y-142000000D02*
X145050000Y-142000000D01*
X142250000Y-144000000D02*
X142250000Y-142000000D01*
X145050000Y-142000000D02*
X145050000Y-144000000D01*
X145050000Y-144000000D02*
X142250000Y-144000000D01*
%TO.C,C57*%
X125390580Y-57990000D02*
X125109420Y-57990000D01*
X125390580Y-59010000D02*
X125109420Y-59010000D01*
%TO.C,C60*%
X118890580Y-58490000D02*
X118609420Y-58490000D01*
X118890580Y-59510000D02*
X118609420Y-59510000D01*
%TO.C,C7*%
X165684420Y-102490000D02*
X165965580Y-102490000D01*
X165684420Y-103510000D02*
X165965580Y-103510000D01*
%TO.C,C14*%
X151684420Y-107490000D02*
X151965580Y-107490000D01*
X151684420Y-108510000D02*
X151965580Y-108510000D01*
%TO.C,C17*%
X178315000Y-125140580D02*
X178315000Y-124859420D01*
X179335000Y-125140580D02*
X179335000Y-124859420D01*
%TO.C,C27*%
X178490000Y-132140580D02*
X178490000Y-131859420D01*
X179510000Y-132140580D02*
X179510000Y-131859420D01*
%TO.C,D1*%
X151825000Y-103440000D02*
X151175000Y-103440000D01*
X151825000Y-103440000D02*
X152475000Y-103440000D01*
X151825000Y-106560000D02*
X151175000Y-106560000D01*
X151825000Y-106560000D02*
X152475000Y-106560000D01*
X150662500Y-103490000D02*
X150422500Y-103160000D01*
X150902500Y-103160000D01*
X150662500Y-103490000D01*
G36*
X150662500Y-103490000D02*
G01*
X150422500Y-103160000D01*
X150902500Y-103160000D01*
X150662500Y-103490000D01*
G37*
%TO.C,C63*%
X139890000Y-64288748D02*
X139890000Y-65711252D01*
X142610000Y-64288748D02*
X142610000Y-65711252D01*
%TO.C,R40*%
X154302500Y-119237258D02*
X154302500Y-118762742D01*
X155347500Y-119237258D02*
X155347500Y-118762742D01*
%TO.C,R13*%
X116157742Y-123937500D02*
X116632258Y-123937500D01*
X116157742Y-124982500D02*
X116632258Y-124982500D01*
%TO.C,C49*%
X130040000Y-125559420D02*
X130040000Y-125840580D01*
X131060000Y-125559420D02*
X131060000Y-125840580D01*
%TO.C,R38*%
X172455000Y-119730000D02*
X172785000Y-119730000D01*
X172455000Y-126270000D02*
X172455000Y-119730000D01*
X172785000Y-126270000D02*
X172455000Y-126270000D01*
X174865000Y-126270000D02*
X175195000Y-126270000D01*
X175195000Y-119730000D02*
X174865000Y-119730000D01*
X175195000Y-126270000D02*
X175195000Y-119730000D01*
%TO.C,D6*%
X152000000Y-137440000D02*
X151350000Y-137440000D01*
X152000000Y-137440000D02*
X152650000Y-137440000D01*
X152000000Y-140560000D02*
X151350000Y-140560000D01*
X152000000Y-140560000D02*
X152650000Y-140560000D01*
X150837500Y-137490000D02*
X150597500Y-137160000D01*
X151077500Y-137160000D01*
X150837500Y-137490000D01*
G36*
X150837500Y-137490000D02*
G01*
X150597500Y-137160000D01*
X151077500Y-137160000D01*
X150837500Y-137490000D01*
G37*
%TO.C,R11*%
X116157742Y-118857500D02*
X116632258Y-118857500D01*
X116157742Y-119902500D02*
X116632258Y-119902500D01*
%TO.C,C2*%
X120295580Y-118870000D02*
X120014420Y-118870000D01*
X120295580Y-119890000D02*
X120014420Y-119890000D01*
%TO.C,C48*%
X128540000Y-125559420D02*
X128540000Y-125840580D01*
X129560000Y-125559420D02*
X129560000Y-125840580D01*
%TO.C,R8*%
X124252258Y-116317500D02*
X123777742Y-116317500D01*
X124252258Y-117362500D02*
X123777742Y-117362500D01*
%TO.C,R12*%
X116157742Y-121397500D02*
X116632258Y-121397500D01*
X116157742Y-122442500D02*
X116632258Y-122442500D01*
%TO.C,R45*%
X176477500Y-134762742D02*
X176477500Y-135237258D01*
X177522500Y-134762742D02*
X177522500Y-135237258D01*
%TO.C,R52*%
X172630000Y-133730000D02*
X172960000Y-133730000D01*
X172630000Y-140270000D02*
X172630000Y-133730000D01*
X172960000Y-140270000D02*
X172630000Y-140270000D01*
X175040000Y-140270000D02*
X175370000Y-140270000D01*
X175370000Y-133730000D02*
X175040000Y-133730000D01*
X175370000Y-140270000D02*
X175370000Y-133730000D01*
%TO.C,R18*%
X176302500Y-110762742D02*
X176302500Y-111237258D01*
X177347500Y-110762742D02*
X177347500Y-111237258D01*
%TO.C,D2*%
X151825000Y-109440000D02*
X151175000Y-109440000D01*
X151825000Y-109440000D02*
X152475000Y-109440000D01*
X151825000Y-112560000D02*
X151175000Y-112560000D01*
X151825000Y-112560000D02*
X152475000Y-112560000D01*
X150662500Y-109490000D02*
X150422500Y-109160000D01*
X150902500Y-109160000D01*
X150662500Y-109490000D01*
G36*
X150662500Y-109490000D02*
G01*
X150422500Y-109160000D01*
X150902500Y-109160000D01*
X150662500Y-109490000D01*
G37*
%TO.C,JP16*%
X139050000Y-133800000D02*
X141050000Y-133800000D01*
X139050000Y-136600000D02*
X139050000Y-133800000D01*
X141050000Y-133800000D02*
X141050000Y-136600000D01*
X141050000Y-136600000D02*
X139050000Y-136600000D01*
%TO.C,R47*%
X176477500Y-141762742D02*
X176477500Y-142237258D01*
X177522500Y-141762742D02*
X177522500Y-142237258D01*
%TO.C,R50*%
X156630000Y-133730000D02*
X156960000Y-133730000D01*
X156630000Y-140270000D02*
X156630000Y-133730000D01*
X156960000Y-140270000D02*
X156630000Y-140270000D01*
X159040000Y-140270000D02*
X159370000Y-140270000D01*
X159370000Y-133730000D02*
X159040000Y-133730000D01*
X159370000Y-140270000D02*
X159370000Y-133730000D01*
%TO.C,JP17*%
X141550000Y-133800000D02*
X143550000Y-133800000D01*
X141550000Y-136600000D02*
X141550000Y-133800000D01*
X143550000Y-133800000D02*
X143550000Y-136600000D01*
X143550000Y-136600000D02*
X141550000Y-136600000D01*
%TO.C,C34*%
X154490000Y-135859420D02*
X154490000Y-136140580D01*
X155510000Y-135859420D02*
X155510000Y-136140580D01*
%TO.C,U3*%
X165825000Y-106440000D02*
X163875000Y-106440000D01*
X165825000Y-106440000D02*
X167775000Y-106440000D01*
X165825000Y-111560000D02*
X163875000Y-111560000D01*
X165825000Y-111560000D02*
X167775000Y-111560000D01*
X163125000Y-106535000D02*
X162885000Y-106205000D01*
X163365000Y-106205000D01*
X163125000Y-106535000D01*
G36*
X163125000Y-106535000D02*
G01*
X162885000Y-106205000D01*
X163365000Y-106205000D01*
X163125000Y-106535000D01*
G37*
%TO.C,R23*%
X160302500Y-108237258D02*
X160302500Y-107762742D01*
X161347500Y-108237258D02*
X161347500Y-107762742D01*
D12*
%TO.C,U1*%
X123520000Y-74110000D02*
X184480000Y-74110000D01*
X123520000Y-91890000D02*
X123520000Y-74110000D01*
X161620000Y-74110000D02*
X148920000Y-74110000D01*
X184480000Y-74110000D02*
X184480000Y-91890000D01*
X184480000Y-91890000D02*
X123520000Y-91890000D01*
D13*
%TO.C,C16*%
X178315000Y-118140580D02*
X178315000Y-117859420D01*
X179335000Y-118140580D02*
X179335000Y-117859420D01*
%TO.C,R30*%
X176302500Y-117762742D02*
X176302500Y-118237258D01*
X177347500Y-117762742D02*
X177347500Y-118237258D01*
%TO.C,R44*%
X176477500Y-131762742D02*
X176477500Y-132237258D01*
X177522500Y-131762742D02*
X177522500Y-132237258D01*
%TO.C,U6*%
X132800000Y-109430000D02*
X132800000Y-109220000D01*
X132800000Y-112200000D02*
X132800000Y-111750000D01*
X133250000Y-108980000D02*
X133100000Y-108980000D01*
X133250000Y-112200000D02*
X132800000Y-112200000D01*
X135570000Y-108980000D02*
X136020000Y-108980000D01*
X135570000Y-112200000D02*
X136020000Y-112200000D01*
X136020000Y-108980000D02*
X136020000Y-109430000D01*
X136020000Y-112200000D02*
X136020000Y-111750000D01*
X132800000Y-108980000D02*
X132560000Y-108650000D01*
X133040000Y-108650000D01*
X132800000Y-108980000D01*
G36*
X132800000Y-108980000D02*
G01*
X132560000Y-108650000D01*
X133040000Y-108650000D01*
X132800000Y-108980000D01*
G37*
%TO.C,C62*%
X118890580Y-52490000D02*
X118609420Y-52490000D01*
X118890580Y-53510000D02*
X118609420Y-53510000D01*
%TO.C,R62*%
X138527500Y-138937258D02*
X138527500Y-138462742D01*
X139572500Y-138937258D02*
X139572500Y-138462742D01*
%TO.C,C46*%
X133409420Y-120690000D02*
X133690580Y-120690000D01*
X133409420Y-121710000D02*
X133690580Y-121710000D01*
%TO.C,C29*%
X165859420Y-130490000D02*
X166140580Y-130490000D01*
X165859420Y-131510000D02*
X166140580Y-131510000D01*
%TO.C,R65*%
X130227500Y-65262742D02*
X130227500Y-65737258D01*
X131272500Y-65262742D02*
X131272500Y-65737258D01*
%TO.C,C59*%
X133109420Y-65990000D02*
X133390580Y-65990000D01*
X133109420Y-67010000D02*
X133390580Y-67010000D01*
%TO.C,R48*%
X166237258Y-132477500D02*
X165762742Y-132477500D01*
X166237258Y-133522500D02*
X165762742Y-133522500D01*
%TO.C,D3*%
X151825000Y-117440000D02*
X151175000Y-117440000D01*
X151825000Y-117440000D02*
X152475000Y-117440000D01*
X151825000Y-120560000D02*
X151175000Y-120560000D01*
X151825000Y-120560000D02*
X152475000Y-120560000D01*
X150662500Y-117490000D02*
X150422500Y-117160000D01*
X150902500Y-117160000D01*
X150662500Y-117490000D01*
G36*
X150662500Y-117490000D02*
G01*
X150422500Y-117160000D01*
X150902500Y-117160000D01*
X150662500Y-117490000D01*
G37*
%TO.C,R63*%
X140027500Y-138937258D02*
X140027500Y-138462742D01*
X141072500Y-138937258D02*
X141072500Y-138462742D01*
%TO.C,C51*%
X129190580Y-135690000D02*
X128909420Y-135690000D01*
X129190580Y-136710000D02*
X128909420Y-136710000D01*
%TO.C,C53*%
X132909420Y-142190000D02*
X133190580Y-142190000D01*
X132909420Y-143210000D02*
X133190580Y-143210000D01*
%TO.C,R49*%
X169762742Y-141477500D02*
X170237258Y-141477500D01*
X169762742Y-142522500D02*
X170237258Y-142522500D01*
%TO.C,U10*%
X118187500Y-54440000D02*
X117537500Y-54440000D01*
X118187500Y-54440000D02*
X118837500Y-54440000D01*
X118187500Y-57560000D02*
X117537500Y-57560000D01*
X118187500Y-57560000D02*
X118837500Y-57560000D01*
X119590000Y-57840000D02*
X119110000Y-57840000D01*
X119350000Y-57510000D01*
X119590000Y-57840000D01*
G36*
X119590000Y-57840000D02*
G01*
X119110000Y-57840000D01*
X119350000Y-57510000D01*
X119590000Y-57840000D01*
G37*
%TO.C,C5*%
X178315000Y-104140580D02*
X178315000Y-103859420D01*
X179335000Y-104140580D02*
X179335000Y-103859420D01*
%TO.C,R60*%
X140027500Y-124937258D02*
X140027500Y-124462742D01*
X141072500Y-124937258D02*
X141072500Y-124462742D01*
%TO.C,C21*%
X170315000Y-124859420D02*
X170315000Y-125140580D01*
X171335000Y-124859420D02*
X171335000Y-125140580D01*
%TO.C,JP7*%
X171700000Y-101600000D02*
X174500000Y-101600000D01*
X171700000Y-103600000D02*
X171700000Y-101600000D01*
X174500000Y-101600000D02*
X174500000Y-103600000D01*
X174500000Y-103600000D02*
X171700000Y-103600000D01*
%TO.C,R39*%
X170302500Y-122237258D02*
X170302500Y-121762742D01*
X171347500Y-122237258D02*
X171347500Y-121762742D01*
%TO.C,R15*%
X178302500Y-113762742D02*
X178302500Y-114237258D01*
X179347500Y-113762742D02*
X179347500Y-114237258D01*
%TO.C,R6*%
X124252258Y-118857500D02*
X123777742Y-118857500D01*
X124252258Y-119902500D02*
X123777742Y-119902500D01*
%TO.C,R7*%
X124252258Y-123937500D02*
X123777742Y-123937500D01*
X124252258Y-124982500D02*
X123777742Y-124982500D01*
%TO.C,J8*%
X112340000Y-90745000D02*
X113100000Y-90745000D01*
X112340000Y-92075000D02*
X112340000Y-90745000D01*
X113735000Y-90745000D02*
X117605000Y-90745000D01*
X113735000Y-91315000D02*
X113735000Y-90745000D01*
X113735000Y-93405000D02*
X113735000Y-92835000D01*
X113735000Y-93405000D02*
X117605000Y-93405000D01*
X117605000Y-91767470D02*
X117605000Y-90745000D01*
X117605000Y-93405000D02*
X117605000Y-92382530D01*
%TO.C,R37*%
X160302500Y-122237258D02*
X160302500Y-121762742D01*
X161347500Y-122237258D02*
X161347500Y-121762742D01*
%TO.C,R66*%
X137727500Y-65262742D02*
X137727500Y-65737258D01*
X138772500Y-65262742D02*
X138772500Y-65737258D01*
%TO.C,C52*%
X133409420Y-134690000D02*
X133690580Y-134690000D01*
X133409420Y-135710000D02*
X133690580Y-135710000D01*
%TO.C,J7*%
X113000000Y-132800000D02*
X125000000Y-132800000D01*
X113000000Y-143800000D02*
X113000000Y-132800000D01*
X114500000Y-143800000D02*
X113000000Y-143800000D01*
X114500000Y-145000000D02*
X114500000Y-143800000D01*
X116000000Y-145000000D02*
X114500000Y-145000000D01*
X116000000Y-146800000D02*
X116000000Y-145000000D01*
X117000000Y-143800000D02*
X117000000Y-146800000D01*
X121000000Y-143800000D02*
X117000000Y-143800000D01*
X121000000Y-146800000D02*
X121000000Y-143800000D01*
X122000000Y-145000000D02*
X122000000Y-146800000D01*
X122000000Y-146800000D02*
X116000000Y-146800000D01*
X123500000Y-143800000D02*
X123500000Y-145000000D01*
X123500000Y-145000000D02*
X122000000Y-145000000D01*
X125000000Y-132800000D02*
X125000000Y-143800000D01*
X125000000Y-143800000D02*
X123500000Y-143800000D01*
%TO.C,R31*%
X176302500Y-120762742D02*
X176302500Y-121237258D01*
X177347500Y-120762742D02*
X177347500Y-121237258D01*
%TO.C,JP5*%
X138250000Y-142000000D02*
X141050000Y-142000000D01*
X138250000Y-144000000D02*
X138250000Y-142000000D01*
X141050000Y-142000000D02*
X141050000Y-144000000D01*
X141050000Y-144000000D02*
X138250000Y-144000000D01*
%TO.C,FB1*%
X129622779Y-104280000D02*
X129297221Y-104280000D01*
X129622779Y-105300000D02*
X129297221Y-105300000D01*
%TO.C,R58*%
X137437500Y-107027258D02*
X137437500Y-106552742D01*
X138482500Y-107027258D02*
X138482500Y-106552742D01*
%TO.C,R46*%
X176477500Y-138762742D02*
X176477500Y-139237258D01*
X177522500Y-138762742D02*
X177522500Y-139237258D01*
%TO.C,C47*%
X132909420Y-128190000D02*
X133190580Y-128190000D01*
X132909420Y-129210000D02*
X133190580Y-129210000D01*
%TO.C,R27*%
X154302500Y-111237258D02*
X154302500Y-110762742D01*
X155347500Y-111237258D02*
X155347500Y-110762742D01*
%TO.C,R33*%
X176302500Y-127762742D02*
X176302500Y-128237258D01*
X177347500Y-127762742D02*
X177347500Y-128237258D01*
%TO.C,U5*%
X166000000Y-134440000D02*
X164050000Y-134440000D01*
X166000000Y-134440000D02*
X167950000Y-134440000D01*
X166000000Y-139560000D02*
X164050000Y-139560000D01*
X166000000Y-139560000D02*
X167950000Y-139560000D01*
X163300000Y-134535000D02*
X163060000Y-134205000D01*
X163540000Y-134205000D01*
X163300000Y-134535000D01*
G36*
X163300000Y-134535000D02*
G01*
X163060000Y-134205000D01*
X163540000Y-134205000D01*
X163300000Y-134535000D01*
G37*
%TO.C,C50*%
X129190580Y-134190000D02*
X128909420Y-134190000D01*
X129190580Y-135210000D02*
X128909420Y-135210000D01*
%TO.C,JP14*%
X139050000Y-119800000D02*
X141050000Y-119800000D01*
X139050000Y-122600000D02*
X139050000Y-119800000D01*
X141050000Y-119800000D02*
X141050000Y-122600000D01*
X141050000Y-122600000D02*
X139050000Y-122600000D01*
%TO.C,C6*%
X178315000Y-111140580D02*
X178315000Y-110859420D01*
X179335000Y-111140580D02*
X179335000Y-110859420D01*
%TO.C,C28*%
X178490000Y-139140580D02*
X178490000Y-138859420D01*
X179510000Y-139140580D02*
X179510000Y-138859420D01*
%TO.C,C12*%
X154315000Y-107859420D02*
X154315000Y-108140580D01*
X155335000Y-107859420D02*
X155335000Y-108140580D01*
%TO.C,C19*%
X161684420Y-127490000D02*
X161965580Y-127490000D01*
X161684420Y-128510000D02*
X161965580Y-128510000D01*
%TO.C,U8*%
X132390000Y-137840000D02*
X132390000Y-137630000D01*
X132390000Y-140610000D02*
X132390000Y-140160000D01*
X132840000Y-137390000D02*
X132690000Y-137390000D01*
X132840000Y-140610000D02*
X132390000Y-140610000D01*
X135160000Y-137390000D02*
X135610000Y-137390000D01*
X135160000Y-140610000D02*
X135610000Y-140610000D01*
X135610000Y-137390000D02*
X135610000Y-137840000D01*
X135610000Y-140610000D02*
X135610000Y-140160000D01*
X132390000Y-137390000D02*
X132150000Y-137060000D01*
X132630000Y-137060000D01*
X132390000Y-137390000D01*
G36*
X132390000Y-137390000D02*
G01*
X132150000Y-137060000D01*
X132630000Y-137060000D01*
X132390000Y-137390000D01*
G37*
%TO.C,R17*%
X176302500Y-106762742D02*
X176302500Y-107237258D01*
X177347500Y-106762742D02*
X177347500Y-107237258D01*
%TO.C,JP3*%
X116137500Y-82674999D02*
X118137500Y-82674999D01*
X116137500Y-85474999D02*
X116137500Y-82674999D01*
X118137500Y-82674999D02*
X118137500Y-85474999D01*
X118137500Y-85474999D02*
X116137500Y-85474999D01*
%TO.C,J3*%
X107707500Y-72885000D02*
X107707500Y-71725000D01*
X108517500Y-72885000D02*
X107707500Y-72885000D01*
X109327500Y-70565000D02*
X120692500Y-70565000D01*
X109327500Y-71058292D02*
X109327500Y-70565000D01*
X109327500Y-72885000D02*
X109327500Y-72391708D01*
X109327500Y-72885000D02*
X120692500Y-72885000D01*
X120692500Y-71407077D02*
X120692500Y-70565000D01*
X120692500Y-72885000D02*
X120692500Y-72042923D01*
%TO.C,C31*%
X160490000Y-138859420D02*
X160490000Y-139140580D01*
X161510000Y-138859420D02*
X161510000Y-139140580D01*
%TO.C,C36*%
X151859420Y-135490000D02*
X152140580Y-135490000D01*
X151859420Y-136510000D02*
X152140580Y-136510000D01*
%TO.C,C25*%
X151684420Y-121490000D02*
X151965580Y-121490000D01*
X151684420Y-122510000D02*
X151965580Y-122510000D01*
%TO.C,JP1*%
X109137500Y-82675000D02*
X111137500Y-82675000D01*
X109137500Y-85475000D02*
X109137500Y-82675000D01*
X111137500Y-82675000D02*
X111137500Y-85475000D01*
X111137500Y-85475000D02*
X109137500Y-85475000D01*
%TO.C,C18*%
X165684420Y-116490000D02*
X165965580Y-116490000D01*
X165684420Y-117510000D02*
X165965580Y-117510000D01*
%TO.C,R32*%
X176302500Y-124762742D02*
X176302500Y-125237258D01*
X177347500Y-124762742D02*
X177347500Y-125237258D01*
%TO.C,C42*%
X128950000Y-111149420D02*
X128950000Y-111430580D01*
X129970000Y-111149420D02*
X129970000Y-111430580D01*
%TO.C,R29*%
X178302500Y-127762742D02*
X178302500Y-128237258D01*
X179347500Y-127762742D02*
X179347500Y-128237258D01*
%TO.C,U4*%
X165825000Y-120440000D02*
X163875000Y-120440000D01*
X165825000Y-120440000D02*
X167775000Y-120440000D01*
X165825000Y-125560000D02*
X163875000Y-125560000D01*
X165825000Y-125560000D02*
X167775000Y-125560000D01*
X163125000Y-120535000D02*
X162885000Y-120205000D01*
X163365000Y-120205000D01*
X163125000Y-120535000D01*
G36*
X163125000Y-120535000D02*
G01*
X162885000Y-120205000D01*
X163365000Y-120205000D01*
X163125000Y-120535000D01*
G37*
%TO.C,C22*%
X165684420Y-126490000D02*
X165965580Y-126490000D01*
X165684420Y-127510000D02*
X165965580Y-127510000D01*
%TO.C,R24*%
X172455000Y-105730000D02*
X172785000Y-105730000D01*
X172455000Y-112270000D02*
X172455000Y-105730000D01*
X172785000Y-112270000D02*
X172455000Y-112270000D01*
X174865000Y-112270000D02*
X175195000Y-112270000D01*
X175195000Y-105730000D02*
X174865000Y-105730000D01*
X175195000Y-112270000D02*
X175195000Y-105730000D01*
%TO.C,JP9*%
X171700000Y-115600000D02*
X174500000Y-115600000D01*
X171700000Y-117600000D02*
X171700000Y-115600000D01*
X174500000Y-115600000D02*
X174500000Y-117600000D01*
X174500000Y-117600000D02*
X171700000Y-117600000D01*
%TO.C,C32*%
X170490000Y-138859420D02*
X170490000Y-139140580D01*
X171510000Y-138859420D02*
X171510000Y-139140580D01*
%TO.C,U9*%
X125250000Y-59940000D02*
X123300000Y-59940000D01*
X125250000Y-59940000D02*
X127200000Y-59940000D01*
X125250000Y-65060000D02*
X123300000Y-65060000D01*
X125250000Y-65060000D02*
X127200000Y-65060000D01*
X122550000Y-60035000D02*
X122310000Y-59705000D01*
X122790000Y-59705000D01*
X122550000Y-60035000D01*
G36*
X122550000Y-60035000D02*
G01*
X122310000Y-59705000D01*
X122790000Y-59705000D01*
X122550000Y-60035000D01*
G37*
%TO.C,C45*%
X129190580Y-121690000D02*
X128909420Y-121690000D01*
X129190580Y-122710000D02*
X128909420Y-122710000D01*
%TO.C,R14*%
X178302500Y-106762742D02*
X178302500Y-107237258D01*
X179347500Y-106762742D02*
X179347500Y-107237258D01*
%TO.C,JP8*%
X160425000Y-118000000D02*
X163225000Y-118000000D01*
X160425000Y-120000000D02*
X160425000Y-118000000D01*
X163225000Y-118000000D02*
X163225000Y-120000000D01*
X163225000Y-120000000D02*
X160425000Y-120000000D01*
%TO.C,C37*%
X151859420Y-141490000D02*
X152140580Y-141490000D01*
X151859420Y-142510000D02*
X152140580Y-142510000D01*
%TO.C,C38*%
X129600580Y-105780000D02*
X129319420Y-105780000D01*
X129600580Y-106800000D02*
X129319420Y-106800000D01*
%TO.C,C40*%
X133819420Y-106280000D02*
X134100580Y-106280000D01*
X133819420Y-107300000D02*
X134100580Y-107300000D01*
%TO.C,R21*%
X169587742Y-113477500D02*
X170062258Y-113477500D01*
X169587742Y-114522500D02*
X170062258Y-114522500D01*
%TO.C,C23*%
X154315000Y-121859420D02*
X154315000Y-122140580D01*
X155335000Y-121859420D02*
X155335000Y-122140580D01*
%TO.C,R1*%
X116632258Y-111237500D02*
X116157742Y-111237500D01*
X116632258Y-112282500D02*
X116157742Y-112282500D01*
%TO.C,C3*%
X120295580Y-121410000D02*
X120014420Y-121410000D01*
X120295580Y-122430000D02*
X120014420Y-122430000D01*
%TO.C,R9*%
X124252258Y-121397500D02*
X123777742Y-121397500D01*
X124252258Y-122442500D02*
X123777742Y-122442500D01*
%TO.C,U2*%
X114000000Y-73965000D02*
X111800000Y-73965000D01*
X114000000Y-73965000D02*
X116200000Y-73965000D01*
X114000000Y-82035000D02*
X111800000Y-82035000D01*
X114000000Y-82035000D02*
X116200000Y-82035000D01*
X110140000Y-74425000D02*
X109810000Y-74665000D01*
X109810000Y-74185000D01*
X110140000Y-74425000D01*
G36*
X110140000Y-74425000D02*
G01*
X109810000Y-74665000D01*
X109810000Y-74185000D01*
X110140000Y-74425000D01*
G37*
%TO.C,R53*%
X170477500Y-136237258D02*
X170477500Y-135762742D01*
X171522500Y-136237258D02*
X171522500Y-135762742D01*
%TO.C,R22*%
X156455000Y-105730000D02*
X156785000Y-105730000D01*
X156455000Y-112270000D02*
X156455000Y-105730000D01*
X156785000Y-112270000D02*
X156455000Y-112270000D01*
X158865000Y-112270000D02*
X159195000Y-112270000D01*
X159195000Y-105730000D02*
X158865000Y-105730000D01*
X159195000Y-112270000D02*
X159195000Y-105730000D01*
%TO.C,C35*%
X154490000Y-141859420D02*
X154490000Y-142140580D01*
X155510000Y-141859420D02*
X155510000Y-142140580D01*
%TO.C,R26*%
X154302500Y-105237258D02*
X154302500Y-104762742D01*
X155347500Y-105237258D02*
X155347500Y-104762742D01*
%TO.C,C1*%
X120014420Y-116330000D02*
X120295580Y-116330000D01*
X120014420Y-117350000D02*
X120295580Y-117350000D01*
%TO.C,R34*%
X166062258Y-118477500D02*
X165587742Y-118477500D01*
X166062258Y-119522500D02*
X165587742Y-119522500D01*
%TO.C,JP13*%
X141960000Y-105390000D02*
X143960000Y-105390000D01*
X141960000Y-108190000D02*
X141960000Y-105390000D01*
X143960000Y-105390000D02*
X143960000Y-108190000D01*
X143960000Y-108190000D02*
X141960000Y-108190000D01*
%TO.C,J2*%
X102680000Y-100220000D02*
X104060000Y-100220000D01*
X102680000Y-101600000D02*
X102680000Y-100220000D01*
X102680000Y-102870000D02*
X102680000Y-130920000D01*
X102680000Y-102870000D02*
X105330000Y-102870000D01*
X102680000Y-130920000D02*
X107980000Y-130920000D01*
X105330000Y-100220000D02*
X107980000Y-100220000D01*
X105330000Y-102870000D02*
X105330000Y-100220000D01*
X107980000Y-100220000D02*
X107980000Y-130920000D01*
%TO.C,R61*%
X137027500Y-121437258D02*
X137027500Y-120962742D01*
X138072500Y-121437258D02*
X138072500Y-120962742D01*
%TO.C,C61*%
X133109420Y-63990000D02*
X133390580Y-63990000D01*
X133109420Y-65010000D02*
X133390580Y-65010000D01*
%TO.C,U7*%
X132390000Y-123840000D02*
X132390000Y-123630000D01*
X132390000Y-126610000D02*
X132390000Y-126160000D01*
X132840000Y-123390000D02*
X132690000Y-123390000D01*
X132840000Y-126610000D02*
X132390000Y-126610000D01*
X135160000Y-123390000D02*
X135610000Y-123390000D01*
X135160000Y-126610000D02*
X135610000Y-126610000D01*
X135610000Y-123390000D02*
X135610000Y-123840000D01*
X135610000Y-126610000D02*
X135610000Y-126160000D01*
X132390000Y-123390000D02*
X132150000Y-123060000D01*
X132630000Y-123060000D01*
X132390000Y-123390000D01*
G36*
X132390000Y-123390000D02*
G01*
X132150000Y-123060000D01*
X132630000Y-123060000D01*
X132390000Y-123390000D01*
G37*
%TO.C,R36*%
X156455000Y-119730000D02*
X156785000Y-119730000D01*
X156455000Y-126270000D02*
X156455000Y-119730000D01*
X156785000Y-126270000D02*
X156455000Y-126270000D01*
X158865000Y-126270000D02*
X159195000Y-126270000D01*
X159195000Y-119730000D02*
X158865000Y-119730000D01*
X159195000Y-126270000D02*
X159195000Y-119730000D01*
%TO.C,C10*%
X170315000Y-110859420D02*
X170315000Y-111140580D01*
X171335000Y-110859420D02*
X171335000Y-111140580D01*
%TO.C,R56*%
X138937500Y-110527258D02*
X138937500Y-110052742D01*
X139982500Y-110527258D02*
X139982500Y-110052742D01*
%TO.C,C15*%
X151684420Y-113490000D02*
X151965580Y-113490000D01*
X151684420Y-114510000D02*
X151965580Y-114510000D01*
%TO.C,R19*%
X176302500Y-113762742D02*
X176302500Y-114237258D01*
X177347500Y-113762742D02*
X177347500Y-114237258D01*
%TO.C,FB2*%
X129212779Y-118690000D02*
X128887221Y-118690000D01*
X129212779Y-119710000D02*
X128887221Y-119710000D01*
%TO.C,C58*%
X118390580Y-63990000D02*
X118109420Y-63990000D01*
X118390580Y-65010000D02*
X118109420Y-65010000D01*
%TO.C,J5*%
X183000000Y-134750000D02*
X189000000Y-134750000D01*
X189000000Y-121250000D01*
X183000000Y-121250000D01*
X183000000Y-134750000D01*
%TO.C,R54*%
X154477500Y-133237258D02*
X154477500Y-132762742D01*
X155522500Y-133237258D02*
X155522500Y-132762742D01*
%TO.C,R51*%
X160477500Y-136237258D02*
X160477500Y-135762742D01*
X161522500Y-136237258D02*
X161522500Y-135762742D01*
%TO.C,C55*%
X130040000Y-139559420D02*
X130040000Y-139840580D01*
X131060000Y-139559420D02*
X131060000Y-139840580D01*
%TO.C,R28*%
X178302500Y-120762742D02*
X178302500Y-121237258D01*
X179347500Y-120762742D02*
X179347500Y-121237258D01*
%TO.C,R16*%
X176302500Y-103762742D02*
X176302500Y-104237258D01*
X177347500Y-103762742D02*
X177347500Y-104237258D01*
%TO.C,R67*%
X135727500Y-65262742D02*
X135727500Y-65737258D01*
X136772500Y-65262742D02*
X136772500Y-65737258D01*
%TO.C,D7*%
X129740000Y-59850000D02*
X129740000Y-63150000D01*
X129740000Y-59850000D02*
X135250000Y-59850000D01*
X129740000Y-63150000D02*
X135250000Y-63150000D01*
%TO.C,C4*%
X120295580Y-123950000D02*
X120014420Y-123950000D01*
X120295580Y-124970000D02*
X120014420Y-124970000D01*
%TO.C,R42*%
X178477500Y-134762742D02*
X178477500Y-135237258D01*
X179522500Y-134762742D02*
X179522500Y-135237258D01*
%TO.C,C24*%
X154315000Y-127859420D02*
X154315000Y-128140580D01*
X155335000Y-127859420D02*
X155335000Y-128140580D01*
%TO.C,JP15*%
X141550000Y-119800000D02*
X143550000Y-119800000D01*
X141550000Y-122600000D02*
X141550000Y-119800000D01*
X143550000Y-119800000D02*
X143550000Y-122600000D01*
X143550000Y-122600000D02*
X141550000Y-122600000D01*
%TO.C,R3*%
X110615000Y-87487258D02*
X110615000Y-87012742D01*
X111660000Y-87487258D02*
X111660000Y-87012742D01*
%TO.C,R64*%
X137027500Y-135437258D02*
X137027500Y-134962742D01*
X138072500Y-135437258D02*
X138072500Y-134962742D01*
%TO.C,J4*%
X183620000Y-116810000D02*
X183620000Y-98920000D01*
X186380000Y-98920000D02*
X183620000Y-98920000D01*
X186380000Y-116810000D02*
X183620000Y-116810000D01*
X186380000Y-116810000D02*
X186380000Y-98920000D01*
X186380000Y-118080000D02*
X186380000Y-119460000D01*
X186380000Y-119460000D02*
X185000000Y-119460000D01*
%TO.C,C20*%
X160315000Y-124859420D02*
X160315000Y-125140580D01*
X161335000Y-124859420D02*
X161335000Y-125140580D01*
%TO.C,JP10*%
X160600000Y-132000000D02*
X163400000Y-132000000D01*
X160600000Y-134000000D02*
X160600000Y-132000000D01*
X163400000Y-132000000D02*
X163400000Y-134000000D01*
X163400000Y-134000000D02*
X160600000Y-134000000D01*
%TO.C,R4*%
X112615000Y-87487258D02*
X112615000Y-87012742D01*
X113660000Y-87487258D02*
X113660000Y-87012742D01*
%TO.C,L1*%
X129240000Y-52740000D02*
X129240000Y-52890000D01*
X129240000Y-52740000D02*
X133760000Y-52740000D01*
X129240000Y-57260000D02*
X129240000Y-57110000D01*
X129240000Y-57260000D02*
X133760000Y-57260000D01*
X133760000Y-52740000D02*
X133760000Y-52890000D01*
X133760000Y-57260000D02*
X133760000Y-57110000D01*
%TO.C,J6*%
X145620000Y-127350000D02*
X145620000Y-109460000D01*
X148380000Y-109460000D02*
X145620000Y-109460000D01*
X148380000Y-127350000D02*
X145620000Y-127350000D01*
X148380000Y-127350000D02*
X148380000Y-109460000D01*
X148380000Y-128620000D02*
X148380000Y-130000000D01*
X148380000Y-130000000D02*
X147000000Y-130000000D01*
%TO.C,R55*%
X154477500Y-139237258D02*
X154477500Y-138762742D01*
X155522500Y-139237258D02*
X155522500Y-138762742D01*
%TD*%
%LPC*%
%TO.C,JP19*%
G36*
X141000000Y-60650000D02*
G01*
X142500000Y-60650000D01*
X142500000Y-60350000D01*
X141000000Y-60350000D01*
X141000000Y-60650000D01*
G37*
%TO.C,JP2*%
G36*
X114437500Y-83924999D02*
G01*
X112937500Y-83924999D01*
X112937500Y-84224999D01*
X114437500Y-84224999D01*
X114437500Y-83924999D01*
G37*
%TO.C,JP11*%
G36*
X173125000Y-129850000D02*
G01*
X173425000Y-129850000D01*
X173425000Y-131350000D01*
X173125000Y-131350000D01*
X173125000Y-129850000D01*
G37*
%TO.C,JP12*%
G36*
X139710000Y-106940000D02*
G01*
X141210000Y-106940000D01*
X141210000Y-106640000D01*
X139710000Y-106640000D01*
X139710000Y-106940000D01*
G37*
%TO.C,JP18*%
G36*
X122600000Y-52350000D02*
G01*
X122900000Y-52350000D01*
X122900000Y-53850000D01*
X122600000Y-53850000D01*
X122600000Y-52350000D01*
G37*
%TO.C,JP6*%
G36*
X161675000Y-104250000D02*
G01*
X161975000Y-104250000D01*
X161975000Y-105750000D01*
X161675000Y-105750000D01*
X161675000Y-104250000D01*
G37*
%TO.C,JP4*%
G36*
X143500000Y-142250000D02*
G01*
X143800000Y-142250000D01*
X143800000Y-143750000D01*
X143500000Y-143750000D01*
X143500000Y-142250000D01*
G37*
%TO.C,JP16*%
G36*
X139300000Y-135350000D02*
G01*
X140800000Y-135350000D01*
X140800000Y-135050000D01*
X139300000Y-135050000D01*
X139300000Y-135350000D01*
G37*
%TO.C,JP17*%
G36*
X141800000Y-135350000D02*
G01*
X143300000Y-135350000D01*
X143300000Y-135050000D01*
X141800000Y-135050000D01*
X141800000Y-135350000D01*
G37*
%TO.C,JP7*%
G36*
X172950000Y-101850000D02*
G01*
X173250000Y-101850000D01*
X173250000Y-103350000D01*
X172950000Y-103350000D01*
X172950000Y-101850000D01*
G37*
%TO.C,JP5*%
G36*
X139500000Y-142250000D02*
G01*
X139800000Y-142250000D01*
X139800000Y-143750000D01*
X139500000Y-143750000D01*
X139500000Y-142250000D01*
G37*
%TO.C,JP14*%
G36*
X139300000Y-121350000D02*
G01*
X140800000Y-121350000D01*
X140800000Y-121050000D01*
X139300000Y-121050000D01*
X139300000Y-121350000D01*
G37*
%TO.C,JP3*%
G36*
X117887500Y-83924999D02*
G01*
X116387500Y-83924999D01*
X116387500Y-84224999D01*
X117887500Y-84224999D01*
X117887500Y-83924999D01*
G37*
%TO.C,JP1*%
G36*
X110887500Y-83925000D02*
G01*
X109387500Y-83925000D01*
X109387500Y-84225000D01*
X110887500Y-84225000D01*
X110887500Y-83925000D01*
G37*
%TO.C,JP9*%
G36*
X172950000Y-115850000D02*
G01*
X173250000Y-115850000D01*
X173250000Y-117350000D01*
X172950000Y-117350000D01*
X172950000Y-115850000D01*
G37*
%TO.C,JP8*%
G36*
X161675000Y-118250000D02*
G01*
X161975000Y-118250000D01*
X161975000Y-119750000D01*
X161675000Y-119750000D01*
X161675000Y-118250000D01*
G37*
%TO.C,JP13*%
G36*
X142210000Y-106940000D02*
G01*
X143710000Y-106940000D01*
X143710000Y-106640000D01*
X142210000Y-106640000D01*
X142210000Y-106940000D01*
G37*
%TO.C,JP15*%
G36*
X141800000Y-121350000D02*
G01*
X143300000Y-121350000D01*
X143300000Y-121050000D01*
X141800000Y-121050000D01*
X141800000Y-121350000D01*
G37*
%TO.C,JP10*%
G36*
X161850000Y-132250000D02*
G01*
X162150000Y-132250000D01*
X162150000Y-133750000D01*
X161850000Y-133750000D01*
X161850000Y-132250000D01*
G37*
%TD*%
D14*
%TO.C,C26*%
X151050000Y-128000000D03*
X152600000Y-128000000D03*
%TD*%
D15*
%TO.C,R10*%
X115570000Y-116760000D03*
X117220000Y-116760000D03*
%TD*%
D16*
%TO.C,C13*%
X154825000Y-113225000D03*
X154825000Y-114775000D03*
%TD*%
D17*
%TO.C,R57*%
X140960000Y-111115000D03*
X140960000Y-109465000D03*
%TD*%
D18*
%TO.C,JP19*%
X141750000Y-61150000D03*
X141750000Y-59850000D03*
%TD*%
D19*
%TO.C,C39*%
X130235000Y-107790000D03*
X128685000Y-107790000D03*
%TD*%
D20*
%TO.C,C56*%
X119200000Y-62500000D03*
X117300000Y-62500000D03*
%TD*%
D14*
%TO.C,C11*%
X165050000Y-113000000D03*
X166600000Y-113000000D03*
%TD*%
D18*
%TO.C,JP2*%
X113687500Y-83424999D03*
X113687500Y-84724999D03*
%TD*%
D21*
%TO.C,D5*%
X151062500Y-132050000D03*
X151062500Y-133950000D03*
X152937500Y-133000000D03*
%TD*%
D19*
%TO.C,C44*%
X129825000Y-120700000D03*
X128275000Y-120700000D03*
%TD*%
D22*
%TO.C,R20*%
X166650000Y-105000000D03*
X165000000Y-105000000D03*
%TD*%
D21*
%TO.C,D4*%
X150887500Y-124050000D03*
X150887500Y-125950000D03*
X152762500Y-125000000D03*
%TD*%
D14*
%TO.C,C33*%
X165225000Y-141000000D03*
X166775000Y-141000000D03*
%TD*%
%TO.C,C41*%
X132685000Y-114290000D03*
X134235000Y-114290000D03*
%TD*%
D23*
%TO.C,JP11*%
X172625000Y-130600000D03*
X173925000Y-130600000D03*
%TD*%
D22*
%TO.C,R2*%
X117220000Y-114300000D03*
X115570000Y-114300000D03*
%TD*%
D17*
%TO.C,R59*%
X139050000Y-125525000D03*
X139050000Y-123875000D03*
%TD*%
D24*
%TO.C,J10*%
X113100000Y-99975000D03*
D25*
X114370000Y-99975000D03*
X115640000Y-99975000D03*
X116910000Y-99975000D03*
%TD*%
D16*
%TO.C,C9*%
X160825000Y-110225000D03*
X160825000Y-111775000D03*
%TD*%
D17*
%TO.C,R25*%
X170825000Y-108825000D03*
X170825000Y-107175000D03*
%TD*%
D15*
%TO.C,R35*%
X169000000Y-128000000D03*
X170650000Y-128000000D03*
%TD*%
D14*
%TO.C,C8*%
X161050000Y-114000000D03*
X162600000Y-114000000D03*
%TD*%
D18*
%TO.C,JP12*%
X140460000Y-107440000D03*
X140460000Y-106140000D03*
%TD*%
D24*
%TO.C,J9*%
X113100000Y-96075000D03*
D25*
X114370000Y-96075000D03*
X115640000Y-96075000D03*
X116910000Y-96075000D03*
%TD*%
D16*
%TO.C,C54*%
X129050000Y-138925000D03*
X129050000Y-140475000D03*
%TD*%
D23*
%TO.C,JP18*%
X122100000Y-53100000D03*
X123400000Y-53100000D03*
%TD*%
D14*
%TO.C,C30*%
X161225000Y-142000000D03*
X162775000Y-142000000D03*
%TD*%
D17*
%TO.C,R5*%
X115137500Y-88075000D03*
X115137500Y-86425000D03*
%TD*%
D26*
%TO.C,R43*%
X179000000Y-141175000D03*
X179000000Y-142825000D03*
%TD*%
D17*
%TO.C,R41*%
X154825000Y-125825000D03*
X154825000Y-124175000D03*
%TD*%
D23*
%TO.C,JP6*%
X161175000Y-105000000D03*
X162475000Y-105000000D03*
%TD*%
D16*
%TO.C,C43*%
X130960000Y-110515000D03*
X130960000Y-112065000D03*
%TD*%
D27*
%TO.C,FB3*%
X129837500Y-133200000D03*
X128262500Y-133200000D03*
%TD*%
D23*
%TO.C,JP4*%
X143000000Y-143000000D03*
X144300000Y-143000000D03*
%TD*%
D19*
%TO.C,C57*%
X126025000Y-58500000D03*
X124475000Y-58500000D03*
%TD*%
%TO.C,C60*%
X119525000Y-59000000D03*
X117975000Y-59000000D03*
%TD*%
D14*
%TO.C,C7*%
X165050000Y-103000000D03*
X166600000Y-103000000D03*
%TD*%
%TO.C,C14*%
X151050000Y-108000000D03*
X152600000Y-108000000D03*
%TD*%
D28*
%TO.C,C17*%
X178825000Y-125775000D03*
X178825000Y-124225000D03*
%TD*%
D29*
%TO.C,H3*%
X105000000Y-140000000D03*
%TD*%
D28*
%TO.C,C27*%
X179000000Y-132775000D03*
X179000000Y-131225000D03*
%TD*%
D21*
%TO.C,D1*%
X150887500Y-104050000D03*
X150887500Y-105950000D03*
X152762500Y-105000000D03*
%TD*%
D30*
%TO.C,C63*%
X141250000Y-63525000D03*
X141250000Y-66475000D03*
%TD*%
D17*
%TO.C,R40*%
X154825000Y-119825000D03*
X154825000Y-118175000D03*
%TD*%
D15*
%TO.C,R13*%
X115570000Y-124460000D03*
X117220000Y-124460000D03*
%TD*%
D16*
%TO.C,C49*%
X130550000Y-124925000D03*
X130550000Y-126475000D03*
%TD*%
D31*
%TO.C,R38*%
X173825000Y-126810000D03*
D32*
X173825000Y-119190000D03*
%TD*%
D21*
%TO.C,D6*%
X151062500Y-138050000D03*
X151062500Y-139950000D03*
X152937500Y-139000000D03*
%TD*%
D15*
%TO.C,R11*%
X115570000Y-119380000D03*
X117220000Y-119380000D03*
%TD*%
D19*
%TO.C,C2*%
X120930000Y-119380000D03*
X119380000Y-119380000D03*
%TD*%
D16*
%TO.C,C48*%
X129050000Y-124925000D03*
X129050000Y-126475000D03*
%TD*%
D22*
%TO.C,R8*%
X124840000Y-116840000D03*
X123190000Y-116840000D03*
%TD*%
D15*
%TO.C,R12*%
X115570000Y-121920000D03*
X117220000Y-121920000D03*
%TD*%
D26*
%TO.C,R45*%
X177000000Y-134175000D03*
X177000000Y-135825000D03*
%TD*%
D31*
%TO.C,R52*%
X174000000Y-140810000D03*
D32*
X174000000Y-133190000D03*
%TD*%
D26*
%TO.C,R18*%
X176825000Y-110175000D03*
X176825000Y-111825000D03*
%TD*%
D21*
%TO.C,D2*%
X150887500Y-110050000D03*
X150887500Y-111950000D03*
X152762500Y-111000000D03*
%TD*%
D18*
%TO.C,JP16*%
X140050000Y-135850000D03*
X140050000Y-134550000D03*
%TD*%
D26*
%TO.C,R47*%
X177000000Y-141175000D03*
X177000000Y-142825000D03*
%TD*%
D31*
%TO.C,R50*%
X158000000Y-140810000D03*
D32*
X158000000Y-133190000D03*
%TD*%
D29*
%TO.C,H1*%
X105000000Y-55000000D03*
%TD*%
D18*
%TO.C,JP17*%
X142550000Y-135850000D03*
X142550000Y-134550000D03*
%TD*%
D16*
%TO.C,C34*%
X155000000Y-135225000D03*
X155000000Y-136775000D03*
%TD*%
D33*
%TO.C,U3*%
X163350000Y-107095000D03*
X163350000Y-108365000D03*
X163350000Y-109635000D03*
X163350000Y-110905000D03*
X168300000Y-110905000D03*
X168300000Y-109635000D03*
X168300000Y-108365000D03*
X168300000Y-107095000D03*
%TD*%
D17*
%TO.C,R23*%
X160825000Y-108825000D03*
X160825000Y-107175000D03*
%TD*%
D34*
%TO.C,U1*%
X183210000Y-75380000D03*
X183210000Y-72840000D03*
X183210000Y-70300000D03*
X180670000Y-75380000D03*
X180670000Y-72840000D03*
X180670000Y-70300000D03*
X178130000Y-75380000D03*
X178130000Y-72840000D03*
X178130000Y-70300000D03*
X175590000Y-75380000D03*
X175590000Y-72840000D03*
X175590000Y-70300000D03*
X173050000Y-75380000D03*
X173050000Y-72840000D03*
X173050000Y-70300000D03*
X170510000Y-75380000D03*
X170510000Y-72840000D03*
X170510000Y-70300000D03*
X167970000Y-75380000D03*
X167970000Y-72840000D03*
X167970000Y-70300000D03*
X165430000Y-75380000D03*
X165430000Y-72840000D03*
X165430000Y-70300000D03*
X162890000Y-75380000D03*
X162890000Y-72840000D03*
X162890000Y-70300000D03*
X160350000Y-75380000D03*
X160350000Y-72840000D03*
X160350000Y-70300000D03*
X157810000Y-75380000D03*
X157810000Y-72840000D03*
X157810000Y-70300000D03*
X155270000Y-75380000D03*
X155270000Y-72840000D03*
X155270000Y-70300000D03*
X152730000Y-75380000D03*
X152730000Y-72840000D03*
X152730000Y-70300000D03*
X150190000Y-75380000D03*
X150190000Y-72840000D03*
X150190000Y-70300000D03*
X147650000Y-75380000D03*
X147650000Y-72840000D03*
X147650000Y-70300000D03*
X145110000Y-75380000D03*
X145110000Y-72840000D03*
X145110000Y-70300000D03*
X142570000Y-75380000D03*
X142570000Y-72840000D03*
X142570000Y-70300000D03*
X140030000Y-75380000D03*
X140030000Y-72840000D03*
X140030000Y-70300000D03*
X137490000Y-75380000D03*
X137490000Y-72840000D03*
X137490000Y-70300000D03*
X134950000Y-75380000D03*
X134950000Y-72840000D03*
X134950000Y-70300000D03*
X132410000Y-75380000D03*
X132410000Y-72840000D03*
X132410000Y-70300000D03*
X129870000Y-75380000D03*
X129870000Y-72840000D03*
X129870000Y-70300000D03*
X127330000Y-75380000D03*
X127330000Y-72840000D03*
X127330000Y-70300000D03*
X124790000Y-75380000D03*
X124790000Y-72840000D03*
X124790000Y-70300000D03*
X124790000Y-95700000D03*
X124790000Y-93160000D03*
X124790000Y-90620000D03*
X127330000Y-95700000D03*
X127330000Y-93160000D03*
X127330000Y-90620000D03*
X129870000Y-95700000D03*
X129870000Y-93160000D03*
X129870000Y-90620000D03*
X132410000Y-95700000D03*
X132410000Y-93160000D03*
X132410000Y-90620000D03*
X134950000Y-95700000D03*
X134950000Y-93160000D03*
X134950000Y-90620000D03*
X137490000Y-95700000D03*
X137490000Y-93160000D03*
X137490000Y-90620000D03*
X140030000Y-95700000D03*
X140030000Y-93160000D03*
X140030000Y-90620000D03*
X142570000Y-95700000D03*
X142570000Y-93160000D03*
X142570000Y-90620000D03*
X145110000Y-95700000D03*
X145110000Y-93160000D03*
X145110000Y-90620000D03*
X147650000Y-95700000D03*
X147650000Y-93160000D03*
X147650000Y-90620000D03*
X150190000Y-95700000D03*
X150190000Y-93160000D03*
X150190000Y-90620000D03*
X152730000Y-95700000D03*
X152730000Y-93160000D03*
X152730000Y-90620000D03*
X155270000Y-95700000D03*
X155270000Y-93160000D03*
X155270000Y-90620000D03*
X157810000Y-95700000D03*
X157810000Y-93160000D03*
X157810000Y-90620000D03*
X160350000Y-95700000D03*
X160350000Y-93160000D03*
X160350000Y-90620000D03*
X162890000Y-95700000D03*
X162890000Y-93160000D03*
X162890000Y-90620000D03*
X165430000Y-95700000D03*
X165430000Y-93160000D03*
X165430000Y-90620000D03*
X167970000Y-95700000D03*
X167970000Y-93160000D03*
X167970000Y-90620000D03*
X170510000Y-95700000D03*
X170510000Y-93160000D03*
X170510000Y-90620000D03*
X173050000Y-95700000D03*
X173050000Y-93160000D03*
X173050000Y-90620000D03*
X175590000Y-95700000D03*
X175590000Y-93160000D03*
X175590000Y-90620000D03*
X178130000Y-95700000D03*
X178130000Y-93160000D03*
X178130000Y-90620000D03*
X180670000Y-95700000D03*
X180670000Y-93160000D03*
X180670000Y-90620000D03*
X183210000Y-95700000D03*
X183210000Y-93160000D03*
X183210000Y-90620000D03*
%TD*%
D28*
%TO.C,C16*%
X178825000Y-118775000D03*
X178825000Y-117225000D03*
%TD*%
D26*
%TO.C,R30*%
X176825000Y-117175000D03*
X176825000Y-118825000D03*
%TD*%
%TO.C,R44*%
X177000000Y-131175000D03*
X177000000Y-132825000D03*
%TD*%
D35*
%TO.C,U6*%
X132960000Y-109790000D03*
X132960000Y-110190000D03*
X132960000Y-110590000D03*
X132960000Y-110990000D03*
X132960000Y-111390000D03*
D36*
X133610000Y-112040000D03*
X134010000Y-112040000D03*
X134410000Y-112040000D03*
X134810000Y-112040000D03*
X135210000Y-112040000D03*
D35*
X135860000Y-111390000D03*
X135860000Y-110990000D03*
X135860000Y-110590000D03*
X135860000Y-110190000D03*
X135860000Y-109790000D03*
D36*
X135210000Y-109140000D03*
X134810000Y-109140000D03*
X134410000Y-109140000D03*
X134010000Y-109140000D03*
X133610000Y-109140000D03*
D37*
X134410000Y-110590000D03*
%TD*%
D19*
%TO.C,C62*%
X119525000Y-53000000D03*
X117975000Y-53000000D03*
%TD*%
D17*
%TO.C,R62*%
X139050000Y-139525000D03*
X139050000Y-137875000D03*
%TD*%
D14*
%TO.C,C46*%
X132775000Y-121200000D03*
X134325000Y-121200000D03*
%TD*%
%TO.C,C29*%
X165225000Y-131000000D03*
X166775000Y-131000000D03*
%TD*%
D26*
%TO.C,R65*%
X130750000Y-64675000D03*
X130750000Y-66325000D03*
%TD*%
D14*
%TO.C,C59*%
X132475000Y-66500000D03*
X134025000Y-66500000D03*
%TD*%
D22*
%TO.C,R48*%
X166825000Y-133000000D03*
X165175000Y-133000000D03*
%TD*%
D21*
%TO.C,D3*%
X150887500Y-118050000D03*
X150887500Y-119950000D03*
X152762500Y-119000000D03*
%TD*%
D17*
%TO.C,R63*%
X140550000Y-139525000D03*
X140550000Y-137875000D03*
%TD*%
D19*
%TO.C,C51*%
X129825000Y-136200000D03*
X128275000Y-136200000D03*
%TD*%
D14*
%TO.C,C53*%
X132275000Y-142700000D03*
X133825000Y-142700000D03*
%TD*%
D15*
%TO.C,R49*%
X169175000Y-142000000D03*
X170825000Y-142000000D03*
%TD*%
D38*
%TO.C,U10*%
X119125000Y-56950000D03*
X119125000Y-55050000D03*
X117250000Y-56000000D03*
%TD*%
D28*
%TO.C,C5*%
X178825000Y-104775000D03*
X178825000Y-103225000D03*
%TD*%
D17*
%TO.C,R60*%
X140550000Y-125525000D03*
X140550000Y-123875000D03*
%TD*%
D16*
%TO.C,C21*%
X170825000Y-124225000D03*
X170825000Y-125775000D03*
%TD*%
D23*
%TO.C,JP7*%
X172450000Y-102600000D03*
X173750000Y-102600000D03*
%TD*%
D17*
%TO.C,R39*%
X170825000Y-122825000D03*
X170825000Y-121175000D03*
%TD*%
D26*
%TO.C,R15*%
X178825000Y-113175000D03*
X178825000Y-114825000D03*
%TD*%
D22*
%TO.C,R6*%
X124840000Y-119380000D03*
X123190000Y-119380000D03*
%TD*%
%TO.C,R7*%
X124840000Y-124460000D03*
X123190000Y-124460000D03*
%TD*%
D24*
%TO.C,J8*%
X113100000Y-92075000D03*
D25*
X114370000Y-92075000D03*
X115640000Y-92075000D03*
X116910000Y-92075000D03*
%TD*%
D17*
%TO.C,R37*%
X160825000Y-122825000D03*
X160825000Y-121175000D03*
%TD*%
D26*
%TO.C,R66*%
X138250000Y-64675000D03*
X138250000Y-66325000D03*
%TD*%
D14*
%TO.C,C52*%
X132775000Y-135200000D03*
X134325000Y-135200000D03*
%TD*%
D39*
%TO.C,J7*%
X114000000Y-140500000D03*
X114000000Y-143000000D03*
X119000000Y-135500000D03*
X124000000Y-140500000D03*
X124000000Y-143000000D03*
D40*
X114000000Y-135500000D03*
D41*
X116500000Y-135500000D03*
D42*
X119000000Y-140500000D03*
D40*
X124000000Y-135500000D03*
D43*
X121500000Y-135500000D03*
%TD*%
D26*
%TO.C,R31*%
X176825000Y-120175000D03*
X176825000Y-121825000D03*
%TD*%
D23*
%TO.C,JP5*%
X139000000Y-143000000D03*
X140300000Y-143000000D03*
%TD*%
D27*
%TO.C,FB1*%
X130247500Y-104790000D03*
X128672500Y-104790000D03*
%TD*%
D17*
%TO.C,R58*%
X137960000Y-107615000D03*
X137960000Y-105965000D03*
%TD*%
D26*
%TO.C,R46*%
X177000000Y-138175000D03*
X177000000Y-139825000D03*
%TD*%
D14*
%TO.C,C47*%
X132275000Y-128700000D03*
X133825000Y-128700000D03*
%TD*%
D17*
%TO.C,R27*%
X154825000Y-111825000D03*
X154825000Y-110175000D03*
%TD*%
D26*
%TO.C,R33*%
X176825000Y-127175000D03*
X176825000Y-128825000D03*
%TD*%
D33*
%TO.C,U5*%
X163525000Y-135095000D03*
X163525000Y-136365000D03*
X163525000Y-137635000D03*
X163525000Y-138905000D03*
X168475000Y-138905000D03*
X168475000Y-137635000D03*
X168475000Y-136365000D03*
X168475000Y-135095000D03*
%TD*%
D19*
%TO.C,C50*%
X129825000Y-134700000D03*
X128275000Y-134700000D03*
%TD*%
D18*
%TO.C,JP14*%
X140050000Y-121850000D03*
X140050000Y-120550000D03*
%TD*%
D28*
%TO.C,C6*%
X178825000Y-111775000D03*
X178825000Y-110225000D03*
%TD*%
%TO.C,C28*%
X179000000Y-139775000D03*
X179000000Y-138225000D03*
%TD*%
D16*
%TO.C,C12*%
X154825000Y-107225000D03*
X154825000Y-108775000D03*
%TD*%
D14*
%TO.C,C19*%
X161050000Y-128000000D03*
X162600000Y-128000000D03*
%TD*%
D35*
%TO.C,U8*%
X132550000Y-138200000D03*
X132550000Y-138600000D03*
X132550000Y-139000000D03*
X132550000Y-139400000D03*
X132550000Y-139800000D03*
D36*
X133200000Y-140450000D03*
X133600000Y-140450000D03*
X134000000Y-140450000D03*
X134400000Y-140450000D03*
X134800000Y-140450000D03*
D35*
X135450000Y-139800000D03*
X135450000Y-139400000D03*
X135450000Y-139000000D03*
X135450000Y-138600000D03*
X135450000Y-138200000D03*
D36*
X134800000Y-137550000D03*
X134400000Y-137550000D03*
X134000000Y-137550000D03*
X133600000Y-137550000D03*
X133200000Y-137550000D03*
D37*
X134000000Y-139000000D03*
%TD*%
D26*
%TO.C,R17*%
X176825000Y-106175000D03*
X176825000Y-107825000D03*
%TD*%
D18*
%TO.C,JP3*%
X117137500Y-83424999D03*
X117137500Y-84724999D03*
%TD*%
D24*
%TO.C,J3*%
X108517500Y-71725000D03*
D25*
X109787500Y-71725000D03*
X111057500Y-71725000D03*
X112327500Y-71725000D03*
X113597500Y-71725000D03*
X114867500Y-71725000D03*
X116137500Y-71725000D03*
X117407500Y-71725000D03*
X118677500Y-71725000D03*
X119947500Y-71725000D03*
%TD*%
D16*
%TO.C,C31*%
X161000000Y-138225000D03*
X161000000Y-139775000D03*
%TD*%
D14*
%TO.C,C36*%
X151225000Y-136000000D03*
X152775000Y-136000000D03*
%TD*%
D29*
%TO.C,H4*%
X185000000Y-140000000D03*
%TD*%
D14*
%TO.C,C25*%
X151050000Y-122000000D03*
X152600000Y-122000000D03*
%TD*%
D18*
%TO.C,JP1*%
X110137500Y-83425000D03*
X110137500Y-84725000D03*
%TD*%
D14*
%TO.C,C18*%
X165050000Y-117000000D03*
X166600000Y-117000000D03*
%TD*%
D26*
%TO.C,R32*%
X176825000Y-124175000D03*
X176825000Y-125825000D03*
%TD*%
D16*
%TO.C,C42*%
X129460000Y-110515000D03*
X129460000Y-112065000D03*
%TD*%
D26*
%TO.C,R29*%
X178825000Y-127175000D03*
X178825000Y-128825000D03*
%TD*%
D33*
%TO.C,U4*%
X163350000Y-121095000D03*
X163350000Y-122365000D03*
X163350000Y-123635000D03*
X163350000Y-124905000D03*
X168300000Y-124905000D03*
X168300000Y-123635000D03*
X168300000Y-122365000D03*
X168300000Y-121095000D03*
%TD*%
D14*
%TO.C,C22*%
X165050000Y-127000000D03*
X166600000Y-127000000D03*
%TD*%
D31*
%TO.C,R24*%
X173825000Y-112810000D03*
D32*
X173825000Y-105190000D03*
%TD*%
D23*
%TO.C,JP9*%
X172450000Y-116600000D03*
X173750000Y-116600000D03*
%TD*%
D16*
%TO.C,C32*%
X171000000Y-138225000D03*
X171000000Y-139775000D03*
%TD*%
D33*
%TO.C,U9*%
X122775000Y-60595000D03*
X122775000Y-61865000D03*
X122775000Y-63135000D03*
X122775000Y-64405000D03*
X127725000Y-64405000D03*
X127725000Y-63135000D03*
X127725000Y-61865000D03*
X127725000Y-60595000D03*
%TD*%
D19*
%TO.C,C45*%
X129825000Y-122200000D03*
X128275000Y-122200000D03*
%TD*%
D29*
%TO.C,H2*%
X185000000Y-55000000D03*
%TD*%
D26*
%TO.C,R14*%
X178825000Y-106175000D03*
X178825000Y-107825000D03*
%TD*%
D23*
%TO.C,JP8*%
X161175000Y-119000000D03*
X162475000Y-119000000D03*
%TD*%
D14*
%TO.C,C37*%
X151225000Y-142000000D03*
X152775000Y-142000000D03*
%TD*%
D19*
%TO.C,C38*%
X130235000Y-106290000D03*
X128685000Y-106290000D03*
%TD*%
D14*
%TO.C,C40*%
X133185000Y-106790000D03*
X134735000Y-106790000D03*
%TD*%
D15*
%TO.C,R21*%
X169000000Y-114000000D03*
X170650000Y-114000000D03*
%TD*%
D16*
%TO.C,C23*%
X154825000Y-121225000D03*
X154825000Y-122775000D03*
%TD*%
D22*
%TO.C,R1*%
X117220000Y-111760000D03*
X115570000Y-111760000D03*
%TD*%
D19*
%TO.C,C3*%
X120930000Y-121920000D03*
X119380000Y-121920000D03*
%TD*%
D22*
%TO.C,R9*%
X124840000Y-121920000D03*
X123190000Y-121920000D03*
%TD*%
D44*
%TO.C,U2*%
X111137500Y-74425000D03*
X111137500Y-75075000D03*
X111137500Y-75725000D03*
X111137500Y-76375000D03*
X111137500Y-77025000D03*
X111137500Y-77675000D03*
X111137500Y-78325000D03*
X111137500Y-78975000D03*
X111137500Y-79625000D03*
X111137500Y-80275000D03*
X111137500Y-80925000D03*
X111137500Y-81575000D03*
X116862500Y-81575000D03*
X116862500Y-80925000D03*
X116862500Y-80275000D03*
X116862500Y-79625000D03*
X116862500Y-78975000D03*
X116862500Y-78325000D03*
X116862500Y-77675000D03*
X116862500Y-77025000D03*
X116862500Y-76375000D03*
X116862500Y-75725000D03*
X116862500Y-75075000D03*
X116862500Y-74425000D03*
%TD*%
D17*
%TO.C,R53*%
X171000000Y-136825000D03*
X171000000Y-135175000D03*
%TD*%
D31*
%TO.C,R22*%
X157825000Y-112810000D03*
D32*
X157825000Y-105190000D03*
%TD*%
D16*
%TO.C,C35*%
X155000000Y-141225000D03*
X155000000Y-142775000D03*
%TD*%
D17*
%TO.C,R26*%
X154825000Y-105825000D03*
X154825000Y-104175000D03*
%TD*%
D14*
%TO.C,C1*%
X119380000Y-116840000D03*
X120930000Y-116840000D03*
%TD*%
D22*
%TO.C,R34*%
X166650000Y-119000000D03*
X165000000Y-119000000D03*
%TD*%
D18*
%TO.C,JP13*%
X142960000Y-107440000D03*
X142960000Y-106140000D03*
%TD*%
D45*
%TO.C,J2*%
X104060000Y-101600000D03*
D46*
X106600000Y-101600000D03*
X104060000Y-104140000D03*
X106600000Y-104140000D03*
X104060000Y-106680000D03*
X106600000Y-106680000D03*
X104060000Y-109220000D03*
X106600000Y-109220000D03*
X104060000Y-111760000D03*
X106600000Y-111760000D03*
X104060000Y-114300000D03*
X106600000Y-114300000D03*
X104060000Y-116840000D03*
X106600000Y-116840000D03*
X104060000Y-119380000D03*
X106600000Y-119380000D03*
X104060000Y-121920000D03*
X106600000Y-121920000D03*
X104060000Y-124460000D03*
X106600000Y-124460000D03*
X104060000Y-127000000D03*
X106600000Y-127000000D03*
X104060000Y-129540000D03*
X106600000Y-129540000D03*
%TD*%
D17*
%TO.C,R61*%
X137550000Y-122025000D03*
X137550000Y-120375000D03*
%TD*%
D14*
%TO.C,C61*%
X132475000Y-64500000D03*
X134025000Y-64500000D03*
%TD*%
D35*
%TO.C,U7*%
X132550000Y-124200000D03*
X132550000Y-124600000D03*
X132550000Y-125000000D03*
X132550000Y-125400000D03*
X132550000Y-125800000D03*
D36*
X133200000Y-126450000D03*
X133600000Y-126450000D03*
X134000000Y-126450000D03*
X134400000Y-126450000D03*
X134800000Y-126450000D03*
D35*
X135450000Y-125800000D03*
X135450000Y-125400000D03*
X135450000Y-125000000D03*
X135450000Y-124600000D03*
X135450000Y-124200000D03*
D36*
X134800000Y-123550000D03*
X134400000Y-123550000D03*
X134000000Y-123550000D03*
X133600000Y-123550000D03*
X133200000Y-123550000D03*
D37*
X134000000Y-125000000D03*
%TD*%
D31*
%TO.C,R36*%
X157825000Y-126810000D03*
D32*
X157825000Y-119190000D03*
%TD*%
D16*
%TO.C,C10*%
X170825000Y-110225000D03*
X170825000Y-111775000D03*
%TD*%
D17*
%TO.C,R56*%
X139460000Y-111115000D03*
X139460000Y-109465000D03*
%TD*%
D14*
%TO.C,C15*%
X151050000Y-114000000D03*
X152600000Y-114000000D03*
%TD*%
D26*
%TO.C,R19*%
X176825000Y-113175000D03*
X176825000Y-114825000D03*
%TD*%
D27*
%TO.C,FB2*%
X129837500Y-119200000D03*
X128262500Y-119200000D03*
%TD*%
D19*
%TO.C,C58*%
X119025000Y-64500000D03*
X117475000Y-64500000D03*
%TD*%
D47*
%TO.C,J5*%
X184400000Y-133250000D03*
X184400000Y-131750000D03*
X184400000Y-130250000D03*
X184400000Y-128750000D03*
X184400000Y-127250000D03*
X184400000Y-125750000D03*
X184400000Y-124250000D03*
X184400000Y-122750000D03*
%TD*%
D17*
%TO.C,R54*%
X155000000Y-133825000D03*
X155000000Y-132175000D03*
%TD*%
%TO.C,R51*%
X161000000Y-136825000D03*
X161000000Y-135175000D03*
%TD*%
D16*
%TO.C,C55*%
X130550000Y-138925000D03*
X130550000Y-140475000D03*
%TD*%
D26*
%TO.C,R28*%
X178825000Y-120175000D03*
X178825000Y-121825000D03*
%TD*%
%TO.C,R16*%
X176825000Y-103175000D03*
X176825000Y-104825000D03*
%TD*%
%TO.C,R67*%
X136250000Y-64675000D03*
X136250000Y-66325000D03*
%TD*%
D48*
%TO.C,D7*%
X131250000Y-61500000D03*
X135250000Y-61500000D03*
%TD*%
D19*
%TO.C,C4*%
X120930000Y-124460000D03*
X119380000Y-124460000D03*
%TD*%
D26*
%TO.C,R42*%
X179000000Y-134175000D03*
X179000000Y-135825000D03*
%TD*%
D16*
%TO.C,C24*%
X154825000Y-127225000D03*
X154825000Y-128775000D03*
%TD*%
D18*
%TO.C,JP15*%
X142550000Y-121850000D03*
X142550000Y-120550000D03*
%TD*%
D17*
%TO.C,R3*%
X111137500Y-88075000D03*
X111137500Y-86425000D03*
%TD*%
%TO.C,R64*%
X137550000Y-136025000D03*
X137550000Y-134375000D03*
%TD*%
D45*
%TO.C,J4*%
X185000000Y-118080000D03*
D46*
X185000000Y-115540000D03*
X185000000Y-113000000D03*
X185000000Y-110460000D03*
X185000000Y-107920000D03*
X185000000Y-105380000D03*
X185000000Y-102840000D03*
X185000000Y-100300000D03*
%TD*%
D16*
%TO.C,C20*%
X160825000Y-124225000D03*
X160825000Y-125775000D03*
%TD*%
D23*
%TO.C,JP10*%
X161350000Y-133000000D03*
X162650000Y-133000000D03*
%TD*%
D17*
%TO.C,R4*%
X113137500Y-88075000D03*
X113137500Y-86425000D03*
%TD*%
D49*
%TO.C,L1*%
X130000000Y-55000000D03*
X133000000Y-55000000D03*
%TD*%
D50*
%TO.C,J1*%
X149000000Y-64200000D03*
X150500000Y-64200000D03*
X152000000Y-64200000D03*
X153500000Y-64200000D03*
X155000000Y-64200000D03*
D51*
X157000000Y-60600000D03*
X147000000Y-60600000D03*
%TD*%
D45*
%TO.C,J6*%
X147000000Y-128620000D03*
D46*
X147000000Y-126080000D03*
X147000000Y-123540000D03*
X147000000Y-121000000D03*
X147000000Y-118460000D03*
X147000000Y-115920000D03*
X147000000Y-113380000D03*
X147000000Y-110840000D03*
%TD*%
D17*
%TO.C,R55*%
X155000000Y-139825000D03*
X155000000Y-138175000D03*
%TD*%
%LPD*%
M02*
