%TF.GenerationSoftware,KiCad,Pcbnew,7.0.2*%
%TF.CreationDate,2025-02-14T16:13:01+00:00*%
%TF.ProjectId,body,626f6479-2e6b-4696-9361-645f70636258,rev?*%
%TF.SameCoordinates,Original*%
%TF.FileFunction,Soldermask,Bot*%
%TF.FilePolarity,Negative*%
%FSLAX46Y46*%
G04 Gerber Fmt 4.6, Leading zero omitted, Abs format (unit mm)*
G04 Created by KiCad (PCBNEW 7.0.2) date 2025-02-14 16:13:01*
%MOMM*%
%LPD*%
G01*
G04 APERTURE LIST*
%ADD10O,1.700000X1.700000*%
%ADD11C,1.440000*%
%ADD12R,1.700000X1.700000*%
%ADD13C,3.200000*%
%ADD14O,2.200000X1.200000*%
%ADD15O,1.200000X2.200000*%
%ADD16O,1.170000X1.870000*%
%ADD17R,1.600000X1.600000*%
%ADD18C,1.600000*%
G04 APERTURE END LIST*
D10*
%TO.C,PB52*%
X183510000Y-68420000D03*
%TD*%
%TO.C,PB132*%
X183510000Y-119220000D03*
%TD*%
%TO.C,PB87*%
X175890000Y-96360000D03*
%TD*%
%TO.C,PB3*%
X173350000Y-65880000D03*
%TD*%
%TO.C,PB106*%
X178430000Y-114140000D03*
%TD*%
%TO.C,PB33*%
X178430000Y-81120000D03*
%TD*%
%TO.C,PB108*%
X178430000Y-119220000D03*
%TD*%
%TO.C,PB102*%
X178430000Y-103980000D03*
%TD*%
D11*
%TO.C,RV6*%
X105540000Y-52460000D03*
X103000000Y-55000000D03*
X105540000Y-57540000D03*
%TD*%
D12*
%TO.C,J6*%
X113380000Y-141000000D03*
D10*
X115920000Y-141000000D03*
X118460000Y-141000000D03*
X121000000Y-141000000D03*
X123540000Y-141000000D03*
X126080000Y-141000000D03*
%TD*%
%TO.C,PB6*%
X173350000Y-73500000D03*
%TD*%
%TO.C,PB85*%
X175890000Y-91280000D03*
%TD*%
%TO.C,PB113*%
X180970000Y-101440000D03*
%TD*%
%TO.C,PB92*%
X175890000Y-109060000D03*
%TD*%
%TO.C,PB8*%
X173350000Y-78580000D03*
%TD*%
%TO.C,PB32*%
X178430000Y-78580000D03*
%TD*%
%TO.C,PB56*%
X183510000Y-78580000D03*
%TD*%
%TO.C,PB47*%
X180970000Y-86200000D03*
%TD*%
%TO.C,PB60*%
X183510000Y-88740000D03*
%TD*%
%TO.C,PB68*%
X186050000Y-78580000D03*
%TD*%
%TO.C,PB26*%
X178430000Y-63340000D03*
%TD*%
%TO.C,PB97*%
X178430000Y-91280000D03*
%TD*%
%TO.C,PB5*%
X173350000Y-70960000D03*
%TD*%
%TO.C,PB73*%
X173350000Y-91280000D03*
%TD*%
%TO.C,PB143*%
X186050000Y-116680000D03*
%TD*%
%TO.C,PB61*%
X186050000Y-60800000D03*
%TD*%
D12*
%TO.C,J7*%
X160500000Y-141300000D03*
D10*
X160500000Y-138760000D03*
X160500000Y-136220000D03*
X160500000Y-133680000D03*
%TD*%
%TO.C,PB118*%
X180970000Y-114140000D03*
%TD*%
%TO.C,PB44*%
X180970000Y-78580000D03*
%TD*%
%TO.C,PB69*%
X186050000Y-81120000D03*
%TD*%
%TO.C,PB96*%
X175890000Y-119220000D03*
%TD*%
%TO.C,PB53*%
X183510000Y-70960000D03*
%TD*%
%TO.C,PB136*%
X186050000Y-98900000D03*
%TD*%
%TO.C,PB63*%
X186050000Y-65880000D03*
%TD*%
%TO.C,PB76*%
X173350000Y-98900000D03*
%TD*%
D13*
%TO.C,H3*%
X105000000Y-140000000D03*
%TD*%
D10*
%TO.C,PB4*%
X173350000Y-68420000D03*
%TD*%
%TO.C,PB75*%
X173350000Y-96360000D03*
%TD*%
%TO.C,PB17*%
X175890000Y-70960000D03*
%TD*%
%TO.C,PB30*%
X178430000Y-73500000D03*
%TD*%
%TO.C,PB34*%
X178430000Y-83660000D03*
%TD*%
%TO.C,PB64*%
X186050000Y-68420000D03*
%TD*%
%TO.C,PB131*%
X183510000Y-116680000D03*
%TD*%
%TO.C,PB126*%
X183510000Y-103980000D03*
%TD*%
D11*
%TO.C,RV4*%
X105540000Y-76460000D03*
X103000000Y-79000000D03*
X105540000Y-81540000D03*
%TD*%
D10*
%TO.C,PB135*%
X186050000Y-96360000D03*
%TD*%
%TO.C,PB18*%
X175890000Y-73500000D03*
%TD*%
%TO.C,PB127*%
X183510000Y-106520000D03*
%TD*%
%TO.C,PB81*%
X173350000Y-111600000D03*
%TD*%
%TO.C,PB125*%
X183510000Y-101440000D03*
%TD*%
D13*
%TO.C,H1*%
X105000000Y-30000000D03*
%TD*%
D10*
%TO.C,PB117*%
X180970000Y-111600000D03*
%TD*%
%TO.C,PB77*%
X173350000Y-101440000D03*
%TD*%
%TO.C,PB54*%
X183510000Y-73500000D03*
%TD*%
%TO.C,PB41*%
X180970000Y-70960000D03*
%TD*%
%TO.C,PB138*%
X186050000Y-103980000D03*
%TD*%
%TO.C,PB10*%
X173350000Y-83660000D03*
%TD*%
%TO.C,PB142*%
X186050000Y-114140000D03*
%TD*%
%TO.C,PB66*%
X186050000Y-73500000D03*
%TD*%
%TO.C,PB109*%
X180970000Y-91280000D03*
%TD*%
%TO.C,PB20*%
X175890000Y-78580000D03*
%TD*%
%TO.C,PB43*%
X180970000Y-76040000D03*
%TD*%
%TO.C,PB104*%
X178430000Y-109060000D03*
%TD*%
D11*
%TO.C,RV1*%
X105540000Y-88460000D03*
X103000000Y-91000000D03*
X105540000Y-93540000D03*
%TD*%
D10*
%TO.C,PB7*%
X173350000Y-76040000D03*
%TD*%
D11*
%TO.C,RV3*%
X105540000Y-64460000D03*
X103000000Y-67000000D03*
X105540000Y-69540000D03*
%TD*%
D10*
%TO.C,PB112*%
X180970000Y-98900000D03*
%TD*%
%TO.C,PB62*%
X186050000Y-63340000D03*
%TD*%
%TO.C,PB119*%
X180970000Y-116680000D03*
%TD*%
%TO.C,PB22*%
X175890000Y-83660000D03*
%TD*%
%TO.C,PB78*%
X173350000Y-103980000D03*
%TD*%
%TO.C,PB9*%
X173350000Y-81120000D03*
%TD*%
%TO.C,PB137*%
X186050000Y-101440000D03*
%TD*%
%TO.C,PB80*%
X173350000Y-109060000D03*
%TD*%
%TO.C,PB111*%
X180970000Y-96360000D03*
%TD*%
%TO.C,PB86*%
X175890000Y-93820000D03*
%TD*%
D11*
%TO.C,RV2*%
X105540000Y-100460000D03*
X103000000Y-103000000D03*
X105540000Y-105540000D03*
%TD*%
D10*
%TO.C,PB21*%
X175890000Y-81120000D03*
%TD*%
%TO.C,PB128*%
X183510000Y-109060000D03*
%TD*%
%TO.C,PB120*%
X180970000Y-119220000D03*
%TD*%
%TO.C,PB79*%
X173350000Y-106520000D03*
%TD*%
%TO.C,PB94*%
X175890000Y-114140000D03*
%TD*%
%TO.C,PB98*%
X178430000Y-93820000D03*
%TD*%
%TO.C,PB39*%
X180970000Y-65880000D03*
%TD*%
%TO.C,PB99*%
X178430000Y-96360000D03*
%TD*%
%TO.C,PB1*%
X173350000Y-60800000D03*
%TD*%
%TO.C,PB115*%
X180970000Y-106520000D03*
%TD*%
%TO.C,PB114*%
X180970000Y-103980000D03*
%TD*%
%TO.C,PB103*%
X178430000Y-106520000D03*
%TD*%
%TO.C,PB46*%
X180970000Y-83660000D03*
%TD*%
%TO.C,PB133*%
X186050000Y-91280000D03*
%TD*%
%TO.C,PB82*%
X173350000Y-114140000D03*
%TD*%
%TO.C,PB36*%
X178430000Y-88740000D03*
%TD*%
%TO.C,PB140*%
X186050000Y-109060000D03*
%TD*%
%TO.C,PB15*%
X175890000Y-65880000D03*
%TD*%
%TO.C,PB71*%
X186050000Y-86200000D03*
%TD*%
%TO.C,PB59*%
X183510000Y-86200000D03*
%TD*%
%TO.C,PB24*%
X175890000Y-88740000D03*
%TD*%
D13*
%TO.C,H4*%
X185000000Y-140000000D03*
%TD*%
D10*
%TO.C,PB38*%
X180970000Y-63340000D03*
%TD*%
%TO.C,PB144*%
X186050000Y-119220000D03*
%TD*%
%TO.C,PB83*%
X173350000Y-116680000D03*
%TD*%
%TO.C,PB14*%
X175890000Y-63340000D03*
%TD*%
%TO.C,PB55*%
X183510000Y-76040000D03*
%TD*%
%TO.C,PB105*%
X178430000Y-111600000D03*
%TD*%
%TO.C,PB42*%
X180970000Y-73500000D03*
%TD*%
%TO.C,PB88*%
X175890000Y-98900000D03*
%TD*%
D11*
%TO.C,RV5*%
X105540000Y-40460000D03*
X103000000Y-43000000D03*
X105540000Y-45540000D03*
%TD*%
D10*
%TO.C,PB121*%
X183510000Y-91280000D03*
%TD*%
D13*
%TO.C,H2*%
X185000000Y-30000000D03*
%TD*%
D10*
%TO.C,PB37*%
X180970000Y-60800000D03*
%TD*%
%TO.C,PB65*%
X186050000Y-70960000D03*
%TD*%
%TO.C,PB116*%
X180970000Y-109060000D03*
%TD*%
%TO.C,PB50*%
X183510000Y-63340000D03*
%TD*%
%TO.C,PB123*%
X183510000Y-96360000D03*
%TD*%
%TO.C,PB139*%
X186050000Y-106520000D03*
%TD*%
%TO.C,PB130*%
X183510000Y-114140000D03*
%TD*%
%TO.C,PB12*%
X173350000Y-88740000D03*
%TD*%
%TO.C,PB27*%
X178430000Y-65880000D03*
%TD*%
%TO.C,PB95*%
X175890000Y-116680000D03*
%TD*%
%TO.C,PB91*%
X175890000Y-106520000D03*
%TD*%
%TO.C,PB57*%
X183510000Y-81120000D03*
%TD*%
%TO.C,PB134*%
X186050000Y-93820000D03*
%TD*%
%TO.C,PB100*%
X178430000Y-98900000D03*
%TD*%
%TO.C,PB16*%
X175890000Y-68420000D03*
%TD*%
%TO.C,PB11*%
X173350000Y-86200000D03*
%TD*%
%TO.C,PB40*%
X180970000Y-68420000D03*
%TD*%
%TO.C,PB101*%
X178430000Y-101440000D03*
%TD*%
%TO.C,PB25*%
X178430000Y-60800000D03*
%TD*%
%TO.C,PB2*%
X173350000Y-63340000D03*
%TD*%
%TO.C,PB23*%
X175890000Y-86200000D03*
%TD*%
%TO.C,PB93*%
X175890000Y-111600000D03*
%TD*%
%TO.C,PB72*%
X186050000Y-88740000D03*
%TD*%
%TO.C,PB84*%
X173350000Y-119220000D03*
%TD*%
%TO.C,PB58*%
X183510000Y-83660000D03*
%TD*%
%TO.C,PB110*%
X180970000Y-93820000D03*
%TD*%
%TO.C,PB51*%
X183510000Y-65880000D03*
%TD*%
%TO.C,PB141*%
X186050000Y-111600000D03*
%TD*%
%TO.C,PB29*%
X178430000Y-70960000D03*
%TD*%
%TO.C,PB70*%
X186050000Y-83660000D03*
%TD*%
D14*
%TO.C,J4*%
X180500000Y-47000000D03*
X180500000Y-44500000D03*
D15*
X185500000Y-42000000D03*
D14*
X180500000Y-37000000D03*
X180500000Y-39500000D03*
%TD*%
D10*
%TO.C,PB67*%
X186050000Y-76040000D03*
%TD*%
%TO.C,PB89*%
X175890000Y-101440000D03*
%TD*%
%TO.C,PB31*%
X178430000Y-76040000D03*
%TD*%
%TO.C,PB90*%
X175890000Y-103980000D03*
%TD*%
%TO.C,PB48*%
X180970000Y-88740000D03*
%TD*%
%TO.C,PB13*%
X175890000Y-60800000D03*
%TD*%
%TO.C,PB122*%
X183510000Y-93820000D03*
%TD*%
%TO.C,PB124*%
X183510000Y-98900000D03*
%TD*%
%TO.C,PB28*%
X178430000Y-68420000D03*
%TD*%
%TO.C,PB107*%
X178430000Y-116680000D03*
%TD*%
%TO.C,PB19*%
X175890000Y-76040000D03*
%TD*%
%TO.C,PB49*%
X183510000Y-60800000D03*
%TD*%
%TO.C,PB74*%
X173350000Y-93820000D03*
%TD*%
%TO.C,PB35*%
X178430000Y-86200000D03*
%TD*%
%TO.C,PB45*%
X180970000Y-81120000D03*
%TD*%
%TO.C,PB129*%
X183510000Y-111600000D03*
%TD*%
D12*
%TO.C,J5*%
X111000000Y-114760000D03*
D10*
X111000000Y-117300000D03*
X111000000Y-119840000D03*
X111000000Y-122380000D03*
X111000000Y-124920000D03*
X111000000Y-127460000D03*
X111000000Y-130000000D03*
%TD*%
D16*
%TO.C,J3*%
X130000000Y-87500000D03*
X128500000Y-87500000D03*
X127000000Y-87500000D03*
X125500000Y-87500000D03*
X124000000Y-87500000D03*
X122500000Y-87500000D03*
X121000000Y-87500000D03*
X119500000Y-87500000D03*
%TD*%
D12*
%TO.C,J2*%
X165000000Y-133625000D03*
D10*
X167540000Y-133625000D03*
%TD*%
D17*
%TO.C,U1*%
X150460000Y-119180000D03*
X153000000Y-119180000D03*
D18*
X150460000Y-116640000D03*
X153000000Y-116640000D03*
X150460000Y-114100000D03*
X153000000Y-114100000D03*
X150460000Y-111560000D03*
X153000000Y-111560000D03*
X150460000Y-109020000D03*
X153000000Y-109020000D03*
X150460000Y-106480000D03*
X153000000Y-106480000D03*
X150460000Y-103940000D03*
X153000000Y-103940000D03*
X150460000Y-101400000D03*
X153000000Y-101400000D03*
X150460000Y-98860000D03*
X153000000Y-98860000D03*
X150460000Y-96320000D03*
X153000000Y-96320000D03*
X150460000Y-93780000D03*
X153000000Y-93780000D03*
X150460000Y-91240000D03*
X153000000Y-91240000D03*
X150460000Y-88700000D03*
X153000000Y-88700000D03*
X150460000Y-86160000D03*
X153000000Y-86160000D03*
X150460000Y-83620000D03*
X153000000Y-83620000D03*
X150460000Y-81080000D03*
X153000000Y-81080000D03*
X150460000Y-78540000D03*
X153000000Y-78540000D03*
X150460000Y-76000000D03*
X153000000Y-76000000D03*
X150460000Y-73460000D03*
X153000000Y-73460000D03*
X150460000Y-70920000D03*
X153000000Y-70920000D03*
X150460000Y-68380000D03*
X153000000Y-68380000D03*
X150460000Y-65840000D03*
X153000000Y-65840000D03*
X150460000Y-63300000D03*
X153000000Y-63300000D03*
X150460000Y-60760000D03*
X153000000Y-60760000D03*
X168240000Y-60760000D03*
X170780000Y-60760000D03*
X168240000Y-63300000D03*
X170780000Y-63300000D03*
X168240000Y-65840000D03*
X170780000Y-65840000D03*
X168240000Y-68380000D03*
X170780000Y-68380000D03*
X168240000Y-70920000D03*
X170780000Y-70920000D03*
X168240000Y-73460000D03*
X170780000Y-73460000D03*
X168240000Y-76000000D03*
X170780000Y-76000000D03*
X168240000Y-78540000D03*
X170780000Y-78540000D03*
X168240000Y-81080000D03*
X170780000Y-81080000D03*
X168240000Y-83620000D03*
X170780000Y-83620000D03*
X168240000Y-86160000D03*
X170780000Y-86160000D03*
X168240000Y-88700000D03*
X170780000Y-88700000D03*
X168240000Y-91240000D03*
X170780000Y-91240000D03*
X168240000Y-93780000D03*
X170780000Y-93780000D03*
X168240000Y-96320000D03*
X170780000Y-96320000D03*
X168240000Y-98860000D03*
X170780000Y-98860000D03*
X168240000Y-101400000D03*
X170780000Y-101400000D03*
X168240000Y-103940000D03*
X170780000Y-103940000D03*
X168240000Y-106480000D03*
X170780000Y-106480000D03*
X168240000Y-109020000D03*
X170780000Y-109020000D03*
X168240000Y-111560000D03*
X170780000Y-111560000D03*
X168240000Y-114100000D03*
X170780000Y-114100000D03*
X168240000Y-116640000D03*
X170780000Y-116640000D03*
X168240000Y-119180000D03*
X170780000Y-119180000D03*
%TD*%
M02*
