%TF.GenerationSoftware,KiCad,Pcbnew,9.0.1*%
%TF.CreationDate,2025-05-25T21:46:02+01:00*%
%TF.ProjectId,body2,626f6479-322e-46b6-9963-61645f706362,rev?*%
%TF.SameCoordinates,Original*%
%TF.FileFunction,Legend,Bot*%
%TF.FilePolarity,Positive*%
%FSLAX46Y46*%
G04 Gerber Fmt 4.6, Leading zero omitted, Abs format (unit mm)*
G04 Created by KiCad (PCBNEW 9.0.1) date 2025-05-25 21:46:02*
%MOMM*%
%LPD*%
G01*
G04 APERTURE LIST*
%ADD10R,1.000000X1.000000*%
%ADD11C,1.000000*%
%ADD12C,3.200000*%
%ADD13C,1.600000*%
%ADD14O,1.600000X1.600000*%
%ADD15O,1.700000X1.700000*%
%ADD16C,1.200000*%
%ADD17O,1.200000X2.200000*%
%ADD18O,1.600000X2.300000*%
%ADD19O,2.200000X1.200000*%
%ADD20O,1.600000X2.500000*%
%ADD21R,1.700000X1.700000*%
%ADD22C,1.700000*%
%ADD23O,1.870000X1.170000*%
G04 APERTURE END LIST*
%LPC*%
D10*
%TO.C,J10*%
X113100000Y-99975000D03*
D11*
X114370000Y-99975000D03*
X115640000Y-99975000D03*
X116910000Y-99975000D03*
%TD*%
D10*
%TO.C,J9*%
X113100000Y-96075000D03*
D11*
X114370000Y-96075000D03*
X115640000Y-96075000D03*
X116910000Y-96075000D03*
%TD*%
D12*
%TO.C,H3*%
X105000000Y-140000000D03*
%TD*%
D13*
%TO.C,R38*%
X173825000Y-126810000D03*
D14*
X173825000Y-119190000D03*
%TD*%
D13*
%TO.C,R52*%
X174000000Y-140810000D03*
D14*
X174000000Y-133190000D03*
%TD*%
D13*
%TO.C,R50*%
X158000000Y-140810000D03*
D14*
X158000000Y-133190000D03*
%TD*%
D12*
%TO.C,H1*%
X105000000Y-55000000D03*
%TD*%
D15*
%TO.C,U1*%
X183210000Y-75380000D03*
X183210000Y-72840000D03*
X183210000Y-70300000D03*
X180670000Y-75380000D03*
X180670000Y-72840000D03*
X180670000Y-70300000D03*
X178130000Y-75380000D03*
X178130000Y-72840000D03*
X178130000Y-70300000D03*
X175590000Y-75380000D03*
X175590000Y-72840000D03*
X175590000Y-70300000D03*
X173050000Y-75380000D03*
X173050000Y-72840000D03*
X173050000Y-70300000D03*
X170510000Y-75380000D03*
X170510000Y-72840000D03*
X170510000Y-70300000D03*
X167970000Y-75380000D03*
X167970000Y-72840000D03*
X167970000Y-70300000D03*
X165430000Y-75380000D03*
X165430000Y-72840000D03*
X165430000Y-70300000D03*
X162890000Y-75380000D03*
X162890000Y-72840000D03*
X162890000Y-70300000D03*
X160350000Y-75380000D03*
X160350000Y-72840000D03*
X160350000Y-70300000D03*
X157810000Y-75380000D03*
X157810000Y-72840000D03*
X157810000Y-70300000D03*
X155270000Y-75380000D03*
X155270000Y-72840000D03*
X155270000Y-70300000D03*
X152730000Y-75380000D03*
X152730000Y-72840000D03*
X152730000Y-70300000D03*
X150190000Y-75380000D03*
X150190000Y-72840000D03*
X150190000Y-70300000D03*
X147650000Y-75380000D03*
X147650000Y-72840000D03*
X147650000Y-70300000D03*
X145110000Y-75380000D03*
X145110000Y-72840000D03*
X145110000Y-70300000D03*
X142570000Y-75380000D03*
X142570000Y-72840000D03*
X142570000Y-70300000D03*
X140030000Y-75380000D03*
X140030000Y-72840000D03*
X140030000Y-70300000D03*
X137490000Y-75380000D03*
X137490000Y-72840000D03*
X137490000Y-70300000D03*
X134950000Y-75380000D03*
X134950000Y-72840000D03*
X134950000Y-70300000D03*
X132410000Y-75380000D03*
X132410000Y-72840000D03*
X132410000Y-70300000D03*
X129870000Y-75380000D03*
X129870000Y-72840000D03*
X129870000Y-70300000D03*
X127330000Y-75380000D03*
X127330000Y-72840000D03*
X127330000Y-70300000D03*
X124790000Y-75380000D03*
X124790000Y-72840000D03*
X124790000Y-70300000D03*
X124790000Y-95700000D03*
X124790000Y-93160000D03*
X124790000Y-90620000D03*
X127330000Y-95700000D03*
X127330000Y-93160000D03*
X127330000Y-90620000D03*
X129870000Y-95700000D03*
X129870000Y-93160000D03*
X129870000Y-90620000D03*
X132410000Y-95700000D03*
X132410000Y-93160000D03*
X132410000Y-90620000D03*
X134950000Y-95700000D03*
X134950000Y-93160000D03*
X134950000Y-90620000D03*
X137490000Y-95700000D03*
X137490000Y-93160000D03*
X137490000Y-90620000D03*
X140030000Y-95700000D03*
X140030000Y-93160000D03*
X140030000Y-90620000D03*
X142570000Y-95700000D03*
X142570000Y-93160000D03*
X142570000Y-90620000D03*
X145110000Y-95700000D03*
X145110000Y-93160000D03*
X145110000Y-90620000D03*
X147650000Y-95700000D03*
X147650000Y-93160000D03*
X147650000Y-90620000D03*
X150190000Y-95700000D03*
X150190000Y-93160000D03*
X150190000Y-90620000D03*
X152730000Y-95700000D03*
X152730000Y-93160000D03*
X152730000Y-90620000D03*
X155270000Y-95700000D03*
X155270000Y-93160000D03*
X155270000Y-90620000D03*
X157810000Y-95700000D03*
X157810000Y-93160000D03*
X157810000Y-90620000D03*
X160350000Y-95700000D03*
X160350000Y-93160000D03*
X160350000Y-90620000D03*
X162890000Y-95700000D03*
X162890000Y-93160000D03*
X162890000Y-90620000D03*
X165430000Y-95700000D03*
X165430000Y-93160000D03*
X165430000Y-90620000D03*
X167970000Y-95700000D03*
X167970000Y-93160000D03*
X167970000Y-90620000D03*
X170510000Y-95700000D03*
X170510000Y-93160000D03*
X170510000Y-90620000D03*
X173050000Y-95700000D03*
X173050000Y-93160000D03*
X173050000Y-90620000D03*
X175590000Y-95700000D03*
X175590000Y-93160000D03*
X175590000Y-90620000D03*
X178130000Y-95700000D03*
X178130000Y-93160000D03*
X178130000Y-90620000D03*
X180670000Y-95700000D03*
X180670000Y-93160000D03*
X180670000Y-90620000D03*
X183210000Y-95700000D03*
X183210000Y-93160000D03*
X183210000Y-90620000D03*
%TD*%
D10*
%TO.C,J8*%
X113100000Y-92075000D03*
D11*
X114370000Y-92075000D03*
X115640000Y-92075000D03*
X116910000Y-92075000D03*
%TD*%
D16*
%TO.C,J7*%
X114000000Y-140500000D03*
X114000000Y-143000000D03*
X119000000Y-135500000D03*
X124000000Y-140500000D03*
X124000000Y-143000000D03*
D17*
X114000000Y-135500000D03*
D18*
X116500000Y-135500000D03*
D19*
X119000000Y-140500000D03*
D17*
X124000000Y-135500000D03*
D20*
X121500000Y-135500000D03*
%TD*%
D10*
%TO.C,J3*%
X108517500Y-71725000D03*
D11*
X109787500Y-71725000D03*
X111057500Y-71725000D03*
X112327500Y-71725000D03*
X113597500Y-71725000D03*
X114867500Y-71725000D03*
X116137500Y-71725000D03*
X117407500Y-71725000D03*
X118677500Y-71725000D03*
X119947500Y-71725000D03*
%TD*%
D12*
%TO.C,H4*%
X185000000Y-140000000D03*
%TD*%
D13*
%TO.C,R24*%
X173825000Y-112810000D03*
D14*
X173825000Y-105190000D03*
%TD*%
D12*
%TO.C,H2*%
X185000000Y-55000000D03*
%TD*%
D13*
%TO.C,R22*%
X157825000Y-112810000D03*
D14*
X157825000Y-105190000D03*
%TD*%
D21*
%TO.C,J2*%
X104060000Y-101600000D03*
D22*
X106600000Y-101600000D03*
X104060000Y-104140000D03*
X106600000Y-104140000D03*
X104060000Y-106680000D03*
X106600000Y-106680000D03*
X104060000Y-109220000D03*
X106600000Y-109220000D03*
X104060000Y-111760000D03*
X106600000Y-111760000D03*
X104060000Y-114300000D03*
X106600000Y-114300000D03*
X104060000Y-116840000D03*
X106600000Y-116840000D03*
X104060000Y-119380000D03*
X106600000Y-119380000D03*
X104060000Y-121920000D03*
X106600000Y-121920000D03*
X104060000Y-124460000D03*
X106600000Y-124460000D03*
X104060000Y-127000000D03*
X106600000Y-127000000D03*
X104060000Y-129540000D03*
X106600000Y-129540000D03*
%TD*%
D13*
%TO.C,R36*%
X157825000Y-126810000D03*
D14*
X157825000Y-119190000D03*
%TD*%
D23*
%TO.C,J5*%
X184400000Y-133250000D03*
X184400000Y-131750000D03*
X184400000Y-130250000D03*
X184400000Y-128750000D03*
X184400000Y-127250000D03*
X184400000Y-125750000D03*
X184400000Y-124250000D03*
X184400000Y-122750000D03*
%TD*%
D21*
%TO.C,J4*%
X185000000Y-118080000D03*
D22*
X185000000Y-115540000D03*
X185000000Y-113000000D03*
X185000000Y-110460000D03*
X185000000Y-107920000D03*
X185000000Y-105380000D03*
X185000000Y-102840000D03*
X185000000Y-100300000D03*
%TD*%
D21*
%TO.C,J6*%
X147000000Y-128620000D03*
D22*
X147000000Y-126080000D03*
X147000000Y-123540000D03*
X147000000Y-121000000D03*
X147000000Y-118460000D03*
X147000000Y-115920000D03*
X147000000Y-113380000D03*
X147000000Y-110840000D03*
%TD*%
%LPD*%
M02*
