M48
; DRILL file {KiCad 9.0.1} date 2025-05-25T21:46:02+0100
; FORMAT={-:-/ absolute / inch / decimal}
; #@! TF.CreationDate,2025-05-25T21:46:02+01:00
; #@! TF.GenerationSoftware,Kicad,Pcbnew,9.0.1
; #@! TF.FileFunction,Plated,1,4,PTH
FMAT,2
INCH
; #@! TA.AperFunction,Plated,PTH,ViaDrill
T1C0.0157
; #@! TA.AperFunction,Plated,PTH,ComponentDrill
T2C0.0157
; #@! TA.AperFunction,Plated,PTH,ComponentDrill
T3C0.0256
; #@! TA.AperFunction,Plated,PTH,ComponentDrill
T4C0.0276
; #@! TA.AperFunction,Plated,PTH,ComponentDrill
T5C0.0315
; #@! TA.AperFunction,Plated,PTH,ComponentDrill
T6C0.0394
%
G90
G05
T1
X4.0866Y-2.8898
X4.0984Y-2.8071
X4.1368Y-3.5276
X4.1654Y-3.5669
X4.1959Y-3.5984
X4.2244Y-3.6339
X4.3031Y-4.9528
X4.315Y-3.4134
X4.3189Y-2.9449
X4.3268Y-3.2205
X4.3425Y-4.4606
X4.374Y-4.5512
X4.4016Y-4.3583
X4.429Y-3.188
X4.4331Y-2.9843
X4.4362Y-3.4411
X4.4632Y-3.0984
X4.4882Y-3.1772
X4.4961Y-3.437
X4.5512Y-3.0
X4.5551Y-2.4724
X4.5551Y-2.9213
X4.6575Y-3.0
X4.6732Y-2.9606
X4.6811Y-4.4094
X4.6929Y-3.378
X4.703Y-3.0848
X4.7402Y-2.4961
X4.7544Y-4.4843
X4.8504Y-2.0157
X4.9134Y-4.9646
X4.9488Y-2.4094
X4.9961Y-4.1457
X4.9961Y-4.6339
X5.0079Y-4.7559
X5.0079Y-5.3071
X5.024Y-4.1886
X5.0472Y-4.4567
X5.0827Y-5.0276
X5.0827Y-5.5787
X5.0988Y-4.4602
X5.1535Y-5.0699
X5.1614Y-4.752
X5.1617Y-4.2916
X5.1654Y-4.2402
X5.1654Y-4.4646
X5.1654Y-5.2323
X5.189Y-4.1811
X5.1892Y-4.5419
X5.1894Y-4.3196
X5.2515Y-4.7239
X5.2541Y-5.0251
X5.2695Y-4.4579
X5.2717Y-3.3189
X5.2717Y-4.1654
X5.2717Y-5.2835
X5.2756Y-3.3661
X5.3071Y-5.0669
X5.3071Y-5.6181
X5.3346Y-4.5197
X5.3386Y-4.9794
X5.3504Y-4.7126
X5.3543Y-4.4134
X5.3561Y-4.7537
X5.358Y-4.8265
X5.3583Y-5.5306
X5.3612Y-5.4134
X5.3633Y-5.3729
X5.3741Y-4.2592
X5.378Y-4.9794
X5.3824Y-4.4409
X5.3858Y-4.8937
X5.3858Y-4.1378
X5.3858Y-4.8543
X5.3974Y-5.4293
X5.3976Y-5.5276
X5.4005Y-5.4686
X5.402Y-4.287
X5.4049Y-4.3263
X5.4055Y-4.9289
X5.4094Y-5.6378
X5.4134Y-2.4252
X5.4292Y-4.3729
X5.4337Y-5.5433
X5.4606Y-4.1772
X5.4606Y-5.311
X5.4658Y-4.6942
X5.4882Y-4.1457
X5.4964Y-5.4656
X5.5157Y-2.311
X5.5276Y-5.2323
X5.5906Y-4.0748
X5.622Y-4.0118
X5.622Y-5.5669
X5.6417Y-4.7047
X5.6496Y-2.6063
X5.6614Y-3.937
X5.6654Y-4.063
X5.689Y-5.5551
X5.7598Y-3.937
X5.815Y-2.2362
X5.874Y-4.6693
X5.878Y-4.1024
X5.878Y-4.9843
X5.8819Y-4.1811
X5.8819Y-4.748
X5.8858Y-4.8701
X5.8858Y-5.2008
X5.8858Y-5.2677
X5.8858Y-5.5276
X5.8937Y-4.3661
X5.8937Y-4.437
X5.9173Y-2.6181
X5.937Y-3.4685
X6.0669Y-5.6417
X6.1575Y-5.4016
X6.2953Y-3.3425
X6.2953Y-4.4921
X6.3031Y-5.5866
X6.3504Y-3.3504
X6.4646Y-5.1535
X6.4685Y-5.0354
X6.4961Y-4.2913
X6.4961Y-4.8425
X6.5Y-5.3858
X6.5472Y-4.499
X6.5945Y-3.2756
X6.6181Y-4.5276
X6.6417Y-4.1732
X6.6417Y-4.4055
X6.6417Y-4.7244
X6.6486Y-5.2756
X6.6772Y-4.9803
X6.6811Y-5.5315
X6.689Y-3.9764
X6.7756Y-4.8386
X6.7992Y-4.2874
X6.811Y-5.4567
X6.8189Y-4.374
X6.8228Y-4.9291
X6.9134Y-4.8189
X6.9134Y-5.0906
X6.9173Y-4.6339
X6.9173Y-4.8976
X6.9173Y-5.311
X6.9213Y-4.0669
X6.9213Y-4.2598
X6.9213Y-4.3346
X6.9213Y-5.1772
X6.9213Y-5.3622
X6.9252Y-4.5433
X6.9252Y-5.6417
X6.937Y-5.4094
T3
X4.2723Y-2.8238
X4.3223Y-2.8238
X4.3723Y-2.8238
X4.4223Y-2.8238
X4.4723Y-2.8238
X4.5223Y-2.8238
X4.5723Y-2.8238
X4.6223Y-2.8238
X4.6723Y-2.8238
X4.7223Y-2.8238
T4
X4.4528Y-3.625
X4.4528Y-3.7825
X4.4528Y-3.936
X4.5028Y-3.625
X4.5028Y-3.7825
X4.5028Y-3.936
X4.5528Y-3.625
X4.5528Y-3.7825
X4.5528Y-3.936
X4.6028Y-3.625
X4.6028Y-3.7825
X4.6028Y-3.936
X7.2598Y-4.8327
X7.2598Y-4.8917
X7.2598Y-4.9508
X7.2598Y-5.0098
X7.2598Y-5.0689
X7.2598Y-5.128
X7.2598Y-5.187
X7.2598Y-5.2461
T5
X6.2136Y-4.1413
X6.2136Y-4.4413
X6.2136Y-4.6925
X6.2136Y-4.9925
X6.2205Y-5.2437
X6.2205Y-5.5437
X6.8435Y-4.1413
X6.8435Y-4.4413
X6.8435Y-4.6925
X6.8435Y-4.9925
X6.8504Y-5.2437
X6.8504Y-5.5437
T6
X4.0969Y-4.0
X4.0969Y-4.1
X4.0969Y-4.2
X4.0969Y-4.3
X4.0969Y-4.4
X4.0969Y-4.5
X4.0969Y-4.6
X4.0969Y-4.7
X4.0969Y-4.8
X4.0969Y-4.9
X4.0969Y-5.0
X4.0969Y-5.1
X4.1969Y-4.0
X4.1969Y-4.1
X4.1969Y-4.2
X4.1969Y-4.3
X4.1969Y-4.4
X4.1969Y-4.5
X4.1969Y-4.6
X4.1969Y-4.7
X4.1969Y-4.8
X4.1969Y-4.9
X4.1969Y-5.0
X4.1969Y-5.1
X4.913Y-2.7677
X4.913Y-2.8677
X4.913Y-2.9677
X4.913Y-3.5677
X4.913Y-3.6677
X4.913Y-3.7677
X5.013Y-2.7677
X5.013Y-2.8677
X5.013Y-2.9677
X5.013Y-3.5677
X5.013Y-3.6677
X5.013Y-3.7677
X5.113Y-2.7677
X5.113Y-2.8677
X5.113Y-2.9677
X5.113Y-3.5677
X5.113Y-3.6677
X5.113Y-3.7677
X5.213Y-2.7677
X5.213Y-2.8677
X5.213Y-2.9677
X5.213Y-3.5677
X5.213Y-3.6677
X5.213Y-3.7677
X5.313Y-2.7677
X5.313Y-2.8677
X5.313Y-2.9677
X5.313Y-3.5677
X5.313Y-3.6677
X5.313Y-3.7677
X5.413Y-2.7677
X5.413Y-2.8677
X5.413Y-2.9677
X5.413Y-3.5677
X5.413Y-3.6677
X5.413Y-3.7677
X5.513Y-2.7677
X5.513Y-2.8677
X5.513Y-2.9677
X5.513Y-3.5677
X5.513Y-3.6677
X5.513Y-3.7677
X5.613Y-2.7677
X5.613Y-2.8677
X5.613Y-2.9677
X5.613Y-3.5677
X5.613Y-3.6677
X5.613Y-3.7677
X5.713Y-2.7677
X5.713Y-2.8677
X5.713Y-2.9677
X5.713Y-3.5677
X5.713Y-3.6677
X5.713Y-3.7677
X5.7874Y-4.3638
X5.7874Y-4.4638
X5.7874Y-4.5638
X5.7874Y-4.6638
X5.7874Y-4.7638
X5.7874Y-4.8638
X5.7874Y-4.9638
X5.7874Y-5.0638
X5.813Y-2.7677
X5.813Y-2.8677
X5.813Y-2.9677
X5.813Y-3.5677
X5.813Y-3.6677
X5.813Y-3.7677
X5.913Y-2.7677
X5.913Y-2.8677
X5.913Y-2.9677
X5.913Y-3.5677
X5.913Y-3.6677
X5.913Y-3.7677
X6.013Y-2.7677
X6.013Y-2.8677
X6.013Y-2.9677
X6.013Y-3.5677
X6.013Y-3.6677
X6.013Y-3.7677
X6.113Y-2.7677
X6.113Y-2.8677
X6.113Y-2.9677
X6.113Y-3.5677
X6.113Y-3.6677
X6.113Y-3.7677
X6.213Y-2.7677
X6.213Y-2.8677
X6.213Y-2.9677
X6.213Y-3.5677
X6.213Y-3.6677
X6.213Y-3.7677
X6.313Y-2.7677
X6.313Y-2.8677
X6.313Y-2.9677
X6.313Y-3.5677
X6.313Y-3.6677
X6.313Y-3.7677
X6.413Y-2.7677
X6.413Y-2.8677
X6.413Y-2.9677
X6.413Y-3.5677
X6.413Y-3.6677
X6.413Y-3.7677
X6.513Y-2.7677
X6.513Y-2.8677
X6.513Y-2.9677
X6.513Y-3.5677
X6.513Y-3.6677
X6.513Y-3.7677
X6.613Y-2.7677
X6.613Y-2.8677
X6.613Y-2.9677
X6.613Y-3.5677
X6.613Y-3.6677
X6.613Y-3.7677
X6.713Y-2.7677
X6.713Y-2.8677
X6.713Y-2.9677
X6.713Y-3.5677
X6.713Y-3.6677
X6.713Y-3.7677
X6.813Y-2.7677
X6.813Y-2.8677
X6.813Y-2.9677
X6.813Y-3.5677
X6.813Y-3.6677
X6.813Y-3.7677
X6.913Y-2.7677
X6.913Y-2.8677
X6.913Y-2.9677
X6.913Y-3.5677
X6.913Y-3.6677
X6.913Y-3.7677
X7.013Y-2.7677
X7.013Y-2.8677
X7.013Y-2.9677
X7.013Y-3.5677
X7.013Y-3.6677
X7.013Y-3.7677
X7.113Y-2.7677
X7.113Y-2.8677
X7.113Y-2.9677
X7.113Y-3.5677
X7.113Y-3.6677
X7.113Y-3.7677
X7.213Y-2.7677
X7.213Y-2.8677
X7.213Y-2.9677
X7.213Y-3.5677
X7.213Y-3.6677
X7.213Y-3.7677
X7.2835Y-3.9488
X7.2835Y-4.0488
X7.2835Y-4.1488
X7.2835Y-4.2488
X7.2835Y-4.3488
X7.2835Y-4.4488
X7.2835Y-4.5488
X7.2835Y-4.6488
T2
G00X4.4882Y-5.315
M15
G01X4.4882Y-5.3543
M16
G05
G00X4.6654Y-5.5315
M15
G01X4.7047Y-5.5315
M16
G05
G00X4.8819Y-5.3543
M15
G01X4.8819Y-5.315
M16
G05
T5
G00X4.5866Y-5.3209
M15
G01X4.5866Y-5.3484
M16
G05
G00X4.7835Y-5.3484
M15
G01X4.7835Y-5.3209
M16
G05
M30
