%TF.GenerationSoftware,KiCad,Pcbnew,7.0.2*%
%TF.CreationDate,2025-02-14T16:13:01+00:00*%
%TF.ProjectId,body,626f6479-2e6b-4696-9361-645f70636258,rev?*%
%TF.SameCoordinates,Original*%
%TF.FileFunction,Other,Comment*%
%FSLAX46Y46*%
G04 Gerber Fmt 4.6, Leading zero omitted, Abs format (unit mm)*
G04 Created by KiCad (PCBNEW 7.0.2) date 2025-02-14 16:13:01*
%MOMM*%
%LPD*%
G01*
G04 APERTURE LIST*
%ADD10C,0.150000*%
G04 APERTURE END LIST*
D10*
X139761904Y-96925238D02*
X139666666Y-96877619D01*
X139666666Y-96877619D02*
X139523809Y-96877619D01*
X139523809Y-96877619D02*
X139380952Y-96925238D01*
X139380952Y-96925238D02*
X139285714Y-97020476D01*
X139285714Y-97020476D02*
X139238095Y-97115714D01*
X139238095Y-97115714D02*
X139190476Y-97306190D01*
X139190476Y-97306190D02*
X139190476Y-97449047D01*
X139190476Y-97449047D02*
X139238095Y-97639523D01*
X139238095Y-97639523D02*
X139285714Y-97734761D01*
X139285714Y-97734761D02*
X139380952Y-97830000D01*
X139380952Y-97830000D02*
X139523809Y-97877619D01*
X139523809Y-97877619D02*
X139619047Y-97877619D01*
X139619047Y-97877619D02*
X139761904Y-97830000D01*
X139761904Y-97830000D02*
X139809523Y-97782380D01*
X139809523Y-97782380D02*
X139809523Y-97449047D01*
X139809523Y-97449047D02*
X139619047Y-97449047D01*
X140238095Y-97877619D02*
X140238095Y-96877619D01*
X140809523Y-97877619D02*
X140380952Y-97306190D01*
X140809523Y-96877619D02*
X140238095Y-97449047D01*
X141142857Y-96877619D02*
X141761904Y-96877619D01*
X141761904Y-96877619D02*
X141428571Y-97258571D01*
X141428571Y-97258571D02*
X141571428Y-97258571D01*
X141571428Y-97258571D02*
X141666666Y-97306190D01*
X141666666Y-97306190D02*
X141714285Y-97353809D01*
X141714285Y-97353809D02*
X141761904Y-97449047D01*
X141761904Y-97449047D02*
X141761904Y-97687142D01*
X141761904Y-97687142D02*
X141714285Y-97782380D01*
X141714285Y-97782380D02*
X141666666Y-97830000D01*
X141666666Y-97830000D02*
X141571428Y-97877619D01*
X141571428Y-97877619D02*
X141285714Y-97877619D01*
X141285714Y-97877619D02*
X141190476Y-97830000D01*
X141190476Y-97830000D02*
X141142857Y-97782380D01*
X143380952Y-97830000D02*
X143285714Y-97877619D01*
X143285714Y-97877619D02*
X143095238Y-97877619D01*
X143095238Y-97877619D02*
X143000000Y-97830000D01*
X143000000Y-97830000D02*
X142952381Y-97782380D01*
X142952381Y-97782380D02*
X142904762Y-97687142D01*
X142904762Y-97687142D02*
X142904762Y-97401428D01*
X142904762Y-97401428D02*
X142952381Y-97306190D01*
X142952381Y-97306190D02*
X143000000Y-97258571D01*
X143000000Y-97258571D02*
X143095238Y-97210952D01*
X143095238Y-97210952D02*
X143285714Y-97210952D01*
X143285714Y-97210952D02*
X143380952Y-97258571D01*
X144238095Y-97877619D02*
X144238095Y-97353809D01*
X144238095Y-97353809D02*
X144190476Y-97258571D01*
X144190476Y-97258571D02*
X144095238Y-97210952D01*
X144095238Y-97210952D02*
X143904762Y-97210952D01*
X143904762Y-97210952D02*
X143809524Y-97258571D01*
X144238095Y-97830000D02*
X144142857Y-97877619D01*
X144142857Y-97877619D02*
X143904762Y-97877619D01*
X143904762Y-97877619D02*
X143809524Y-97830000D01*
X143809524Y-97830000D02*
X143761905Y-97734761D01*
X143761905Y-97734761D02*
X143761905Y-97639523D01*
X143761905Y-97639523D02*
X143809524Y-97544285D01*
X143809524Y-97544285D02*
X143904762Y-97496666D01*
X143904762Y-97496666D02*
X144142857Y-97496666D01*
X144142857Y-97496666D02*
X144238095Y-97449047D01*
X144714286Y-97877619D02*
X144714286Y-96877619D01*
X144714286Y-97258571D02*
X144809524Y-97210952D01*
X144809524Y-97210952D02*
X145000000Y-97210952D01*
X145000000Y-97210952D02*
X145095238Y-97258571D01*
X145095238Y-97258571D02*
X145142857Y-97306190D01*
X145142857Y-97306190D02*
X145190476Y-97401428D01*
X145190476Y-97401428D02*
X145190476Y-97687142D01*
X145190476Y-97687142D02*
X145142857Y-97782380D01*
X145142857Y-97782380D02*
X145095238Y-97830000D01*
X145095238Y-97830000D02*
X145000000Y-97877619D01*
X145000000Y-97877619D02*
X144809524Y-97877619D01*
X144809524Y-97877619D02*
X144714286Y-97830000D01*
X145761905Y-97877619D02*
X145666667Y-97830000D01*
X145666667Y-97830000D02*
X145619048Y-97734761D01*
X145619048Y-97734761D02*
X145619048Y-96877619D01*
X146523810Y-97830000D02*
X146428572Y-97877619D01*
X146428572Y-97877619D02*
X146238096Y-97877619D01*
X146238096Y-97877619D02*
X146142858Y-97830000D01*
X146142858Y-97830000D02*
X146095239Y-97734761D01*
X146095239Y-97734761D02*
X146095239Y-97353809D01*
X146095239Y-97353809D02*
X146142858Y-97258571D01*
X146142858Y-97258571D02*
X146238096Y-97210952D01*
X146238096Y-97210952D02*
X146428572Y-97210952D01*
X146428572Y-97210952D02*
X146523810Y-97258571D01*
X146523810Y-97258571D02*
X146571429Y-97353809D01*
X146571429Y-97353809D02*
X146571429Y-97449047D01*
X146571429Y-97449047D02*
X146095239Y-97544285D01*
X40238095Y-162733809D02*
X40571428Y-162733809D01*
X40714285Y-163257619D02*
X40238095Y-163257619D01*
X40238095Y-163257619D02*
X40238095Y-162257619D01*
X40238095Y-162257619D02*
X40714285Y-162257619D01*
X41047619Y-163257619D02*
X41571428Y-162590952D01*
X41047619Y-162590952D02*
X41571428Y-163257619D01*
X41809524Y-162590952D02*
X42190476Y-162590952D01*
X41952381Y-162257619D02*
X41952381Y-163114761D01*
X41952381Y-163114761D02*
X42000000Y-163210000D01*
X42000000Y-163210000D02*
X42095238Y-163257619D01*
X42095238Y-163257619D02*
X42190476Y-163257619D01*
X42904762Y-163210000D02*
X42809524Y-163257619D01*
X42809524Y-163257619D02*
X42619048Y-163257619D01*
X42619048Y-163257619D02*
X42523810Y-163210000D01*
X42523810Y-163210000D02*
X42476191Y-163114761D01*
X42476191Y-163114761D02*
X42476191Y-162733809D01*
X42476191Y-162733809D02*
X42523810Y-162638571D01*
X42523810Y-162638571D02*
X42619048Y-162590952D01*
X42619048Y-162590952D02*
X42809524Y-162590952D01*
X42809524Y-162590952D02*
X42904762Y-162638571D01*
X42904762Y-162638571D02*
X42952381Y-162733809D01*
X42952381Y-162733809D02*
X42952381Y-162829047D01*
X42952381Y-162829047D02*
X42476191Y-162924285D01*
X43380953Y-163257619D02*
X43380953Y-162590952D01*
X43380953Y-162781428D02*
X43428572Y-162686190D01*
X43428572Y-162686190D02*
X43476191Y-162638571D01*
X43476191Y-162638571D02*
X43571429Y-162590952D01*
X43571429Y-162590952D02*
X43666667Y-162590952D01*
X44000001Y-162590952D02*
X44000001Y-163257619D01*
X44000001Y-162686190D02*
X44047620Y-162638571D01*
X44047620Y-162638571D02*
X44142858Y-162590952D01*
X44142858Y-162590952D02*
X44285715Y-162590952D01*
X44285715Y-162590952D02*
X44380953Y-162638571D01*
X44380953Y-162638571D02*
X44428572Y-162733809D01*
X44428572Y-162733809D02*
X44428572Y-163257619D01*
X45333334Y-163257619D02*
X45333334Y-162733809D01*
X45333334Y-162733809D02*
X45285715Y-162638571D01*
X45285715Y-162638571D02*
X45190477Y-162590952D01*
X45190477Y-162590952D02*
X45000001Y-162590952D01*
X45000001Y-162590952D02*
X44904763Y-162638571D01*
X45333334Y-163210000D02*
X45238096Y-163257619D01*
X45238096Y-163257619D02*
X45000001Y-163257619D01*
X45000001Y-163257619D02*
X44904763Y-163210000D01*
X44904763Y-163210000D02*
X44857144Y-163114761D01*
X44857144Y-163114761D02*
X44857144Y-163019523D01*
X44857144Y-163019523D02*
X44904763Y-162924285D01*
X44904763Y-162924285D02*
X45000001Y-162876666D01*
X45000001Y-162876666D02*
X45238096Y-162876666D01*
X45238096Y-162876666D02*
X45333334Y-162829047D01*
X45952382Y-163257619D02*
X45857144Y-163210000D01*
X45857144Y-163210000D02*
X45809525Y-163114761D01*
X45809525Y-163114761D02*
X45809525Y-162257619D01*
X47523811Y-163210000D02*
X47428573Y-163257619D01*
X47428573Y-163257619D02*
X47238097Y-163257619D01*
X47238097Y-163257619D02*
X47142859Y-163210000D01*
X47142859Y-163210000D02*
X47095240Y-163162380D01*
X47095240Y-163162380D02*
X47047621Y-163067142D01*
X47047621Y-163067142D02*
X47047621Y-162781428D01*
X47047621Y-162781428D02*
X47095240Y-162686190D01*
X47095240Y-162686190D02*
X47142859Y-162638571D01*
X47142859Y-162638571D02*
X47238097Y-162590952D01*
X47238097Y-162590952D02*
X47428573Y-162590952D01*
X47428573Y-162590952D02*
X47523811Y-162638571D01*
X48095240Y-163257619D02*
X48000002Y-163210000D01*
X48000002Y-163210000D02*
X47952383Y-163162380D01*
X47952383Y-163162380D02*
X47904764Y-163067142D01*
X47904764Y-163067142D02*
X47904764Y-162781428D01*
X47904764Y-162781428D02*
X47952383Y-162686190D01*
X47952383Y-162686190D02*
X48000002Y-162638571D01*
X48000002Y-162638571D02*
X48095240Y-162590952D01*
X48095240Y-162590952D02*
X48238097Y-162590952D01*
X48238097Y-162590952D02*
X48333335Y-162638571D01*
X48333335Y-162638571D02*
X48380954Y-162686190D01*
X48380954Y-162686190D02*
X48428573Y-162781428D01*
X48428573Y-162781428D02*
X48428573Y-163067142D01*
X48428573Y-163067142D02*
X48380954Y-163162380D01*
X48380954Y-163162380D02*
X48333335Y-163210000D01*
X48333335Y-163210000D02*
X48238097Y-163257619D01*
X48238097Y-163257619D02*
X48095240Y-163257619D01*
X48857145Y-162590952D02*
X48857145Y-163257619D01*
X48857145Y-162686190D02*
X48904764Y-162638571D01*
X48904764Y-162638571D02*
X49000002Y-162590952D01*
X49000002Y-162590952D02*
X49142859Y-162590952D01*
X49142859Y-162590952D02*
X49238097Y-162638571D01*
X49238097Y-162638571D02*
X49285716Y-162733809D01*
X49285716Y-162733809D02*
X49285716Y-163257619D01*
X49761907Y-162590952D02*
X49761907Y-163257619D01*
X49761907Y-162686190D02*
X49809526Y-162638571D01*
X49809526Y-162638571D02*
X49904764Y-162590952D01*
X49904764Y-162590952D02*
X50047621Y-162590952D01*
X50047621Y-162590952D02*
X50142859Y-162638571D01*
X50142859Y-162638571D02*
X50190478Y-162733809D01*
X50190478Y-162733809D02*
X50190478Y-163257619D01*
X51047621Y-163210000D02*
X50952383Y-163257619D01*
X50952383Y-163257619D02*
X50761907Y-163257619D01*
X50761907Y-163257619D02*
X50666669Y-163210000D01*
X50666669Y-163210000D02*
X50619050Y-163114761D01*
X50619050Y-163114761D02*
X50619050Y-162733809D01*
X50619050Y-162733809D02*
X50666669Y-162638571D01*
X50666669Y-162638571D02*
X50761907Y-162590952D01*
X50761907Y-162590952D02*
X50952383Y-162590952D01*
X50952383Y-162590952D02*
X51047621Y-162638571D01*
X51047621Y-162638571D02*
X51095240Y-162733809D01*
X51095240Y-162733809D02*
X51095240Y-162829047D01*
X51095240Y-162829047D02*
X50619050Y-162924285D01*
X51952383Y-163210000D02*
X51857145Y-163257619D01*
X51857145Y-163257619D02*
X51666669Y-163257619D01*
X51666669Y-163257619D02*
X51571431Y-163210000D01*
X51571431Y-163210000D02*
X51523812Y-163162380D01*
X51523812Y-163162380D02*
X51476193Y-163067142D01*
X51476193Y-163067142D02*
X51476193Y-162781428D01*
X51476193Y-162781428D02*
X51523812Y-162686190D01*
X51523812Y-162686190D02*
X51571431Y-162638571D01*
X51571431Y-162638571D02*
X51666669Y-162590952D01*
X51666669Y-162590952D02*
X51857145Y-162590952D01*
X51857145Y-162590952D02*
X51952383Y-162638571D01*
X52238098Y-162590952D02*
X52619050Y-162590952D01*
X52380955Y-162257619D02*
X52380955Y-163114761D01*
X52380955Y-163114761D02*
X52428574Y-163210000D01*
X52428574Y-163210000D02*
X52523812Y-163257619D01*
X52523812Y-163257619D02*
X52619050Y-163257619D01*
X52952384Y-163257619D02*
X52952384Y-162590952D01*
X52952384Y-162257619D02*
X52904765Y-162305238D01*
X52904765Y-162305238D02*
X52952384Y-162352857D01*
X52952384Y-162352857D02*
X53000003Y-162305238D01*
X53000003Y-162305238D02*
X52952384Y-162257619D01*
X52952384Y-162257619D02*
X52952384Y-162352857D01*
X53571431Y-163257619D02*
X53476193Y-163210000D01*
X53476193Y-163210000D02*
X53428574Y-163162380D01*
X53428574Y-163162380D02*
X53380955Y-163067142D01*
X53380955Y-163067142D02*
X53380955Y-162781428D01*
X53380955Y-162781428D02*
X53428574Y-162686190D01*
X53428574Y-162686190D02*
X53476193Y-162638571D01*
X53476193Y-162638571D02*
X53571431Y-162590952D01*
X53571431Y-162590952D02*
X53714288Y-162590952D01*
X53714288Y-162590952D02*
X53809526Y-162638571D01*
X53809526Y-162638571D02*
X53857145Y-162686190D01*
X53857145Y-162686190D02*
X53904764Y-162781428D01*
X53904764Y-162781428D02*
X53904764Y-163067142D01*
X53904764Y-163067142D02*
X53857145Y-163162380D01*
X53857145Y-163162380D02*
X53809526Y-163210000D01*
X53809526Y-163210000D02*
X53714288Y-163257619D01*
X53714288Y-163257619D02*
X53571431Y-163257619D01*
X54333336Y-162590952D02*
X54333336Y-163257619D01*
X54333336Y-162686190D02*
X54380955Y-162638571D01*
X54380955Y-162638571D02*
X54476193Y-162590952D01*
X54476193Y-162590952D02*
X54619050Y-162590952D01*
X54619050Y-162590952D02*
X54714288Y-162638571D01*
X54714288Y-162638571D02*
X54761907Y-162733809D01*
X54761907Y-162733809D02*
X54761907Y-163257619D01*
X56428574Y-163210000D02*
X56333336Y-163257619D01*
X56333336Y-163257619D02*
X56142860Y-163257619D01*
X56142860Y-163257619D02*
X56047622Y-163210000D01*
X56047622Y-163210000D02*
X56000003Y-163162380D01*
X56000003Y-163162380D02*
X55952384Y-163067142D01*
X55952384Y-163067142D02*
X55952384Y-162781428D01*
X55952384Y-162781428D02*
X56000003Y-162686190D01*
X56000003Y-162686190D02*
X56047622Y-162638571D01*
X56047622Y-162638571D02*
X56142860Y-162590952D01*
X56142860Y-162590952D02*
X56333336Y-162590952D01*
X56333336Y-162590952D02*
X56428574Y-162638571D01*
X57285717Y-163257619D02*
X57285717Y-162733809D01*
X57285717Y-162733809D02*
X57238098Y-162638571D01*
X57238098Y-162638571D02*
X57142860Y-162590952D01*
X57142860Y-162590952D02*
X56952384Y-162590952D01*
X56952384Y-162590952D02*
X56857146Y-162638571D01*
X57285717Y-163210000D02*
X57190479Y-163257619D01*
X57190479Y-163257619D02*
X56952384Y-163257619D01*
X56952384Y-163257619D02*
X56857146Y-163210000D01*
X56857146Y-163210000D02*
X56809527Y-163114761D01*
X56809527Y-163114761D02*
X56809527Y-163019523D01*
X56809527Y-163019523D02*
X56857146Y-162924285D01*
X56857146Y-162924285D02*
X56952384Y-162876666D01*
X56952384Y-162876666D02*
X57190479Y-162876666D01*
X57190479Y-162876666D02*
X57285717Y-162829047D01*
X57666670Y-162590952D02*
X57904765Y-163257619D01*
X57904765Y-163257619D02*
X58142860Y-162590952D01*
X58523813Y-163257619D02*
X58523813Y-162590952D01*
X58523813Y-162257619D02*
X58476194Y-162305238D01*
X58476194Y-162305238D02*
X58523813Y-162352857D01*
X58523813Y-162352857D02*
X58571432Y-162305238D01*
X58571432Y-162305238D02*
X58523813Y-162257619D01*
X58523813Y-162257619D02*
X58523813Y-162352857D01*
X58857146Y-162590952D02*
X59238098Y-162590952D01*
X59000003Y-162257619D02*
X59000003Y-163114761D01*
X59000003Y-163114761D02*
X59047622Y-163210000D01*
X59047622Y-163210000D02*
X59142860Y-163257619D01*
X59142860Y-163257619D02*
X59238098Y-163257619D01*
X59476194Y-162590952D02*
X59714289Y-163257619D01*
X59952384Y-162590952D02*
X59714289Y-163257619D01*
X59714289Y-163257619D02*
X59619051Y-163495714D01*
X59619051Y-163495714D02*
X59571432Y-163543333D01*
X59571432Y-163543333D02*
X59476194Y-163590952D01*
X61095242Y-163257619D02*
X61095242Y-162590952D01*
X61095242Y-162257619D02*
X61047623Y-162305238D01*
X61047623Y-162305238D02*
X61095242Y-162352857D01*
X61095242Y-162352857D02*
X61142861Y-162305238D01*
X61142861Y-162305238D02*
X61095242Y-162257619D01*
X61095242Y-162257619D02*
X61095242Y-162352857D01*
X61523813Y-163210000D02*
X61619051Y-163257619D01*
X61619051Y-163257619D02*
X61809527Y-163257619D01*
X61809527Y-163257619D02*
X61904765Y-163210000D01*
X61904765Y-163210000D02*
X61952384Y-163114761D01*
X61952384Y-163114761D02*
X61952384Y-163067142D01*
X61952384Y-163067142D02*
X61904765Y-162971904D01*
X61904765Y-162971904D02*
X61809527Y-162924285D01*
X61809527Y-162924285D02*
X61666670Y-162924285D01*
X61666670Y-162924285D02*
X61571432Y-162876666D01*
X61571432Y-162876666D02*
X61523813Y-162781428D01*
X61523813Y-162781428D02*
X61523813Y-162733809D01*
X61523813Y-162733809D02*
X61571432Y-162638571D01*
X61571432Y-162638571D02*
X61666670Y-162590952D01*
X61666670Y-162590952D02*
X61809527Y-162590952D01*
X61809527Y-162590952D02*
X61904765Y-162638571D01*
X63142861Y-163257619D02*
X63142861Y-162590952D01*
X63142861Y-162781428D02*
X63190480Y-162686190D01*
X63190480Y-162686190D02*
X63238099Y-162638571D01*
X63238099Y-162638571D02*
X63333337Y-162590952D01*
X63333337Y-162590952D02*
X63428575Y-162590952D01*
X63904766Y-163257619D02*
X63809528Y-163210000D01*
X63809528Y-163210000D02*
X63761909Y-163162380D01*
X63761909Y-163162380D02*
X63714290Y-163067142D01*
X63714290Y-163067142D02*
X63714290Y-162781428D01*
X63714290Y-162781428D02*
X63761909Y-162686190D01*
X63761909Y-162686190D02*
X63809528Y-162638571D01*
X63809528Y-162638571D02*
X63904766Y-162590952D01*
X63904766Y-162590952D02*
X64047623Y-162590952D01*
X64047623Y-162590952D02*
X64142861Y-162638571D01*
X64142861Y-162638571D02*
X64190480Y-162686190D01*
X64190480Y-162686190D02*
X64238099Y-162781428D01*
X64238099Y-162781428D02*
X64238099Y-163067142D01*
X64238099Y-163067142D02*
X64190480Y-163162380D01*
X64190480Y-163162380D02*
X64142861Y-163210000D01*
X64142861Y-163210000D02*
X64047623Y-163257619D01*
X64047623Y-163257619D02*
X63904766Y-163257619D01*
X65095242Y-162590952D02*
X65095242Y-163257619D01*
X64666671Y-162590952D02*
X64666671Y-163114761D01*
X64666671Y-163114761D02*
X64714290Y-163210000D01*
X64714290Y-163210000D02*
X64809528Y-163257619D01*
X64809528Y-163257619D02*
X64952385Y-163257619D01*
X64952385Y-163257619D02*
X65047623Y-163210000D01*
X65047623Y-163210000D02*
X65095242Y-163162380D01*
X66000004Y-162590952D02*
X66000004Y-163400476D01*
X66000004Y-163400476D02*
X65952385Y-163495714D01*
X65952385Y-163495714D02*
X65904766Y-163543333D01*
X65904766Y-163543333D02*
X65809528Y-163590952D01*
X65809528Y-163590952D02*
X65666671Y-163590952D01*
X65666671Y-163590952D02*
X65571433Y-163543333D01*
X66000004Y-163210000D02*
X65904766Y-163257619D01*
X65904766Y-163257619D02*
X65714290Y-163257619D01*
X65714290Y-163257619D02*
X65619052Y-163210000D01*
X65619052Y-163210000D02*
X65571433Y-163162380D01*
X65571433Y-163162380D02*
X65523814Y-163067142D01*
X65523814Y-163067142D02*
X65523814Y-162781428D01*
X65523814Y-162781428D02*
X65571433Y-162686190D01*
X65571433Y-162686190D02*
X65619052Y-162638571D01*
X65619052Y-162638571D02*
X65714290Y-162590952D01*
X65714290Y-162590952D02*
X65904766Y-162590952D01*
X65904766Y-162590952D02*
X66000004Y-162638571D01*
X66476195Y-163257619D02*
X66476195Y-162257619D01*
X66904766Y-163257619D02*
X66904766Y-162733809D01*
X66904766Y-162733809D02*
X66857147Y-162638571D01*
X66857147Y-162638571D02*
X66761909Y-162590952D01*
X66761909Y-162590952D02*
X66619052Y-162590952D01*
X66619052Y-162590952D02*
X66523814Y-162638571D01*
X66523814Y-162638571D02*
X66476195Y-162686190D01*
X67523814Y-163257619D02*
X67428576Y-163210000D01*
X67428576Y-163210000D02*
X67380957Y-163114761D01*
X67380957Y-163114761D02*
X67380957Y-162257619D01*
X67809529Y-162590952D02*
X68047624Y-163257619D01*
X68285719Y-162590952D02*
X68047624Y-163257619D01*
X68047624Y-163257619D02*
X67952386Y-163495714D01*
X67952386Y-163495714D02*
X67904767Y-163543333D01*
X67904767Y-163543333D02*
X67809529Y-163590952D01*
X69428577Y-163257619D02*
X69428577Y-162257619D01*
X69857148Y-163257619D02*
X69857148Y-162733809D01*
X69857148Y-162733809D02*
X69809529Y-162638571D01*
X69809529Y-162638571D02*
X69714291Y-162590952D01*
X69714291Y-162590952D02*
X69571434Y-162590952D01*
X69571434Y-162590952D02*
X69476196Y-162638571D01*
X69476196Y-162638571D02*
X69428577Y-162686190D01*
X70714291Y-163210000D02*
X70619053Y-163257619D01*
X70619053Y-163257619D02*
X70428577Y-163257619D01*
X70428577Y-163257619D02*
X70333339Y-163210000D01*
X70333339Y-163210000D02*
X70285720Y-163114761D01*
X70285720Y-163114761D02*
X70285720Y-162733809D01*
X70285720Y-162733809D02*
X70333339Y-162638571D01*
X70333339Y-162638571D02*
X70428577Y-162590952D01*
X70428577Y-162590952D02*
X70619053Y-162590952D01*
X70619053Y-162590952D02*
X70714291Y-162638571D01*
X70714291Y-162638571D02*
X70761910Y-162733809D01*
X70761910Y-162733809D02*
X70761910Y-162829047D01*
X70761910Y-162829047D02*
X70285720Y-162924285D01*
X71190482Y-163257619D02*
X71190482Y-162590952D01*
X71190482Y-162781428D02*
X71238101Y-162686190D01*
X71238101Y-162686190D02*
X71285720Y-162638571D01*
X71285720Y-162638571D02*
X71380958Y-162590952D01*
X71380958Y-162590952D02*
X71476196Y-162590952D01*
X72190482Y-163210000D02*
X72095244Y-163257619D01*
X72095244Y-163257619D02*
X71904768Y-163257619D01*
X71904768Y-163257619D02*
X71809530Y-163210000D01*
X71809530Y-163210000D02*
X71761911Y-163114761D01*
X71761911Y-163114761D02*
X71761911Y-162733809D01*
X71761911Y-162733809D02*
X71809530Y-162638571D01*
X71809530Y-162638571D02*
X71904768Y-162590952D01*
X71904768Y-162590952D02*
X72095244Y-162590952D01*
X72095244Y-162590952D02*
X72190482Y-162638571D01*
X72190482Y-162638571D02*
X72238101Y-162733809D01*
X72238101Y-162733809D02*
X72238101Y-162829047D01*
X72238101Y-162829047D02*
X71761911Y-162924285D01*
X40523809Y-165258571D02*
X40476190Y-165210952D01*
X40476190Y-165210952D02*
X40380952Y-165068095D01*
X40380952Y-165068095D02*
X40333333Y-164972857D01*
X40333333Y-164972857D02*
X40285714Y-164830000D01*
X40285714Y-164830000D02*
X40238095Y-164591904D01*
X40238095Y-164591904D02*
X40238095Y-164401428D01*
X40238095Y-164401428D02*
X40285714Y-164163333D01*
X40285714Y-164163333D02*
X40333333Y-164020476D01*
X40333333Y-164020476D02*
X40380952Y-163925238D01*
X40380952Y-163925238D02*
X40476190Y-163782380D01*
X40476190Y-163782380D02*
X40523809Y-163734761D01*
X40761905Y-164210952D02*
X41142857Y-164210952D01*
X40904762Y-164877619D02*
X40904762Y-164020476D01*
X40904762Y-164020476D02*
X40952381Y-163925238D01*
X40952381Y-163925238D02*
X41047619Y-163877619D01*
X41047619Y-163877619D02*
X41142857Y-163877619D01*
X41619048Y-164877619D02*
X41523810Y-164830000D01*
X41523810Y-164830000D02*
X41476191Y-164782380D01*
X41476191Y-164782380D02*
X41428572Y-164687142D01*
X41428572Y-164687142D02*
X41428572Y-164401428D01*
X41428572Y-164401428D02*
X41476191Y-164306190D01*
X41476191Y-164306190D02*
X41523810Y-164258571D01*
X41523810Y-164258571D02*
X41619048Y-164210952D01*
X41619048Y-164210952D02*
X41761905Y-164210952D01*
X41761905Y-164210952D02*
X41857143Y-164258571D01*
X41857143Y-164258571D02*
X41904762Y-164306190D01*
X41904762Y-164306190D02*
X41952381Y-164401428D01*
X41952381Y-164401428D02*
X41952381Y-164687142D01*
X41952381Y-164687142D02*
X41904762Y-164782380D01*
X41904762Y-164782380D02*
X41857143Y-164830000D01*
X41857143Y-164830000D02*
X41761905Y-164877619D01*
X41761905Y-164877619D02*
X41619048Y-164877619D01*
X42380953Y-164877619D02*
X42380953Y-164210952D01*
X42380953Y-164401428D02*
X42428572Y-164306190D01*
X42428572Y-164306190D02*
X42476191Y-164258571D01*
X42476191Y-164258571D02*
X42571429Y-164210952D01*
X42571429Y-164210952D02*
X42666667Y-164210952D01*
X43761906Y-164210952D02*
X43761906Y-165068095D01*
X43761906Y-165068095D02*
X43714287Y-165163333D01*
X43714287Y-165163333D02*
X43619049Y-165210952D01*
X43619049Y-165210952D02*
X43571430Y-165210952D01*
X43761906Y-163877619D02*
X43714287Y-163925238D01*
X43714287Y-163925238D02*
X43761906Y-163972857D01*
X43761906Y-163972857D02*
X43809525Y-163925238D01*
X43809525Y-163925238D02*
X43761906Y-163877619D01*
X43761906Y-163877619D02*
X43761906Y-163972857D01*
X44666667Y-164877619D02*
X44666667Y-164353809D01*
X44666667Y-164353809D02*
X44619048Y-164258571D01*
X44619048Y-164258571D02*
X44523810Y-164210952D01*
X44523810Y-164210952D02*
X44333334Y-164210952D01*
X44333334Y-164210952D02*
X44238096Y-164258571D01*
X44666667Y-164830000D02*
X44571429Y-164877619D01*
X44571429Y-164877619D02*
X44333334Y-164877619D01*
X44333334Y-164877619D02*
X44238096Y-164830000D01*
X44238096Y-164830000D02*
X44190477Y-164734761D01*
X44190477Y-164734761D02*
X44190477Y-164639523D01*
X44190477Y-164639523D02*
X44238096Y-164544285D01*
X44238096Y-164544285D02*
X44333334Y-164496666D01*
X44333334Y-164496666D02*
X44571429Y-164496666D01*
X44571429Y-164496666D02*
X44666667Y-164449047D01*
X45571429Y-164830000D02*
X45476191Y-164877619D01*
X45476191Y-164877619D02*
X45285715Y-164877619D01*
X45285715Y-164877619D02*
X45190477Y-164830000D01*
X45190477Y-164830000D02*
X45142858Y-164782380D01*
X45142858Y-164782380D02*
X45095239Y-164687142D01*
X45095239Y-164687142D02*
X45095239Y-164401428D01*
X45095239Y-164401428D02*
X45142858Y-164306190D01*
X45142858Y-164306190D02*
X45190477Y-164258571D01*
X45190477Y-164258571D02*
X45285715Y-164210952D01*
X45285715Y-164210952D02*
X45476191Y-164210952D01*
X45476191Y-164210952D02*
X45571429Y-164258571D01*
X46000001Y-164877619D02*
X46000001Y-163877619D01*
X46095239Y-164496666D02*
X46380953Y-164877619D01*
X46380953Y-164210952D02*
X46000001Y-164591904D01*
X47714287Y-164877619D02*
X47619049Y-164830000D01*
X47619049Y-164830000D02*
X47571430Y-164782380D01*
X47571430Y-164782380D02*
X47523811Y-164687142D01*
X47523811Y-164687142D02*
X47523811Y-164401428D01*
X47523811Y-164401428D02*
X47571430Y-164306190D01*
X47571430Y-164306190D02*
X47619049Y-164258571D01*
X47619049Y-164258571D02*
X47714287Y-164210952D01*
X47714287Y-164210952D02*
X47857144Y-164210952D01*
X47857144Y-164210952D02*
X47952382Y-164258571D01*
X47952382Y-164258571D02*
X48000001Y-164306190D01*
X48000001Y-164306190D02*
X48047620Y-164401428D01*
X48047620Y-164401428D02*
X48047620Y-164687142D01*
X48047620Y-164687142D02*
X48000001Y-164782380D01*
X48000001Y-164782380D02*
X47952382Y-164830000D01*
X47952382Y-164830000D02*
X47857144Y-164877619D01*
X47857144Y-164877619D02*
X47714287Y-164877619D01*
X48904763Y-164210952D02*
X48904763Y-164877619D01*
X48476192Y-164210952D02*
X48476192Y-164734761D01*
X48476192Y-164734761D02*
X48523811Y-164830000D01*
X48523811Y-164830000D02*
X48619049Y-164877619D01*
X48619049Y-164877619D02*
X48761906Y-164877619D01*
X48761906Y-164877619D02*
X48857144Y-164830000D01*
X48857144Y-164830000D02*
X48904763Y-164782380D01*
X49238097Y-164210952D02*
X49619049Y-164210952D01*
X49380954Y-163877619D02*
X49380954Y-164734761D01*
X49380954Y-164734761D02*
X49428573Y-164830000D01*
X49428573Y-164830000D02*
X49523811Y-164877619D01*
X49523811Y-164877619D02*
X49619049Y-164877619D01*
X50000002Y-164830000D02*
X50000002Y-164877619D01*
X50000002Y-164877619D02*
X49952383Y-164972857D01*
X49952383Y-164972857D02*
X49904764Y-165020476D01*
X51238097Y-164877619D02*
X51428573Y-164877619D01*
X51428573Y-164877619D02*
X51523811Y-164830000D01*
X51523811Y-164830000D02*
X51571430Y-164782380D01*
X51571430Y-164782380D02*
X51666668Y-164639523D01*
X51666668Y-164639523D02*
X51714287Y-164449047D01*
X51714287Y-164449047D02*
X51714287Y-164068095D01*
X51714287Y-164068095D02*
X51666668Y-163972857D01*
X51666668Y-163972857D02*
X51619049Y-163925238D01*
X51619049Y-163925238D02*
X51523811Y-163877619D01*
X51523811Y-163877619D02*
X51333335Y-163877619D01*
X51333335Y-163877619D02*
X51238097Y-163925238D01*
X51238097Y-163925238D02*
X51190478Y-163972857D01*
X51190478Y-163972857D02*
X51142859Y-164068095D01*
X51142859Y-164068095D02*
X51142859Y-164306190D01*
X51142859Y-164306190D02*
X51190478Y-164401428D01*
X51190478Y-164401428D02*
X51238097Y-164449047D01*
X51238097Y-164449047D02*
X51333335Y-164496666D01*
X51333335Y-164496666D02*
X51523811Y-164496666D01*
X51523811Y-164496666D02*
X51619049Y-164449047D01*
X51619049Y-164449047D02*
X51666668Y-164401428D01*
X51666668Y-164401428D02*
X51714287Y-164306190D01*
X52000002Y-163877619D02*
X52333335Y-164877619D01*
X52333335Y-164877619D02*
X52666668Y-163877619D01*
X53761907Y-164877619D02*
X53761907Y-164210952D01*
X53761907Y-163877619D02*
X53714288Y-163925238D01*
X53714288Y-163925238D02*
X53761907Y-163972857D01*
X53761907Y-163972857D02*
X53809526Y-163925238D01*
X53809526Y-163925238D02*
X53761907Y-163877619D01*
X53761907Y-163877619D02*
X53761907Y-163972857D01*
X54238097Y-164210952D02*
X54238097Y-164877619D01*
X54238097Y-164306190D02*
X54285716Y-164258571D01*
X54285716Y-164258571D02*
X54380954Y-164210952D01*
X54380954Y-164210952D02*
X54523811Y-164210952D01*
X54523811Y-164210952D02*
X54619049Y-164258571D01*
X54619049Y-164258571D02*
X54666668Y-164353809D01*
X54666668Y-164353809D02*
X54666668Y-164877619D01*
X55190478Y-164830000D02*
X55190478Y-164877619D01*
X55190478Y-164877619D02*
X55142859Y-164972857D01*
X55142859Y-164972857D02*
X55095240Y-165020476D01*
X56380954Y-164877619D02*
X56380954Y-163877619D01*
X56380954Y-163877619D02*
X56714287Y-164591904D01*
X56714287Y-164591904D02*
X57047620Y-163877619D01*
X57047620Y-163877619D02*
X57047620Y-164877619D01*
X57523811Y-164877619D02*
X57523811Y-163877619D01*
X58000001Y-164877619D02*
X58000001Y-163877619D01*
X58000001Y-163877619D02*
X58238096Y-163877619D01*
X58238096Y-163877619D02*
X58380953Y-163925238D01*
X58380953Y-163925238D02*
X58476191Y-164020476D01*
X58476191Y-164020476D02*
X58523810Y-164115714D01*
X58523810Y-164115714D02*
X58571429Y-164306190D01*
X58571429Y-164306190D02*
X58571429Y-164449047D01*
X58571429Y-164449047D02*
X58523810Y-164639523D01*
X58523810Y-164639523D02*
X58476191Y-164734761D01*
X58476191Y-164734761D02*
X58380953Y-164830000D01*
X58380953Y-164830000D02*
X58238096Y-164877619D01*
X58238096Y-164877619D02*
X58000001Y-164877619D01*
X59000001Y-164877619D02*
X59000001Y-163877619D01*
X60380953Y-164877619D02*
X60285715Y-164830000D01*
X60285715Y-164830000D02*
X60238096Y-164782380D01*
X60238096Y-164782380D02*
X60190477Y-164687142D01*
X60190477Y-164687142D02*
X60190477Y-164401428D01*
X60190477Y-164401428D02*
X60238096Y-164306190D01*
X60238096Y-164306190D02*
X60285715Y-164258571D01*
X60285715Y-164258571D02*
X60380953Y-164210952D01*
X60380953Y-164210952D02*
X60523810Y-164210952D01*
X60523810Y-164210952D02*
X60619048Y-164258571D01*
X60619048Y-164258571D02*
X60666667Y-164306190D01*
X60666667Y-164306190D02*
X60714286Y-164401428D01*
X60714286Y-164401428D02*
X60714286Y-164687142D01*
X60714286Y-164687142D02*
X60666667Y-164782380D01*
X60666667Y-164782380D02*
X60619048Y-164830000D01*
X60619048Y-164830000D02*
X60523810Y-164877619D01*
X60523810Y-164877619D02*
X60380953Y-164877619D01*
X61571429Y-164210952D02*
X61571429Y-164877619D01*
X61142858Y-164210952D02*
X61142858Y-164734761D01*
X61142858Y-164734761D02*
X61190477Y-164830000D01*
X61190477Y-164830000D02*
X61285715Y-164877619D01*
X61285715Y-164877619D02*
X61428572Y-164877619D01*
X61428572Y-164877619D02*
X61523810Y-164830000D01*
X61523810Y-164830000D02*
X61571429Y-164782380D01*
X61904763Y-164210952D02*
X62285715Y-164210952D01*
X62047620Y-163877619D02*
X62047620Y-164734761D01*
X62047620Y-164734761D02*
X62095239Y-164830000D01*
X62095239Y-164830000D02*
X62190477Y-164877619D01*
X62190477Y-164877619D02*
X62285715Y-164877619D01*
X62666668Y-164830000D02*
X62666668Y-164877619D01*
X62666668Y-164877619D02*
X62619049Y-164972857D01*
X62619049Y-164972857D02*
X62571430Y-165020476D01*
X63857144Y-164877619D02*
X63857144Y-163877619D01*
X64285715Y-164877619D02*
X64285715Y-164353809D01*
X64285715Y-164353809D02*
X64238096Y-164258571D01*
X64238096Y-164258571D02*
X64142858Y-164210952D01*
X64142858Y-164210952D02*
X64000001Y-164210952D01*
X64000001Y-164210952D02*
X63904763Y-164258571D01*
X63904763Y-164258571D02*
X63857144Y-164306190D01*
X65142858Y-164830000D02*
X65047620Y-164877619D01*
X65047620Y-164877619D02*
X64857144Y-164877619D01*
X64857144Y-164877619D02*
X64761906Y-164830000D01*
X64761906Y-164830000D02*
X64714287Y-164734761D01*
X64714287Y-164734761D02*
X64714287Y-164353809D01*
X64714287Y-164353809D02*
X64761906Y-164258571D01*
X64761906Y-164258571D02*
X64857144Y-164210952D01*
X64857144Y-164210952D02*
X65047620Y-164210952D01*
X65047620Y-164210952D02*
X65142858Y-164258571D01*
X65142858Y-164258571D02*
X65190477Y-164353809D01*
X65190477Y-164353809D02*
X65190477Y-164449047D01*
X65190477Y-164449047D02*
X64714287Y-164544285D01*
X66047620Y-164877619D02*
X66047620Y-164353809D01*
X66047620Y-164353809D02*
X66000001Y-164258571D01*
X66000001Y-164258571D02*
X65904763Y-164210952D01*
X65904763Y-164210952D02*
X65714287Y-164210952D01*
X65714287Y-164210952D02*
X65619049Y-164258571D01*
X66047620Y-164830000D02*
X65952382Y-164877619D01*
X65952382Y-164877619D02*
X65714287Y-164877619D01*
X65714287Y-164877619D02*
X65619049Y-164830000D01*
X65619049Y-164830000D02*
X65571430Y-164734761D01*
X65571430Y-164734761D02*
X65571430Y-164639523D01*
X65571430Y-164639523D02*
X65619049Y-164544285D01*
X65619049Y-164544285D02*
X65714287Y-164496666D01*
X65714287Y-164496666D02*
X65952382Y-164496666D01*
X65952382Y-164496666D02*
X66047620Y-164449047D01*
X66952382Y-164877619D02*
X66952382Y-163877619D01*
X66952382Y-164830000D02*
X66857144Y-164877619D01*
X66857144Y-164877619D02*
X66666668Y-164877619D01*
X66666668Y-164877619D02*
X66571430Y-164830000D01*
X66571430Y-164830000D02*
X66523811Y-164782380D01*
X66523811Y-164782380D02*
X66476192Y-164687142D01*
X66476192Y-164687142D02*
X66476192Y-164401428D01*
X66476192Y-164401428D02*
X66523811Y-164306190D01*
X66523811Y-164306190D02*
X66571430Y-164258571D01*
X66571430Y-164258571D02*
X66666668Y-164210952D01*
X66666668Y-164210952D02*
X66857144Y-164210952D01*
X66857144Y-164210952D02*
X66952382Y-164258571D01*
X67428573Y-164210952D02*
X67428573Y-165210952D01*
X67428573Y-164258571D02*
X67523811Y-164210952D01*
X67523811Y-164210952D02*
X67714287Y-164210952D01*
X67714287Y-164210952D02*
X67809525Y-164258571D01*
X67809525Y-164258571D02*
X67857144Y-164306190D01*
X67857144Y-164306190D02*
X67904763Y-164401428D01*
X67904763Y-164401428D02*
X67904763Y-164687142D01*
X67904763Y-164687142D02*
X67857144Y-164782380D01*
X67857144Y-164782380D02*
X67809525Y-164830000D01*
X67809525Y-164830000D02*
X67714287Y-164877619D01*
X67714287Y-164877619D02*
X67523811Y-164877619D01*
X67523811Y-164877619D02*
X67428573Y-164830000D01*
X68333335Y-164877619D02*
X68333335Y-163877619D01*
X68761906Y-164877619D02*
X68761906Y-164353809D01*
X68761906Y-164353809D02*
X68714287Y-164258571D01*
X68714287Y-164258571D02*
X68619049Y-164210952D01*
X68619049Y-164210952D02*
X68476192Y-164210952D01*
X68476192Y-164210952D02*
X68380954Y-164258571D01*
X68380954Y-164258571D02*
X68333335Y-164306190D01*
X69380954Y-164877619D02*
X69285716Y-164830000D01*
X69285716Y-164830000D02*
X69238097Y-164782380D01*
X69238097Y-164782380D02*
X69190478Y-164687142D01*
X69190478Y-164687142D02*
X69190478Y-164401428D01*
X69190478Y-164401428D02*
X69238097Y-164306190D01*
X69238097Y-164306190D02*
X69285716Y-164258571D01*
X69285716Y-164258571D02*
X69380954Y-164210952D01*
X69380954Y-164210952D02*
X69523811Y-164210952D01*
X69523811Y-164210952D02*
X69619049Y-164258571D01*
X69619049Y-164258571D02*
X69666668Y-164306190D01*
X69666668Y-164306190D02*
X69714287Y-164401428D01*
X69714287Y-164401428D02*
X69714287Y-164687142D01*
X69714287Y-164687142D02*
X69666668Y-164782380D01*
X69666668Y-164782380D02*
X69619049Y-164830000D01*
X69619049Y-164830000D02*
X69523811Y-164877619D01*
X69523811Y-164877619D02*
X69380954Y-164877619D01*
X70142859Y-164210952D02*
X70142859Y-164877619D01*
X70142859Y-164306190D02*
X70190478Y-164258571D01*
X70190478Y-164258571D02*
X70285716Y-164210952D01*
X70285716Y-164210952D02*
X70428573Y-164210952D01*
X70428573Y-164210952D02*
X70523811Y-164258571D01*
X70523811Y-164258571D02*
X70571430Y-164353809D01*
X70571430Y-164353809D02*
X70571430Y-164877619D01*
X71428573Y-164830000D02*
X71333335Y-164877619D01*
X71333335Y-164877619D02*
X71142859Y-164877619D01*
X71142859Y-164877619D02*
X71047621Y-164830000D01*
X71047621Y-164830000D02*
X71000002Y-164734761D01*
X71000002Y-164734761D02*
X71000002Y-164353809D01*
X71000002Y-164353809D02*
X71047621Y-164258571D01*
X71047621Y-164258571D02*
X71142859Y-164210952D01*
X71142859Y-164210952D02*
X71333335Y-164210952D01*
X71333335Y-164210952D02*
X71428573Y-164258571D01*
X71428573Y-164258571D02*
X71476192Y-164353809D01*
X71476192Y-164353809D02*
X71476192Y-164449047D01*
X71476192Y-164449047D02*
X71000002Y-164544285D01*
X72809526Y-164877619D02*
X72714288Y-164830000D01*
X72714288Y-164830000D02*
X72666669Y-164782380D01*
X72666669Y-164782380D02*
X72619050Y-164687142D01*
X72619050Y-164687142D02*
X72619050Y-164401428D01*
X72619050Y-164401428D02*
X72666669Y-164306190D01*
X72666669Y-164306190D02*
X72714288Y-164258571D01*
X72714288Y-164258571D02*
X72809526Y-164210952D01*
X72809526Y-164210952D02*
X72952383Y-164210952D01*
X72952383Y-164210952D02*
X73047621Y-164258571D01*
X73047621Y-164258571D02*
X73095240Y-164306190D01*
X73095240Y-164306190D02*
X73142859Y-164401428D01*
X73142859Y-164401428D02*
X73142859Y-164687142D01*
X73142859Y-164687142D02*
X73095240Y-164782380D01*
X73095240Y-164782380D02*
X73047621Y-164830000D01*
X73047621Y-164830000D02*
X72952383Y-164877619D01*
X72952383Y-164877619D02*
X72809526Y-164877619D01*
X74000002Y-164210952D02*
X74000002Y-164877619D01*
X73571431Y-164210952D02*
X73571431Y-164734761D01*
X73571431Y-164734761D02*
X73619050Y-164830000D01*
X73619050Y-164830000D02*
X73714288Y-164877619D01*
X73714288Y-164877619D02*
X73857145Y-164877619D01*
X73857145Y-164877619D02*
X73952383Y-164830000D01*
X73952383Y-164830000D02*
X74000002Y-164782380D01*
X74333336Y-164210952D02*
X74714288Y-164210952D01*
X74476193Y-163877619D02*
X74476193Y-164734761D01*
X74476193Y-164734761D02*
X74523812Y-164830000D01*
X74523812Y-164830000D02*
X74619050Y-164877619D01*
X74619050Y-164877619D02*
X74714288Y-164877619D01*
X74952384Y-165258571D02*
X75000003Y-165210952D01*
X75000003Y-165210952D02*
X75095241Y-165068095D01*
X75095241Y-165068095D02*
X75142860Y-164972857D01*
X75142860Y-164972857D02*
X75190479Y-164830000D01*
X75190479Y-164830000D02*
X75238098Y-164591904D01*
X75238098Y-164591904D02*
X75238098Y-164401428D01*
X75238098Y-164401428D02*
X75190479Y-164163333D01*
X75190479Y-164163333D02*
X75142860Y-164020476D01*
X75142860Y-164020476D02*
X75095241Y-163925238D01*
X75095241Y-163925238D02*
X75000003Y-163782380D01*
X75000003Y-163782380D02*
X74952384Y-163734761D01*
%TO.C,H3*%
X108200000Y-140000000D02*
G75*
G03*
X108200000Y-140000000I-3200000J0D01*
G01*
%TO.C,H1*%
X108200000Y-30000000D02*
G75*
G03*
X108200000Y-30000000I-3200000J0D01*
G01*
%TO.C,H4*%
X188200000Y-140000000D02*
G75*
G03*
X188200000Y-140000000I-3200000J0D01*
G01*
%TO.C,H2*%
X188200000Y-30000000D02*
G75*
G03*
X188200000Y-30000000I-3200000J0D01*
G01*
%TD*%
M02*
